<svg xmlns="http://www.w3.org/2000/svg" viewBox="0 0 252.31 198.51"><g id="Layer_2" data-name="Layer 2"><g id="Layer_1-2" data-name="Layer 1"><g id="Layer_2-2" data-name="Layer 2"><path d="M.42,167.13C.3,162.39.2,157.65.07,152.91a59,59,0,0,1,.25-9.49c.3-2.28.51-4.58.63-6.88.2-3.87.23-7.75.47-11.61.23-3.7.66-7.38.93-11.07a97,97,0,0,0,.34-12.3,80.31,80.31,0,0,1,.08-11.71c.14-1.59,0-3.21,0-4.81,0-2.67.56-5.3.74-8,.14-2,.2-3.93.46-5.89.31-2.33.71-4.67.86-7s1.32-4.67,1.34-7.13a1,1,0,0,1,.93-1c1.62-.22,3.19-.94,4.82-.82,3.64.27,7.27-.15,10.9-.09,2.22,0,4.44-.34,6.67,0,.42.06.49-.4.68-.65C32.05,52,33.82,49.4,35.77,47a59.77,59.77,0,0,1,10.65-9.69A124,124,0,0,1,63.77,26a88.38,88.38,0,0,1,12.54-5.66,72.73,72.73,0,0,1,9.56-2.31,63.41,63.41,0,0,0,8.58-2.28,41.23,41.23,0,0,1,9.16-1.9,83.42,83.42,0,0,1,14.4-.23,93.77,93.77,0,0,1,12.43,1.23c4.17.85,8.44,1.25,12.52,2.53,3.3,1,6.52,2.29,9.88,3.13,1.27.31,2.29,1.2,3.48,1.72A83.93,83.93,0,0,1,167,27.46c2.35,1.46,4.58,3.12,7,4.51,3.39,2,6,4.9,9.06,7.23a84.67,84.67,0,0,1,12.13,11.51,31,31,0,0,1,4.65,7.08,1.21,1.21,0,0,0,1.3.8,6.39,6.39,0,0,1,2.68.15c.28.11.42-.06.54-.29a5.23,5.23,0,0,1,.59-.93c.49-.56.35-.89-.24-1.3-3.11-2.15-3.81-6-2.94-9.28a13.18,13.18,0,0,1,3.42-6.36,14.12,14.12,0,0,1,7.73-4.08c1.6-.23,3.17-.8,4.84-.45.36.08.63-.28.84-.61l8.29-13.1c.13-.21.37-.44.24-.73-.6-1.41-.35-2.9-.37-4.36a1.27,1.27,0,0,0-.84-1.31,1,1,0,0,1-.62-1.54c.57-1.24.79-2.69,1.68-3.71a5.77,5.77,0,0,0,1.53-2.9.5.5,0,0,1,.15-.26c1.9-1.95,3.42-4.38,5.8-5.75A13.25,13.25,0,0,1,242.76.11a20.17,20.17,0,0,0,4.65.47.83.83,0,0,1,.94.55,3.34,3.34,0,0,0,.59.93,11.28,11.28,0,0,1,2.95,7.59c.15,2.67.46,5.32.41,8a7.14,7.14,0,0,1-1.71,4.68c-.18.21-.32.5-.61.49-1-.06-1.27.63-1.59,1.4-.45,1.06-1.07,1.25-2.25,1.06a1.67,1.67,0,0,0-1.91.62,2.77,2.77,0,0,1-3,1.17c-1-.21-2,.24-3-.05-.09,0-.22.05-.29,0-1.4-.79-1.69.33-2.15,1.22-2,3.88-4.3,7.6-6.52,11.37-.5.86-.52,1.31.46,1.78A4.79,4.79,0,0,1,232,43.28c.07.11.18.28.26.28,1-.07,2.06.11,3.09.11.44,0,.39-.47.38-.8-.06-1.1-.15-2.2-.18-3.3a2.47,2.47,0,0,1,2.35-2.48c1.05-.09,2.06.2,3.09.21h4.91a15.28,15.28,0,0,0,3.88-.27c.47-.11.59,0,.62.45.19,2.85.82,5.68.57,8.57-.06.71-.35,1.14-1,1.22s-.9.51-1.41.69c-1.29.44-2.47-.11-3.64-.32a14.37,14.37,0,0,0-6.19-.12c-.46.12-.93.15-1.06-.54-.08-.43-.48-.27-.75-.21a7.49,7.49,0,0,1-4,.23c-.14,0-.32-.09-.35,0-.19.75-.94,1.39-.69,2.2a5.67,5.67,0,0,1-1.06,5.27,12,12,0,0,1-5.89,4.25c-.28.1-.77,0-.78.45a1.14,1.14,0,0,0,.49,1.17c.08,0,.22.08.23.14.41,1.75,2,2.22,3.27,3a10.4,10.4,0,0,1,1.58,1.22,15.82,15.82,0,0,1,5,9.51c.51,3.62-1.07,6.42-3.85,8.6a1.21,1.21,0,0,0-.53,1.48c1.09,4.25,1.61,8.61,2.41,12.91s1.56,8.41,2.28,12.63c.37,2.22.61,4.46.93,6.7.8,5.64,2,11.22,3.07,16.81s2.27,11.16,3.2,16.79c.74,4.45.76,9,1.54,13.39.61,3.41.22,6.83.05,10.25a38.12,38.12,0,0,1-2.29,10.93c-.48,1.38-.65,1.56-2.15,1.54-2.84,0-5.67.19-8.5,0a1.34,1.34,0,0,0-1.31.64,21.29,21.29,0,0,1-13.06,8.53,26.21,26.21,0,0,1-10.8-.2,30.14,30.14,0,0,1-8.51-2.69,19,19,0,0,1-6.11-5.38,2,2,0,0,0-1.91-.89q-71.11,0-142.23,0c-.82,0-1.24,0-1.36,1.07-.4,3.81-2.85,6.13-6.09,7.71a26.61,26.61,0,0,1-7.22,2.73c-3.31.56-6.57,1.1-10,.22-1.9-.49-3.9-.74-5.86-1-4.39-.69-6.63-3.62-7.91-7.54-.33-1-.4-2.27-1.16-2.91s-2-.3-3-.18a2.32,2.32,0,0,1-2.66-1.68,11.45,11.45,0,0,1-1.22-4.51C.37,175.82.42,171.48.42,167.13ZM177.89,84.82c-1.58,0-2.95,0-4.3,0a15.4,15.4,0,0,1-3.39-.24c-.42-.08-1.08-.07-1.06-.68,0-.77-.89-1.41,0-2.37a4.16,4.16,0,0,1,3.29-1.29c3.54,0,7.08.11,10.62.18.27,0,.54,0,.75.19a4.49,4.49,0,0,0,2.44,1,9.7,9.7,0,0,1,2.63.88c.58.31.81.18,1.13-.36q4.47-7.51,9-15c1.38-2.3,1.41-2.31-.24-4.46-1.29-1.7-2.28-3.6-3.45-5.37-1.88-2.86-4.47-5-6.87-7.4a125.92,125.92,0,0,0-16-13.44A87,87,0,0,0,162,29.86c-2.71-1.36-5.63-2.24-8.33-3.65a11.1,11.1,0,0,0-2.34-1.11c-3-.72-5.87-1.74-8.79-2.69a89.63,89.63,0,0,0-9.06-2,89.9,89.9,0,0,0-12.64-1.81,134.46,134.46,0,0,0-13.91-.22c-.64,0-1.28,0-1.91.06-3.11.43-6.22.91-9.34,1.35a24.51,24.51,0,0,0-4.42.6C84.53,22.69,77.51,24,71.28,27.57c-2,1.14-4.25,1.78-6.2,2.95A166.67,166.67,0,0,0,48.71,41.41c-3.44,2.67-6.86,5.35-9.55,8.78-3.07,3.93-5.93,8-8.92,12A45.09,45.09,0,0,0,24.3,74.3a5.66,5.66,0,0,0-.64,2.58c.19,1.69.44,3.36.68,5a46.48,46.48,0,0,0,2.51,8.17,65.32,65.32,0,0,0,4.86,11.64,82.32,82.32,0,0,0,16.76,20.51c3.8,3.36,7.92,6.29,12,9.33a40.7,40.7,0,0,0,11.29,6c2.22.75,4.32,1.88,6.64,2.34a21.73,21.73,0,0,1,7.22,2.4,2.61,2.61,0,0,0,1.35.28c2,.06,4,.27,6.07.52,2.83.35,5.63,1.06,8.52.88a12.88,12.88,0,0,1,4.35.48c3.83,1.13,7.68.54,11.52.45,1.63,0,3.26,0,4.89-.08,2.7-.2,5.39-.43,8.08-.67,2-.18,3.92-.37,5.87-.66a70.58,70.58,0,0,0,13.22-3.43c4.41-1.56,8.92-2.9,13.09-5.13A95.91,95.91,0,0,0,178,124.46,152.24,152.24,0,0,0,193.76,110a36.44,36.44,0,0,0,7.94-14.2,41.19,41.19,0,0,0-4.93,5.22c-4.22,5.46-9.53,9.92-14,15.11a2.45,2.45,0,0,1-1.73,1,4.27,4.27,0,0,1-3.1-.83c-.88-.71-1.86-1.3-2.75-2-2.79-2.17-5.4-4.57-8.76-5.9a2.24,2.24,0,0,1-1.09-2.52c1.43-2.75,2.51-5.69,4.36-8.2C172.63,93.61,175.09,89.26,177.89,84.82ZM26.35,59.71c-1.32,0-2.39,0-3.46,0q-6.55-.18-13.12-.38c-.44,0-.6.13-.58.56,0,.8,0,1.6,0,2.4,0,3-.21,6.07-.45,9.1-.26,3.29-.23,6.59-.55,9.88A18.59,18.59,0,0,0,8,85.85,15.53,15.53,0,0,1,8.15,90,81.94,81.94,0,0,0,8,98.33c0,2.19.22,4.39.35,6.58.24,3.88-.49,7.71-.66,11.57-.06,1.16,0,2.33-.18,3.49-.39,2.77-.6,5.55-.73,8.34s-.11,5.48-.28,8.21c-.06,1.06-.06,2.13-.18,3.19a83.72,83.72,0,0,0-.77,9.75c0,.93,0,1.86-.1,2.8a35.61,35.61,0,0,0,0,6.69c.09.75.46.93,1.13.93,1,0,1.93-.18,2.89-.18,4.12,0,8.23-.2,12.33-.2q46.1-.09,92.18,0c20.76,0,41.52-.24,62.27.19,5,.1,9.89.27,14.83.48,1.89.08,3.8.09,5.69.28a28.29,28.29,0,0,0,5.89,0c3.6-.41,7.21-.83,10.82-.93,5.25-.14,10.5-.13,15.75.07,2.63.09,5.28,0,7.92.09.54,0,.71-.18.66-.7-.09-1-.06-1.95-.22-2.89-.83-4.69-1.56-9.4-2.53-14.06-.75-3.59-1.3-7.21-2-10.8-.61-2.93-1.37-5.83-1.78-8.8-.56-4.07-1-8.15-1.57-12.21-.7-4.88-1.57-9.74-2.26-14.62-.43-3.07-.66-6.17-1-9.25,0-.31.12-.86-.54-.58a28.82,28.82,0,0,1-6.33,1.54c-2.75.45-5.3,1.61-8,2.22-.54.12-1.26.12-1.57.46-.45.5.25,1.05.39,1.6a19.77,19.77,0,0,1,.07,7.55,39.17,39.17,0,0,1-3,10.33,48.61,48.61,0,0,1-6.58,11.39c-1.9,2.34-3.92,4.55-6,6.76a64.28,64.28,0,0,1-10.64,9.68c-3,2.07-6,4.22-9.08,6.22a51.42,51.42,0,0,1-16.88,6.92c-3.71.85-7.33,2.13-11.05,3a127.18,127.18,0,0,1-18.11,2.9c-3.82.28-7.62.93-11.46.84-3.26-.09-6.51-.51-9.77-.68a150.62,150.62,0,0,1-18.83-2.21,92,92,0,0,1-19.2-5.92,122.32,122.32,0,0,1-18.6-9.39c-5-3.16-9.85-6.38-14.59-9.83a64.79,64.79,0,0,1-9.33-8.17c-2.64-2.84-4.1-6.35-5.65-9.81-3-6.73-5-13.7-4.84-21.14a65,65,0,0,1,.56-8.59c.28-1.74.42-3.67,1.51-5,.93-1.13.92-2.31,1.28-3.52a52.08,52.08,0,0,1,2.55-7.12A40.7,40.7,0,0,1,26.35,59.71Zm95.12,122.46v0q22,0,44,0,21.66,0,43.31.07c4,0,8.09-.09,12.13,0,5.41.13,10.82-.17,16.23-.08.42,0,.61-.14.64-.56a14.7,14.7,0,0,1,.16-2c1-5.23.82-10.57,1.36-15.83.07-.69.07-1.27-.88-.71a1.85,1.85,0,0,1-.87.19c-2.77,0-5.54.25-8.32.23-5,0-10,0-15,.05a85.89,85.89,0,0,1-9.87-.62,32.14,32.14,0,0,0-4.42-.5c-5,.11-10.06.42-15.1.61-5.94.22-11.89.34-17.83.43-5.08.07-10.16,0-15.24,0q-65.74,0-131.48-.07c-5,0-10,0-14.93-.35-.93-.07-1,.31-.91,1.1.22,2.09.42,4.18.47,6.28.1,3.67.06,7.35.13,11,0,1,.39.9,1,.9l35.7-.07c12.5,0,25,0,37.5-.08C93.32,182.06,107.39,182.17,121.47,182.17Zm86.12-88c-.72,1.85-1.3,3.51-2,5.12-1,2.23-1.45,4.66-2.67,6.78a50.36,50.36,0,0,1-7.11,8.89A165.3,165.3,0,0,1,176.9,131.8a69.76,69.76,0,0,1-12.79,8.38,123.75,123.75,0,0,1-18.21,6.61c-6.81,2.05-13.89,2.41-20.92,3-3.89.33-7.81.1-11.71.41a14.31,14.31,0,0,1-3.57-.33c-2.38-.39-4.71-1.14-7.16-1.14a25.21,25.21,0,0,1-2.89-.24c-2.47-.32-4.9-.81-7.34-1.28-2.9-.56-5.87-.74-8.7-1.62a13.63,13.63,0,0,0-2.92-1,37,37,0,0,1-11.35-3,43,43,0,0,1-5.15-2.18,126.44,126.44,0,0,1-16-10.9A80.46,80.46,0,0,1,34,114.09,67.46,67.46,0,0,1,22.52,92.94a11.39,11.39,0,0,0-1-2.75,38.39,38.39,0,0,0,1,8.55c.92,4.11,2.83,7.85,4.35,11.74,1.93,4.9,5.47,8.44,9.34,11.76,2.4,2.07,5,3.89,7,6.38a7.4,7.4,0,0,0,1.75,2c4,2.45,8,5,12.17,7.3a119,119,0,0,0,25.54,10.57,60,60,0,0,0,6.67,1.61c2.39.4,4.77.81,7.19,1,2.25.19,4.49.51,6.75.71s4.45.34,6.67.43c3,.11,6,.66,9.07.42,1.23-.09,2.44-.32,3.65-.39,2.83-.17,5.67-.24,8.48-.62,4.83-.66,9.65-1.34,14.4-2.39,4.45-1,8.85-2.24,13.26-3.39a44.37,44.37,0,0,0,11.94-4.76c2.27-1.35,4.39-2.93,6.63-4.32,7.41-4.59,13.54-10.6,19.25-17.09a47.5,47.5,0,0,0,9.09-16.48A31.9,31.9,0,0,0,207.59,94.16Zm25.25-73.53c-.59.33-1.86-.05-2.1.62a12.66,12.66,0,0,1-1.46,2.15c-2.15,3.73-4.33,7.44-6.44,11.19-5.21,9.29-10.71,18.41-16.17,27.56-4.25,7.12-8.56,14.2-12.85,21.29-.27.43-.22.68.26.77a10.59,10.59,0,0,1,2.79,1c.43.22.7.12.95-.31.83-1.44,1.7-2.87,2.56-4.29,6.08-10.1,12.35-20.1,18.61-30.09,4.81-7.68,9.51-15.43,14.47-23,.65-1,1.56-1.83,1.64-3.12a.92.92,0,0,1,.37-.57c.44-.33.35-.74.24-1.16A2.71,2.71,0,0,0,232.84,20.63Zm-52.33,92.15,1-1.12c2.79-3,5.81-5.8,8.39-9a91.72,91.72,0,0,1,7.22-8.41c1.15-1.11,1.1-1.14-.09-2.16-.95-.82-2-1.59-2.19-3-.07-.46-.4-.55-.73-.71A73.05,73.05,0,0,0,183,84.73c-.58-.16-.62.22-.79.49-2.12,3.39-4.18,6.82-6.35,10.17-1.76,2.7-3.84,5.19-5,8.24-.27.68-1,1.39-.84,2s1.15.78,1.78,1.13c2.88,1.61,5.28,3.92,8.07,5.66ZM11.86,186.33A19.93,19.93,0,0,0,13.78,190,6.75,6.75,0,0,0,18.33,193c2.15.41,4.3.77,6.48,1a18.17,18.17,0,0,0,11.63-2.39,6.29,6.29,0,0,0,3.16-4.34c.18-.78.09-1-.72-1-2.87,0-5.74,0-8.62,0ZM225.07,64.77a4.68,4.68,0,0,1-.33,2,.73.73,0,0,0,.1.82,3.39,3.39,0,0,1-.71,5.18,18.11,18.11,0,0,1-7.59,3c-2.7.49-5.2.31-6.66-2.63-.62,1-1.21,2-1.81,3-.69,1.14-1.4,2.26-2.06,3.41-.14.23-.54.7,0,.8.79.15,1.52.65,2.39.46,1.52-.34,3.07-.52,4.56-.94,3.75-1,7.33-2.61,11-3.78,1.55-.49,3.17-1.11,4-2.77a5,5,0,0,1,1.63-2.1c.26-.18.16-.33.1-.49A10.69,10.69,0,0,0,225.07,64.77Zm22.5-46.88c1.27-4.42.2-8.32-1.16-12.19a1.57,1.57,0,0,0-1.62-1.16c-1.51-.08-3.07-.19-4.26-1.35-.27-.26-.51-.18-.82-.09a9,9,0,0,0-4.1,2.33c-1.07,1.11-2.29,2.06-3.5,3.12C239.3,8.26,244.19,11.68,247.57,17.89ZM196.69,186.37c.32.27.45.41.61.52a21.11,21.11,0,0,0,8.29,3.43c3.13.56,6.18,1.5,9.44,1.07,3.5-.45,6-2.31,8.22-5ZM228.4,78c-.75.33-1.48.71-2.25,1q-4.77,1.65-9.56,3.23a20.78,20.78,0,0,1-5.43,1c-.84,0-2-.28-2.45.23s0,1.66.08,2.52a4.1,4.1,0,0,1,0,.5c0,.57.22.58.67.38,1-.45,2-.81,2.91-1.27A29.54,29.54,0,0,1,221,82.86,11.17,11.17,0,0,0,228.4,78Zm-15-10.86a7.55,7.55,0,0,1,2.29.4,5.14,5.14,0,0,0,2.27.24c1.89-.26,2.73-.74,2.79-2.76a27,27,0,0,0-.68-4.83.5.5,0,0,0-.42-.47c-1.58-.39-1.79-.31-2.59,1.13q-.21.39-.45.78Zm3-28.32c-1.13.31-2,.53-2.95.82a6.65,6.65,0,0,0-3.13,1.85c-1.69,1.88-1.67,4.39.06,5.71.37.28.61.41.93-.11C212.89,44.41,214.57,41.73,216.35,38.84ZM227.62,52a7,7,0,0,1-5,0c-.28-.13-.43.09-.55.29l-2.62,4.59C222.84,56.5,226,55.74,227.62,52Zm12.8-28c.78-.24.83-.78.67-1.43a9.5,9.5,0,0,0-3.55-5.17c-1.41-1.14-2.79-1.94-4.69-1.29-.67.22-1.46.06-2.18.25-.54.14-.37.55-.39.89,0,.18,0,.38.3.34a11.36,11.36,0,0,1,3.54.21c2.86.54,5.29,1.6,5.84,4.91A7.11,7.11,0,0,0,240.42,24.05ZM221.68,69.79a12,12,0,0,1-4.75,1.3c-1.79.12-3.59,0-4.79-1.74L211,71.18a1.1,1.1,0,0,1,1.22.86,1.51,1.51,0,0,0,1.09.79c2.66.87,5,0,7.24-1.35A2.15,2.15,0,0,0,221.68,69.79Zm25-29.11a26.75,26.75,0,0,1-6.07,0c-.32,0-.38.19-.37.45,0,.6.07,1.2.11,1.8,0,.41.14.58.66.58a21.29,21.29,0,0,1,5,.16c.53.13.72-.13.7-.65C246.72,42.3,246.73,41.54,246.73,40.68ZM223.26,50.2l.21.22c1.95-.72,3.86-1.55,5.07-3.39a2.65,2.65,0,0,0-.77-3.61c-.36-.22-.51-.16-.68.15Zm18-33.68A8.41,8.41,0,0,0,236.18,12a13,13,0,0,0-4.33-.39c-1.31,0-2.08.62-2.58,2.24C233.92,12.09,237.8,13.43,241.25,16.52ZM205.49,47.09a16.71,16.71,0,0,0-.38,2.3,4.18,4.18,0,0,0,1.64,3.85c.5.37.64.2.87-.2.46-.77.9-1.55,1.42-2.28.39-.55.18-.79-.32-1A8.56,8.56,0,0,1,205.49,47.09ZM204.05,83.3l-.27,0q-1.44,2.43-2.87,4.87c-.09.15-.31.33-.08.51a15.58,15.58,0,0,1,2.46,2.83A16.82,16.82,0,0,0,204.05,83.3Zm-1.27-22.48a1.86,1.86,0,0,0-1.23,0l.58,1A2.76,2.76,0,0,0,202.78,60.82Z"/><path d="M112.45,54.77a115.57,115.57,0,0,1,14.1.42A20.77,20.77,0,0,1,135,58a42.49,42.49,0,0,1,8,5.08,20.45,20.45,0,0,1,5.79,9.38c1.46,4.44.81,8.78-.48,13.11-1.75,5.85-5.66,9.91-10.71,13.07s-11,4.52-17,5.32a46.29,46.29,0,0,1-9.19.11c-1.84-.13-3.65-.68-5.49-1a38.25,38.25,0,0,1-14.33-5.25c-2.88-1.78-6-3.44-8-6.25-2.56-3.52-4.8-7.29-5.37-11.71a14,14,0,0,1,1-7.45A28.71,28.71,0,0,1,87,61.91a22.13,22.13,0,0,1,5.88-3.12,42.69,42.69,0,0,1,11.56-3.51A48.09,48.09,0,0,1,112.45,54.77Zm3.26,5.13c-.87,0-1.74,0-2.61,0a58.78,58.78,0,0,0-9.18.64,30.93,30.93,0,0,0-6.87,2,22.74,22.74,0,0,0-7.67,4.17,26.07,26.07,0,0,0-6.33,9,8.17,8.17,0,0,0-.63,5.43,14.56,14.56,0,0,0,2.27,4.5c1,1.52,2.37,2.93,2.16,5,0,.34.28.44.48.58,7.25,5.1,15.49,7.47,24.14,8.65a35.34,35.34,0,0,0,8.6,0c6.2-.7,12-2.31,17.13-6.13,6-4.43,8.57-10.49,9-17.58.18-3.4-1.66-6.3-4.15-8.64a28.14,28.14,0,0,0-6.95-4.49c-2.32-1.15-4.61-2.45-7.25-2.72C123.79,60,119.74,60,115.71,59.9Z"/><path d="M111.84,43.44a98.62,98.62,0,0,1-14.3-.61c-5.3-.46-10.58-1.19-15.9-1.36a2.56,2.56,0,0,1-1.8-.45,1.77,1.77,0,0,1,.81-2.74,10,10,0,0,1,2-.37,72.2,72.2,0,0,1,11.2,0c6.9.32,13.8.72,20.72.6,3.36,0,6.69-.63,10.06-.65,2.3,0,4.6,0,6.89.27A3.24,3.24,0,0,1,133.83,41a1.46,1.46,0,0,1-.86,1,13.27,13.27,0,0,1-8.17,1.12,39.17,39.17,0,0,0-7.57.26C115.27,43.56,113.29,43.44,111.84,43.44Z"/><path d="M96.65,123.93c-4.37-.17-9.8-.32-15.23-.63-3.35-.19-6.7-.51-10.07-.6a25.37,25.37,0,0,1-6.28-1,2.5,2.5,0,0,1-1.48-.94c-.28-.42-.57-.88-.31-1.38a1.28,1.28,0,0,1,1.27-.65l4.38.29c.43,0,.86.1,1.29.09,10-.09,19.91.37,29.86.19,1.29,0,2.58-.19,3.89-.17a2.58,2.58,0,0,1,2.43,2.32,1.23,1.23,0,0,1-.78,1C103.14,123.86,100.43,124,96.65,123.93Z"/><path d="M117.63,124.72c-.24,0-.47,0-.7,0a2,2,0,0,1-2-2.41c.09-.77,1.3-1.76,2.4-2,3.92-.66,7.82-1.4,11.75-2,2.43-.35,4.91-.44,7.36-.56a2.15,2.15,0,0,1,2.12,1.54c.34.77,1,1.53.06,2.34-.11.08-.17.23-.29.27a18.84,18.84,0,0,1-6.18,1.79,93.15,93.15,0,0,0-10.94.7C120.05,124.68,118.82,124.62,117.63,124.72Z"/><path d="M89.51,106.89a35,35,0,0,1-7.89-2,24.13,24.13,0,0,1-11.06-7.6A8.82,8.82,0,0,1,68.83,94a1,1,0,0,1,.45-1.27,4.23,4.23,0,0,1,2.09-.59.63.63,0,0,1,.63.36,23.43,23.43,0,0,0,12.52,9.24c2.3.76,4.61,1.47,6.92,2.2l.48.13a1.83,1.83,0,0,1,1.4,1.54c.06.66-.78.6-1.2.84A5.15,5.15,0,0,1,89.51,106.89Z"/><path d="M131.42,31.63c-1.8-.12-3.58.27-5.39.25-2.8,0-5.59-.29-8.38-.44a2.61,2.61,0,0,1-1-.24,1,1,0,0,1-.26-1.67,3.26,3.26,0,0,1,2.09-.83c2.36-.19,4.72-.25,7.07-.44s4.55-.51,6.83-.69a40.09,40.09,0,0,1,4.1-.1c.79,0,1.72,1.32,1.67,2.12a1,1,0,0,1-.62.83A10.44,10.44,0,0,1,131.42,31.63Z"/><path d="M111.35,109.75a37,37,0,0,1-6.46,0c-1.18-.17-2.37-.31-3.55-.5a1.32,1.32,0,0,1-1.25-1.44c0-.78.72-.94,1.36-1.05a25.34,25.34,0,0,1,4.69-.12,39.51,39.51,0,0,0,5-.21c1.65-.17,3.32-.22,5-.25a1.94,1.94,0,0,1,1.62,1.76.86.86,0,0,1-.57.76A10.91,10.91,0,0,1,111.35,109.75Z"/><path d="M166.53,88.21c-1.93,0-3.87,0-5.8,0-1.21,0-1.65-.41-1.75-1.66-.06-.82.63-1.3,1.31-1.57a9.57,9.57,0,0,1,4.75-.24,42.78,42.78,0,0,0,5.87.4,2.3,2.3,0,0,1,1.33.36,1.25,1.25,0,0,1,.66,1.06c0,.48-.47.67-.86.87A8.41,8.41,0,0,1,166.53,88.21Z"/><path d="M139.06,41.8c-.76,0-1.3-.8-1.23-1.9a3,3,0,0,1,3.8-2.92,3,3,0,0,1,1.9,2.39c-.05.91-.77,1.23-1.57,1.56A7.62,7.62,0,0,1,139.06,41.8Z"/><path d="M204.17,151c2.83-.24,6.13.5,9.47.41,4.3-.13,8.58-.62,12.88-.6.64,0,.62-.34.57-.76-.28-2.05-.5-4.1-.86-6.13-.4-2.31-.47-4.64-.74-7-.34-2.95-.66-5.89-.94-8.85-.1-1-.41-2,.47-2.91a2.25,2.25,0,0,1,3.65.46,13.88,13.88,0,0,1,1,4.76c.56,5.18,1.07,10.37,1.8,15.53a55.38,55.38,0,0,1,.65,5.74,1.4,1.4,0,0,1-1.14,1.57,7.13,7.13,0,0,1-2.81.84c-2.3-.13-4.6-.14-6.9-.09-2.46,0-4.92.21-7.38.35-2.31.14-4.6-.15-6.9-.24a73.86,73.86,0,0,0-9.29-.23c-1.66.15-3.34,0-5,.1-1.92.09-3.84.27-5.76.39-.6,0-1.48.12-1.58-.48s.79-.93,1.36-1.05c2.13-.46,4.27-.93,6.43-1.21A74.41,74.41,0,0,1,204.17,151Z"/><path d="M12.6,140.9c.21,3-.22,6.56-.08,10.14,0,.79,0,1.28,1.16,1.07a60.46,60.46,0,0,1,6.46-.5c3.65-.24,7.3-.41,11-.61a2.16,2.16,0,0,1,2.27,2,.93.93,0,0,1-.59.87c-1.29.4-2.44,1.15-3.91,1.19-4.58.15-9.16.54-13.74.68-1.62,0-3.25.12-4.88.11-.68,0-.85-.39-1-.91a24.22,24.22,0,0,1-.41-6.36c.12-2.76.47-5.5.61-8.27a73.18,73.18,0,0,1,1.19-10.11,2.85,2.85,0,0,1,.67-1.64c.19-.18.35-.46.66-.39s.39.44.41.73c.06,1.3.19,2.6.13,3.9C12.43,135.32,12.54,137.82,12.6,140.9Z"/><path d="M213.46,135.2a5.33,5.33,0,0,1,4.82,7.82c-1.6,3.38-6.88,4.89-9.8,3.87a4,4,0,0,1-.82-.36c-2.26-1.35-3-5.1-1.41-7.14a13.55,13.55,0,0,1,3.52-3.36A6.23,6.23,0,0,1,213.46,135.2ZM212,143.83a2.08,2.08,0,0,0,1.89-1.49c.31-.74-.16-1.33-.57-1.89-.24-.32-.47-.27-.67.09-.48.85-1,1.64-2.14,1.69a.66.66,0,0,0-.55.63c0,.31.28.42.51.54A3.8,3.8,0,0,0,212,143.83Z"/><path d="M20.91,148.41c-2.17.53-4.85-1.67-5.28-4.54a4.63,4.63,0,0,1,3.3-5.05c1.58-.46,3-1.4,4.68-1.56,1.86-.17,3.76-.34,4.89,1.58s2.1,3.64.73,5.75a5.26,5.26,0,0,1-2.34,2.11c-1,.41-1.91.94-2.91,1.28A7.55,7.55,0,0,1,20.91,148.41Zm.84-4a3.66,3.66,0,0,0,1.7-.57c.42-.3,1-.61.71-1.24a1.19,1.19,0,0,0-1.48-.68c-.79.2-1.6.38-2.39.63-.22.07-.58-.14-.65.27a.83.83,0,0,0,.34.8A3.83,3.83,0,0,0,21.75,144.44Z"/><path d="M213.17,123a2.85,2.85,0,0,1,2.22.76,5.54,5.54,0,0,1,2.22,4.08,3,3,0,0,1-1.86,3,10.3,10.3,0,0,1-4.31,1.41c-1.67.05-3.09-.47-3.58-2.33-.77-3-.11-4.43,2.7-5.87.44-.22.63-.75,1.16-.9A3.79,3.79,0,0,1,213.17,123Z"/><path d="M189.57,180c-4.88-.14-9.75,0-14.63.16-4.27.13-8.53.47-12.8.59-4.11.11-8.2-.26-12.3-.53-2.27-.14-4.55-.05-6.82-.13-4.2-.16-8.4-.34-12.59-.68a5.65,5.65,0,0,1-1.68-.21c-.29-.12-.58-.19-.61-.56a.74.74,0,0,1,.45-.72c.51-.29,1-.55.34-1.22-.27-.29.25-.57.2-1a25.85,25.85,0,0,1-.56-5,1,1,0,0,1,.64-1,7.12,7.12,0,0,1,3.48-.66c6,.08,12,0,17.94-.22,4.14-.14,8.27-.48,12.41-.5s8.34-.33,12.52-.28c3.44,0,6.84.61,10.29.63,4.81,0,9.6-.58,14.42-.42,5.54.18,11.08-.16,16.63-.29a27.55,27.55,0,0,0,7.57-1.14c1.26-.39,1.48-.12,2,1a8,8,0,0,1,.22,6.38,2.76,2.76,0,0,0,0,2c.43,1,.16,1.43-.92,1.68a40.24,40.24,0,0,1-6.92.92c-5.8.29-11.61.34-17.39.94A112.9,112.9,0,0,1,189.57,180Zm-5-4.06c5.45,0,10.89.15,16.33-.32,4.52-.4,9.06-.56,13.59-.72,2.17-.07,4.34-.1,6.5-.3s2.25-.2,2.31-2.46c0-.58-.07-.64-.65-.53a30.36,30.36,0,0,1-4.64.68c-4.6.18-9.2.58-13.81.47-4.95-.11-9.89.05-14.83.16a71.41,71.41,0,0,1-9.91-.32,55.27,55.27,0,0,0-9.1-.13c-3.7.19-7.42.1-11.12.29-2.17.11-4.33,0-6.5,0-2.34,0-4.67.25-7,.31q-6.56.15-13.13.19c-.77,0-.94.27-.78.93A5.16,5.16,0,0,1,132,176c-.09.85.29,1,1,.92a120.8,120.8,0,0,1,19-.31,120.7,120.7,0,0,0,17-.1C174.21,176.05,179.38,175.94,184.56,175.9Z"/><path d="M59.67,181.71c-2.68,0-2.79,0-2.81-2.51a24.77,24.77,0,0,1,1-7.41c.39-1.31,1.11-1.94,2-1.91.19,0,.46,0,.57.12,1.29,1.36,2.84.79,4.32.56a19.31,19.31,0,0,1,3.3-.67,1.71,1.71,0,0,1,1.6,1,7.17,7.17,0,0,1,.94,3.32,20.5,20.5,0,0,1,.06,4.29,2.36,2.36,0,0,1-1.52,1.88c-2.14,1.05-4.43.94-6.69,1.16A12.46,12.46,0,0,1,59.67,181.71Zm.8-5.1c0,.53,0,1.07,0,1.6,0,.21-.06.47.35.42q2.36-.33,4.71-.6c.64-.07.82-.41.82-1a27.83,27.83,0,0,0-.15-2.89c-.06-.58-.29-.6-.77-.48a13.39,13.39,0,0,1-2.33.41C60.66,174.21,60.66,174.19,60.47,176.61Z"/><path d="M15.64,173.56c-.18-1.3.17-2.86-.14-4.43-.14-.68.87-1.4,1.86-1.43a21.21,21.21,0,0,1,4.78.21,22.42,22.42,0,0,0,4.09.18c2,0,2.82.82,3,2.8.14,1.42.31,2.84.5,4.25.36,2.67-.21,2.45-2.44,3.36a8.93,8.93,0,0,1-2.78.15c-2.41.18-4.83.23-7.23.64-1.36.23-1.6,0-1.65-1.47S15.64,175.15,15.64,173.56Zm4-2.67c-1.23,0-1.23,0-1.17.9s.14,1.86.22,2.79c.05.6-.07,1.32.23,1.76s1.1-.14,1.68,0a.33.33,0,0,0,.1,0c1.55-.15,3.1-.28,4.65-.45.43-.05.86-.12.74-.78-.21-1.14-.41-2.29-.54-3.44-.06-.55-.33-.66-.79-.63A22.08,22.08,0,0,1,19.6,170.89Z"/><path d="M36.65,174.85c.11-1.21-.18-2.34,0-3.48a1.91,1.91,0,0,1,1.44-1.69c1.6-.58,3.23-.34,4.85-.36a8.26,8.26,0,0,0,2.91-.51c2-.77,2.91-.24,3.49,1.76a25.13,25.13,0,0,1,.9,6.28c.06,2.22-1,2.61-3.33,3a14.64,14.64,0,0,1-4.07-.22,25.89,25.89,0,0,0-4.66,0,1.09,1.09,0,0,1-1.34-1C36.45,177.41,36.88,176.09,36.65,174.85Zm6.09,1.88a17.34,17.34,0,0,1,2.88.18c.32,0,.74.1.67-.45a25.26,25.26,0,0,0-.53-4c-.13-.46-.34-.39-.62-.34a27.91,27.91,0,0,1-5.16.4c-.32,0-.57,0-.52.47.13,1.12.21,2.25.3,3.38,0,.54.33.71.79.55A7.68,7.68,0,0,1,42.74,176.73Z"/><path d="M82.42,170.61c0,1.49-.39,3-.44,4.65-.06,1.75-1.35,2.26-2.66,2.61a34.16,34.16,0,0,1-5.63.62c-.62.06-.89-.29-1-.83-.43-1.44,0-2.85.1-4.26a4.62,4.62,0,0,1,.28-1.67c.25-.56.47-1.13,1.21-1.16.07,0,.17,0,.19,0,.89-1.77,3.17-1.37,4.34-2.79a2.22,2.22,0,0,1,2.51-.51,2.06,2.06,0,0,1,1.16,2.15C82.42,169.76,82.42,170.12,82.42,170.61Zm-7,3a7.93,7.93,0,0,0,0,1.09c.06.41-.13,1.12.63,1s1.71.3,1.92-.86c.14-.79.18-1.59.25-2.38,0-.53,0-1-.73-.63a1.35,1.35,0,0,1-.49.06C75.38,172,75.38,172,75.42,173.63Z"/><path d="M190.88,92.24a2.14,2.14,0,0,1,2.37,2A1.83,1.83,0,0,1,192,96a10,10,0,0,1-3,1.17c-.68,0-1.21.13-1.24-.77a2.21,2.21,0,0,0-.15-.37c-.66-2.09.48-3.67,2.72-3.79Z"/><path d="M180.24,95.9a2.48,2.48,0,0,1,2.22,1.78.83.83,0,0,1-.29.89,7.14,7.14,0,0,1-4.52,1.84c-.85.08-.86-1.19-.77-1.3.53-.67.24-1.6.91-2.22A3.24,3.24,0,0,1,180.24,95.9Z"/><path d="M178.55,108.46c-.4,0-.61,0-.75-.26a2.44,2.44,0,0,1,.78-3.17,5.66,5.66,0,0,1,2.86-1,1.71,1.71,0,0,1,1.82,1.35c.31.81-.36,1.16-.86,1.48A9,9,0,0,1,178.55,108.46Z"/><path d="M183.73,91.09a2,2,0,0,1,2.42,1.4c.27.63.14,1.15-.36,1.36a10.64,10.64,0,0,1-3.31,1.23c-.81.06-1.16-.11-1.34-1s-.36-1.81.44-2.56C182.21,91,183,91.13,183.73,91.09Z"/><path d="M176.22,101.9c.95-.14,1.35.5,1.62,1.2s-.3,1.16-.81,1.41a8.87,8.87,0,0,1-2.57,1c-.43.07-1.1.37-1.23-.2s-.68-1.29,0-2.06A4.09,4.09,0,0,1,176.22,101.9Z"/><path d="M184.88,99.55c.35.14,1.3-.47,1.52.76.17.92-.09,1.53-1,1.75-.68.16-1.37.26-2.06.36-.35,0-.87.19-.95-.26s-.71-1.09-.15-1.77A2.57,2.57,0,0,1,184.88,99.55Z"/><path d="M108.86,61.77A66.8,66.8,0,0,1,127,64.43c4.06,1.11,6.6,4.11,9.23,7a15.56,15.56,0,0,1,3.59,9.29c.32,3.49-1.25,6.23-3.7,8.59a24.63,24.63,0,0,1-10.53,5.87,46.31,46.31,0,0,1-13.68,2,25,25,0,0,1-10.55-2.56,44.09,44.09,0,0,1-12-8.54,11.24,11.24,0,0,1-2.85-4.75c-1.41-4.67.63-10.71,4.61-13.84,3.36-2.64,7.32-3.9,11.37-5A22.47,22.47,0,0,1,108.86,61.77Zm2.28,5.29a32.16,32.16,0,0,0-5.89.25,31,31,0,0,0-6.9,2.21,12.93,12.93,0,0,0-6.44,5.59,22.32,22.32,0,0,0-1.8,4.63,2.49,2.49,0,0,0,.84,3,51.84,51.84,0,0,0,9.94,6.66,25.24,25.24,0,0,0,9.91,2.83,36.8,36.8,0,0,0,9.92-.84,34.82,34.82,0,0,0,6.89-2.21,17.52,17.52,0,0,0,6.11-4.76c2.49-2.94,2.85-5.78.33-8.87-1-1.17-2.07-2.17-3.09-3.28a7.74,7.74,0,0,0-3.24-2.07A56.22,56.22,0,0,0,111.14,67.06Z"/><path d="M113.67,84.23a9,9,0,0,1-4.78-1.47A13.45,13.45,0,0,1,106,80.94a4.63,4.63,0,0,1-.12-6A9.72,9.72,0,0,1,112,71.7a7.88,7.88,0,0,1,9,6.79,4.87,4.87,0,0,1-2.72,4.7A11.6,11.6,0,0,1,113.67,84.23Zm.16-4.19A3.58,3.58,0,0,0,117,78.65c.2-.27.41-.47.07-.84-1.62-1.71-5.79-1.73-7.4,0-.51.55-.56,1,.2,1.42A8.32,8.32,0,0,0,113.83,80Z"/></g></g></g></svg>