<?xml version="1.0" encoding="UTF-8"?>
<svg id="Layer_2" data-name="Layer 2" xmlns="http://www.w3.org/2000/svg" viewBox="0 0 123.22 104.67">
  <g id="Layer_1-2" data-name="Layer 1">
    <g>
      <path d="M88.46,75.54l-.15.18c.3.16.42.92.28,1.17-.08.14-.25.23-.33.37-.06.12.02.28-.11.47-.6.8-1.26.76-2.15.91-.13-.22-.5-.31-.62-.45-.13-.16-.27-.54-.41-.75-.09-.13-.27-.22-.35-.37-.14-.26.2-.81.25-1.12.73-.13.99-.72,1.5-1.11.18-.14,1.34-.54,1.49-.46.28.15.17.96.58,1.16Z"/>
      <path d="M86.06,86.53c.35-.01.3-.38.51-.49.14-.08.48,0,.75-.2.2-.15.35-.43.56-.54.18-.1.77.06.98-.25l.52,1.82c-.48.73-.57,1.12-1.5,1.22-1.39.15-1.13-.66-1.82-1.54Z"/>
      <path d="M94.12,79.69c.34.18.21.38.28.55.2.48.48.89.09,1.4-.13.17-.58.63-.75.72-.04.02-.84.13-.93.12-.15,0-.45-.09-.57-.19-.19-.3-.71-1.08-.53-1.4.24-.44.63-.34.91-.56.17-.13.28-.34.47-.44.06-.03.98-.23,1.03-.2Z"/>
      <path d="M83.06,81.87l-.58.96-1.17.24-.93-1.1c.3-.37.66-.61,1.07-.84s.77-.28,1.17-.46l.44,1.21Z"/>
      <path d="M115.13,102.17l-.18-.14c-1.32.94-3.03,1.32-4.62,1.64-1.77.35-3.44.32-5.31.44s-3.69.48-5.59.57c-1.35.06-3.13-.1-4.38-.28-5.67-.82-9.59-2.6-14.26-6.15-.1-.07-.46-.27-.56-.29-.38-.08-.49.49-.65.63-.25.21-.94.85-1.12.94-.11.06-.26-.01-.37.05-.14.08-.23.25-.37.32-1.29.64-4.3,1.28-5.68.74-.19-.07-1.08-.52-1.21-.62-1.3-.98-2.13-2.66-3.24-3.82.02-.29-.17-.49-.22-.75s.12-.51.11-.61c0-.06-.12-.12-.12-.18,0-.17.57-1.6.7-1.82.31-.52.81-1.32,1.18-1.77.4-.48.96-.67,1.35-1.16-1.06-1.02-2.06-2.11-3.12-3.13-2.91-2.79-5.84-5.6-8.76-8.39-10.31-9.85-20.43-20.1-30.46-30.28-3.29-3.33-6.65-6.6-9.93-9.92-.07.1-.04.21-.14.33-.57.69-1.22,1.44-2.05,1.83-1.07.5-3.06.38-4.19.07-1.2-.33-3.02-1.05-3.82-1.99-.43-.5-1.04-1.11-1.4-1.58-.14-.19-.12-.41-.21-.56-.12-.19-.33-.3-.44-.47-.84-1.26-1.15-2.73-1.31-4.2-.01-.1-.12-.19-.11-.23,0-.07.17-.19.22-.32.46-1.41,1.28-2.5,2.22-3.64.17-.2.39-.45.66-.47.08-.42-.41-.61-.65-.92-.39-.5-.78-1.23-1.21-1.77-.71-.88-1.19-1.75-1.8-2.7-1.34-2.1-2.19-3.88-2.91-6.34C.62,13.38-.02,11.12.1,9.33c.01-.18-.11-.68-.1-.84C.27,5.9,2.62,2.95,4.85,1.72c.11-.06.26,0,.37-.06.28-.15.65-.54.93-.69.47-.25,1.93-.64,2.52-.77,2.24-.47,3.69-.01,5.96.46.12.03.26-.02.37,0,2.68.57,5.74,1.37,8.2,2.73,2.04,1.13,3.92,2.5,5.87,3.76.1.06.26.08.37.13l.19-.03c1.58-.89,3.18-1.54,5.03-1.65.16,0,.31-.1.47-.11.09,0,.98.08,1.03.1.17.06.25.2.37.25.12.05.26,0,.37.06.42.22,1.4.88,1.77,1.18.42.34,1.37,1.26,1.68,1.68.13.17.05.32.12.47.05.12.2.2.25.37.05.16.11.51.18.75.21.79.61,3.12.37,3.82-.09.26-.27.49-.37.75-.05.23.54.76.75.93.29.24.82.48,1.12.74,3.07,2.64,5.8,6.15,8.86,8.86.69.59.48,1.91.92,2.42.19.23.52.49.75.71,2.85,2.59,5.59,5.46,8.29,8.15,5.74,5.73,11.74,11.51,17.05,17.61.19.22.45.46.66.65,3.01,2.73,5.84,6.32,8.95,8.95.79.67,1.79,1.35,2.61,2.04.28.24.51.55.79.78.38-.25.93-.28,1.35-.45.47-.18.3-.26.79-.24.11,0,.58-.18.8-.2.92-.07,2.12-.02,2.98.19,1.4.35,3,1.37,4.1,2.33.39.34.98.93,1.18,1.4.41.95.47,3.3.41,4.38-.02.47-.31.59.18,1.03l5.31,3.22c1.81.91,4.18,1.75,5.78,3.02,2.58,2.06,6.24,5.07,7.89,7.92.65,1.13,1.06,3.62.6,4.85-.06.15-.2.25-.26.37-1.51,3.29-4.33,6.08-7.63,7.57ZM100.04,73.11c.2-.12.12-.25.14-.42.02-.26.03-.67,0-.93-.01-.12-.1-.8-.12-.84-.14-.26-.59-.58-.82-.84-.33-.38-.37-.41-.75-.75-.88-.78-1.13-1.28-2.33-1.67-.79-.26-2.22-.48-2.94-.08-.23-.24-.27-.08-.46.12.31.28.57.61.89.88,1.53,1.34,2.95,2.32,4.66,3.4.58.36,1.15.76,1.72,1.13ZM119.22,92.13c-.56-.49-.89-1.39-1.32-1.91-1.48-1.79-3.47-3.22-5.23-4.66-.98-.8-1.63-1.18-2.7-1.8-1.54-.89-3.16-1.63-4.66-2.54-3.14-1.91-6.13-4.06-9.13-6.18-.59-.42-1.49-.87-2.05-1.31-2.13-1.64-3.93-4.06-5.96-5.78-.28-.24-.76-.43-1.03-.65-.51-.41-.94-1.01-1.44-1.44-.43.46-.92.88-1.35,1.35-1.09,1.2-2.42,2.39-3.46,3.63-.25.3-.39.72-.64,1.03-1.5,1.8-3.56,3.53-5.13,5.31-1.27,1.44-2.33,3.11-3.63,4.57-.51.57-1.2,1.02-1.54,1.72.14.27.48.38.66.55,2.27,2.1,4.51,4.38,6.93,6.49,4.62,4.04,9.43,8.59,15.47,10.41.44.13,1.23.36,1.53.29,4.29,1.27,9.04.42,13.38,0,2.02-.19,3.08-.36,4.94-1.24,2.09-.98,3.45-2.01,4.85-3.88.14-.18.05-.35.11-.47.32-.59.83-1.06,1.15-1.77.22-.49.54-1.08.11-1.54l.14-.18ZM30.8,8.16l1.54,1.16c1.79,1.16,3.68,2.11,5.31,3.45.17.14.21.23.47.18-.05-.9-.21-1.76-.49-2.61-.98-.99-1.9-2.07-3.05-2.86-.22-.01-.43-.1-.65-.12-.64-.07-2.11.21-2.7.47-.19.08-.29.17-.42.33ZM75.9,55.5l-4.15-4.15c-1.76-2.49-4.28-4.58-6.43-6.8-4.19-4.32-8.29-8.78-12.38-13.14-.1-.11-.12-.31-.27-.47-.33-.36-1.78-1.87-2.06-1.96-.11-.04-.34.02-.56-.05-1.09-.33-2.81-2.66-3.82-3.5-.27-.23-.68-.35-.93-.55-.79-.63-1.56-1.62-2.33-2.34-.93-.87-2-1.62-2.98-2.42-.59-.48-1.09-1.18-1.68-1.67-2.46-2.1-5.11-3.85-7.73-5.69-3.13-2.19-6.37-4.43-9.88-5.93-2.8-1.2-7.04-1.94-10.16-2.18-1.17-.09-2.09.1-3.17.49-.89.88-1.77,1.51-2.24,2.68-.2.5-.25,1.05-.48,1.54.91,7.64,6.12,13.75,10.92,19.34s10.14,10.65,15.18,15.93c5.59,5.87,11.59,11.46,17.34,17.14,3.5,3.45,6.93,6.99,10.44,10.44.16.03.18.05.28-.08.19-.24.4-.45.56-.66s.22-.54.37-.75c.49-.64,1.31-1.48,1.83-2.09,1.09-1.26,2.4-2.32,3.43-3.5.83-.95,1.54-1.56,2.57-2.21.93-.59,1.16-.91,1.96-1.62s1.69-1.26,2.41-2.04c.66-.71,1.4-1.24,2.06-1.86s1.25-1.3,1.91-1.92ZM84.57,64.73c-.81-.87-1.78-1.56-2.28-2.66l-4.76-4.76-.38-.08c-.47.87-1.39,1.48-2.05,2.23-.26.3-.58.91-.84,1.21-.96,1.11-2.45,2-3.54,2.98-.62.56-1.23,1.38-1.86,1.86-.21.16-.54.22-.75.37-1.37,1.05-3.54,3.48-4.66,4.84-.65.8-1.18,1.75-1.77,2.52-.32.41-.93.69-.82,1.3l7.39,7.22c.42-.47.95-.88,1.35-1.35,1.92-2.26,3.56-4.73,5.58-6.9,2.72-2.91,5.84-5.97,8.86-8.48.14-.12.4-.12.51-.33ZM77.49,95.85l-5.82-5.17c-.11.1-.09.26-.18.37-.3.38-.6.78-.81,1.21-.23.47-.81,2.07-.57,2.52.22.41.64.52.91.75.5.42,1.15,1.13,1.68,1.46.12.08.66.24.84.28.1.02.67.13.7.13.06,0,.12-.11.18-.11.07,0,.13.12.18.12.06,0,.88-.34,1.08-.39.14-.04.33.05.47-.02.49-.26.77-1.01,1.35-1.14ZM8.72,28.01c-.15.11-.13.28-.23.42-.33.46-.7,1.05-.94,1.58-.33.72-.53,1.08-.34,1.86.4,1.65,1.89,3.55,3.23,4.57.21.16,1.27.53,1.58.62s2.23.47,2.42.4c.25-.06.35-.34.56-.45.15-.08.41.04.56-.04.25-.14.44-.49.84-.44.02-.16.01-.24-.09-.37-.75-.98-2-1.91-2.84-2.94-.97-1.19-2.06-2.43-3.12-3.58-.52-.56-1.12-1.07-1.64-1.63Z"/>
      <g>
        <path d="M19.53,24.27c-.18-.31-.61-.38-.79-.59-.13-.15-.57-.92-.66-1.13-.19-.43,0-1.04.38-1.28.15-.09.4-.06.57-.21.22-.19.28-.57.65-.84.42-.31,1.18-.23,1.54-.6.07-.01.35.48.39.61.06.2-.01.4.06.56.26.54.62.75.41,1.49-.03.11-.33.86-.37.93-.6.94-1.32.67-2.16,1.06Z"/>
        <path d="M25.44,15.29l.57,1.68-.03.28c-.27.19-.25.54-.37.75-.29.47-.73.45-1.18.56-.14.04-.25.17-.37.19-.1.02-.56-.21-.65-.29-.35-.28-.45-.86-.75-1.21-.03-.13.26-.65.38-.72.5-.31.29-.04.75-.59.17-.2,1.57-.76,1.68-.64Z"/>
        <path d="M22.8,25.68c.23-.11.29-.5.41-.58.13-.09.4-.06.57-.21s.16-.36.27-.47c.14-.14.99-.46,1.21-.47.6-.01.39.29.52.66.08.23.38.42.41.83s-.52,1.16-.84,1.4c-.19.14-1.32.35-1.49.26-.55-.31-.7-.97-1.07-1.42Z"/>
        <path d="M30.61,21.58c-.3.27-.36.64-.69.89-.35.26-.74.08-1.07.31-.45-.29-.57-.77-.84-1.2.37-.27,1.51-1.24,1.91-1.17.35.06.42.92.69,1.17Z"/>
      </g>
    </g>
  </g>
</svg>