<svg xmlns="http://www.w3.org/2000/svg" viewBox="0 0 370.17 419.95"><g id="Layer_2" data-name="Layer 2"><g id="Layer_1-2" data-name="Layer 1"><path d="M197.66,23.32c0,6.08-.1,12.17,0,18.25.14,7.18.44,14.36.61,21.54.06,2.57.22,5.16.2,7.74,0,1,.35,1.17,1.24,1.16,8.72-.06,17.25,1.49,25.79,3,7.4,1.33,14.81,2.56,22,4.74s14.61,4,21.26,7.85a66.29,66.29,0,0,1,7.73,5c4.27,3.32,9.06,5.87,13.4,9.09,9.16,6.77,17.3,14.67,25.39,22.64,10.57,10.42,18.49,22.7,25.64,35.6,6.95,12.53,11.25,25.93,13.94,39.9a122,122,0,0,1,1.55,13.5q.65,8.37,1.15,16.74c.15,2.43-.67,4.7-.72,7.11a139.59,139.59,0,0,1-4.37,31.14c-3.45,13.54-8.3,26.59-15.67,38.62-4.37,7.12-8.46,14.4-13.9,20.8a146.4,146.4,0,0,1-24.34,22.86c-1.6,1.19-2.71,2.83-4.14,4.17a69.27,69.27,0,0,1-8.16,6.33c-8.46,5.82-17,11.45-26.46,15.64a218.82,218.82,0,0,1-21.53,7.85,145.22,145.22,0,0,1-26.19,5.51,137.57,137.57,0,0,1-21.37.77,110.61,110.61,0,0,1-12.94-1.44,196.49,196.49,0,0,1-24-5.12,84.08,84.08,0,0,1-10.66-3.72c-7-3-14.27-5.4-20.92-9.2-7.13-4.09-14.41-8-20.89-13.06-5.46-4.29-10.45-9.14-15.63-13.76a124.23,124.23,0,0,1-17.27-18.61c-6.27-8.44-12.11-17.17-16.52-26.77-1.67-3.64-3.89-7.05-5.29-10.78-2.73-7.3-6.38-14.24-8.37-21.83a142.15,142.15,0,0,1-3.7-21.11c-.93-8.84.12-17.6.46-26.39.22-5.8,1.4-11.53,2.41-17.26s1.76-11.38,3.39-16.9A160.3,160.3,0,0,1,54,153.13c3.22-5.88,6.37-11.79,10.58-17a222.35,222.35,0,0,1,14.84-17.31c4.08-4.11,7.78-8.61,12.55-12,1.63-1.16,3.21-2.42,4.92-3.46,4.65-2.83,9-6.12,13.47-9.18,6.55-4.47,13.79-7.59,21.19-10.35a150,150,0,0,1,22.53-6.73c5.06-1,10.15-1.9,15.24-2.78,3.64-.63,7.2-1.62,10.8-2.41A68.68,68.68,0,0,1,190,70.59c.85-.06,1.17-.25,1.17-1.12,0-1.58.08-3.16.13-4.74.56-16.28.67-32.57.68-48.86,0-4.35.12-8.71.21-13.07,0-1.69,2.76-3.41,4.24-2.59.7.39.77,1.36.92,2.14.5,2.66.19,5.35.23,8,.06,4.31,0,8.62,0,12.94Zm37.92,225.11c-.41-.22-.85-.48-1.31-.69-2.6-1.18-5.23-2.31-7.81-3.54-9-4.27-16.07-10.45-20.32-19.58-.61-1.3-1.13-2.64-1.74-4.08-2.88,13.13-10.09,22.51-22.59,27.53.41.57,1,.59,1.45.77,4.77,1.81,9.08,4.31,12.1,8.54a49.73,49.73,0,0,1,8.35,19c.23,1.11.5,2.22.81,3.57A75.64,75.64,0,0,1,235.58,248.43Zm-115-34.35c-.23.7-.08,1.24,1,1.41,6.09.95,12.17,1.89,18.3,2.56.91.1,1.74.11,2.25-.93a2.29,2.29,0,0,1,2.21-1.05c.86,0,1.73,0,2.59,0s1.12-.18,1.31-1.06c2-9.52,3.47-19.15,5.37-28.68.14-.68,0-1-.79-1.12-2.09-.2-4.16-.54-6.24-.77a155.24,155.24,0,0,1-16.07-2.39c-1.11-.25-1.29.18-1.55.95q-1.8,5.19-3.64,10.37A88.7,88.7,0,0,0,120.55,214.08Zm164.93,29.64c-.07-1.16-.11-2.35-.22-3.54-.75-8.14-1.78-16.25-2.75-24.36-.12-1-.39-1.19-1.32-.91-8.16,2.49-16.25,5.22-24.62,7-.38.07-.87.13-.77.79.37,2.4.59,4.82.86,7.23.77,6.9,1.7,13.78,2.49,20.68.1.83.37,1,1.06.82A230.16,230.16,0,0,0,284.57,245C285.17,244.82,285.84,244.66,285.48,243.72Zm-96-23.35c2.64.27,5.26-.38,7.89-.3.88,0,1.24-.44,1.43-1.25a91.86,91.86,0,0,0,1.69-10.13c.41-3.37.59-6.76.94-10.13a20.37,20.37,0,0,1,.66-3.36,1.94,1.94,0,0,1,2-1.47c1.05,0,1.33.74,1.55,1.57a7.29,7.29,0,0,1,.3,2c0,.42,0,.81.58,1a3.76,3.76,0,0,1,2.15,2.88,52.27,52.27,0,0,1,1,5.61A55.18,55.18,0,0,0,212,217.93c.27.77.6,1.08,1.41,1,2.15-.13,4.3-.24,6.46-.27.91,0,.83-.48.76-1.11-.28-2.28-.62-4.55-.76-6.84-.45-7.06-1.12-14.1-2.09-21.12-.14-1-.48-1.28-1.55-1.24-9.7.44-19.41,1.3-29.12.11-.66-.08-.92.07-.94.8-.16,4.06-.41,8.12-.55,12.18-.16,4.83-.23,9.66-.34,14.49,0,1.36-.57,3.37.09,3.92C186.24,220.63,188.07,220.26,189.5,220.37Zm-10.23,68.09c-.1-2-.23-3.91-.29-5.87-.14-5.36-.28-10.72-.36-16.08,0-1.32-.42-1.87-1.81-1.84a37,37,0,0,1-4.58-.3c-4.88-.5-9.76-1.05-14.64-1.57-2.41-.26-4.83-.49-7.25-.73-.56-.06-1-.06-1,.75,0,2-.23,4-.26,6,0,3.87-.06,7.75,0,11.63,0,2.24.29,4.47.42,6.71.05.76.39,1,1.17,1.09a48.34,48.34,0,0,1,5,.71,219.55,219.55,0,0,0,22.81,3.21c.62.05.88,0,.85-.71C179.24,290.48,179.27,289.47,179.27,288.46ZM281.08,207l-.22-.82c-2.18-8.65-5.56-16.86-8.9-25.09-.42-1-.77-1.21-1.82-.85a130.71,130.71,0,0,1-20.65,5c-1.74.28-1.74.28-1.31,2.08,1.22,5,2.47,10,3.64,15.08.86,3.74,1.89,7.45,2.5,11.25.14.83.36,1.35,1.43,1,1.59-.49,3.23-.8,4.85-1.18,6.61-1.55,13-3.76,19.58-5.6C280.56,207.77,281.25,207.82,281.08,207ZM200.25,324.5c5.6-.26,11.2-.34,16.79-.7,2.53-.16,2.52-.2,2.76-2.73.57-6.32,1.56-12.6,1.78-19,.07-2,.16-1.92-1.8-1.73a135.34,135.34,0,0,1-15.06.72c-5.5-.09-11-.24-16.48-.76-.89-.08-1.35.05-1.24,1.09.14,1.38.24,2.76.26,4.14.06,6,.62,12,.89,18,0,.66.19.92.89.92C192.78,324.49,196.51,324.5,200.25,324.5Zm-27.25.18c2.25,0,4.5,0,6.75,0,1,0,1.33-.31,1.25-1.31-.25-3.15-.45-6.3-.62-9.46-.23-4.3-.43-8.61-.63-12.91,0-.78-.1-1.35-1.15-1.38-1.38,0-2.74-.33-4.12-.47-4.12-.43-8.24-.86-12.33-1.57-3.47-.61-6.92-1.27-10.39-1.87-1.44-.24-1.66,0-1.54,1.45.06.71.21,1.42.26,2.13.25,3.66.84,7.28,1.32,10.91s1.09,7.44,1.55,11.16c.24,1.91.31,2.08,2.16,2.22C161.34,324,167.15,324.67,173,324.68Zm112.85-72-3.52,1.09c-7.12,2.15-14.32,4-21.61,5.53-.4.09-1,0-.85.83a52.75,52.75,0,0,1,.35,7.43c.2,6.27.11,12.55,0,18.82,0,1.13.31,1.15,1.14,1,7.82-1.61,15.64-3.18,23.31-5.42a1.58,1.58,0,0,0,1.33-1.75c.28-4.26-.19-8.51-.08-12.77C286.05,262.5,286.15,257.62,285.85,252.64ZM118.29,242.19c0,2.45,0,4.27,0,6.09,0,.89.12,1.35,1.18,1.49,2.45.32,4.88.83,7.32,1.27,4.93.89,9.9,1.56,14.87,2.18.9.11,1.13-.13,1.17-1,.14-2.48.28-5,.56-7.42.63-5.34,1.41-10.66,2.5-15.92.21-1,.79-2.32.39-3s-1.93-.19-2.94-.36l-.15,0c-7.35-.93-14.71-1.86-22-3.37-1.12-.23-1.67.08-1.76,1.28C118.91,229.87,118.1,236.32,118.29,242.19Zm134.58,30.14c0-3.59.07-7.18-.23-10.77-.06-.74-.22-1-1-.85-6.67,1-13.37,1.64-20.08,2.28-1,.09-1.44.39-1.43,1.54.15,8.85-.22,17.71-.36,26.56,0,.82.2,1,.91.9.34,0,.68,0,1,0,6.62-.87,13.24-1.7,19.82-2.82.87-.15,1.08-.48,1.1-1.29C252.71,282.67,253,277.5,252.87,272.33Zm-135.55,44.9c-.27-1.86-.53-3.46-.73-5.07-.87-7-1.75-14-2.54-21a1.32,1.32,0,0,0-1.26-1.35c-7.53-1.59-14.91-3.74-22.28-5.92-1-.29-1,0-1,.79.21,2.56.3,5.14.64,7.69a157.26,157.26,0,0,0,3.09,17,1.59,1.59,0,0,0,1.11,1.31c1.54.52,3.06,1.08,4.58,1.63C104.89,314.36,111.05,315.63,117.32,317.23ZM87.71,257c.35,6.72.68,12.68.94,18.64,0,.93.64.94,1.18,1.11,7.12,2.19,14.35,3.92,21.61,5.58,1.45.33,1.45-.12,1.33-1.27-.41-4.14-.81-8.28-1.07-12.43s-.38-8.23-.5-12.35a1.11,1.11,0,0,0-1-1.26c-6.52-1.55-13-3.26-19.36-5.33-.28-.09-.59-.45-.77.13C89.27,252.41,86.9,254.59,87.71,257ZM197.46,181c5.84-.18,11.67-.36,17.5-.81,1.13-.09,1.23-.53,1.09-1.41-.2-1.17-.4-2.35-.57-3.53-.87-6.24-2.28-12.37-3.66-18.51-.16-.72-.43-.75-1.06-.69-3,.3-6,.59-9,.76-4,.22-7.94.36-11.92.47-.87,0-1.1.3-1.15,1.16-.15,2.76-.39,5.52-.62,8.28q-.51,6.35-1.07,12.69c-.07.82.24,1,1,1.09A82.86,82.86,0,0,0,197.46,181Zm-78.95,82.21c-.17,3.31.26,6.6.39,9.9.12,3.09.6,6.18.7,9.27,0,1.47.82,1.62,1.88,1.83,6.51,1.33,13.07,2.29,19.65,3.1,1.1.14,1-.37,1-1.12a144,144,0,0,1-.29-16.36c.14-2.49,0-5,.32-7.46.13-.9,0-1.49-1.2-1.53a33.42,33.42,0,0,1-4.53-.66c-5.66-1-11.32-2-17-3.08-.89-.17-1,.1-.94.8C118.53,259.68,118.51,261.45,118.51,263.22Zm2.16,28.36c.26,2.12.54,4.09.74,6.07.67,6.54,1.41,13.07,2.35,19.57.15,1,.51,1.71,1.71,1.83s2.52.51,3.8.71c5.18.83,10.37,1.61,15.55,2.45.89.14,1.33.09,1.11-1s-.27-2.28-.46-3.41c-1.17-7-1.95-14.11-2.71-21.19-.21-2-.16-1.9-2.15-2.07-2.75-.25-5.5-.59-8.23-1C128.52,293,124.69,292.25,120.67,291.58Zm125.69-114c.23,0,.38,0,.52,0,6.55-1.12,13.12-2.16,19.48-4.18,2.1-.67,2.14-.64,1.14-2.61a232.08,232.08,0,0,0-13.31-22.9c-.47-.71-.86-.76-1.62-.52-5.06,1.61-10.09,3.33-15.25,4.61-.94.23-.67.65-.47,1.19,2.94,7.86,6.06,15.66,8.63,23.66C245.62,177.21,245.78,177.71,246.36,177.54ZM285.25,289c-4,1.15-7.62,2.13-11.32,2.95-4.33.95-8.65,1.91-13,2.67-.57.1-1.37,0-1.44,1-.26,3.91-.66,7.8-.83,11.71a102.74,102.74,0,0,1-1,10.38c-.14.92.09,1,.81.9,6.56-1.16,13.17-2,19.66-3.63a2.52,2.52,0,0,0,2.15-2.24c1.15-4.85,2.34-9.69,3.28-14.59C284.08,295.26,284.64,292.28,285.25,289ZM228.49,218.2c5.95-.34,12-1,18.09-1.81,1-.13,1.15-.34,1-1.31-1.87-9.33-4.29-18.54-6.41-27.81-.18-.82-.51-.85-1.16-.75-1.47.2-2.94.37-4.42.5-3.52.3-7.05.57-10.58.84-.52,0-1,0-.81.78.24,1.26.4,2.54.61,3.8.8,4.8,1.21,9.64,1.63,14.49.31,3.47.59,6.94.9,10.41C227.36,217.9,227.46,218.56,228.49,218.2Zm-115.95-4.63c.67,0,.54-.44.58-.8a97.15,97.15,0,0,1,2.75-14.25c1.59-5.89,3.77-11.58,5.78-17.32.31-.9.28-1.27-.75-1.55a84.79,84.79,0,0,1-10.63-3.74c-1-.43-1.47-.31-1.93.69-1.4,3.08-3,6.08-4.34,9.18-3.07,6.92-5.89,13.93-7.37,21.41-.2,1,.19,1.16.84,1.39,3,1.08,6,2.18,9,3.2C108.5,212.45,110.53,213,112.54,213.57Zm-.29,8.14c0-1.39,0-1.42-.75-1.65a143.32,143.32,0,0,1-15.24-5.22c-.94-.39-1.15-.11-1.28.78-.49,3.43-1,6.85-1.58,10.28-.8,5.16-1.58,10.33-2.45,15.49-.23,1.37.15,1.93,1.51,2.33,5.55,1.65,11.25,2.61,16.86,4,1.78.43,1.76.4,1.79-1.51.07-4.35-.1-8.7.22-13.06C111.6,229.33,111.94,225.52,112.25,221.71Zm19.46-46.59c7.63,1.56,15.24,1.91,22.75,3,.75.11,1-.27,1.17-.88.29-1.2.57-2.4.86-3.6q2.13-8.93,4.27-17.85c.18-.72.24-1.34-.71-1.49a152.84,152.84,0,0,1-16.25-3.57c-.68-.18-.84.1-1.06.54l-2.24,4.47C137.33,162,134.41,168.42,131.71,175.12Zm46.16,61h-.08c0-1.87,0-3.74,0-5.61,0-3.18,0-3.18-3.24-3.24-4.35-.08-5.06.39-6.75,4.46-.13.31-.23.62-.34.94A77.88,77.88,0,0,0,164.61,244c-.11.63-.31,1.27-.81,1.41-1.19.32-2.15,1.21-3.44,1.29-.88.05-1.38,0-1.56-1.1-.36-2.13-.37-4.27-.53-6.41-.29-3.95-.76-7.87-2.58-11.48-.33-.67-.45-1.75-1.55-1.58s-.68,1.17-.83,1.84a168.56,168.56,0,0,0-3.38,25.31c0,.56,0,1,.76,1,4,.34,8,.74,12,1.14s8.18.8,12.25,1.32c3.25.41,3.22.49,3.21-2.74,0-.88-.2-1.38-1.13-1.65-2.74-.8-5.44-1.76-8.37-1.57-.4,0-.89.16-1.13-.37-1.08-2.43-.15-4,2.31-4.17a46.52,46.52,0,0,0,6.87-1.18c.89-.2,1.24-.57,1.21-1.52C177.83,241.11,177.87,238.62,177.87,236.13Zm49.26,85.94c-.52,1.26.65,1.07,1.65.93q9.65-1.28,19.27-2.58a1.68,1.68,0,0,0,1.63-1.57c1.19-7.07,1.37-14.24,2.08-21.35.12-1.18-.54-1-1.21-.85-3.41.73-6.85,1.26-10.31,1.69-3.22.4-6.46.75-9.68,1.16-.55.07-1.28-.08-1.3.92,0,1.67-.16,3.34-.27,5s-.18,3.34-.37,5C228.18,314.15,227.67,317.87,227.13,322.07Zm-146-48.68a68.13,68.13,0,0,0-.23-8A175.67,175.67,0,0,1,81.24,247a1.7,1.7,0,0,0-1.19-1.93A129.11,129.11,0,0,1,68,238.49a8.94,8.94,0,0,0-2.54-1.35c-.15,1.06-.25,2.05-.43,3a116.24,116.24,0,0,0-2,23.91,1.4,1.4,0,0,0,1,1.5c3.28,1.43,6.52,2.95,9.78,4.44ZM87.75,212c.23-.78-.36-.94-.89-1.18a88.2,88.2,0,0,1-11.25-6c-.94-.6-1.23-.39-1.52.57-2.46,8.24-5.1,16.43-7.13,24.79a1.61,1.61,0,0,0,.93,2.14q6.75,3.8,13.74,7.08c1.24.59,1.43.23,1.61-.94.67-4.36,1.43-8.7,2.17-13.05S87,216.43,87.75,212Zm-1.88,95.43c-.12-.57-.16-.79-.22-1a114.87,114.87,0,0,1-2.75-15.19c-.3-3-.57-6-.87-9a2,2,0,0,0-1.12-1.95c-5.34-2.55-10.63-5.17-16-7.75-.47-.23-.92-.66-1.54-.52a17.73,17.73,0,0,0,0,2.19c.44,3.59.88,7.18,1.38,10.77a116.94,116.94,0,0,0,3,14.35,1.48,1.48,0,0,0,.92,1.15C74.38,302.7,80,305,85.87,307.38Zm16.25-134.49c0-.61-.54-.6-.88-.74a71.9,71.9,0,0,1-9.33-4.67c-1.15-.69-1.65-.54-2.19.68-2.51,5.76-5,11.51-7.68,17.22a120.07,120.07,0,0,0-5.3,12.48c-.21.67-.28,1.1.47,1.51,3.62,1.94,7.35,3.65,11.1,5.31.66.29.84.2,1-.52q.84-3.32,1.88-6.57c2.51-7.94,6.16-15.38,9.94-22.76C101.48,174.19,101.79,173.55,102.12,172.89ZM310.05,278a66.74,66.74,0,0,1-7.54,2.91c-.34.12-.72.15-.78.69-.12,1.32-1.06,1.93-2.19,2.38-1.82.71-3.62,1.47-5.44,2.15-.6.22-1,.44-1,1.16a108.76,108.76,0,0,1-2.74,16.43c-.61,2.76-1.23,5.51-1.89,8.46L306,306.91c.39-.12.82-.22.91-.76.38-2.3.84-4.58,1.14-6.89q.75-5.75,1.32-11.51C309.69,284.61,310,281.47,310.05,278Zm-1.45-34.36c-4.88,2.15-9.59,4.46-14.56,6.12-.55.19-.67.56-.64,1.1.11,1.72.25,3.43.26,5.15,0,6.7,0,13.4,0,20.11,0,.83,0,1.36,1.12.89,4.73-1.93,9.5-3.77,14.11-6A1.65,1.65,0,0,0,310,269.2c-.23-5.59-.37-11.19-.63-16.78A55.76,55.76,0,0,0,308.6,243.66Zm-1-8.42c-.49-4.34-1.33-8.55-2.16-12.77-.91-4.67-1.36-9.43-2.78-14-.17-.57-.2-.82-.9-.54q-5.73,2.34-11.67,4.15c-.41.12-.73.28-.63.9.45,2.72.87,5.44,1.22,8.17.56,4.34,1.06,8.68,1.58,13q.42,3.54.81,7.08c.06.55.15.72.78.48,4.47-1.69,8.89-3.53,13.2-5.59C307.45,236,307.84,235.73,307.6,235.24ZM235,254.62c.74,0,1.25-.05,1.76-.1,4.13-.45,8.25-1,12.38-1.34,2.83-.25,2.89-.17,2.57-3.06q-1.3-12-2.7-24.09c-.28-2.48-.34-2.53-2.76-2.2-5.74.8-11.49,1.48-17.27,1.77-.67,0-.87.21-.78,1,.32,2.85.63,5.7.73,8.55a2.24,2.24,0,0,0,1.58,2.34q4.14,1.76,8.19,3.69c2.15,1,4.52,1.79,6.11,3.62,2.36,2.73,2.53,4.75-1.2,6.23a27.3,27.3,0,0,1-5.1,1.71A7,7,0,0,0,235,254.62Zm-34.72,77.3c-3.49,0-7,0-10.48,0-.43,0-1.17-.3-1,.67.6,4.18,1.06,8.38,1.91,12.53.15.76.4.9,1.07.93,2.1.1,4.2.27,6.3.41,5.82.38,11.65.75,17.47,1.15.63,0,1-.09,1.08-.79.66-4.9,1.34-9.8,2-14.71.09-.62,0-.92-.82-.88C212,331.53,206.14,331.74,200.3,331.92Zm50.93,14.62c6.59-.74,12.87-1.64,19.12-2.75a1.27,1.27,0,0,0,1.2-1c2-6.38,4.36-12.66,6.13-19.13.26-1,.18-1.17-.8-.95-6.62,1.43-13.29,2.61-20,3.66a1.17,1.17,0,0,0-1.15,1c-.63,2.63-1.33,5.25-1.95,7.88C252.93,339,252.11,342.68,251.23,346.54Zm-92.67,4.36c1.27,5,2.33,9.84,3.16,14.76.11.64.3,1.09,1.16,1.12,8,.31,15.89.4,23.84.07.86,0,1-.32.87-1.11-.76-4-1.54-8.05-2.19-12.1-.17-1.09-.65-1.23-1.58-1.29-4-.22-7.92-.55-11.88-.78C167.55,351.32,163.15,351.13,158.56,350.9ZM288.73,172.66l-.9.49a77.25,77.25,0,0,1-8.42,3.89c-1,.38-1.18.72-.73,1.78a193.39,193.39,0,0,1,9.2,25.68c.23.88.42.91,1.2.68,3.35-1,6.61-2.31,9.92-3.48,1.09-.39,1.28-.8.91-1.91-1.27-3.83-2.8-7.57-4.21-11.35-1.87-5-4-9.89-6.15-14.74C289.38,173.31,289.33,172.74,288.73,172.66ZM231.37,348c3.7-.18,7.28-.39,10.87-.51a1.23,1.23,0,0,0,1.33-1.14c1.23-5.9,2.51-11.79,4-17.63.18-.71,0-.8-.7-.69-6.56,1.06-13.13,2.1-19.77,2.52-.68,0-1.07.23-1,1a10.59,10.59,0,0,1-.24,1.55c-.62,4.57-1.19,9.15-1.89,13.71-.15.95,0,1.2.92,1.19C227.07,348,229.28,348,231.37,348Zm86.07-155.16c-.12-.49-.14-.64-.18-.77a139.29,139.29,0,0,0-13.05-27.73c-.39-.63-.68-.59-1.22-.2a62.46,62.46,0,0,1-7,4.43c-.91.5-.88,1-.5,1.81,1.29,2.74,2.59,5.48,3.73,8.28,2.54,6.23,5.05,12.48,7.25,18.84.14.39.14,1.14,1,.72,3.23-1.59,6.57-3,9.53-5.08A4.78,4.78,0,0,1,317.44,192.84Zm-92.2-13.29a29.73,29.73,0,0,0,4.71-.33c2.72-.14,5.41-.56,8.12-.75,1-.07.83-.57.66-1.1-.43-1.35-.91-2.69-1.4-4l-6.9-18.74c-.2-.53-.33-1.08-1.16-.9a102.54,102.54,0,0,1-10.47,1.6c-.89.11-1,.26-.8,1.21,1.7,6.72,3.08,13.52,4.33,20.34C222.83,179.59,222.86,179.58,225.24,179.55ZM280,341.78l16.05-4.41a2.12,2.12,0,0,0,1.43-1.43,150.3,150.3,0,0,0,7.12-20.16c.09-.33.54-.72.1-1s-.72.08-1.08.19c-5.25,1.64-10.49,3.32-15.77,4.88a2.07,2.07,0,0,0-1.66,1.77,106.69,106.69,0,0,1-3.11,10.81C282.09,335.42,281.11,338.44,280,341.78ZM177.3,179.86a2.84,2.84,0,0,1,.72.07c1.3.44,1.66-.25,1.75-1.37s.23-2.47.34-3.71c.5-5.5.92-11,1.55-16.51.14-1.24-.27-1.21-1.14-1.22a88.46,88.46,0,0,1-10.4-.91c-2.06-.25-2.06-.29-2.56,1.71q-2.33,9.48-4.65,19c-.44,1.83-.31,2,1.52,2.08ZM156,330.77c-.65.13-1.73-.47-1.47,1,.68,3.83,1.29,7.67,2.22,11.45.13.55.22.81.84.84q12.54.68,25.08,1.41c.71.05,1.06-.06.88-.9a86.2,86.2,0,0,1-1.78-11.74c-.05-.64-.35-.87-1-.89C172.52,331.67,164.23,331.75,156,330.77ZM317.93,267c3.67-1.39,7.24-2.77,10.83-4.09a1.62,1.62,0,0,0,1.2-1.78,120.27,120.27,0,0,0-.91-19.06c-.36-2.58-.73-5.17-1.11-7.84-3.46,2-7.15,3-10.43,5-1.9,1.13-1.91,1.06-1.54,3.2.41,2.44.77,4.9,1,7.36.36,4.14.51,8.29.67,12.45C317.68,263.74,317.74,265.32,317.93,267Zm19.84-9a1.28,1.28,0,0,0,.39-.05c3.22-1.75,6.14-4,9.43-5.65a1.47,1.47,0,0,0,.72-1.31q.74-5.38,1.41-10.76c.07-.59.27-1.26-.18-1.8-1.55-1.88-2-4.17-2.37-6.48-.52-3-1.06-6-1.91-9.11a64.37,64.37,0,0,1-9.94,7.26,1,1,0,0,0-.49,1.21c.21,1.55.46,3.1.69,4.65.63,4.32,1.21,8.65,1.65,13C337.48,252,337.06,255,337.77,258ZM193.17,150.6c5.24-.31,10.54-.67,15.84-.92,1.08-.05,1.22-.35,1-1.31-1.16-5.77-3-11.35-4.58-17-.18-.66-.45-.82-1.08-.8q-6,.23-11.91.37c-.79,0-1.05.31-1.15,1.07-.8,5.85-1.42,11.73-2,17.6-.07.73.11,1.07.91,1S192.15,150.6,193.17,150.6Zm-57.25-1.83c-.14-.41-.5-.47-.86-.59-3.06-1-6.13-2.05-9.16-3.17-.79-.3-1.05-.07-1.41.57-4.33,7.53-8.36,15.22-12.16,23-.37.75-.3,1,.52,1.3,3.46,1.22,6.94,2.37,10.47,3.37.91.26,1.24.09,1.57-.75a218,218,0,0,1,10.63-23C135.66,149.31,135.78,149.06,135.92,148.77Zm190.57,75.84a4.6,4.6,0,0,0-.05-.51c-1.75-8.12-4.42-16-6.56-24-.19-.71-.51-.55-.92-.31a94.82,94.82,0,0,1-9.42,4.81c-.45.21-.58.4-.4,1a63.23,63.23,0,0,1,2,7.72c1.07,5.92,2.23,11.84,3.27,17.77.2,1.18.57,1.2,1.45.7,3.4-1.94,6.72-4,10-6.13C326.24,225.36,326.61,225.12,326.49,224.61ZM95.4,317.37c.09.41.11.58.16.75,1.52,5.29,3.34,10.48,5.12,15.68.25.73.74.8,1.26.94,6.41,1.75,12.86,3.26,19.36,4.58.87.17,1.08.13.82-.87-1.14-4.46-2.2-8.94-3.23-13.42a1.3,1.3,0,0,0-1.12-1.1A160.51,160.51,0,0,1,95.4,317.37Zm230.43-121.6c0,.22.07.46.13.69,2.5,8.95,5.45,17.77,7.39,26.87.2,1,.53.65,1,.35a73.14,73.14,0,0,0,8.86-6.28,1,1,0,0,0,.37-1.23c-.48-1.53-.91-3.08-1.3-4.64a98,98,0,0,0-8.13-21.24c-.34-.66-.54-1.13-1.38-.43-2.18,1.79-4.44,3.48-6.67,5.21C325.91,195.24,325.61,195.39,325.83,195.77ZM178,212.46c0-2.51-.07-4.62,0-6.72.2-5.59.46-11.18.7-16.78,0-.69.09-1.26-.94-1.35-5.08-.45-10.18-.86-15.24-1.53-1.59-.22-1.74.39-2,1.58-1.26,6.68-2.18,13.42-3.68,20.05-.38,1.67-.62,3.38-.94,5.2a11.28,11.28,0,0,0,5.48-4.72c1.41-2.18,2.25-4.35,1.42-7.08a9.36,9.36,0,0,1,.28-6.19c.67-1.69,2.16-3,3.45-2.73,1.68.31,1.81,1.89,2.33,3.12a2.83,2.83,0,0,1,0,.29,38.78,38.78,0,0,1,.72,4.93C170.33,205.75,173.7,209.13,178,212.46ZM161.54,378c2.39.45,4.68.84,7,1.33a145.35,145.35,0,0,0,22,2.62,113.62,113.62,0,0,0,16.5-.22c1-.09,2-.18,1.26-1.61a2.15,2.15,0,0,1,0-1.13,16.91,16.91,0,0,1,1.14-4.25c.67-1.91.65-1.91-1.31-1.8-1.24.07-2.49.12-3.73.14-2.35,0-4.7,0-7.05,0-.95,0-1.58,0-1.13,1.35a18.05,18.05,0,0,1,.46,3.25c.08.58,0,1.13-.55,1.36a7.92,7.92,0,0,1-2.68.94,1.22,1.22,0,0,1-1.38-.92c-.58-1.56-1.25-3.09-1.81-4.66a1.44,1.44,0,0,0-1.64-1.11c-6.42,0-12.84.27-19.25-.19-1.57-.11-3.14-.27-4.72-.34-.67,0-.93.08-1.22.88C162.83,375.06,163.1,376.82,161.54,378Zm37-301.11c0,3.76,0,7,0,10.33,0,1.68.34,3.53-2.23,3.59-.11,0-.22.18-.33.27-.94.93-2.2.79-3.36,1a.7.7,0,0,1-.87-.57c0-1.25-.76-2.33-.71-3.62.11-2.47,0-5,0-7.52a13.56,13.56,0,0,1-5,.56A7.4,7.4,0,0,0,178,86.22c-.61,1.82-.37,2.63,1.18,3.66A16.47,16.47,0,0,0,184,92.12c2.62.72,5.32,1,8,1.54a30.82,30.82,0,0,0,17.57-2,10.12,10.12,0,0,0,3.84-2.39c1.33-1.46,1.27-2.38-.22-3.6a9.07,9.07,0,0,0-2.92-1.78A30.28,30.28,0,0,1,198.52,76.85Zm-80,65.35c.06-.41-.3-.46-.52-.57a56,56,0,0,1-7.42-4c-.52-.34-.76-.17-1,.23-1.51,2.33-3.86,4-4.39,7.11-.36,2.15-1.94,3.91-3.26,5.67-2.52,3.36-5.07,6.7-7.61,10-.6.78-.74,1.23.41,1.75,3,1.36,6.1,2.71,9.18,4,1,.42,1.44.34,1.93-.66,3.81-7.8,8-15.42,12.33-22.93ZM56.35,186.29a.75.75,0,0,0,.07-.12c4.38-10.92,8.94-21.75,16.35-31.07.4-.5.15-.72-.18-1-1.39-1.33-2.77-2.65-4.12-4-.37-.37-.59-.31-1.07-.17-1.19.34-2.1,1.49-3.5,1.23-.11,0-.33.3-.44.49-3.64,6.76-7.26,13.54-9.85,20.8-1.11,3.09-2.32,6.14-3.43,9.23-.14.41-.6,1,.29,1.41C52.43,184,54.32,185.16,56.35,186.29Zm28-23.11c-.08-.43-.45-.51-.71-.7-1.39-1-2.84-1.94-4.16-3-.86-.72-1.22-.58-1.85.29a93.6,93.6,0,0,0-10,18c-1.66,3.9-3.31,7.8-4.78,11.79-.27.74-.27,1.24.53,1.71,2,1.15,3.91,2.4,5.84,3.64.6.39.84.33,1.11-.39q1-2.75,2.23-5.42c3.85-8.41,7-17.16,11.42-25.29Zm184.08-21.9-.56.25c-2,.88-4,1.85-6,2.62-1.18.44-1.28.83-.62,1.86,4.88,7.67,9.87,15.27,13.56,23.61.34.76.71.83,1.42.52,2.73-1.21,5.48-2.39,8.24-3.52.84-.35,1.07-.7.54-1.55-1.43-2.32-2.77-4.69-4.16-7a134.68,134.68,0,0,0-11.32-16C269.24,141.7,269.05,141.23,268.41,141.28ZM189.31,265.2a19.59,19.59,0,0,1-2.3,0c-1-.12-1.21.31-1.16,1.2.13,2.39.27,4.77.28,7.16.05,6.11.34,12.22.56,18.33,0,.57,0,1,.8,1,3.81.3,7.63.52,11.46.55.71,0,.83-.33.66-.88-1-2.89-1-5.93-1.33-8.89a57.06,57.06,0,0,0-4-15.25C193.33,266.1,192.26,264.3,189.31,265.2Zm126.8,38.17a83.26,83.26,0,0,0,9.73-4.17c.34-.17.32-.41.37-.68.51-2.61,1.14-5.19,1.42-7.85.34-3.26.63-6.54,1-9.8a94.83,94.83,0,0,0,.84-10.67c-3.72,1.22-7.27,2.67-10.83,4.09-.52.21-.49.6-.53,1-.42,4.8,0,9.64-.53,14.44q-.39,3.62-.77,7.23C316.57,299.07,316.35,301.14,316.11,303.37ZM148.28,343.2c.92.14,1.21-.17,1-1.11a89.09,89.09,0,0,1-2-10.85c-.15-1.37-.84-1.74-2.07-1.91-2.82-.38-5.63-.88-8.44-1.34-3.42-.56-6.82-1.25-10.2-2-.61-.14-1.17-.34-.91.82.93,4.32,2,8.59,3.1,12.88.2.79.52,1.22,1.42,1.25s2,.28,3,.4C138.22,342,143.25,342.57,148.28,343.2Zm-2.13-198.31a146.11,146.11,0,0,0,15.49,3.31c.72.13,1-.1,1.29-.89,1.76-5.67,3.59-11.32,5.43-17,.24-.72.34-1-.63-1.19-3.37-.57-6.72-1.26-10.07-1.94a1.24,1.24,0,0,0-1.48.74c-1.4,2.34-2.88,4.62-4.27,7C150,138.19,148.1,141.51,146.15,144.89ZM204.21,293.7h1.23c4.31,0,8.59-.38,12.89-.55,3.91-.15,3.89-.09,4-4,.16-5.36.4-10.71.54-16.06.07-2.84,0-5.69,0-8.81-1.36,1.49-2.62,2.78-3.77,4.16a71.1,71.1,0,0,0-12.36,22.27C206.31,292,205.79,293.24,204.21,293.7Zm-72.88,53.69c2.38,5.22,4,10.45,6.36,15.34a1.4,1.4,0,0,0,1.09.79c4.87,1,9.76,1.89,14.7,2.43,1,.1,1.21-.15,1-1.05-1-4.37-2-8.72-2.89-13.11-.31-1.54-1.16-1.88-2.52-2.05-4-.48-8-1.08-12-1.63C135.25,347.87,133.42,347.65,131.33,347.39ZM274.64,138.45c.86,1,1.65,1.94,2.39,2.88a147.79,147.79,0,0,1,13.87,20.29c.52.94.91,1,1.84.47,2.24-1.27,4.34-2.76,6.54-4.09.6-.37.71-.65.31-1.32-4.91-8.08-10.89-15.36-16.95-22.58-.28-.33-.49-.64-1-.2A48.33,48.33,0,0,1,274.64,138.45ZM130.92,361.75c-2-4.91-4-9.49-5.88-14.13-.39-1-.74-1.66-1.9-1.88-2.79-.55-5.56-1.22-8.32-1.87-3.82-.91-7.57-2.08-11.55-3.38.39.9.64,1.59,1,2.23,1.54,2.84,3.07,5.68,4.66,8.48.49.86.61,2,1.47,2.57,3.11,2.06,5.89,4.67,9.77,5.43C123.7,359.88,127.19,360.85,130.92,361.75ZM249.7,141.83a1.6,1.6,0,0,0-.12-.36q-6.17-7.75-12.32-15.51a1.1,1.1,0,0,0-1.24-.47c-3.37.78-6.74,1.58-10.19,2.39l7.85,17.7c.23.52.5.63,1.1.46,2.93-.83,5.87-1.6,8.82-2.36A54.23,54.23,0,0,0,249.7,141.83ZM93.57,332.29c-.16-.49-.26-.89-.41-1.27A103.37,103.37,0,0,1,88,315.51a2.41,2.41,0,0,0-1.7-1.83c-4.48-1.76-8.93-3.6-13.31-5.6-.92-.42-1.87-.8-3-1.25.76,2.81,1.5,5.4,2.14,8a6.27,6.27,0,0,0,1.21,2.55c1.93,2.38,3.94,4.69,5.69,7.19a13.31,13.31,0,0,0,8.38,5.95c1.3.27,2.55.8,3.83,1.19A6.7,6.7,0,0,0,93.57,332.29ZM87.2,158.43c.41,0,.48-.41.67-.65.94-1.21,1.78-2.51,2.8-3.64,5.33-5.91,9.63-12.59,14.27-19,.58-.79.44-1.12-.3-1.61-1.47-1-2.88-2.05-4.31-3.1-1.92-1.42-1.87-1.4-3.3.41-5.81,7.32-10.21,15.56-15.47,23.24-.34.48-.34.81.21,1.14,1.69,1,3.35,2,5,3A2.43,2.43,0,0,0,87.2,158.43ZM192.27,353c.66,4.23,1.3,8.35,1.94,12.48.12.76.29,1.26,1.32,1.21q7.53-.33,15.06-.46a1.23,1.23,0,0,0,1.36-1.06c.88-3.2,1.75-6.41,2.71-9.58.28-.92.09-1.13-.83-1.18-5.62-.35-11.24-.75-16.86-1.13ZM323.39,188.8c2.16-1.59,4.18-3.11,6.24-4.56.72-.51.79-.9.36-1.7-1.94-3.62-4-7.16-6.15-10.67-3.13-5.13-6.09-10.37-9.47-15.36-.55-.81-.83-.76-1.45-.15a19.29,19.29,0,0,1-2.72,2.32c-.85.58-.8,1-.31,1.82a114.19,114.19,0,0,1,8.76,16.63C320.27,181,322.06,184.71,323.39,188.8ZM178.12,130.39c-.52,0-1.05,0-1.57-.1a.87.87,0,0,0-1.15.69q-3,8.7-5.44,17.55c-.25.87.08,1,.73,1.07,3.47.35,6.94.73,10.42.94,1.2.08,1.48-.47,1.57-1.42.6-5.82,1.19-11.64,2.29-17.39.13-.68,0-1.06-.83-1.08C182.13,130.61,180.13,130.48,178.12,130.39ZM54.81,223.74c-.21.6.12.91.56,1.18,1.39.84,2.79,1.67,4.13,2.58.85.57,1.09.27,1.3-.59,2-8.61,4.37-17.12,7.19-25.5.21-.62.23-1-.42-1.4a52.12,52.12,0,0,1-5.75-4c-.56-.45-.83-.62-1.1.35A248.39,248.39,0,0,0,54.81,223.74Zm95.08-98.19c.08-.54-.26-.56-.6-.66-2.45-.76-4.9-1.5-7.33-2.33a1.11,1.11,0,0,0-1.45.4c-4.07,5.13-8.21,10.2-11.86,15.65-.44.66-.44,1,.42,1.27,3,.92,6,1.89,9,2.89a.94.94,0,0,0,1.35-.51c3.16-5.46,6.59-10.76,10-16C149.61,126,149.77,125.74,149.89,125.55ZM219,365.87c6.27.1,12.43-.1,18.58-.54.7-.05.74-.54.87-.95,1-3,1.85-6,2.8-9,.25-.77.14-1-.73-1a154.53,154.53,0,0,1-17.35.45,1.1,1.1,0,0,0-1.29.94C220.92,359.12,220,362.4,219,365.87ZM49.1,185.07c-.64,2.55-1.38,4.91-1.81,7.33-1.46,8.28-2.94,16.55-4,24.9a1.15,1.15,0,0,0,.81,1.43,23.8,23.8,0,0,1,3.06,1.56c.92.55,1.15.33,1.32-.7.76-4.59,1.56-9.18,2.47-13.74a131.59,131.59,0,0,1,3.81-14.6c.17-.52.36-1-.27-1.47C52.69,188.33,51,186.77,49.1,185.07Zm75-78.62a41.23,41.23,0,0,0,4.27,2.24,1.57,1.57,0,0,0,2-.28c4.65-3.58,9.25-7.23,14-10.67,6.76-4.91,14.36-8.32,21.84-11.91,1.73-.83,3.64-1.37,3.91-3.82l-2.19.85c-3.84,1.51-7.37,3.78-11.33,4.94C144.26,91.41,134.18,98.9,124.07,106.45Zm103.22,41.07c-2.61-6-5.19-12-7.76-17.89-.21-.48-.45-.58-1-.5-2,.3-4,.5-6,.73-.82.1-1.21.23-.89,1.33,1.6,5.56,3.36,11.08,4.44,16.78a.91.91,0,0,0,1.16.87C220.6,148.5,223.9,148,227.29,147.52Zm41.22,203.63c-.6,0-.93,0-1.26.08-5.1.73-10.18,1.65-15.3,2.1-2.16.2-2.9,1.08-3.37,2.93-.69,2.69-1.59,5.34-2.44,8.15A132.68,132.68,0,0,0,263.62,361a1,1,0,0,0,.82-.67C265.56,357.29,267,354.34,268.51,351.15ZM135,120.51c-.15-.36-.46-.42-.76-.55-1.75-.75-3.52-1.45-5.22-2.3a1.62,1.62,0,0,0-2.12.28A136.86,136.86,0,0,0,114,132c-.43.52-.54.91.24,1.27,2.24,1.06,4.45,2.17,6.66,3.31a1,1,0,0,0,1.5-.38,139.49,139.49,0,0,1,11.92-14.84C134.56,121.09,134.75,120.82,135,120.51Zm121.33-1.45c4.81,4.64,9.39,9.46,13.9,14.34a.57.57,0,0,0,.84.08,49,49,0,0,0,6.56-4c.59-.47.48-.7.08-1.22a64.61,64.61,0,0,0-13.51-12.54,1.25,1.25,0,0,0-1.55,0C260.61,116.8,258.55,117.87,256.32,119.06Zm80.56,60.17a7,7,0,0,1,1.33-1.68c1.32-.9,1.17-1.85.62-3.13-3.87-9.07-8.88-17.51-14.11-25.83-1-1.52-1-1.51-2.25-.36-.75.66-1.48,1.36-2.26,2-.61.47-.7.82-.21,1.51,1.13,1.59,2.17,3.25,3.18,4.92,4.32,7.12,8.69,14.21,12.75,21.48A1.83,1.83,0,0,0,336.88,179.23ZM161.8,119.63c3,.71,6,1.1,8.92,1.62,1,.18,1.19-.21,1.49-.94,1.57-3.78,3.12-7.58,4.81-11.31a53.83,53.83,0,0,1,4.63-8c-1.47-.49-2.85-.85-4.15-1.4a1.15,1.15,0,0,0-1.65.49c-1.35,1.85-2.7,3.7-4.14,5.48C168.11,110,165.1,114.88,161.8,119.63Zm-53.23,10.26c.43,0,.51-.37.71-.6,2.84-3.29,5.44-6.79,8.55-9.85,1.43-1.4,2.86-2.82,4.31-4.21.41-.38.66-.61,0-1-1.37-1-2.71-2-4-3a.87.87,0,0,0-1.24,0,78.38,78.38,0,0,0-14.77,13.29c-.55.66-.54.92.19,1.37,1.87,1.16,3.68,2.39,5.52,3.59C108.06,129.62,108.32,129.75,108.57,129.89Zm188.72-11.57c.58,1.68-.77,2.09-1.59,2.82s-1.07,1-.1,1.85c1.72,1.44,3.32,3,4.93,4.59a138.56,138.56,0,0,1,13.08,14.84c.68.88,1.1,2.47,2.13,2.43s1.82-1.25,2.71-2c1.41-1.16,1.37-1.15.2-2.68-6-7.72-13.07-14.35-20-21.13A2.23,2.23,0,0,0,297.29,118.32ZM162.52,228.78a24,24,0,0,1,11.41-10.59,30.18,30.18,0,0,1-8.56-8.92,14.13,14.13,0,0,1-5.34,5.17c-2.1,1.14-4.36,1.93-6.74,2.94C158.26,219.64,160.79,223.71,162.52,228.78Zm-72-106.36c-6.9,7.65-13.22,15.81-19.65,23.88-.41.51-.33.8.16,1.15.9.64,1.76,1.32,2.64,2,2,1.49,2.09,1.55,3.34-.58,4.31-7.34,8.68-14.64,14.08-21.25.7-.87,2.06-1.77,1.85-2.66S91.37,123.25,90.52,122.42ZM173,96.76a16,16,0,0,1-1.79-1.68c-.52-.66-.81-.59-1.42-.07-5.21,4.57-10.55,9-15.59,13.76-2.31,2.18-4.5,4.51-6.9,6.93,2.17.67,4.19,1.2,6.14,1.92,1.35.5,2.06.14,2.87-1C161.26,109.54,166.46,102.7,173,96.76Zm91.7,39.56c-4.13-4.76-8.53-8.95-12.83-13.24-1.31-1.31-2.42-1.67-4.06-.87a15,15,0,0,1-2.6.75c-1.48.43-1.49.47-.52,1.66,3.86,4.75,7.74,9.49,11.55,14.28a1,1,0,0,0,1.37.37Zm-56.56-35.9c1.24.34,2,1.48,2.85,2.49a84.17,84.17,0,0,1,11,17,1.4,1.4,0,0,0,1.76,1c2.19-.45,4.36-1,6.57-1.32,1.41-.21,1-.62.39-1.34a201.24,201.24,0,0,0-15.9-16.36C212.67,99.83,210.87,98.12,208.15,100.42Zm-73,11.24a43.8,43.8,0,0,1,4.54,1.62c1.38.66,2.22.26,3.2-.76a96.56,96.56,0,0,1,8.5-7.93c5.51-4.48,10.94-9.1,17.51-12,1-.42.58-1.12.41-1.63-.25-.76-.75-.15-1.12,0-.91.39-1.8.84-2.72,1.24C154.41,97,144.84,104.14,135.2,111.66ZM47.86,257.87c-.34-3.7-.72-7.12-1-10.55a106,106,0,0,1,.52-20.92c.07-.55,0-.9-.45-1.2-1.29-.79-2.56-1.6-4-2.48-.15,2.41-.13,4.68-.29,6.95a63.8,63.8,0,0,0-.09,12.74c.51,4,.78,8,1.24,11.93.07.58,0,1.36.77,1.74C45.65,256.6,46.63,257.18,47.86,257.87Zm241.35-130.7a15.1,15.1,0,0,0-1.68,1.6c-.39.51.24.87.5,1.19,2.85,3.52,5.76,7,8.62,10.52a113,113,0,0,1,8.54,12.16c.38.61.65.79,1.25.24a27.24,27.24,0,0,1,2.48-1.95c.83-.61,1-1.1.3-2.06a131,131,0,0,0-19.33-21.09Zm-85.74-4.24c-1.71-6.77-3.42-13.34-4.8-20-.17-.83-.67-.79-1.25-.76s-1.12.14-1.26,1c-.6,3.77-1.31,7.51-1.95,11.27-.41,2.39-.81,4.79-1.13,7.2-.05.4-.6,1.25.5,1.25Zm-19.42-.31c2.63,0,2.62,0,3-1.91l3.12-15.8c.16-.79.64-1.72.38-2.33-.35-.82-1.47-.22-2.23-.43-.22-.07-.45-.15-.68-.21-.54-.14-.84.06-1.11.58a139.61,139.61,0,0,0-7.69,18.9c-.22.61-.15.87.55.91C181.06,122.41,182.73,122.53,184.05,122.62Zm28.83,258.2a13,13,0,0,0,1.68,0c6.67-.93,13.23-2.4,19.77-4,1.06-.26,1.22-.82.92-1.63a2.68,2.68,0,0,1-.22-1.92c.32-.89-.16-.88-.85-.86-5.55.13-11.1.25-16.65.32A1.38,1.38,0,0,0,216,373.8C215.11,376.14,214.59,378.65,212.88,380.82ZM257,111.05c-4.06-2.57-8-4.89-11.8-7.49-6.78-4.7-14.34-8-21.49-12-.71-.4-.79.15-1.08.46-.58.61.07.66.39.85,1,.57,2.12,1.09,3.12,1.72a143.42,143.42,0,0,1,23.43,18.52c.39.37.63,1,1.51.68A62.18,62.18,0,0,0,257,111.05Zm67,196.77a1,1,0,0,0-.35,0c-2.84,1.1-5.67,2.23-8.52,3.28-.72.27-.86.79-1,1.39-1,4-2.23,8-3.57,11.86-.89,2.59-1.84,5.16-2.86,8,.41-.35.6-.48.75-.64q5-5.52,9.57-11.43C320.87,316.58,323.68,312.81,324,307.82Zm11.42-16.66a152.65,152.65,0,0,0,10.75-29.84c-3,1.71-5.6,3.24-8.25,4.75a1.09,1.09,0,0,0-.52,1.08c-.08,2.05-.13,4.11-.3,6.15-.31,3.56-.72,7.1-1.06,10.66C335.8,286.36,335.62,288.76,335.41,291.16ZM216.91,96.62a94.12,94.12,0,0,1,8,6.75c4.41,4.38,8.88,8.7,12.93,13.43.31.35.57.79,1.17.65a33.83,33.83,0,0,0,5.07-1.37l-.58-.62c-6.86-7-14.57-12.92-22.36-18.78C219.17,95.24,219.16,95.26,216.91,96.62ZM295,344.6a5.86,5.86,0,0,0-1,.07c-5.23,1.51-10.42,3.13-15.72,4.38-.36.09-.85,0-1.09.53q-2.1,4.68-4.28,9.34c-.29.63.2.83.45,1.19s.59.22,1,0c6.33-3.73,12.51-7.65,17.76-12.86C293,346.39,293.92,345.61,295,344.6ZM56.73,262.13c0-.34,0-.66,0-1,0-3.2-.15-6.42.12-9.61a152.36,152.36,0,0,1,2.43-17.66.76.76,0,0,0-.37-.95c-1.34-.82-2.68-1.66-4-2.52-.66-.44-1-.27-1,.47-.1,1.48-.28,3-.28,4.43a131.47,131.47,0,0,0,.23,13.61c.38,3.75.61,7.51.93,11.25A1.89,1.89,0,0,0,56.73,262.13Zm221-159c-.15,1.49-1.41,2-2.24,2.9-.45.48-.77.66,0,1.23,4.76,3.49,9.46,7.05,14.18,10.6.41.3.7.49,1.19,0,1-.94,2-1.77,3.14-2.72A129,129,0,0,0,277.7,103.11ZM95.92,121.41a2.73,2.73,0,0,0,1.15-1,75.73,75.73,0,0,1,14.87-13.16c1-.68,1.14-1.11.22-1.92a5.06,5.06,0,0,1-1.07-1.5c-.4-.74-.76-.63-1.31-.16-1.2,1-2.44,2-3.69,2.95a86.59,86.59,0,0,0-12.23,12.06c-.23.26-.8.6-.47.91A26.68,26.68,0,0,0,95.92,121.41ZM216,122a70.29,70.29,0,0,0-3.84-7.83,92.39,92.39,0,0,1-5.36-9.94c-.45-1.07-1.2-2.15-.38-3.34-.62-.34-1,.18-1.58.2-1,0-1.24.44-.82,1.45a41.59,41.59,0,0,1,1.67,5q1.89,7.08,3.64,14.19c.19.78.4,1,1.21.83C212.28,122.25,214.05,122.15,216,122Zm-20.15,105.6c-3.48-.08-6.74.4-10,0-.89-.1-1,.43-.85,1.06a33.57,33.57,0,0,1,.21,5.58c.05,2.13,0,4.26,0,6.58C190.33,237.49,193.51,233,195.85,227.57ZM141.12,87.87c-9.18,2.93-18.2,6.18-26.14,11.88.58,1,1.64,1.4,2.32,2.19s1.3.77,2.15.17c4.43-3.15,8.87-6.29,13.37-9.34C135.47,91,138.32,89.47,141.12,87.87ZM272.61,100a125.47,125.47,0,0,0-16.46-7.29c-6.4-2.27-12.89-4.27-18.91-7.51a7.35,7.35,0,0,0-3.76-.83c.56.27.8.41,1.06.5a176.45,176.45,0,0,1,17,7.43,168,168,0,0,1,16.94,10c.36.23.69.93,1.29.36A16.9,16.9,0,0,0,272.61,100ZM159.89,377.53a6.78,6.78,0,0,1-3.66-5.15c-.1-.59-.66-.42-1.06-.47-1.79-.25-3.58-.47-5.36-.77-2.88-.48-5.75-1-8.42-1.5-.4,2.76,1.7,3.15,3.52,3.83l.53.22A52.64,52.64,0,0,0,159.89,377.53Zm182-195.21c-.71.23-1,.8-1.42,1.11-1.1.74-1.05,1.51-.4,2.6a50.32,50.32,0,0,1,3.13,6.54q1.61,3.9,3.23,7.8A158.84,158.84,0,0,0,341.91,182.32ZM45.38,261.88a72.34,72.34,0,0,0,5.26,15.52c-.62-3.87-1.44-7.7-1.69-11.59C48.8,263.49,47.25,262.89,45.38,261.88Zm44,73.65c3.37,3.08,6.44,5.88,9.5,8.69-.92-2-2-3.9-2.8-5.93a.91.91,0,0,0-.51-.47C93.61,337.08,91.66,336.37,89.36,335.53Zm153,38.76a97.42,97.42,0,0,0,11.69-4c-3,.31-6,.84-8.93,1.07C243.3,371.52,242.71,372.56,242.4,374.29ZM216.69,226.51c1.7,1.86,3,3.73,5.15,5-.15-1.64-.28-3.14-.43-4.64,0-.45-.21-.8-.79-.76A18.86,18.86,0,0,0,216.69,226.51ZM55.77,268.1a157.89,157.89,0,0,0,3.15,17.32,3.53,3.53,0,0,0,.13-.65,153.56,153.56,0,0,1-2-15.56C57,268.54,56.61,268.32,55.77,268.1Zm229-144.83-7.36-5.47c1.58,2,3.31,3.74,5,5.56C283.54,124.63,283.51,124.66,284.76,123.27Zm-58-40.47-3.45-.72C223.89,83.06,224,83.08,226.73,82.8Z"/><path d="M343.7,49.4c.11,4.39.11,9.23,1.48,13.9,1.87,6.44,6.84,10.13,13.56,10.13a66.63,66.63,0,0,0,7.61-.21c2.39-.27,3.42,1.52,3.79,3.3.25,1.22-.83,1.84-1.74,2.36a84.81,84.81,0,0,0-16.55,12.51,49.41,49.41,0,0,0-12.72,20.8c-.25.77-.57,1.52-.8,2.29a3.33,3.33,0,0,1-2.25,2.29c-1.36.53-2.58,1.33-4.14,1.26a1.19,1.19,0,0,1-1.29-1,20.63,20.63,0,0,1-.61-7.66A76.65,76.65,0,0,0,330.18,98a11,11,0,0,0-5.43-8.65,37.37,37.37,0,0,0-14-4.74c-4.42-.73-8.87-.22-13.3-.28-.76,0-1.8.16-2-.74-.23-1.25-1.35-2.5-.1-3.9a10.77,10.77,0,0,1,4-2.89c6.26-2.57,12.8-4.32,19.19-6.52a25.2,25.2,0,0,0,8.1-4.34,5.85,5.85,0,0,0,2-3c2-6.54,4.62-12.81,7.21-19.12A4.51,4.51,0,0,1,341.23,41c1.14.18,2.37,2,2.46,3.86C343.75,46.2,343.7,47.59,343.7,49.4Zm-5.94,48.06a74,74,0,0,1,17.73-17.58c-1.05-.16-1.8-.34-2.55-.39a14,14,0,0,1-10.38-5.57,25.72,25.72,0,0,1-4.86-11c-.31-1.49-.53-3-.86-4.91-1.08,2.55-2,4.69-2.88,6.83a6.08,6.08,0,0,0-.87,2.24c.11,2.55-1.83,3.88-3.45,4.67a47.42,47.42,0,0,1-8.39,3.45c-3.34.92-6.64,2-10.1,3a3.33,3.33,0,0,0,.54.3,2.63,2.63,0,0,0,.56.1A44.66,44.66,0,0,1,326.9,82a15.63,15.63,0,0,1,8.83,8.29A37.44,37.44,0,0,1,337.76,97.46Z"/><path d="M32,315a25.59,25.59,0,0,1-.25,3.1c-.45,2.38.5,4.4,1.6,6.33a38.36,38.36,0,0,0,7.75,9.15c3.07,2.81,6.1,5.67,9.14,8.51a7.38,7.38,0,0,1,1.82,3c.48,1.33-.46,2.78-2,3.52a24,24,0,0,0-13.77,18.15c-.42,2.36.5,4.6.38,6.94a2.5,2.5,0,0,1-1.88,2.71,16.12,16.12,0,0,1-3.59,1.2,1.19,1.19,0,0,1-1.51-1.07,24,24,0,0,1-.83-5.65,18.29,18.29,0,0,0-5-12.29c-4.84-5.3-11.12-8.05-18.07-9.41-1-.19-2-.4-2.92-.66-2-.54-2.7-1.27-2.84-3.37-.08-1.26,1-1.91,1.8-2.58A3,3,0,0,1,3.1,342c7.19-1.27,11.93-6.2,16.69-11.11a16.46,16.46,0,0,0,2.92-4.4c1.23-2.54,2.22-5,1.36-8a21,21,0,0,1-.44-8.27,4,4,0,0,1,5.07-3.36,1.29,1.29,0,0,1,.7.47c1,1.59,2.55,2.86,2.36,5A17,17,0,0,0,32,315Zm.23,42.29a.92.92,0,0,0,.23-.2c2.78-4.1,5.82-7.94,10.15-10.55.58-.35.35-.62,0-1-5.07-4.84-10.4-9.44-14.4-15.33-4.21,6.34-9.3,11.58-16.6,14.6C19.93,346.67,27.09,350.16,32.19,357.24Z"/><path d="M80.32,419.93c-.76.1-1.18-.11-1.48-1.11a81.22,81.22,0,0,0-3.39-10.12A21.35,21.35,0,0,0,63,397c-.8-.3-1.54-.48-1.73-1.61-.29-1.76-.06-2.46,1.48-3.5A60.7,60.7,0,0,0,75,381.39a13.11,13.11,0,0,0,3.32-10,3.1,3.1,0,0,1,4.2-3.44c.76.23,1,1,1.36,1.58,2.67,4,4.49,8.5,7.29,12.44,1.94,2.72,4.27,5.16,5.92,8.08a9.72,9.72,0,0,1,1.62,4.07,3.52,3.52,0,0,1-2,3.53c-5.22,2.61-8.26,6.94-10,12.34-.62,2-1,4.06-1.49,6.1A4.94,4.94,0,0,1,80.32,419.93Zm1.34-14.08a29.84,29.84,0,0,1,9-10.76c.79-.58.24-1.11-.11-1.57-2.89-3.83-6.33-7.24-8.65-11.61a65.54,65.54,0,0,1-13,11.66A20.71,20.71,0,0,1,81.66,405.85Z"/><path d="M283.62,37.78c1.36-.06,2.22.87,2,2.48-.12,1,.21,1.34,1.12,1.44,2,.24,3.36,1.67,4.79,2.93,2.84,2.48,6,4.64,8.67,7.28a13.49,13.49,0,0,1,3.11,5.39c.63,1.74-1.08,4.19-3.12,4.59a2.67,2.67,0,0,0-1.28.54,6.3,6.3,0,0,1-4.1,1.46,5.07,5.07,0,0,0-4.11,2.46c-2.44,3.2-3.07,7-3.65,10.84-.15.94-.21,1.9-.28,2.85a1.23,1.23,0,0,1-.76,1.13c-.89.22-1.6.81-2.44,1.07-2.5.8-3.35.07-3.39-3.07a17.26,17.26,0,0,0-3.36-9.84A13.42,13.42,0,0,0,268,64c-1.57-.32-3.2-.42-4.81-.6-.49,0-1.1-.1-1.14-.64,0-.8-.95-1.53-.15-2.41a5.44,5.44,0,0,1,2.17-1.54l5.45-2c5.19-1.91,8.17-5.72,9.47-11,.43-1.71.8-3.42,1.18-5.14C280.68,38.46,281.37,37.87,283.62,37.78ZM272,59.82a17.14,17.14,0,0,1,11,7.68,27.31,27.31,0,0,1,8.13-9.11c-2.92-2.55-5.81-5-7.81-8.5C281.08,54.94,277.17,57.82,272,59.82Z"/></g></g></svg>