<svg xmlns="http://www.w3.org/2000/svg" viewBox="0 0 256.29 315.53"><g id="Layer_2" data-name="Layer 2"><g id="Layer_1-2" data-name="Layer 1"><g id="Layer_2-2" data-name="Layer 2"><path d="M211.24,299.81c-1.94-1.5-2-3.77-2.8-5.65a7.05,7.05,0,0,0-2.79-3.55c-4.74-2.78-6.67-7.35-7.86-12.35a7.51,7.51,0,0,1,.46-4.22,16.4,16.4,0,0,0,.89-8.24,5.6,5.6,0,0,0-.75-1.94,13,13,0,0,1-1.95-8.49c.14-1.1-1.54-2.57-2.89-2.48a25.85,25.85,0,0,1-8.92-1.27A22.72,22.72,0,0,1,178,248a95.67,95.67,0,0,1-10.61-8.53,25,25,0,0,1-4.53-6.22,49.07,49.07,0,0,1-5.68-16.19c-1-6.06-1.84-12.13-2.51-18.23a96.25,96.25,0,0,1-.59-12A53.07,53.07,0,0,1,157,170c1.75-5.09,3-10.33,5.11-15.3a176.07,176.07,0,0,1,8.55-18c.6-1.08,1.08-2.23,1.71-3.28a28.23,28.23,0,0,1,13.25-11.69A49.18,49.18,0,0,1,196.78,118c1.67-.29,3.37-.36,5.06-.53.79-.07,1.59-.17,2.38-.19,3.14-.11,6.21,0,8.92,2.31a18.58,18.58,0,0,0-.87-4.62c-.5-1.89-1-3.78-1.34-5.71a2.19,2.19,0,0,1,.15-1.44c.31-.61,0-.76-.52-.8-2.42-.19-2.83-.53-3.4-2.89q-.6-2.47-1.15-4.94c-.09-.43-.21-.94.08-1.27.6-.68.29-1.31.08-2a76.49,76.49,0,0,0-4.82-10.83c-3.91-7.91-7.6-15.94-12.78-23.16-2.54-3.53-5.41-6.78-8.2-10.1A63.25,63.25,0,0,0,168,40.39c-4.39-3-8.66-6.27-13.27-8.95a97.53,97.53,0,0,0-22.43-9.59c-3.7-1.07-7.52-1.61-11.25-2.54-2.8-.7-5.6-1.38-8.45-1.85a10.32,10.32,0,0,0-2.67-.16,12.74,12.74,0,0,1-3.7,0c-3.46-.72-6.15,1-8.85,2.6C93.66,22.12,90,24.33,86.4,26.73c-7.7,5.18-15.29,10.49-21.81,17.2a135,135,0,0,0-10.43,12A30.73,30.73,0,0,0,51,61.37a103,103,0,0,0-4.51,9.35c-2.31,6.29-5,12.48-6.14,19.11-1.12,6.27-2.22,12.55-2.21,19s.13,13.1.67,19.63c.25,3.07.9,6.13,1.06,9.22a3.86,3.86,0,0,0,1.87,3.45c2,1.39,3.13,3.68,4,6a2,2,0,0,1-.67,2.26c-.15.14-.55.15-.29.57,1.93,3.11,2.74,6.75,4.59,9.91a58.24,58.24,0,0,1,3.78,6.49,15,15,0,0,1,7.38-7.91c1.8-1,3.37-2.23,5.33-3A24,24,0,0,1,73.42,154c3.2-.1,6.41-.45,9.61-.23,4.56.31,9.09.82,13.24,3a43,43,0,0,1,6,4.33,62.3,62.3,0,0,1,13.18,13.31c2.52,3.55,5.43,6.77,8.24,10.07a158.85,158.85,0,0,1,12.34,17,34.9,34.9,0,0,0,2.69,3.73,34.91,34.91,0,0,1,3.12,4.86,133,133,0,0,1,9.6,18.65c1.33,3.34,3.25,6.44,4.44,9.86a48.91,48.91,0,0,1,2.59,12.83,37.56,37.56,0,0,1-.55,5.78c-.16,1.83-.4,3.65-.55,5.48a10.59,10.59,0,0,1-1.21,4c-.77,1.48-1.43,3-2.1,4.53a20.89,20.89,0,0,1-6.81,8.48,53.25,53.25,0,0,1-5.89,4.31c-1,.54-2,1-3,1.51-.43.2-.53.36-.47.88a16.31,16.31,0,0,0,2.89,6.92,3,3,0,0,0,3.13,1.27c1.05-.15,2.1-.29,3.16-.36,3.73-.25,6.71,1.32,9.31,3.84.81.79,1.61,1.59,2.44,2.37a9.19,9.19,0,0,0,6.29,2.37,18.28,18.28,0,0,1,10.74,4,52.82,52.82,0,0,1,7.91,6.88,3.56,3.56,0,0,1,1,1.81c-4.21,0-7.53-2.21-10.95-4.17-1.48-.84-2.88-1.8-4.32-2.71a13.36,13.36,0,0,0-6.77-1.8,11.31,11.31,0,0,1-8.28-3.58,26,26,0,0,0-4-3.47,8.29,8.29,0,0,0-6.23-1.45,17.63,17.63,0,0,1-3.78.25,4.91,4.91,0,0,1-3.92-2.57,23.19,23.19,0,0,1-3.11-7.31A2,2,0,0,0,131,287c-1.44.06-2.83.5-4.23.67a21.94,21.94,0,0,1-5.31,0,60.65,60.65,0,0,1-12.66-2.57,52.2,52.2,0,0,1-11-5.07,3,3,0,0,1-1.25-1.13c-.39-.88-1.08-.85-1.88-.9-1.44-.1-2.71.51-4,.76a12,12,0,0,1-4.27,0c-4.84-.84-8.67-3.55-12.41-6.52-4.68-3.72-8.91-8-13.64-11.63-3.36-2.6-5.59-6.15-8.13-9.47a72.5,72.5,0,0,1-8.73-15.34,37.07,37.07,0,0,1-2.46-11.09c-.32-3-.88-6-.95-9.06a43.47,43.47,0,0,1,1-10.55c.18-.82.62-1.54.82-2.39a5,5,0,0,0-.67-4.05c-.72-1.16-1.31-2.39-2-3.6-.23-.43-.44-.51-.92-.23-3.12,1.75-4.27,1.36-5.74-1.85a9.06,9.06,0,0,1-.59-1.49c-.22-.79-.5-1-1.36-.58a15.15,15.15,0,0,1-4.91,1.83,2.75,2.75,0,0,1-2.5-.64,32.37,32.37,0,0,1-6.59-7.88c-.78-1.4-2-2.58-2.41-4.14-.8-2.88-2.33-5.5-3-8.43-.13-.59-.37-.81-.95-.68A1,1,0,0,1,9,170.47a24.47,24.47,0,0,1-2.67-5.78,4.62,4.62,0,0,1,.4-3.09c.09-.21.28-.35.19-.63-1-2.86-.92-5.91-1.76-8.78A140,140,0,0,1,1,135.38a84.74,84.74,0,0,1-1-15.77c.14-4.94.59-9.87.69-14.81a72,72,0,0,1,.83-11.66c1.11-6,1.29-12.08,3-18A64.67,64.67,0,0,1,8,65.42c2.22-4.71,4.38-9.45,7-13.94A112.11,112.11,0,0,1,26.6,34.61a69.1,69.1,0,0,1,10.63-9.42c2-1.54,4-3.08,6.11-4.52,2.6-1.81,5.63-2.8,8.43-4.24,3.15-1.63,6.43-3,9.55-4.72A62.93,62.93,0,0,1,76.13,6.13C81,4.92,85.77,3.59,90.64,2.5,93,2,95.23,1.05,97.62.65a43,43,0,0,1,10.93-.5c2.76.24,5.53.53,8.29.53A58.81,58.81,0,0,1,137,4.14a23.39,23.39,0,0,1,4.6,2.12,9.53,9.53,0,0,0,4.17,1.17A35,35,0,0,1,152,8.89a49.76,49.76,0,0,0,6.76,1.17c5.42.92,10.23,3.35,15,5.85,3.86,2,7.43,4.48,11.08,6.8a56.77,56.77,0,0,1,9.87,7.79c1.33,1.35,2.77,2.61,4.12,4A115.71,115.71,0,0,1,208.15,45c1.18,1.49,2.65,2.75,3.7,4.34,2.28,3.44,4.26,7,6.31,10.63,2.22,3.85,4.29,7.79,6.78,11.5,2.76,4.12,5.39,8.33,8,12.52a18.11,18.11,0,0,1,2.23,5,9.62,9.62,0,0,0,1.6,3.16c1.48,2.07,2,4.52,2.61,6.93.25,1,.36,2,.65,2.91a1.42,1.42,0,0,1-1.06,1.93c-.6.19-.6.43-.49.93a61.54,61.54,0,0,0,2.5,8.38c1.24,3.41,1.61,7,2.21,10.54a8.91,8.91,0,0,0,.44,1.85c.37.88,0,1.29-.76,1.64a13.15,13.15,0,0,1-3.77,1.19c-1,.16-1.34.67-1.34,1.7,0,1.74.32,3.54-.55,5.21a13,13,0,0,1-1.2,1.73c-.21.29-.39.41.14.68a13.92,13.92,0,0,1,7.25,7.64,6.43,6.43,0,0,0,2.72,3.23,19.21,19.21,0,0,1,8.47,12.12,66.45,66.45,0,0,1,1.67,14.54,70.15,70.15,0,0,1-1.72,13.84,138.76,138.76,0,0,1-4.27,16.07c-2,6.06-3.84,12.19-6.69,17.93a31.83,31.83,0,0,1-7.76,10.32,15,15,0,0,1-4.52,2.49c-.82.31-1.23.63-.66,1.49a1.13,1.13,0,0,1-.17,1.46c-.86,1-1.67,2.09-2.58,3.06-1.35,1.43-2.77,2.8-4.17,4.19a22.22,22.22,0,0,1-13,6.4,62.77,62.77,0,0,1-8.45.67c-.74,0-1.13.23-1.23.95-.33,2.34-.48,4.65.93,6.74a13.35,13.35,0,0,1,2.47,8.16,20.49,20.49,0,0,1-1.25,6.23,5.58,5.58,0,0,0,.18,4.17,15.21,15.21,0,0,0,4.67,6.81,9.93,9.93,0,0,1,4,6,16.47,16.47,0,0,1,.05,5.47C212,298.45,211.3,299,211.24,299.81ZM239,120.25l0-.68a77.06,77.06,0,0,0-2.15-7.44,42.84,42.84,0,0,1-1.84-6.7c-.14-.79-.46-1.25-1.48-.85-1.81.7-3.68,1.27-5.55,1.83-.75.23-.84.52-.65,1.27.68,2.67,1.77,5.21,2.49,7.87a86.67,86.67,0,0,1,1.82,9.59,3.73,3.73,0,0,0,.39,1.63c.41.56,1,0,1.56-.11,2-.24,4-.63,6-1,.41-.07.82-.2.68-.76A34.54,34.54,0,0,0,239,120.25ZM53,183.17a27.84,27.84,0,0,1,5.23-2.95c3.44-1.5,7.07-1.29,10.69-1.43a18.52,18.52,0,0,1,10.46,3.05c1.67,1,3.14,2.24,4.77,3.27A57.76,57.76,0,0,1,96.55,195c.69.77,1.32,1.59,2,2.38,2.94,3.46,6,6.81,8.78,10.4a76.39,76.39,0,0,1,9.51,15.42c1.27,2.8,2.37,5.7,3.87,8.38,3,5.32,4.63,11.11,6.39,16.87a42.58,42.58,0,0,1,1,7.39c.5,4.29,1.33,8.55.75,12.9a6.71,6.71,0,0,1-3.46,5.51c-1,.51-1.92,1.06-2.91,1.52-2.32,1.07-4.61,2.29-7.31,1.61a.75.75,0,0,0-.47.12,12.78,12.78,0,0,1-2.75.82c-1.87.41-3.73,1-5.67.28a5.54,5.54,0,0,0-1.68,0c4,1.85,8,3.74,12.32,4.33a67.16,67.16,0,0,0,7.2,1.06,31.78,31.78,0,0,0,10.08-.94,18.19,18.19,0,0,0,4.2-1.69c1.92-1.11,3.5-2.65,5.29-3.93a15.77,15.77,0,0,0,5.44-6.88,40.61,40.61,0,0,1,1.85-4.09,17.32,17.32,0,0,0,1.57-4.3,31.88,31.88,0,0,0,.84-11,37.9,37.9,0,0,0-2.75-11.79c-1.28-3-2.75-5.91-4.08-8.89a84.7,84.7,0,0,0-4.77-9.88c-1.24-2-2.36-4.1-3.59-6.11a45.15,45.15,0,0,0-4.07-6.18,35.23,35.23,0,0,1-2.64-3.76c-2.66-4.05-5.3-8.11-8.34-11.88-3.17-3.92-6.48-7.73-9.62-11.67a127.66,127.66,0,0,0-8.81-10.63,116.59,116.59,0,0,0-9.38-8A21.48,21.48,0,0,0,84.11,158c-1.85-.24-3.71-.28-5.56-.52a24.16,24.16,0,0,0-4.81,0c-2.8.21-5.33,1.45-7.92,2.41a5.28,5.28,0,0,0-2.19,1.1,16.12,16.12,0,0,1-3.76,2.81,3.8,3.8,0,0,0-1.5,1.55c-2.69,5.14-4,10.7-4.86,16.37A2.89,2.89,0,0,1,53,183.17Zm168.08-50.1c-2.72-2.83-5.24-5.76-8.34-8.09-1.84-1.38-3.55-3-5.87-3.49-3.18-.66-6.38-.14-9.53.3a34.35,34.35,0,0,0-11,3.81,22.56,22.56,0,0,0-8.62,7.88c-1.39,2.14-2.4,4.53-3.64,6.77a136.19,136.19,0,0,0-8,17.64c-1.86,4.88-3.16,9.94-4.81,14.89a50.38,50.38,0,0,0-2.18,16.45c0,1.74.2,3.47.2,5.2a90.57,90.57,0,0,0,1.09,11c.37,3.06.86,6.1,1.35,9.15.52,3.3.86,6.64,2.22,9.76,2.22,5.08,4.63,10,9.06,13.65a84.23,84.23,0,0,0,10.85,8.12,22.69,22.69,0,0,0,10.74,3c2.06.09,4.12.25,6.19.35a28.05,28.05,0,0,0,2.9,0c2.12-.15,4.23-.42,6.36-.54a13,13,0,0,0,4-.9c4.34-1.7,7.06-5.32,10.27-8.46-.15-.05-.23-.1-.27-.08-2.15.85-4.25,1.84-6.44,2.56-.16.05-.3.05-.38.26-.71,2-2.62,2.33-4.24,2.93-1.83.67-3.82.47-5.75.42a6.65,6.65,0,0,1-4.57-1.71,15.62,15.62,0,0,0-4-2.49,4.47,4.47,0,0,1-2.1-1.65,79.5,79.5,0,0,1-4.2-8.16,35.76,35.76,0,0,1-1.56-6.79,56.16,56.16,0,0,1-1.5-11.27,36.09,36.09,0,0,0-.48-5.68,54.61,54.61,0,0,1-.21-13.09c.39-4.38.84-8.75,1.15-13.14a49.87,49.87,0,0,1,.66-6.35,79.29,79.29,0,0,1,3.07-11.75c3.34-9.2,7.77-17.76,14.7-24.85a21.32,21.32,0,0,1,8.82-5.22A17.34,17.34,0,0,1,221.11,133.07ZM26,156.81c2.28-3.09,4.07-6.39,6.44-9.28,1.56-1.88,2.53-4.17,4.23-5.95a.5.5,0,0,0,.12-.55A51.2,51.2,0,0,1,35.53,134c-.25-1.61-.71-3.27-.21-4.85a6.91,6.91,0,0,0,.25-3.14,130,130,0,0,1-.94-14.08,72.42,72.42,0,0,1,.15-8.71c.23-2.62.65-5.21,1.09-7.8s.48-5,1.09-7.39a130.59,130.59,0,0,1,8.19-23.08,53.75,53.75,0,0,1,5.3-9.74A103.1,103.1,0,0,1,64.28,39.79c2.69-2.41,5.17-5.06,8.12-7.15,4.41-3.15,8.89-6.21,13.4-9.22a124.37,124.37,0,0,1,12-7.27,69.8,69.8,0,0,1,10.48-3.9c3.81-1.25,7.34-3.35,11.48-3.63,2.48-.16,4.94-.57,7.41-.89a37.19,37.19,0,0,1,5.07-.48c-1.12-.38-2.24-.67-3.34-1a35.93,35.93,0,0,0-9.2-1.53c-2.2-.09-4.4-.15-6.6-.25-1.27-.06-2.53-.2-3.79-.29a66.76,66.76,0,0,0-7.18-.41,28.12,28.12,0,0,0-6.84,1.09A85.14,85.14,0,0,0,83.54,9.52a125.86,125.86,0,0,0-14.93,8.22A98.24,98.24,0,0,0,52.14,30.58a53.38,53.38,0,0,0-4.43,4.47c-1.08,1.36-2.09,2.77-3.15,4.13a42.78,42.78,0,0,0-4.26,5.93C37.23,50.83,33.83,56.36,31,62.24A150.42,150.42,0,0,0,20.14,91.75c-.77,3.21-1,6.5-1.68,9.72A87.8,87.8,0,0,0,17,115.66a62.36,62.36,0,0,0,.6,10.57c.27,2.27.65,4.53.91,6.81a51.46,51.46,0,0,0,2.24,8.85c.91,3.11,2.14,6.13,3.17,9.2C24.52,153,25.49,154.78,26,156.81ZM97.44,260.49a30.89,30.89,0,0,0-.36-5.09c-1-4.93-2.65-9.7-3.81-14.6a60.93,60.93,0,0,0-7.75-17.75c-2-3.3-4-6.65-6.85-9.33-1.83-1.7-3.78-3.27-5.68-4.9a19.35,19.35,0,0,0-8.09-4.36,78.19,78.19,0,0,0-9.36-1.84,8.09,8.09,0,0,0-6.43,1.66c-1.32,1.06-2.3,2.52-3.91,3.23a.82.82,0,0,0-.32.49,15.62,15.62,0,0,0-.61,4.84c.13,3.89.71,7.74,1.18,11.6a31.16,31.16,0,0,0,1.27,6.43,115.87,115.87,0,0,0,4.64,11c1.72,3.78,4.38,7,6.59,10.45a21.82,21.82,0,0,0,4.94,5.62c4.55,3.5,8.48,7.71,13,11.29,3.3,2.62,6.55,5.15,10.8,6.13,2.43.56,4.54.37,6.44-1.21a10.09,10.09,0,0,0,3.27-5.25A27.53,27.53,0,0,0,97.44,260.49Zm133.29-63c.1-.1.16-.14.19-.2a116.05,116.05,0,0,1,6.53-11.81,4.13,4.13,0,0,1,.76-.91,1.74,1.74,0,0,1,2.19-.09c.65.72.4,1.32-.12,2a69,69,0,0,0-7.9,13.29.82.82,0,0,0,0,.84,15.34,15.34,0,0,0,1.17,2.07,3.47,3.47,0,0,0,.25-.36c1.05-2.13,2-4.28,3.15-6.37.88-1.67,1.36-3.55,2.64-5,.71-.81,2.61-1.22,3.38-.67a2.34,2.34,0,0,1,.55,3.16c-2.09,3.8-4.06,7.67-6.44,11.29a3,3,0,0,0,.05,3.95c1.67,2.28,3.08,4.76,4.66,7.24.26-.63.48-1.11.65-1.62,2.08-6.16,4.08-12.34,5.7-18.65a97.91,97.91,0,0,0,3.08-16.92,48.64,48.64,0,0,0-1.65-17.64,14.49,14.49,0,0,0-8-9.26,5.61,5.61,0,0,0-7.43,2.22,76.07,76.07,0,0,0-6.94,16.19c-1.32,4.15-2.74,8.26-4,12.42a60.76,60.76,0,0,0-2.23,8c-.56,3.41-1.19,6.81-1.76,10.21s-1,7.05-1.21,10.6c-.28,4.25.65,8.41,1.24,12.58.32,2.28.81,4.52,2.82,6.07a29,29,0,0,0,3.6,2.12,5.34,5.34,0,0,0,6.68-.74l.52-.47a27.74,27.74,0,0,0,6.06-8.27,39.61,39.61,0,0,0,2.38-5.59c-.51,0-.73.34-1.08.4-.67.11-1.39.41-1.89-.37l-2.43-3.78c-.64-1-1.29-2-2-3.11-.34.6-.59,1.06-.86,1.51-1.38,2.36-2.74,4.73-4.17,7.05-.29.47-.73,1.25-1.36.93s-.29-1.1-.13-1.65a65.76,65.76,0,0,1,4-11.05c.13-.25.35-.48.13-.83-.41-.65-.78-1.34-1.23-2.11-2.69,4.48-5,9-7.42,13.68a4,4,0,0,1,.28-1.74,83.21,83.21,0,0,1,4.44-10.81c1.65-3.36,1.66-3.35,0-6.57l-.1-.17a47.42,47.42,0,0,1-2.74-6c-.26-.88.12-1.33,1-1.35a2.34,2.34,0,0,1,2,1.34C228.77,194.21,229.73,195.85,230.73,197.49ZM77.55,8.4a47.12,47.12,0,0,0-8.47,2.68C63.9,13.44,59,16.31,53.86,18.81a57,57,0,0,0-7.12,3.57c-3.57,2.4-6.92,5.11-10.26,7.82A47.36,47.36,0,0,0,30.16,36a108.45,108.45,0,0,0-9.78,14c-2.89,4.76-5.19,9.83-7.68,14.81C9.62,71,8.19,77.62,7.11,84.33c-.28,1.71-.3,3.45-.53,5.17-.32,2.37-.94,4.7-1.12,7.09-.16,2-.36,4-.48,6-.16,2.73-.67,5.42-.72,8.16-.07,3.61.26,7.21.07,10.82a75,75,0,0,0,.51,9.58c.38,5.14,1.74,10.06,3,15,.93,3.69,2.17,7.31,2.31,11.17.08,2.07.18,2.09,2.22,1.88,3-.3,5.91-1.1,8.9-1.49.83-.11.8-.54.47-1a32.11,32.11,0,0,1-2.87-6.35,94.22,94.22,0,0,1-4.29-13.44,96.05,96.05,0,0,1-2.15-15.94,86.23,86.23,0,0,1,.5-14c.26-2.58.86-5.1,1.22-7.66A100.61,100.61,0,0,1,16.54,87a128.92,128.92,0,0,1,5.77-16.24A190.47,190.47,0,0,1,33,49.17c4-6.92,8.34-13.51,14-19.13a94.63,94.63,0,0,1,9.33-8.34A166.79,166.79,0,0,1,70.9,12,62.51,62.51,0,0,1,77.55,8.4ZM218.94,233.45a10.09,10.09,0,0,1-2.07-2.22c-.29-.42-.56-.44-1-.23a22.29,22.29,0,0,1-2.2.93c-.33.12-.8.23-1-.15a1,1,0,0,1,.12-1.29,5.08,5.08,0,0,1,1.89-1.44c.95-.25.79-.7.61-1.38A81,81,0,0,1,213,213c-.19-2.8.43-5.57.72-8.35.46-4.26,1.34-8.46,1.93-12.7a76.79,76.79,0,0,1,2.87-11.16c1.16-3.91,2.58-7.73,3.66-11.67a81.62,81.62,0,0,1,4-10.53c.2-.44.2-.75-.17-1-.83-.65-1.56-1.47-2.7-1.56a.67.67,0,0,1-.59-.44c-.46-.85-.07-1.7,1-2.11a3.49,3.49,0,0,1,3.84.93c.16.15.31.6.58.3s.74-.71.48-1.08c-.84-1.19-1.37-2.59-2.58-3.53-1.58-1.24-3.49-1.56-5.33-2.1-.86-.25-1.9-.13-2.39-1.16-.15-.3-.31-.14-.44,0a35.46,35.46,0,0,0-3.66,5.08l1.67-.52a4.61,4.61,0,0,1,1.57-.2,2.48,2.48,0,0,1,2.08,2.09c.19,1.05-.8,1-1.28,1.21-.66.36-1.49.53-2-.39-.18-.32-.47-.33-.78-.32a17,17,0,0,1-1.89,0c-.38,0-.46.16-.6.38-.92,1.59-1.89,3.14-2.71,4.79a52.78,52.78,0,0,0-3,8.44,73.13,73.13,0,0,0-3,15.46c-.22,2.86-.46,5.72-.76,8.57-.24,2.32-.61,4.63-.84,7s-.43,4.71-.57,7.08a64.13,64.13,0,0,0-.18,6.5,89,89,0,0,0,.77,9.37,26.15,26.15,0,0,0,3.1,9.6c.27.43.48.51.94.35a5.32,5.32,0,0,1,2.13-.41,1.1,1.1,0,0,1,1.05.92c.15.53-.34.64-.69.81a6,6,0,0,1-1.77.56,12.83,12.83,0,0,0,6.05,4.58c-.49-1.23-.08-1.92.91-2.26A19.46,19.46,0,0,0,218.94,233.45ZM45.24,201.6a9.92,9.92,0,0,0,3.7-1.17,17.13,17.13,0,0,1,7.59-1.71,39.35,39.35,0,0,1,10.73,1.53,18.34,18.34,0,0,1,7.26,3.39c2.16,1.77,4.25,3.63,6.43,5.38a26.33,26.33,0,0,1,3.79,4,72.81,72.81,0,0,1,6.41,9.87,60.39,60.39,0,0,1,6,14c1.25,4.57,2.36,9.17,3.67,13.72a32.19,32.19,0,0,1,1.12,14c-.44,2.81-.75,5.69-2.63,8.06a18.43,18.43,0,0,0-1.13,1.8c.57.14,1.09.21,1.6.3a37.47,37.47,0,0,0,5.59.29c2.13.09,4.27.44,6.44-.05a3.82,3.82,0,0,0,3.05-2.76c.86-2.59.51-5.22.25-7.84-.32-3.35-1.36-6.56-2-9.86a50.67,50.67,0,0,0-2-8.3c-1.51-4-3.75-7.72-5.4-11.68a10.89,10.89,0,0,0-1.21-2.19c-2.93-4.1-5.32-8.54-7.91-12.85-1.67-2.77-2.89-5.79-4.81-8.42-1.28-1.76-2.71-3.38-4.07-5.07a56.68,56.68,0,0,0-7.4-8.15c-3.26-2.76-6.64-5.38-10.77-6.77a33.27,33.27,0,0,0-8.4-2,26.54,26.54,0,0,0-9.25,1,1.47,1.47,0,0,0-.71.51C48.36,193.76,46.83,197.66,45.24,201.6ZM222.83,94.12a4.48,4.48,0,0,1-1.5-2.25A8.77,8.77,0,0,0,219,87.49a25,25,0,0,1-3.16-4.24c-2.79-4.34-5.88-8.49-8.44-13-.26-.46-.59-.88-.9-1.32-1.91-2.65-4.1-5.09-6-7.78a49.87,49.87,0,0,0-5-5.89c-4.28-4.47-8.69-8.79-13-13.2-2.36-2.41-4.62-4.91-7-7.28a134.32,134.32,0,0,0-10.29-8.93,68.87,68.87,0,0,0-5.79-4.58,15.46,15.46,0,0,1-3.23-2.05,18.89,18.89,0,0,0-5.61-3.77c-3.52-1.67-7.19-3-10.62-4.86a1.37,1.37,0,0,0-1.4.15,3.64,3.64,0,0,1-2.78.4,20.79,20.79,0,0,0-8.49-.35c-2.32.38-4.66.67-7,.88a26.23,26.23,0,0,0-8.68,2.63c1.25.11,2.35.15,3.43.33,2.55.41,5.09.84,7.6,1.49,2.79.72,5.7,1,8.51,1.62a79.46,79.46,0,0,1,17.4,5.88,101,101,0,0,1,9.94,5.08c4.08,2.63,8.15,5.27,12.13,8.06a73.37,73.37,0,0,1,13.59,12.33,139.13,139.13,0,0,1,9.42,11.8c4.63,6.77,8.22,14.12,11.83,21.45,2.11,4.26,4.48,8.42,5.64,13.1.14.53.49.34.77.36,2.25.2,4.43-.4,6.63-.68A12.62,12.62,0,0,0,222.83,94.12Zm1.86-1.22,5.07-2.14c.33-.13.57-.23.33-.71-.57-1.17-1.12-2.33-1.77-3.46-1.57-2.77-3.7-5.15-5.3-7.89-2.07-3.57-4.57-6.87-6.55-10.51-1.4-2.57-3-5.06-4.44-7.59a64.3,64.3,0,0,0-7-10.54c-3.55-4-7-8.14-10.68-12.07-4.53-4.83-9.78-8.8-15-12.72a98,98,0,0,0-16-9.22,30,30,0,0,0-6-2.16c.33.59,1.17.8,1,1.42-.39,1.16.38,1.45,1.15,1.8a42.14,42.14,0,0,1,5.4,2.51,54.92,54.92,0,0,1,5.28,3.57c3.09,2.54,6.3,4.91,9.19,7.7,2,1.92,3.71,4.12,5.77,6,3.84,3.48,7.33,7.31,11,11,2.46,2.44,4.9,4.91,7.13,7.59A101.23,101.23,0,0,1,210.73,65c3.76,5.8,7.84,11.41,10.83,17.67a1.46,1.46,0,0,0,.22.33C224.26,85.75,225.77,88.84,224.69,92.9ZM38.39,183.37c-.15-.37-.44-.6-.56-1a35.26,35.26,0,0,0-3-6.07c-1.64-2.87-3.71-5.47-5-8.51-.24-.56-.64-.24-.93-.19A27.7,27.7,0,0,0,24.44,169c-2.7.94-5.55,1.14-8.33,1.66-.81.16-.79.43-.61,1.13.4,1.55,1.47,2.8,1.87,4.34a9.92,9.92,0,0,0,.61,2.29,40.72,40.72,0,0,0,8,10.66.89.89,0,0,0,1.23.12c.72-.41,1.46-.78,2.21-1.14C32.46,186.62,35.49,185.13,38.39,183.37ZM214.6,106.75c-.41.08-.81,0-1.15.31-.15.13-.35.23-.13.46a6.66,6.66,0,0,1,1.27,3.08c1.21,4,2.77,7.91,2.58,12.2,0,.37.24.58.51.8a10.68,10.68,0,0,1,2.41,2.38c.71,1.11,1.42,1.86,2.83,1.16a1.86,1.86,0,0,1,.79,0,24.19,24.19,0,0,1,4,.19c.43.07.69.07.58-.61-.85-5.37-1.75-10.73-3.75-15.83-.16-.41-.24-.63-.8-.47-.83.24-1.6.11-1.75-1,0-.19-.17-.36-.22-.55-.24-.92-.64-1.56-1.77-1.23a2.26,2.26,0,0,1-.88-.09ZM40.86,178.47c.25-.51.43-.85.59-1.19a29.41,29.41,0,0,1,3.71-5.79c1-1.21,2-2.39,3-3.62a1.18,1.18,0,0,0,0-1.64A42.51,42.51,0,0,1,44,158.86c-.65-1.6-1.3-3.2-2-4.79-.15-.35-.26-.87-.73-.16-2.64,3.93-5.65,7.58-8.47,11.37-.73,1-.49,1.41.2,2.1A44.1,44.1,0,0,1,39.54,176C40,176.71,40.36,177.51,40.86,178.47Zm-28.64-10c1.43-.33,2.75-1.07,4.27-1.14,1.09-.05,2.16-.37,3.24-.47,2.69-.26,5.13-1.52,7.79-1.88.47-.07.48-.32.28-.7a12.63,12.63,0,0,1-1.36-3.94c-.11-.74-.39-.87-1-.77l-5.57.91c-3,.5-6,1-9,1.5-.39.06-.81.12-.89.51a3.33,3.33,0,0,0-.09,2.33c.43.93.78,1.9,1.13,2.86C11.24,168.26,11.52,168.63,12.22,168.47Zm211.87-63.35a8.08,8.08,0,0,1,1-.45c3.32-1.09,6.64-2.18,10-3.22.44-.14.68-.27.57-.72-.58-2.24-1-4.55-2.34-6.51-.9-1.28-.9-1.2-2.37-.72-3,1-5.4,3.1-8.4,4-.46.14-.39.5-.32.8A34.14,34.14,0,0,0,224.09,105.12Zm-5.58,41a16.77,16.77,0,0,1,7.27.6,8,8,0,0,1,4.83,3.47c.27.48.47.42.81.07a8,8,0,0,1,1.43-1.08,12.24,12.24,0,0,1,5.84-1.75,1,1,0,0,0,.9-.66c.18-.42-.22-.59-.42-.82a17.64,17.64,0,0,0-4.95-4c-1.56-.86-4.33-1.66-5.79-.61a13.17,13.17,0,0,1,5.28,5.31c.72,1.39.19,1.82-1.23,2a1.59,1.59,0,0,1-1.4-.81,11,11,0,0,0-5.88-4.44.75.75,0,0,1-.61-.55,1.42,1.42,0,0,0-2.3-.8C220.64,143,219.72,144.58,218.51,146.09ZM105.66,222.76c-.42.05-.58-.16-.7-.54-.33-1-.08-1.41,1.13-2.5.71-.64,2.11-1,2.09-1.8s-1-1.72-1.58-2.59l-.06-.08c-.31-.61-.68-.56-1.19-.17a8.21,8.21,0,0,1-3.29,1.56c-.79.18-1-.14-1.15-.79a1.43,1.43,0,0,1,.44-1.27,25.24,25.24,0,0,1,2.3-2.08c.15-.14.52-.2.3-.51a20.6,20.6,0,0,0-1.4-1.83c-.24-.27-.48.07-.68.21-.59.44-1.15.92-1.76,1.32s-1.49.57-1.55.95.53,1.14.84,1.72c2.25,4.29,4.7,8.47,7.23,12.6.3.49.44.69,1,.15a17.07,17.07,0,0,1,2-1.62c.66-.5,1.71-.89,1.88-1.52s-.74-1.47-1.07-2.26-.71-.82-1.39-.33A7.26,7.26,0,0,1,105.66,222.76ZM52,169.24c-1.28,1.56-2.6,3.08-3.82,4.69-1.82,2.4-2.87,5.24-4.28,7.87-.22.42-.13.61.23.89a25.87,25.87,0,0,1,4.68,4.9c.62.82,1.08,0,1.61-.09s.5-.51.34-.83A1.25,1.25,0,0,1,51,185.2a1.34,1.34,0,0,0-.06-1.71,3.13,3.13,0,0,1-.45-1.07,18.88,18.88,0,0,1,.15-6.45C51,173.72,51.44,171.49,52,169.24Zm173.27-34.89c1,1,2.34,1.51,2.8,2.89.16.46.45.13.65.09a13.25,13.25,0,0,1,3.55-.4.8.8,0,0,0,.73-.21,5.87,5.87,0,0,0,1.86-3.23,20.16,20.16,0,0,0,0-4.11c-.6.13-1.26,0-1.71.46a2.47,2.47,0,0,1-1.54.6,14.31,14.31,0,0,1-3.46-.26c-1.61-.14-3.19-.48-4.86-.51a1.61,1.61,0,0,0,.73.87,7.7,7.7,0,0,1,1.68,1.83C226.17,133.17,226.28,133.85,225.22,134.35ZM39.15,144.11c-.89,1.24-1.68,2.43-2.57,3.55-2.4,3-4.48,6.21-6.66,9.36a2.73,2.73,0,0,0,.08,3.45c.34.56.61,1.45,1.08,1.58s.85-.79,1.22-1.27c2.78-3.61,6-6.86,8.37-10.82a3.63,3.63,0,0,0,.49-2.72A7.29,7.29,0,0,0,39.15,144.11Zm7,44.67c-.85-.92-1.56-1.71-2.29-2.49a5.39,5.39,0,0,0-1.36-1.3c-.73-.37-1.1.51-1.64.81-2.27,1.3-4.63,2.44-7,3.64-.41.21-.55.37-.28.79.66,1,1.31,2,1.93,3,.33.56.62.53,1.09.14a14.07,14.07,0,0,1,4.23-2.54C42.62,190.22,44.31,189.47,46.18,188.78Zm166.06-90h-2.6c-.27,0-.55,0-.46.41.35,1.56.65,3.12,1,4.66.23.94.75,1.12,1.63.68a7.47,7.47,0,0,1,3-.74,21.41,21.41,0,0,1,4.87.27c.52.1.54-.1.52-.49-.1-1.85-.15-1.88-1.94-1.74-1.23.1-2.43.36-3.64.55a.91.91,0,0,1-1.12-.56c-.29-.61.18-.75.45-1a2,2,0,0,1,1.25-.54c1.27-.23,2.55-.42,3.83-.57.41,0,.58-.12.58-.57,0-.91-.21-1.08-1.33-.89A28.28,28.28,0,0,1,212.24,98.79ZM193.12,201.16a6.12,6.12,0,0,1,3-.74c.89-.08,1.25.55,1.47,1.24s-.45.72-.85,1a6.62,6.62,0,0,1-3.16.77c-.34,0-.59.06-.53.49.15,1.09.28,2.18.45,3.26.07.39.21.52.74.45,1.22-.14,2.34-.76,3.6-.67.46,0,.42-.34.42-.63,0-2.24.27-4.47.42-6.7a5.74,5.74,0,0,0,.16-2.24c-2,.47-4,.75-5.76-.69Zm17.18-48.39c-1.83.86-3.07-.16-4.42-.73a23.86,23.86,0,0,1-2.19-1c-.45-.24-.65-.11-.86.28-.65,1.27-1.31,2.54-2,3.8-.22.39-.06.51.26.75a10.09,10.09,0,0,0,3.66,1.46c.8.23,1.68.73,2.38.55s.92-1.36,1.39-2.07A17.93,17.93,0,0,0,210.3,152.77ZM193.69,187.3c-.27,2.55-.38,4.92-.42,7.4a6,6,0,0,1,3.78-.32,15,15,0,0,0,1.89.14c.32,0,.52-.08.56-.4.23-1.85.57-3.68.64-5.54,0-.45-.18-.74-.54-.44a4.6,4.6,0,0,1-2.36.66A3,3,0,0,1,193.69,187.3Zm9-16.11a5,5,0,0,1-2.56.05c-1.43-.29-2.78-.86-4.22-1.11-.56-.1-.62.06-.69.47a36.65,36.65,0,0,1-.61,3.63c-.26.94.07,1,.87,1,1.95,0,3.92-.3,5.84.36.54.19.55-.35.62-.67C202.18,173.75,202.41,172.55,202.68,171.19Zm-109,34.49a12.23,12.23,0,0,1,2.18-2.51c.23-.24.51-.42.16-.82-1-1.17-2-2.38-3-3.57-.19-.23-.34-.22-.57,0a7.81,7.81,0,0,1-3.47,1.4Zm102.18-37.81c2.52-.58,4.85,0,7.17.57.38.1.49-.12.51-.41,0-.48.68-.94.07-1.42a17.08,17.08,0,0,0-5.67-3.07c-.39-.12-.69-.25-.85.29C196.72,165.13,196.31,166.43,195.87,167.87Zm-113,26.23c2.15,1.72,3.79,3.67,5.75,5.37-.4-.77,0-1.25.49-1.71s.79-.82,1.21-1.19.33-.43,0-.69c-1.23-1-2.45-2-3.66-3-.22-.17-.4-.31-.7-.1A8.93,8.93,0,0,1,82.82,194.1Zm113.15,29a7.28,7.28,0,0,1,2.68-1c.42,0,.3-.38.27-.61-.16-1.66-.35-3.31-.52-5,0-.39-.14-.53-.61-.49a9,9,0,0,1-2.37.24c-.77-.12-.81.32-.69.89ZM116.7,249.32a20.18,20.18,0,0,1,4.09-2c.49-.22.6-.42.43-.87-.31-.88-.62-1.75-.92-2.63-.1-.28-.2-.51-.56-.36-1.41.59-3,.58-4.48,1A25.64,25.64,0,0,1,116.7,249.32Zm95.9-110.51a37.24,37.24,0,0,1,4.35,4.44,17.87,17.87,0,0,1,3.68-3.44c-2.41-.17-3.35-.77-4.31-2.68-.21-.41-.43-.28-.71-.15A17.66,17.66,0,0,0,212.6,138.81Zm-8.1,9.62c2.26.85,4.65,1.06,6.51,2.61.18.16.28,0,.38-.13l2.09-3.13c-.32.05-.48,0-.57.1-1.47,1.05-2.76.6-3.93-.49-.75-.71-1.81-1.1-2.23-2.34ZM216.34,144a3,3,0,0,1-3.24-.91l-2.1-1.85c-.22-.19-.41-.49-.74-.14a15.77,15.77,0,0,0-2.25,2.48c2.1,1,4.63,1.16,5.9,3.58A28.29,28.29,0,0,0,216.34,144Zm-22.26,35.85a5.45,5.45,0,0,1,0,.7c-.13.86.07,1.06,1,.78a11.81,11.81,0,0,1,4.89-.62c1.07.14,1.07-.27,1.24-1.11.24-1.17-.07-1.26-1.12-1.19-1.38.08-2.74-.44-4.15-.39C194.1,178.09,194.1,178,194.08,179.84ZM113,239c.39.93.76,1.77,1.11,2.62.15.35.29.39.67.26a21.64,21.64,0,0,1,2.48-.67c2-.46,2-.45,1.19-2.38-.93-2.13-.92-2.13-3-1C114.66,238.32,114.11,239.16,113,239Zm91.36-73.39a23,23,0,0,1,1.25-3.69c.12-.34.19-.56-.31-.59a12,12,0,0,1-5.75-2c-.31-.19-.69-.5-.78.1s-1.08,1.09,0,1.55A11.83,11.83,0,0,1,204.39,165.65Zm-9.82,49a7,7,0,0,1,2.85-1.13c.32-.07.75-.08.74-.63,0-1.13,0-2.26,0-3.48a8.28,8.28,0,0,1-3.64.74c-.54,0-.66.17-.55.72C194.21,212.09,194.36,213.31,194.57,214.67Zm-84.47,18.1c.84-.66,1.69-1.26,2.44-2,.5-.45,1.49-.55,1.49-1.28a6.28,6.28,0,0,0-.76-2,.36.36,0,0,0,0-.09c-.14-.42-.38-.5-.72-.18a10.11,10.11,0,0,1-3.46,2.31c-.4.16-.52.32-.28.74C109.24,231.08,109.65,231.92,110.1,232.77ZM94.88,207c.29.4.51.72.75,1s.48.64.7,1c.34.5.61,1.37,1,1.42.57.07.85-.8,1.29-1.24,1.74-1.73,1.7-1.73.16-3.65-.42-.53-.75-.57-1.18-.11A6.42,6.42,0,0,1,94.88,207Zm99-20.56a8.14,8.14,0,0,1,6.59-.56c.08-.65.18-1.37.25-2.08,0-.34.09-.66-.49-.57a37.19,37.19,0,0,1-4.35.39c-2,.08-2,.12-2,2.1ZM61.33,185.6l4.5.48c.45,0,.66-.1.69-.59a10.28,10.28,0,0,1,.25-2.07c.14-.57-.11-.63-.52-.63l-3,.06a.67.67,0,0,0-.44.18A5.67,5.67,0,0,0,61.33,185.6Zm20.72,7.89c-.37-1.18.5-1.64,1-2.21.4-.4.45-.63-.09-.94-.78-.44-1.52-1-2.27-1.45a.58.58,0,0,0-.72-.07c-.82.5-1.69.93-2.59,1.42Zm36,62.89c.19.76.42,1.51.57,2.28.08.39.19.5.58.35a9,9,0,0,1,3.54-.3c.47,0,.63-.15.53-.56a14.26,14.26,0,0,0-.49-2.72C121.3,256.21,119.64,255.9,118.06,256.38Zm1.77,12.9a4.81,4.81,0,0,1,2.19-1c.6-.22,1.44.43,1.76-.29a5.37,5.37,0,0,0,.12-2c0-.27,0-.53,0-.8,0-.57-.1-.83-.71-.51a5.35,5.35,0,0,1-2.88.61c-.34,0-.49.08-.49.43C119.84,266.83,119.83,268,119.83,269.28Zm-2.08-15.45a30,30,0,0,1,3-1c.62-.23,1.59.22,1.81-.49a5.28,5.28,0,0,0-.26-2.14,2.86,2.86,0,0,0-.08-.31c-.54.18-1.06.38-1.59.53s-1.08.29-1.62.42c-1.94.49-2.07.73-1.39,2.7A2.19,2.19,0,0,0,117.75,253.83ZM43.4,196.62a18.4,18.4,0,0,1,3-5.63c-1.77.59-3.48,1.25-5.19,1.91-.23.08-.32.22-.1.42C42.1,194.22,42.44,195.55,43.4,196.62ZM198.08,231.1c.65,1.19,1.29,2.31,1.88,3.45.32.63.66.48.91,0a10.45,10.45,0,0,1,1.24-2.14c.13-.14.06-.37,0-.57-.51-1.56-.84-1.75-2.39-1.29C199.2,230.74,198.68,230.91,198.08,231.1Zm16.45,7c1,.38,1.82,1.15,2.7.84,2.18-.78,4.29-1.77,6.59-2.75l-1.93-.92a.41.41,0,0,0-.53.07A12.91,12.91,0,0,1,214.53,238.13Zm-98.27-4a6.11,6.11,0,0,1-.49-1c-.22-.64-.5-.62-1-.27a19.83,19.83,0,0,1-2.19,1.15c-.53.29-1.45.09-1.54.73s.42,1.14.67,1.72c0,.09.1.17.14.26.12.34.3.3.5.08a10.17,10.17,0,0,1,3.62-2.18C116.1,234.61,116.42,234.7,116.26,234.16ZM199.4,225a17.64,17.64,0,0,1-2.75,1.06.35.35,0,0,0-.05.25,11.79,11.79,0,0,0,.48,2.42c.08.21.14.37.4.27.92-.33,2.07-.43,2.69-1.06s-.27-1.5-.43-2.29a1.67,1.67,0,0,0-.06-.39C199.62,225.1,199.52,225,199.4,225Zm-128-37.52a32.71,32.71,0,0,1,3.5,1.39c.12.07.36.39.53,0,.39-1,1.34-1.46,2-2.27-.57-.38-1.13-.73-1.66-1.11a.48.48,0,0,0-.77.08A5.85,5.85,0,0,1,71.35,187.47ZM219.09,136c.62,1.56,2.57,1.58,3.2,3,0,0,.18,0,.27,0a11.36,11.36,0,0,0,2.94-.85C223.44,136.92,221.55,135.64,219.09,136ZM71.33,187.47a2.61,2.61,0,0,1,.38-2.63c.73-1.15.7-1.15-.59-1.56-.51-.17-.79-.11-.87.49a8.15,8.15,0,0,1-.38,1.25C69.3,186.92,69.3,186.92,71.33,187.47Zm-17.59-1c1.48-.21,2.68-.4,3.88-.55.41,0,1.07,0,1.08-.33,0-.68.3-1.28.37-1.94,0-.2-.26-.2-.4-.13A31.92,31.92,0,0,0,53.74,186.44Zm147.09,49.88,1.46.87c1.46.89,1.65.84,2.57-.56.43-.66-.35-.8-.48-1.22-.07-.21-.22-.52-.58-.24A8.2,8.2,0,0,1,200.83,236.32Zm-77,27.14a6.89,6.89,0,0,0-.12-2.12c0-.52-.32-.57-.65-.33a4.88,4.88,0,0,1-3.14.69c-.2,0-.54-.14-.59.16a1.28,1.28,0,0,0,.16.76c.17.31.4,0,.6,0C121.39,262.47,122.74,262.12,123.83,263.46ZM211.59,241c-.32-.44-.79-.19-1.05-.45-.69-.69-1.69-.91-2.41-1.55s-.94.12-1.22.44c-.4.47.18.59.43.76A7,7,0,0,0,211.59,241Zm-92.28,32a29.27,29.27,0,0,0,3.46-2,6.64,6.64,0,0,1-3,0Z"/><path d="M239,120.25c-.14.43-.12.92-.61,1.2a1.33,1.33,0,0,1-2.14-.89c-.45-1.9-.85-3.82-1.21-5.74s-.67-3.63-1.2-5.51a5.21,5.21,0,0,1,2.53,2.93c.9,2.05,1.27,4.26,2,6.36.12.36.11.81.57,1Z"/><path d="M130.77,234c-.72,0-1.61.36-1.74-.86-.09-.83.54-1.18,1.07-1.5a6.07,6.07,0,0,1,1.59-.53,29.08,29.08,0,0,0,7-3.42,5.87,5.87,0,0,1,3.41-.9c1,.07,1.22.84,1.51,1.53s-.23,1-.67,1.18c-2.89,1.32-5.61,3-8.68,3.93A13.48,13.48,0,0,1,130.77,234Z"/><path d="M139.25,245.62c-.8.18-1.65-.25-2.52-.05a.47.47,0,0,1-.6-.38c-.12-.42-.31-.79,0-1.23a3.31,3.31,0,0,1,2.41-1.44,33.85,33.85,0,0,0,7.66-2c1.5-.58,2.64-.21,3.16.66s.42,1.51-.51,2a20.38,20.38,0,0,1-7.43,2.31A13.41,13.41,0,0,1,139.25,245.62Z"/><path d="M144.82,265.31c-3.35,0-6-1.09-8.65-2.14-.69-.27-.71-.9-.74-1.39s.4-.87.9-1.07a3.51,3.51,0,0,1,2.35.07A58.61,58.61,0,0,0,146,262.3c.39.06.92.08,1.07.41.24.57.37,1.19.67,1.75.1.2-.2.21-.32.28A4.49,4.49,0,0,1,144.82,265.31Z"/><path d="M108.5,198.3a1,1,0,0,1-.91-1.43,3.55,3.55,0,0,1,.62-.78c1.73-1.85,3.48-3.69,5.19-5.55a3.68,3.68,0,0,1,3.09-1.31c.75.05,1,.57,1.26,1.11a.86.86,0,0,1-.31,1.15c-2.25,1.73-4,4-6.35,5.64A6.22,6.22,0,0,1,108.5,198.3Z"/><path d="M66.16,174.21c.29-2.9.42-5.84,2-8.47a2.5,2.5,0,0,1,2.55-1.53,1.29,1.29,0,0,1,1,1.95c-1.86,2.49-2.4,5.44-3,8.37a1.4,1.4,0,0,1-1,1.23C66.75,176.06,66.17,175.49,66.16,174.21Z"/><path d="M125.56,207.81a1.67,1.67,0,0,1,1.91,1.36c.24.72-.33,1-.85,1.26-1.64.78-2.91,2.11-4.48,3a10.86,10.86,0,0,1-3.58,1.46c-.46.08-.89,0-1.06-.49s-.48-1.11.19-1.42c2.26-1,3.74-3.07,5.74-4.44A3.8,3.8,0,0,1,125.56,207.81Z"/><path d="M99.52,175.46c.63-.1.94.3,1.22.79a.94.94,0,0,1-.22,1.25c-1.69,1.77-3.35,3.55-5,5.3a5.13,5.13,0,0,1-2,1.16c-.7.27-1.12-.06-1.05-.8A2.27,2.27,0,0,1,93,182q2.23-2.76,4.44-5.54A2.4,2.4,0,0,1,99.52,175.46Z"/><path d="M135.79,280.2a16.14,16.14,0,0,1-3.79-.73c-1.22-.31-2.41-.74-3.62-1.08-.43-.12-.76-.29-.83-.74s.29-.65.58-.86a2.81,2.81,0,0,1,2.2-.4c2.1.36,4.17.8,6.29,1a1.81,1.81,0,0,1,1.37.74c.55.74.42,1.07-.41,1.46A4.42,4.42,0,0,1,135.79,280.2Z"/><path d="M178.65,190.93c1.64-.27,3,0,3.8,1.74.29.62.11.89-.48,1.23a7.58,7.58,0,0,1-3.85.73,62.74,62.74,0,0,0-6.87,1,25.71,25.71,0,0,1-2.77.27c-1.25,0-1.73-.38-1.77-1.74A1.49,1.49,0,0,1,168,192.7c1.93-.41,3.89-.7,5.82-1.16A13.58,13.58,0,0,1,178.65,190.93Z"/><path d="M191.84,128.71a1.22,1.22,0,0,1,1,.28,26.6,26.6,0,0,0,5.06,2.94,28.29,28.29,0,0,1,3.85,2.47,3,3,0,0,1,.87,1.19c.31.66.25,1.16-.59,1.33a4.22,4.22,0,0,0-.7.36c-1,.42-2,.67-3.06-.2-1.84-1.6-4-2.73-6-4.17a4.85,4.85,0,0,1-2-2.19C189.83,129.41,190.38,128.71,191.84,128.71Z"/><path d="M180.6,146.55a2.41,2.41,0,0,1,1.14.19c2.86,1.16,5.72,2.32,8.5,3.66a3.77,3.77,0,0,1,2.14,2c.17.43.19.77-.28,1a4.3,4.3,0,0,1-4.43,0c-2.55-1.45-5.17-2.76-7.8-4.06-.85-.43-1.39-1.1-1.21-1.92S179.79,146.54,180.6,146.55Z"/><path d="M181.05,166.62c1.43.32,2.94.1,4.43.36a2.22,2.22,0,0,1,1.72,1.47.74.74,0,0,1-.43,1.07,6.88,6.88,0,0,1-4.28.73c-3.41-.77-6.89-.42-10.35-.22-.32,0-.7.22-.85-.21a1.11,1.11,0,0,1,.07-1.22,3.28,3.28,0,0,1,1.93-1.14A56.68,56.68,0,0,1,181.05,166.62Z"/><path d="M179.79,209.57a1.8,1.8,0,0,1,1.92,1.45.81.81,0,0,1-.57,1c-2.87,1.18-5.72,2.44-8.68,3.4-.36.11-.9.29-1.07-.16s-.54-1.07.05-1.65a16,16,0,0,1,5.1-3A7.24,7.24,0,0,1,179.79,209.57Z"/><path d="M209.14,131.28a1.23,1.23,0,0,1-1.33-.64,29.27,29.27,0,0,0-2.71-3.58,1.16,1.16,0,0,1-.19-1.6,1.72,1.72,0,0,1,2.21-.59,8.84,8.84,0,0,1,4.3,4.91.64.64,0,0,1-.32.85A3.56,3.56,0,0,1,209.14,131.28Z"/><path d="M178.51,236.21c-.71,0-1-.63-.77-1.34a2.14,2.14,0,0,1,.85-1.08c1.68-1,3.34-2,5.42-2a1.39,1.39,0,0,1,1.41,1.16c.2.71-.44.86-.93,1.06-1.66.66-3.31,1.33-5,2A1.76,1.76,0,0,1,178.51,236.21Z"/><path d="M189.5,244.83a.74.74,0,0,1-.7-1.07,2.72,2.72,0,0,1,2.87-1.51,1.1,1.1,0,0,1,.72.76c.13.35-.15.55-.35.76A7.11,7.11,0,0,1,189.5,244.83Z"/><path d="M65.47,234.36c1-5.05,2.26-9.83,3.47-14.62a2.54,2.54,0,0,1,2.8-2.13,1.75,1.75,0,0,1,1.61,2.14c-1.49,4.51-2.59,9.14-3.81,13.73,0,.13,0,.27-.07.39-.25,1-1,2-.61,2.84s1.45,1.18,2.23,1.75a7.21,7.21,0,0,1,1.13.81c.75.83,1,.37,1.23-.39.41-1.33.85-2.66,1.31-4a2.43,2.43,0,0,1,1.93-1.81,1.38,1.38,0,0,1,1.54.43,1.75,1.75,0,0,1,.25,1.85c-.87,2-1.58,4-2.4,6a.84.84,0,0,0,.24,1.13c1.05.86,2.09,1.74,3.19,2.67a50.75,50.75,0,0,1,3-9.91,2.57,2.57,0,0,1,2.16-1.81,1.36,1.36,0,0,1,1.46.61,1.49,1.49,0,0,1,.09,1.67,47,47,0,0,0-4,11.06,1.16,1.16,0,0,0,.41,1.29c2.42,2.25,4.82,4.52,7.23,6.79a3.85,3.85,0,0,1,.64.76c.52.83.42,1.1-.5,1.47-.21.09-.4.22-.6.33a1.89,1.89,0,0,1-2.53-.27c-1.86-1.77-3.71-3.55-5.71-5.47-.36,1.91-.72,3.65-1,5.4-.33,1.94-.94,3.82-1.09,5.8a.85.85,0,0,1-.92.86c-.6,0-.39-.59-.41-1a66.2,66.2,0,0,1,.95-12.65c0-.35.08-.65-.22-.91-1.24-1.06-2.35-2.26-3.74-3.27a12.9,12.9,0,0,0-.68,2.63c-.45,2.29-1.12,4.55-1,6.92,0,.78-.61.76-1.07.94s-.73-.16-.88-.55a9.22,9.22,0,0,1-.52-4.32,54.23,54.23,0,0,1,1.22-7.48.58.58,0,0,0-.2-.69l-4-3.19c-.75,2.23-1.22,4.39-1.77,6.53-.32,1.26-.69,2.51-1.09,3.74a2.39,2.39,0,0,1-1.46,1.66c-.9.33-1.23.08-1.11-.94.17-1.49.41-3,.6-4.45.37-2.81,1-5.57,1.59-8.32.07-.34.07-.55-.22-.77-1.31-1-2.61-2.07-4.06-3.23-.38,1.85-.72,3.56-1.08,5.27-.09.41-.09.87-.5,1.15-1,.7-1.66.43-1.79-.81a29.68,29.68,0,0,1,.43-5.57,13.18,13.18,0,0,1,.27-1.78c.12-.51-.23-.73-.51-1-2-1.82-3.89-3.76-5.78-5.7-.55-.57-1-1.19-.43-2a1.76,1.76,0,0,1,2.42-.07c1.55,1.36,3.08,2.75,4.68,4.17a7.11,7.11,0,0,0,.44-2.51c.45-3.4.82-6.8,1.47-10.17a2.29,2.29,0,0,1,1.13-1.68,1.77,1.77,0,0,1,1.89-.05,1.84,1.84,0,0,1,.67,2.06c-.25,1.28-.6,2.53-.82,3.81q-.9,5.26-1.73,10.54c0,.31-.13.63.23.9C62.54,232.11,63.92,233.19,65.47,234.36Z"/><path d="M238,172.21c1.31-1.8,2.61-3.52,3.83-5.3a2.53,2.53,0,0,1,2.26-1.36,1.45,1.45,0,0,1,1.41,1c.3.63-.19.87-.53,1.23-1.9,2-3.45,4.33-5.26,6.42-.32.38,0,.65.15.89a60.89,60.89,0,0,0,3.69,5.33,6.27,6.27,0,0,1,.68,1.1c.34.69.14,1-.59,1.35-2.76,1.26-2.77.74-4.17-1.4-.78-1.2-1.53-2.42-2.27-3.65-.26-.44-.46-.47-.8-.09-1.18,1.32-2.38,2.63-3.57,3.93a1.86,1.86,0,0,1-.42.42c-.44.23-.94.59-1.38.18s-.05-.87.2-1.26a37.09,37.09,0,0,1,3.84-5,1,1,0,0,0,.1-1.52,7.71,7.71,0,0,1-1.28-2.79c-.21-.76-.1-1.48.66-1.78a1.64,1.64,0,0,1,2.08.44C237.06,171,237.5,171.55,238,172.21Z"/><path d="M31.61,183.64a1.19,1.19,0,0,1-1-.37,31.71,31.71,0,0,1-6-9.36c-.1-.24-.13-.51-.23-.76-.21-.55-.22-1.12.31-1.43a1.25,1.25,0,0,1,1.56.23,5.49,5.49,0,0,1,1,1.14,34.67,34.67,0,0,0,5.86,7.3c.63.59,1.56,1.3,1.09,2.14A2.93,2.93,0,0,1,31.61,183.64Z"/><path d="M26.29,184.48c-.35.07-.68-.17-1-.6a67.18,67.18,0,0,1-5-8.5,2,2,0,0,1-.17-.47c-.15-.68-.65-1.49.27-1.94s1.5.2,2,.81c1,1.39,1.95,2.85,2.93,4.27.86,1.22,1.76,2.41,2.61,3.64.39.56,1.13,1.14.75,1.82S27.32,184.42,26.29,184.48Z"/><path d="M218,116.25c0-1.32.24-1.57,1.58-1.85.36-.07.71-.18,1.07-.24a1.76,1.76,0,0,1,2.27,1.37c.32,1,0,1.6-1.2,2.16l-.91.41C218.94,118.92,218,118.28,218,116.25Z"/><path d="M40.07,165.8a1.51,1.51,0,0,1-1.45-.71,7.25,7.25,0,0,1-.94-2.61c-.19-.75,1.29-2.08,2.36-2.26,2.09-.36,3.25.42,3.84,2.5a1.56,1.56,0,0,1-.59,1.86A6.21,6.21,0,0,1,40.07,165.8Z"/><path d="M236.05,121.16c.16,1.2-.88,1.2-1.55,1.45s-1.09-.23-1.28-.94c-.75-2.76-.93-5.63-1.79-8.36-.18-.57-.31-1.15-.51-1.71a.92.92,0,0,1,.44-1.27c.54-.27,1.16-.43,1.62.19a5.3,5.3,0,0,1,.61,1C235,114.6,235.43,117.9,236.05,121.16Z"/><path d="M15.69,164.41c-.33,0-.6.09-.69-.23a.85.85,0,0,1,.19-.74c.65-.92,1.71-1,2.65-1.19,1.57-.34,3.2-.43,4.78-.81a1.66,1.66,0,0,1,.88.08.86.86,0,0,1,.54.78c0,.3-.29.38-.54.5a14.29,14.29,0,0,1-4.73,1C17.68,163.88,16.66,164.25,15.69,164.41Z"/><path d="M227.82,100.82c-.61,0-1,.09-1.22-.46a.88.88,0,0,1,.33-1.13,9.26,9.26,0,0,1,5.44-1.77c.58,0,1,1.24.67,1.73a1.73,1.73,0,0,1-1,.8Z"/><path d="M32.9,157.4a1,1,0,0,1-.85-1.56c1.8-2.31,3.23-4.89,5.14-7.11a1.8,1.8,0,0,1,.92-.57c.33-.09.73-.41,1,0a1.08,1.08,0,0,1,0,1.23c-1.37,2.09-2.3,4.42-3.62,6.54A3.76,3.76,0,0,1,32.9,157.4Z"/></g></g></g></svg>