<svg width="295" height="39" viewBox="0 0 295 39" fill="none" xmlns="http://www.w3.org/2000/svg">
<path d="M71.1489 1.51807H78.4144L90.7682 23.8556L103.122 1.51856H110.231L110.23 38.2231H104.302L104.303 10.0919L93.4699 29.5713H87.9092L77.0766 10.0916L77.0761 38.2228H71.1484L71.1489 1.51856V1.51807Z" fill="white"/>
<path d="M129.351 38.8785C126.605 38.8785 124.192 38.2707 122.112 37.0562C120.03 35.8415 118.409 34.1589 117.246 32.0094C116.083 29.8595 115.502 27.3951 115.502 24.6162C115.502 21.8022 116.07 19.3116 117.207 17.1441C118.343 14.9772 119.922 13.2816 121.941 12.0578C123.961 10.8347 126.283 10.2227 128.906 10.2227C131.511 10.2227 133.754 10.8389 135.633 12.071C137.513 13.3035 138.96 15.0296 139.974 17.2492C140.988 19.469 141.495 22.0731 141.495 25.0621V26.6874H121.377C121.745 28.9249 122.65 30.6855 124.092 31.9703C125.535 33.2552 127.358 33.8972 129.561 33.8974C131.327 33.8974 132.848 33.6352 134.125 33.111C135.401 32.5868 136.599 31.7915 137.719 30.7254L140.866 34.5793C137.736 37.4461 133.898 38.879 129.351 38.879L129.351 38.8785ZM133.679 17.1048C132.437 15.8377 130.811 15.204 128.801 15.204C126.842 15.204 125.203 15.851 123.883 17.1441C122.562 18.4376 121.727 20.1767 121.378 22.3614H135.804C135.629 20.1243 134.921 18.3724 133.679 17.1048Z" fill="white"/>
<path d="M148.683 15.729H143.227V10.8787H148.683V2.85645H154.401V10.879H162.689V15.7295H154.401V28.0251C154.401 30.0698 154.75 31.5295 155.45 32.4033C156.149 33.2776 157.347 33.7142 159.043 33.7142C159.795 33.7142 160.434 33.6842 160.958 33.6224C161.483 33.5614 162.06 33.478 162.689 33.3733V38.1711C162.042 38.3632 161.312 38.5206 160.499 38.6431C159.686 38.7649 158.833 38.8267 157.942 38.8267C151.769 38.8267 148.683 35.4536 148.683 28.7068V15.729Z" fill="white"/>
<path d="M192.486 38.2239H186.873V34.3961C185.877 35.8295 184.608 36.9349 183.07 37.7125C181.531 38.4899 179.782 38.8793 177.824 38.8793C175.411 38.8793 173.273 38.2628 171.411 37.0306C169.549 35.7985 168.084 34.1033 167.017 31.9445C165.951 29.7859 165.418 27.3171 165.418 24.5382C165.418 21.7417 165.959 19.2683 167.044 17.1185C168.128 14.9691 169.628 13.2825 171.542 12.0587C173.457 10.8357 175.656 10.2236 178.139 10.2236C180.01 10.2236 181.689 10.5867 183.175 11.3119C184.661 12.0371 185.894 13.0644 186.873 14.3925V10.8794H192.486L192.486 38.2239H192.486ZM186.769 20.4485C186.156 18.8929 185.19 17.6654 183.87 16.7648C182.55 15.8647 181.025 15.4148 179.293 15.4148C176.845 15.4148 174.895 16.2364 173.444 17.8792C171.992 19.5221 171.267 21.742 171.267 24.5384C171.267 27.3526 171.966 29.581 173.365 31.224C174.764 32.867 176.661 33.6883 179.057 33.6883C180.823 33.6883 182.397 33.234 183.778 32.325C185.159 31.4166 186.156 30.1928 186.768 28.6546V20.4488L186.769 20.4485Z" fill="white"/>
<path d="M42.5073 0.277101C37.7405 0.277101 34.0142 3.86563 30.641 8.42412C26.0059 2.52473 22.1295 0.276855 17.4904 0.276855C8.03254 0.276855 0.785708 12.5797 0.785461 25.6015C0.785461 33.7502 4.7293 38.8898 11.3355 38.8898C16.0903 38.8898 19.5099 36.6493 25.5892 26.0278C25.5892 26.0278 28.1234 21.5549 29.8668 18.4736C30.4776 19.4596 31.1197 20.5203 31.797 21.6607L34.6476 26.4541C40.2005 35.7425 43.2946 38.8902 48.9008 38.8905C55.3365 38.8905 58.9183 33.6809 58.9186 25.3626C58.9186 11.7283 51.5086 0.277347 42.5073 0.277101ZM20.9533 23.1519C16.0243 30.8746 14.3193 32.6054 11.5752 32.6054C8.75116 32.6054 7.07272 30.1273 7.07272 25.7083C7.07272 16.2548 11.7886 6.58803 17.4101 6.58828C20.4542 6.58828 22.9982 8.34564 26.8948 13.9215C23.1946 19.5941 20.9533 23.1519 20.9533 23.1519ZM39.5552 22.18L36.1469 16.4981C35.2245 14.9987 34.3407 13.6207 33.4877 12.3575C36.5596 7.61825 39.0938 5.25697 42.1074 5.25697C48.3683 5.25697 53.3768 14.4711 53.3765 25.7887C53.3765 30.1027 51.9629 32.6059 49.0338 32.6059C46.2264 32.6059 44.8856 30.7526 39.5552 22.18Z" fill="white"/>
<path d="M207.893 1.57324H213.798L213.797 33.2351H233.191V38.2979H207.892L207.893 1.57324Z" fill="white"/>
<path d="M236.052 25.1557C236.052 22.3927 236.533 19.9795 237.496 17.9159C238.458 15.8527 239.8 14.2481 241.524 13.1023C243.247 11.9574 245.238 11.3843 247.495 11.3843H248.124C249.926 11.3843 251.562 11.8003 253.032 12.6302C254.501 13.4609 255.709 14.6811 256.654 16.2899V12.0138H262.086L262.086 38.298H256.653V34.4155C255.673 35.9023 254.449 37.0255 252.979 37.7866C251.509 38.5472 249.891 38.9275 248.124 38.9275H247.494C245.237 38.9275 243.247 38.3546 241.524 37.2093C239.8 36.0639 238.458 34.4593 237.496 32.3959C236.533 30.3326 236.052 27.9191 236.052 25.1557ZM241.8 25.1557C241.8 28.0411 242.447 30.2841 243.742 31.884C245.036 33.4845 246.794 34.2842 249.016 34.2842H249.515C251.142 34.2842 252.554 33.7858 253.753 32.789C254.952 31.7923 255.875 30.4898 256.522 28.8807V21.4308C255.875 19.8221 254.952 18.519 253.754 17.522C252.555 16.5253 251.142 16.0269 249.515 16.0269H249.016C246.794 16.0269 245.036 16.8271 243.742 18.427C242.447 20.0275 241.8 22.2702 241.8 25.1554L241.8 25.1557Z" fill="white"/>
<path d="M274.026 38.2983H268.542L268.542 0H274.105L274.105 16.0013C275.033 14.4629 276.218 13.2996 277.661 12.5126C279.105 11.7257 280.71 11.3326 282.477 11.3326H283.08C285.355 11.3326 287.354 11.9141 289.077 13.0772C290.8 14.2402 292.148 15.8537 293.119 17.9168C294.089 19.9807 294.575 22.385 294.575 25.1303C294.575 27.8586 294.089 30.2588 293.119 32.3308C292.147 34.4032 290.8 36.0209 289.077 37.1837C287.353 38.3465 285.354 38.928 283.08 38.928H282.477C280.745 38.928 279.143 38.5517 277.674 37.8001C276.204 37.0484 274.988 35.9466 274.026 34.495V38.2985L274.026 38.2983ZM274.105 28.9075C274.788 30.5338 275.728 31.8321 276.927 32.8031C278.125 33.7735 279.512 34.2588 281.086 34.2588H281.585C283.807 34.2588 285.565 33.4633 286.86 31.872C288.154 30.2809 288.802 28.0335 288.802 25.1303C288.802 22.2451 288.154 20.0065 286.86 18.4152C285.565 16.8241 283.807 16.0281 281.585 16.0279H281.086C279.512 16.0279 278.125 16.5132 276.927 17.4837C275.729 18.4541 274.788 19.7441 274.105 21.3526L274.105 28.9075Z" fill="white"/>
</svg>
