<svg xmlns="http://www.w3.org/2000/svg" viewBox="0 0 451.57 205.07"><g id="Layer_2" data-name="Layer 2"><g id="Layer_1-2" data-name="Layer 1"><path d="M314.35,114.43c-.64,4.59-1.2,8.92-1.86,13.23-.92,6-1.92,11.92-4.7,17.38-1,1.88-2,3.87-3.86,4.9a25.78,25.78,0,0,1-6.37,3c-.91.22-1.18.61-1.21,1.53-.33,8.65-.84,17.29-2,25.88-.59,4.5-4.31,6.31-7.91,6.22-1.48,0-2.32-1.26-3-2.39a31.31,31.31,0,0,1-3.39-8.9c-2.64-9.79-4.64-19.71-6.38-29.69-.75-4.31-1.42-8.64-2.19-13.3-.22,1.85-.26,3.39-.31,4.89-.09,2.53-.3,5-.41,7.58-.25,5.79-.1,11.58-.31,17.36a53.58,53.58,0,0,1-1.11,10.63,9.88,9.88,0,0,1-2.56,4.87,2.72,2.72,0,0,1-.76.65c-2.64.95-4.94,2.75-7.92,2.88a4.68,4.68,0,0,1-4.46-2,28.43,28.43,0,0,1-3.85-9.27A164.2,164.2,0,0,1,246.08,149c-1.19-9.73-2.45-19.46-3.67-29.19-.77-6.13-1.29-12.29-1.73-18.45-.06-.92-.23-1.34-1.29-1.33q-5.74.09-11.5,0c-.92,0-1.09.31-1.1,1.16,0,4.78-.11,9.56-.29,14.34-.21,5.33-.44,10.67-.88,16-.45,5.58-.8,11.19-2.26,16.63a14.21,14.21,0,0,1-3.61,6.57,4.06,4.06,0,0,1-2,1.29c-1.45.24-1.73,1-1.26,2.21,1,2.62.83,5.36.84,8.09a167,167,0,0,1-.59,19.37c-.51,4.51-.76,9-2,13.45a7.8,7.8,0,0,1-6.23,5.79c-2.42.58-4.71-.61-6.07-3.22a35.5,35.5,0,0,1-2.36-6.57,175,175,0,0,1-5.37-25.83c-.69-5-1-10-1.27-15-.3-6-.88-12-1.6-18-.55-4.51-.9-9-1.21-13.58-.28-4-.43-7.93-.56-11.9a51.54,51.54,0,0,1,.54-10.31c.09-.55,0-.82-.62-.74a5.42,5.42,0,0,1-.57,0c-3.23,0-3.25,0-3.7,3.13a58.31,58.31,0,0,1-3.49,13.17,11.94,11.94,0,0,1-5.22,6.28,43.79,43.79,0,0,1-4.81,2.37,1.25,1.25,0,0,0-.9,1.36c-.41,10.29-.57,20.59-.59,30.89,0,5.84-.64,11.65-1,17.48a105.13,105.13,0,0,1-1.52,14c-.23,1.17-.56,2.32-.88,3.46-1,3.76-4.82,5.08-7.86,4.79a4.68,4.68,0,0,1-3.11-2.13,24.91,24.91,0,0,1-3.63-7.43,95,95,0,0,1-4.08-19.24c-.78-6.1-1.74-12.19-2.46-18.31-.55-4.69-1.33-9.36-1.55-14.09a2.6,2.6,0,0,0-.41-1.47,72.39,72.39,0,0,1-2.73,7.28,23.44,23.44,0,0,1-3.94,5.94,2.34,2.34,0,0,1-.75.66c-2.73,1.12-5.09,3.18-8.19,3.38-.94.06-1.27.61-1.5,1.41a8.55,8.55,0,0,1-6.61,6.42c-2.55.61-4,.14-5.37-2.07a30.42,30.42,0,0,1-3-7.11,160,160,0,0,1-6.36-28.79c-.82-6.65-1.45-13.31-1.73-20,0-.48.31-1.32-.6-1.34s-.67.77-.81,1.29c-1.38,5.33-2.5,10.72-4.3,15.93a14.68,14.68,0,0,1-5.17,7.57,18.29,18.29,0,0,1-7.48,3.34,1.67,1.67,0,0,0-1.52,1.31c-1.9,4.69-3.82,9.36-5.8,14-1.45,3.39-4.35,4.61-7.79,4.84-2.15.15-3.56-1.16-4.76-2.72-2.35-3.05-3.47-6.67-4.54-10.28a92.77,92.77,0,0,1-3.79-23.82c0-.42-.07-.83-.1-1.25-.55-.12-.6.33-.76.56-2.16,3-5.48,4.3-8.76,5.58a3.32,3.32,0,0,0-1.12.58,15.9,15.9,0,0,1-10.16,4c-3.07.18-5.59-1.32-7.83-3.33-4.49-4-7-9.22-8.88-14.83-1-3.05-.95-3-4.14-3.07-4.59,0-9.2.22-13.79-.26C.7,99.08-.47,97,.19,96c.34-.5.75-1.14,1.26-1.31,3-1,4.77-3.57,7.24-5.23,3.46-2.33,7-4.38,11.24-4.86a1.06,1.06,0,0,0,1-.83c2.33-5.87,6.5-9.55,12.79-10.59,5.71-.94,11.09-.31,15.35,4.07,2.56,2.63,3.46,6.07,4.08,9.58,0,.13.07.25.14.5a11.4,11.4,0,0,0,1.23-3.24c1.7-4.86,4.3-8.83,9.68-10.14.6-.15.57-.61.67-1,.74-2.52,1.38-5.06,2.13-7.57.85-2.82,2.11-5.6,5-6.61,3.32-1.16,6.07-.68,8.62,2.37C84,65.21,86.08,70,87.74,75a118,118,0,0,1,4.1,13.91c.13.67-.11,1.43.55,2.28C93,87.63,93.65,84.3,94.25,81c1-5.76,2.08-11.54,4.42-16.93,1.6-3.69,4.07-6.8,8.08-8.24a1.91,1.91,0,0,0,1.37-1.72c1-5.29,1.55-10.65,3.1-15.83a15.26,15.26,0,0,1,3.15-6c2.1-2.35,7.3-3.25,9.93.36C126.79,36,128,39.94,129,44a86.62,86.62,0,0,1,2,16.29c.38,6.77.57,13.56,1.41,20.3.5,4,1,7.94,1.42,11.92.09.85.38,1,1.13,1,2.69-.08,2.3.38,2.37-2.23.38-12.64.67-25.29,1.49-37.91a57.35,57.35,0,0,1,3.43-17.45c1.14-2.9,2.77-5.2,6.47-4.88.79.06,1-.27,1-1a70.32,70.32,0,0,1,2.6-16.93,52.06,52.06,0,0,1,2.29-7.21,7.06,7.06,0,0,1,7.11-4.72c2.19,0,3.56,1.26,4.63,2.9,2.27,3.46,3.19,7.42,3.74,11.44a202.35,202.35,0,0,1,1.52,24.74c.15,8.8.43,17.6.55,26.41.1,7.33.37,14.65.54,22,0,1.93.48,4.09-2.26,4.83,1.21,0,2.43,0,3.64,0,.83,0,.85-.52.95-1.13a145.34,145.34,0,0,1,4.65-20.54c1.1-3.49,1.95-7.12,3.91-10.26,1.83-2.93,3.92-5.64,7.64-6.44,2.2-.47,2.18-.57,2.19-3a199.82,199.82,0,0,1,1.39-20.89,161.6,161.6,0,0,1,5-25.63c.75-2.71,2.3-4.79,5.28-5.42,2.6-.56,4.64.36,6.12,2.86a30.18,30.18,0,0,1,3.5,9.9c1.16,6,1.78,12.15,2.35,18.27.2,2.19.54,4.36.57,6.56A9.27,9.27,0,0,0,218,39.3c1.09-3.46,1.94-6.79,3.17-10,1.62-4.2,3.09-8.49,5.93-12.15s6.61-5.93,11.45-6c.38,0,.76,0,1.15,0,5.15,0,8.69,2.34,10.78,7.1a37.56,37.56,0,0,1,2.9,12c.37,4.27-.11,8.47-.32,12.7-.13,2.62-.26,5.25-.29,7.87-.09,11.16-.06,22.33,0,33.5,0,2.38.36,4.76.29,7.15,0,.92.31,1.46,1.43,1.41,2.2-.09,4.41-.07,6.61,0,.83,0,1.06-.28,1.11-1.07.6-9.45,1.29-18.91,1.85-28.37.41-6.86,1.05-13.71,2.11-20.52,1.41-9,3-17.92,5.88-26.56,1.59-4.8,4.58-8.54,9.84-9.85,5.08-1.26,9.16.67,11.43,5.4a50,50,0,0,1,4,15.19c.71,5.35,1,10.71,1.21,16.1.22,4.79-.22,9.52-.34,14.27-.09,3.49-.41,6.95-.64,10.42-.31,5-.87,10-1.06,14.94-.12,3-.38,5.92-.37,8.88,0,.69.23.91.91.9,1.82,0,3.64,0,5.46,0,.61,0,.81-.2.85-.81.36-4.68.77-9.35,1.12-14,.73-9.57,1.12-19.19,3.52-28.54,1.48-5.75,5-10,10.91-11.56,3.15-.82,6.5-1.42,9.51.69a10.2,10.2,0,0,1,3.32,3.53c2.17,4.21,3.81,8.59,3.82,13.43a28.4,28.4,0,0,0,2.53,10.59c2.56,6.33,5,12.74,8.39,18.69a10.56,10.56,0,0,0,1.83,2.55c.44-.2.4-.59.47-.95,1.08-5.26,2.05-10.58,4.11-15.55,1.59-3.84,4-7.12,8.27-8.56a10.8,10.8,0,0,1,13.38,5.21c3.46,6.17,5.23,12.9,7,19.65.4,1.52.82,3,1.2,4.54.17.67.53.87,1.22.86q4.81,0,9.63.07a1.11,1.11,0,0,0,1.2-.75,37.58,37.58,0,0,1,4.69-7.5,11.21,11.21,0,0,1,8.88-4.45c5.44-.16,8.7,2.11,10.91,7.22A25.27,25.27,0,0,1,421,91.44c.19.86.81.86,1.51.86,6.86,0,13.71,0,20.56,0a3.9,3.9,0,0,1,3.49,1.8c.2.28.23.71.8.63,1.93-.29,2.79,1.1,3.36,2.51,1.44,3.55,1.24,3.63-1.61,6.27a33.15,33.15,0,0,1-12,7.31c-7.16,2.39-14,1.81-20.14-3a18,18,0,0,1-4.6-5.8,2.25,2.25,0,0,0-2.44-1.4,46.89,46.89,0,0,1-5,0,1.65,1.65,0,0,0-1.89,1.26,60.46,60.46,0,0,1-4.82,10.19,13.54,13.54,0,0,1-6.55,5.73c-2.19.87-4.16,2.28-6.62,2.44-.56,0-.3.61-.34,1-.58,5.07-1.21,10.15-2.93,15-.92,2.57-2.1,4.88-5,6-4.57,1.83-6.72.13-8.35-3.32a31.71,31.71,0,0,1-2.4-10,204.65,204.65,0,0,1-1.43-27.22c0-.93-.33-1.13-1.17-1.09-1.24.06-2.49,0-3.74,0-.92-.05-1.29.21-1.47,1.22-1,5.68-2.26,11.28-5,16.43-1.92,3.66-4.31,6.77-8.45,8.34-2.15.82-4.15,2-6.51,2.27-1.19.16-.93,1.77-.62,2.25,1.38,2.13.55,4.32.38,6.44a68.8,68.8,0,0,1-1.65,10.15c-.9,3.79-3.2,5.63-7.09,5.79-2.65.12-3.68-2-4.57-3.94a92.59,92.59,0,0,1-4.41-12.63C318.1,129.59,316.12,122.18,314.35,114.43ZM153.58,99.77v0c-1.06,0-2.11,0-3.16,0-.77,0-1,.25-1,1a41.06,41.06,0,0,1-.31,4.7c-.59,4.52-1,9.07-1.29,13.61-.34,5,.92,10.06,1.44,15.09q1.29,12.44,3.3,24.8c1.21,7.52,2,15.1,3.76,22.54a39.76,39.76,0,0,0,3.77,9.8c.29.55.73,1.26,1.29,1.24s.58-.87.75-1.4a38.19,38.19,0,0,0,1.77-9.66c.33-5.73.76-11.45,1.07-17.17.35-6.51.14-13,0-19.53-.09-5.88.26-11.76.5-17.64,0-.57.33-1.26-.45-1.65a6.46,6.46,0,0,1-3.2-4.38,112.72,112.72,0,0,1-4.07-20c-.08-.9-.32-1.41-1.37-1.31S154.54,99.77,153.58,99.77ZM205.44,5.49A14.42,14.42,0,0,0,204.8,7c-1.4,5.44-2.82,10.88-3.86,16.41-1.19,6.33-2,12.73-2.54,19.16q-.48,5.64-.94,11.3c0,.45-.15.92.37,1.28,5.21,3.65,6.69,9,7.18,15a57.23,57.23,0,0,1,0,6.55c-.07,2.13.12,4.28-.11,6.4-.33,3,0,5.92-.2,8.88-.06,1,.27,1.21,1.2,1.19,2.49-.06,5-.07,7.47,0,1,0,1.2-.33,1.18-1.23-.06-4.12-.06-8.24-.1-12.36,0-3.86.27-7.73-.54-11.57a52.84,52.84,0,0,1-.86-6.38c-.37-4.25-.6-8.5-.94-12.74-.52-6.48-1-13-1.65-19.44a146.81,146.81,0,0,0-2-16.33A18.1,18.1,0,0,0,205.44,5.49Zm31.9,18.06a63.68,63.68,0,0,0-5.05,12.15c-2.73,8.29-3.82,16.91-4.57,25.56a141.87,141.87,0,0,0-.62,14.87,30.63,30.63,0,0,1,.17,3.27c-.38,4.21,0,8.42-.18,12.62,0,.89.23,1.17,1.12,1.14q5.53-.19,11.06-.27c.87,0,.87-.43.85-1.09-.2-5.21-.41-10.43-.53-15.64-.24-11.45-.13-22.89.63-34.32A68.8,68.8,0,0,0,240,27.93,6.22,6.22,0,0,0,237.34,23.55Zm50.89,158.39a1.83,1.83,0,0,0,.43-.91,59.61,59.61,0,0,0,1.2-8.91c.63-6.1.86-12.21,1.05-18.33a1.12,1.12,0,0,0-.41-1.14c-2.08-1.44-2.75-3.77-3.45-6a63,63,0,0,1-3.22-20.29c.14-8.23,0-16.47,0-24.7,0-1.17-.38-1.43-1.46-1.39-2.2.08-4.41,0-6.61,0-2,0-2,.06-2.06,2.09a82.21,82.21,0,0,1-.81,9.53,14.26,14.26,0,0,0-.08,4.37c.7,3.7,1.46,7.39,2.11,11.1,1.86,10.5,3.91,21,6.31,31.37,1.64,7.07,3.17,14.19,5.69,21A3.74,3.74,0,0,0,288.23,181.94ZM283.65,21.59c-.14,0-.29.05-.3.1-.26.86-.56,1.71-.75,2.59-1.81,8.66-3.84,17.28-4.67,26.14-.45,4.73-1.1,9.44-1.32,14.18s-.53,9.61-1,14.4c-.16,1.65-.24,3.31-.38,5-.23,2.61-.44,5.21-.71,7.82-.07.73.17,1,1,1,1.48-.06,3,0,4.45,0,3.82,0,3.82,0,3.81-3.73,0-.24,0-.48,0-.72a151.46,151.46,0,0,1,.64-16.78c.4-4.52,1-9,1.35-13.55a166.87,166.87,0,0,0,0-22.25A74.5,74.5,0,0,0,283.65,21.59ZM197.22,137.43c0,.62,0,.91,0,1.19.46,4.46,1,8.91,1.35,13.38.42,5.62.73,11.25,1.45,16.85a175.54,175.54,0,0,0,5,24.87,22.11,22.11,0,0,0,2.42,6.36c.22.34.47.83.92.78s.48-.55.62-.9a23.61,23.61,0,0,0,1.42-5.66,210.52,210.52,0,0,0,1.48-24.6c.07-3.43-.73-6.88.05-10.29.21-.92.18-1-.8-.82-2.37.44-4.72.73-6.56-1.54a19.62,19.62,0,0,1-3.64-6.89C199.72,146,198.53,141.91,197.22,137.43ZM67.07,99.75a15,15,0,0,1-2,0c-1.1-.14-1.42.28-1.3,1.35.46,4.18.23,8.4.5,12.6a127,127,0,0,0,2.38,19c.72,3.24,1.37,6.51,3.06,9.43.53.91,1.16,2,2.28,1.94s1.15-1.38,1.57-2.21a5.32,5.32,0,0,0,.26-.66c1.49-4.47,3-8.94,4.48-13.39a1.49,1.49,0,0,0-.35-1.66,13.19,13.19,0,0,1-2-3.43A86.16,86.16,0,0,1,71,103.05C70.49,99.69,70.52,99.68,67.07,99.75ZM332.55,131.9c.46-2.08-.17-3.53-2.14-5-2.74-2-3.75-5.43-4.65-8.64a71.61,71.61,0,0,1-2.93-16.88c0-.53,0-1.07-.81-1-1.92,0-3.83,0-5.75,0-.43,0-.91,0-.88.66.09,1.54-.48,3-.3,4.56,0,.36-.12.81.49.82,1.62,0,1.86,1.29,2.08,2.46.89,4.53,1.95,9,3.28,13.43,1.85,6.13,3.72,12.25,5.74,18.33a59.19,59.19,0,0,0,2.72,7.63c.22.43.47.94,1,.88.2,0,.37-.59.49-.93a11.64,11.64,0,0,0,.6-1.9C332.33,141.59,333.1,136.85,332.55,131.9Zm-167-78.76a3.43,3.43,0,0,0,.05-.56c-.25-12.09-.07-24.21-1.46-36.25a22.67,22.67,0,0,0-2.32-8.64c-.4-.72-.77-1.85-1.63-1.79s-1,1.18-1.23,1.93a124.4,124.4,0,0,0-5.42,24.09c-.1.67.18.91.76,1.13a10.76,10.76,0,0,1,5.12,4A36.92,36.92,0,0,1,165.51,53.14ZM212,144.38a31.59,31.59,0,0,0,1.19-8c.64-11.72,1.44-23.43,1.25-35.17,0-1-.31-1.2-1.22-1.18-2.2,0-4.4,0-6.61,0-2,0-1.94,0-1.72,1.92.09.8,0,1.63.05,2.44.18,2.85.22,5.72.62,8.54.73,5.17,1.54,10.33,2.58,15.44C209.25,133.65,210.37,138.94,212,144.38Zm-85.86-51c.91.1,1.68.15,1.43-1.17-.53-2.81-.82-5.66-1.22-8.5-.94-6.54-1.31-13.12-1.62-19.7s-.61-13.09-2.07-19.5a22,22,0,0,0-3.56-8.79c-1-1.26-1.25-1.22-2,.14a14.14,14.14,0,0,0-1,2.23c-1.6,5.25-2.14,10.74-3.52,16-.08.32-.13.66.38.75,3.42.62,5,3.2,6.38,6,3.69,7.56,4.42,15.74,5,24,.15,2.19,0,4.4,0,6.6C124.5,92.52,124.43,93.85,126.17,93.42ZM42,93.42v0c1.63,0,3.26,0,4.88,0,.79,0,1.09-.17,1.08-1a25.94,25.94,0,0,0-1.49-8.69C44.73,79,41.28,76.63,36.34,76.2c-4.43-.39-8.68,2.63-10.6,7.41-.33.83-.2,1.15.62,1.41a14.6,14.6,0,0,1,6.32,4.28c1.26,1.36,2.26,3.28,3.81,4S40.16,93.42,42,93.42Zm41.28,0c3.06,0,3.08,0,2.54-2.82a90.84,90.84,0,0,0-6.8-21,23.61,23.61,0,0,0-4-6.25c-1.24-1.33-1.6-1.28-2.42.29-1.55,2.93-2,6.24-3.32,9.26-.28.67.31.7.67.82a10.59,10.59,0,0,1,6.11,5.5,45.89,45.89,0,0,1,4.06,11.63C80.71,93.45,80.73,93.44,83.3,93.44ZM259.14,150.8c.54-.34.35-.82.36-1.21.18-6.27.29-12.54.63-18.81.52-9.86.9-19.72,1.36-29.57,0-.63-.09-.88-.74-.87-2.15,0-4.31,0-6.47,0-.28,0-.71-.13-.66.45.29,3.13.44,6.27.87,9.38.57,4.2.87,8.41,1.37,12.61.33,2.78.69,5.56,1,8.34.43,3.54.86,7.08,1.26,10.62C258.5,144.74,258.81,147.74,259.14,150.8Zm-149.09-49h0c.09,1.05.22,2.09.26,3.14A213.72,213.72,0,0,0,112,126.53a137.17,137.17,0,0,0,5,22.95,19.22,19.22,0,0,0,2.23,5.06c.37.56.77,1.2,1.52.29a5.72,5.72,0,0,0,.57-6.52,11,11,0,0,1-.8-1.52,90.82,90.82,0,0,1-5.26-21.59c-1-8.12-1.8-16.27-2.58-24.42-.15-1.52-1.1-.92-1.83-1-1-.15-.85.59-.84,1.2ZM374.81,138.6a13.71,13.71,0,0,0,1.8-4.44,97.12,97.12,0,0,0,2-12.82c.15-1.35.17-2.63-1.11-3.72a7.38,7.38,0,0,1-1.76-3.22,91.75,91.75,0,0,1-3.57-12.88c-.28-1.34-1.16-.78-1.85-.88-.94-.12-.81.58-.79,1.14.13,3,.26,5.92.42,8.89a186.89,186.89,0,0,0,2.1,21.64C372.44,134.53,372.78,136.86,374.81,138.6ZM152.31,48.8a157.88,157.88,0,0,0-1.38,16.93c-.25,4.58-.22,9.17-.32,13.75a11,11,0,0,1,0,1.15c-.49,3.93-.12,7.91-.55,11.85-.08.74.2,1,1,1a36.7,36.7,0,0,1,4.45,0c1.31.11,1.58-.29,1.45-1.58-.72-7.18-1.33-14.38-2-21.57-.49-5.33-.95-10.67-1.49-16A21.73,21.73,0,0,0,152.31,48.8ZM321,50.53c-1.4,4.64-1.65,9.26-2.1,13.82-.47,4.73-1.08,9.45-1.28,14.21-.05,1.42-.09,2.86-.28,4.28-.38,2.91-.49,5.86-1.08,8.75-.14.7.11,1,.91,1a20.49,20.49,0,0,1,3.59,0c1.42.17,1.63-.47,1.6-1.69-.07-3.49-.09-7,0-10.49.14-7.79,1-15.58.27-23.39C322.4,54.87,322.41,52.66,321,50.53Zm-23.32,87.88H298c.13-.5.28-1,.39-1.51a127.31,127.31,0,0,0,2.65-17.49c.45-6.06,1-12.11,1.47-18.16.06-.72-.16-.93-.85-.91-1.34,0-2.68.08-4,0-1-.07-1.33.2-1.29,1.24.09,2.48.19,5,.25,7.44.18,7.75-.07,15.5.36,23.24C297.11,134.31,297.44,136.36,297.67,138.41Zm43-37.84v-.22c-1.39,0-2.78,0-4.16,0-.75,0-1,.19-1,1,0,2,.11,4,.27,6a48.67,48.67,0,0,0,1.55,8.81,3.93,3.93,0,0,0,1.58,2.32c.67.46,1.21.47,1.6-.37.61-1.29,1.33-2.54,1.85-3.86a85.55,85.55,0,0,0,3.45-12.49c.21-.92-.1-1.18-1-1.15C343.42,100.61,342,100.57,340.64,100.57ZM40.66,116c-2.68-1.72-3.91-4.51-5.32-7.16-1.5-2.82-3-5.66-4.58-8.42a1.58,1.58,0,0,0-1.58-.93c-1.72,0-3.44,0-5.32,0A34.66,34.66,0,0,0,29,110.31a17.65,17.65,0,0,0,6.6,6A4.54,4.54,0,0,0,40.66,116Zm305.55-23.4A13.35,13.35,0,0,1,343,88.41a136.76,136.76,0,0,1-6.27-13.31,4.13,4.13,0,0,0-1-1.72,53.55,53.55,0,0,1,0,5.69c-.48,4.24-.08,8.49-.24,12.73,0,.52.13.79.72.79C339.55,92.57,342.88,92.58,346.21,92.58Zm-153.7-20.1c-2.54,6.68-3.63,13.68-5,20.79,1.18,0,2.27,0,3.36,0,.86,0,1.17-.31,1.16-1.17,0-1.91.1-3.82.14-5.73C192.23,81.75,192.69,77.13,192.51,72.48ZM364,75.3C362.26,81,361.22,86.77,360,92.58c1.32,0,2.47,0,3.61,0,.63,0,.93-.13,1-.85q.36-6.36.83-12.71A4.42,4.42,0,0,0,364,75.3Zm-236.34,48a53.06,53.06,0,0,0,.92-6.68,79.34,79.34,0,0,0-.08-16.16c0-.34,0-.72-.49-.73-.81,0-1.62,0-2.44,0-.47,0-.45.27-.39.68.27,2.11.5,4.24.72,6.36Q126.77,115,127.63,123.29ZM110.41,73.14c-.12.71-.27,1.4-.33,2.11-.52,5.69-.27,11.39-.33,17.08,0,1,.44,1.1,1.26,1.14,1.06.06,1.16-.41,1.11-1.27-.17-2.77-.36-5.54-.39-8.32A49.84,49.84,0,0,0,110.41,73.14ZM65.9,84.47c-1.42,2.7-1.8,5.61-2.68,8.35-.16.52.22.63.67.62h4.74c.46,0,.71-.11.62-.65A17.17,17.17,0,0,0,65.9,84.47Zm324.83,16.26a4.11,4.11,0,0,0-.45-.09h-3.72c-2,0-2.06,0-1.59,2,.54,2.2,1.14,4.38,1.79,6.87C388.53,106.52,389.34,103.58,390.73,100.73ZM132.12,131.17h.28c.13-.4.27-.8.38-1.21,2.59-9.49,3.22-19.25,4-29,.07-.88-.07-1.26-1.09-1.27s-.94.66-.89,1.3.21,1.23.23,1.84a90.15,90.15,0,0,1-1.59,21.81C133,126.81,132.56,129,132.12,131.17ZM83.79,110.84a42.27,42.27,0,0,0,1.81-8.13c.34-3.09.26-3.08-2.89-3-.7,0-1,.1-.86.94A87.4,87.4,0,0,0,83.79,110.84Zm-38.21-3.51c.58-2.34,1.15-4.65,1.73-7,.17-.67-.27-.69-.72-.69-1.58,0-3.15.06-4.72,0-1,0-.86.36-.49,1,1,1.77,2,3.56,3,5.32C44.67,106.49,44.82,107.1,45.58,107.33Zm126.4.4a66.63,66.63,0,0,0,1.6-6.82c.25-1-.24-1.18-1.13-1.16-1.84,0-1.95.11-1.69,1.92.07.51.16,1,.28,1.53A30.57,30.57,0,0,0,172,107.73ZM14.1,93.73c1.31,0,2.62,0,3.94,0,.35,0,.86.11.85-.46s.39-1.46,0-2.05c-.18-.27-.86-.08-1.31.13A13.77,13.77,0,0,0,14.1,93.73Zm417,7.26c1.53.44,3.1,1.38,4.77-.13C434.1,100.34,432.59,100.91,431.05,101Z"/></g></g></svg>