<svg xmlns="http://www.w3.org/2000/svg" viewBox="0 0 414.83 218.6"><g id="Layer_2" data-name="Layer 2"><g id="Layer_1-2" data-name="Layer 1"><g id="Layer_2-2" data-name="Layer 2"><path d="M268.27,127.09c-.56.66-1.25,1.1-1.34,1.63-.68,4.19-3.2,5.08-7.13,4.87-10-.52-19.8,1.13-29.6,2.95-4.62.85-9.44.05-14.17.67-5,.66-10.07,1-15.3,1.53,1.66,4.71,5.15,8.13,7,12.44,2.81,6.74,6.93,12.89,8.94,20,1.4,4.94.27,8.87-4.27,11.9-4.28,2.85-8,6.73-12.26,9.33a61,61,0,0,0-10.89,8c-1.73,1.69-4.56,1.88-7.07,1.89a3.15,3.15,0,0,1-3.26-2.2c-.88-2.5-2.59-2.48-5-1.89-11.09,2.75-22.38,4.76-33.3,8a164.2,164.2,0,0,1-41.37,6.44c-.7,0-1.45-.22-2,.69-4.6,8.12-14.65,5.62-19.17.14-4.83-5.86-5.78-10.79-2.38-17.06a2.62,2.62,0,0,0-.17-2.69c-4.29-9.48-8.86-18.83-13-28.37C56.32,151,48.66,137.26,41.88,123.1Q30.17,98.64,18.49,74.18C18,73.11,17.51,72,17,70.93c-.31-.69-.46-1.29-1.6-1-5,1.52-10.73-3.06-13.6-8.35-3.22-5.92-2-11,2.28-15.85,1.73-1.93,1.7-4.74,2.5-7.1,1.5-4.44,3.65-8,7.47-10.82,2.42-1.75,5.16-1.54,7.74-1.63a141.26,141.26,0,0,0,17.91-2.18c9.88-1.65,19.78-2.59,29.77-3.26,10.72-.71,21.41-2,32.16-2.26,8.54-.23,17-1.44,25.55-1.71,4.07-.13,8.23-2,12.5-2.53,8.29-1.11,16.6-1.82,24.91-2.61a233.07,233.07,0,0,1,30.58-1.1c2.83.11,5.67.14,8.49,0,3.71-.16,7.47.52,10.64-2.74,2.29-2.35,6-1.39,9-1.74,8.55-1,17.23-1.06,25.75-2.28C262,2,275,2.14,288,.87c7.21-.71,14.56.07,21.81-.41,4.66-.31,9.34.5,14-.39,2-.38,3.07.91,4,2.17,11.55,15,22.34,30.56,33.92,45.55,7.74,10,14.78,20.59,22.5,30.65,8.66,11.29,17.38,22.53,25.23,34.42a43.7,43.7,0,0,1,5.17,10.73c1,3.15-1.45,5.25-2.92,7.14-2.89,3.68-5,7.76-7.44,11.68a16.11,16.11,0,0,1-12.88,8.07c-1.91.16-3.91.34-5.1-1.82-.49-.89-1.36-.74-2.31-.54-17.52,3.74-35,7.49-52.44,11.84-7.31,1.83-14.7,4.2-22.39,4.67-1.18.07-2.6-.08-2.85,2.09s-2.54,3-4.41,3.26c-10.16,1.45-16.94.54-22.91-8.25-2.06-3-2.63-6.45-.66-9.12,2.79-3.77,1.07-6.68-.61-9.69C274.74,137.64,271.52,132.52,268.27,127.09Zm113.94-22.84c-1.23-.1-1.3,1.15-1.55,1.72-1.72,4-4.63,7-7.68,9.83-1.82,1.69-1.51,2.52.08,3.59,1.4-.68,0-3.25,2-3s1.12,2.6,2.12,3.94c1.61-2,4.51-3.26,2.54-6.69-.5-.86-1.39-2.37.25-3,1.91-.77,1,1.72,2,2.12,2.33-2.83,2.57-5.66.15-8.54,2.84-.38,3.36-3,1.22-6.87C383.21,99.76,381.79,101.84,382.21,104.25ZM78.56,128.55c-.35,1.62,1.17,3.26-.29,4.92a8.51,8.51,0,0,1-4.69,2.59L79,143c0-4.13,1.82-6.11,5.57-6.62a27.64,27.64,0,0,1-6-7.74,85.38,85.38,0,0,1-9.47-22.2c-2,2-4,2.74-6.7,1.41.57,3,1,5.53,1.54,8.07.73-2.19,1.64-4.68,4.09-3.81,3.11,1.11.12,2.85-.31,4.31-.06.2-.23.37-.31.57a.74.74,0,0,0,.55,1,1,1,0,0,0,.86,0c.6-.61.89-2.57,2.06-.66.76,1.25,0,2.47-1.18,3.31-2,1.36-2.81-1-4.47-1.3A19.36,19.36,0,0,0,68.75,128c1.06-.33,1.37-2.23,3-1.3,1.2.71.91,1.91.69,2.93-.28,1.25-.14,2.3,1.22,2.46a1.8,1.8,0,0,0,2.17-1.87C75.55,127.52,77.44,128.73,78.56,128.55Zm54.89,52.83-.12-.11c.13.15.22.41.38.46C146,185,158.18,185.64,169.9,180a30.53,30.53,0,0,0,13.71-12.37c-4.1.15-4.56-2.67-5.18-5.35,1.42-.9,2.89-1.2,3.58.7.85,2.31,1.28.76,1.94,0,.53-.62.11-2.45,1.65-1.73,1.81.84,1.68-.44,2-1.4a39.59,39.59,0,0,0,2.16-17.58c-.69-6.85-.76-13.92-5.16-19.91-.48,1,.08,1.74.29,2.57,1.86,7.37,3,14.79,1.32,22.38-1.29,5.68-4.84,10.22-7.73,15.09-1.06.18-1.5,1.11-2.18,1.75-7.74,7.28-16.83,10.91-27.46,9.36-8.11-1.18-15.71-4.21-23.17-7.55-14.08-6.29-27.13-14.08-37.58-25.64-1.69-1.87-2.79.86-4.34,0-.84-.47-1.34,1.25-1.24,1.47,1.34,2.81,0,6.25,3,8.87,5,4.42,10,8.82,15,13.29C110,172.56,120.82,178.71,133.45,181.38Zm29-97.78a7.45,7.45,0,0,0-.92-3.11c-4.13-8.28-8.39-16.49-13.15-24.43C141.76,45,136.6,33.12,129.81,22.12c-1.29-2.07-2.45-2.43-4.61-2.32-4.73.25-9.42.94-14.15,1.3C97,22.17,82.89,22.89,68.89,24.82,60.5,26,52.05,26.51,43.66,27.9,37.27,29,30.88,30.46,24.25,30.32,19,30.21,14,31.68,11.14,36.81c-1.2,2.14-2.3,4.33-3.36,6.54a1.79,1.79,0,0,0,.38,1.84A47.17,47.17,0,0,1,12.63,53c6,12.06,12,24.1,17.93,36.2,5.05,10.34,9.83,20.81,14.93,31.13s10.26,20.86,15.68,31.15C65.59,159.91,68.59,169,73,177.39s7.3,17.78,12.92,25.72c2,2.84,4.28,4.88,7.74,5a176.1,176.1,0,0,0,18.37-.64c12.21-.72,23.78-4.56,35.63-7,12.45-2.57,24.83-5.52,37.24-8.29,7.6-1.7,15.42-2.92,20.83-9.77-4.9.59-9.46,2.17-14.13,3.27-11.81,2.78-23.83,4.26-35.84,5.88-6,.81-11.92,2.09-17.92,2.74-10.07,1.09-20.14,2.14-30.13,3.88-6.13,1.07-9.51-.56-12.5-6-.56-1-1-2.28-.11-2.94,1.1-.77,1.92.49,2.61,1.29.43.49.72,1.08,1.12,1.58a5.42,5.42,0,0,0,5.44,2.08c8.52-1.19,17.06-2.28,25.59-3.38,5.29-.68,10.58-1.31,15.87-2,0-.3,0-.61,0-.91a50.1,50.1,0,0,1-12.85-2.16,81.57,81.57,0,0,1-29.13-14.12,162.39,162.39,0,0,1-24.42-22.89c-3.75-4.37-7.66-8.62-11-13.25-7.24-9.92-10.83-21.74-16.51-32.47-7-13.23-14.41-26.24-21.66-39.33-3.55-6.42-6.74-13-9.65-19.73-.8-1.84-1.87-3.82.87-5.32A6.65,6.65,0,0,0,23.59,36c3-5.57,11.37-6.8,15.18-2,1.76,2.24,3.62,2.66,6.12,2.26,3.93-.61,7.87-1.15,11.82-1.68s7.65-.93,11.47-1.44A106.25,106.25,0,0,0,79.6,31.42c3.33-.81,7.34,1.21,10.08-2.32.2-.26,1.21.15,1.85.16,2.28.07,4.67.54,6.82,0s4.72.61,6-1.82c.93-1.82,2.31-2.08,4-2,2.17.1,3.27,1.7,4,3.34a2.78,2.78,0,0,1-1.3,3.84c-.55.3-1,.72-.72,1.2,1.4,2-2.06,3.77-.3,5.81a2.18,2.18,0,0,1-.91,1.18c-1.88.78-3.71,1.85-5.8,1.86-.84,0-2,.28-1.91-1.62,0-1.4-1-2.88-3.46-2.58-3.27.4-7,1.44-9.53-2.18-.4-.58-.94.27-1.43.29-8.19.35-16,3.1-24.24,3.52-5.52.27-11,.95-16.53,1.45.68,3.84-3.42,8.8-7.21,9.39a21.93,21.93,0,0,1-13.86-2.42c11.92,22.71,22.62,45,34.62,67.07.66-1.84.07-3.18-.31-4.59-3.42-12.68-3.86-24.93,4.05-36.5,7.31-10.71,16.68-17.14,30-16.91,6.06.1,12,1.42,18,1.78a70.8,70.8,0,0,1,29.84,8.77A86.13,86.13,0,0,1,162.47,83.6Zm21.2,55.06c-.23-7.28-1.9-14.3-3.94-21.23-3.12-10.58-8.15-20.07-16-28-3.68-3.73-8.3-6.08-12.45-9.13-8.74-6.43-18-11.73-28.51-15-11.64-3.63-23-2.61-33.94,2C83.3,69.57,80.41,75,77.56,80c-4.24,7.49-6.19,15.59-4,23.94,4.57,17.5,13.19,32.82,27.61,44a112.45,112.45,0,0,0,44.44,21.29C166.34,174,183.28,156.28,183.67,138.66ZM150.09,16.81c-3.42-.29-9.05,1.12-14.76,2-2.35.37-2.08,1.63-1.21,2.82,3.93,5.43,6.81,11.46,10.23,17.18,4.11,6.89,9,13.29,12.71,20.43,5.63,10.82,11.12,21.71,17.36,32.2,2.27,3.8,4.21,7.8,6.4,11.65,2.54,4.44,6.87,5,11.4,5,9,.14,17.85-1.25,26.78-1.46,15.79-.37,31.58-.32,47.35-1.13,2.44-.12,3.51-.09,1.79-2.9-4.79-7.82-10.07-15.3-15.38-22.77-5.5-7.74-9.68-16.27-14.63-24.33-7.89-12.83-16.84-25-24-38.27-1-1.9-2.53-3.64-5-3.28-4.92.71-9.83-.09-14.76.23-7.45.49-15,.33-22.4.84C165.43,15.52,159.07,17.21,150.09,16.81ZM345.81,119.06c1.61-.08,3.22-.17,4.84-.24,6.42-.26,12.74-1.32,18.05-5.07,11.87-8.4,14.4-26.67,6.77-39.1-3.28-5.35-8.09-8.89-12.87-12.68-11.09-8.81-22.52-16.91-36.12-21.48-13.41-4.51-26.91-6.93-40.88-2.63C275.45,41,270.32,48,270.77,58.58c.44,10.36,5.46,18.73,11.82,26.51A94.22,94.22,0,0,0,317.93,112C326.89,115.93,335.86,119.22,345.81,119.06Zm-55.62,16.18-.63.32L273,110.26c-1.12,2.74-.69,5.54-2.19,7.72-1.3,1.9-.42,3.25.61,4.88,3,4.7,5.95,9.43,8.59,14.33,4.32,8,9.64,15.5,13.61,23.91,2.72-4.43,5.71-8.39,7.38-13.11a3.34,3.34,0,0,1,2.65-2.05c10-2.79,20.14-4.56,30.28-6.47a125,125,0,0,0,19.36-4.86,2.13,2.13,0,0,0-2-.82,52.33,52.33,0,0,1-20.42-1.86,152.9,152.9,0,0,1-25.44-10.05C289,114,275,103.39,266.06,87.19,260.87,77.83,257,68,257.71,57c.54-8.37,3.75-15.86,10.56-20.58,11.66-8.08,24.87-9.74,38.67-6.67,7.47,1.66,14.34,5,21.47,7.64,9.1,3.36,18,7,25.86,12.92,2.06,1.55,4.26,2.91,7.19,4.9a21.19,21.19,0,0,0-1.21-2.27A253.29,253.29,0,0,1,341.52,25.5c-4.18-7.19-8.76-14.08-14.67-20a9,9,0,0,0-5.39-3.05c-11-1.59-21.76,1.12-32.68,1-7.15-.06-14.25,2.09-21.52,1.88-2.77-.07-5.58.62-8.33.42-1.8-.12-3.42-1.66-5.46-.68-3.44,1.64-7,2.86-10.42,2.79,2.18,5.05,6.46,5.64,11.35,5.17C269.7,11.55,285,10,300.16,7.45c.95-.15,2.15.09,2.83-.41,3.07-2.26,6.6-1.7,10-1.76,2.25,0,3.64,1.66,4.56,3.62s-.95,2.51-1.86,3.31c-1.79,1.57-2.61,3.11-1.1,5.26.32.46.7,1.07,0,1.34-2,.75-3.45,2.2-5.14,3.34a1.27,1.27,0,0,1-2.08-.7c-.49-1.67-2.18-2.65-2.53-4.47-.26-1.35-1.34-1.77-2.74-1.73-3,.08-6.32,3.07-9.05-.76-.07-.1-.77.33-1.17.33a131,131,0,0,0-23.78,2.45,52,52,0,0,1-13,.62c-2.11-.16-3.73,0-3,3.06s-1.54,5.43-4.47,5.92c-3.44.58-6.77-.45-10.19-.39a32.36,32.36,0,0,0,9.17-1.62,2.21,2.21,0,0,0,1.57-2.54c-.06-1.3-1.29-.74-1.95-.76a55.74,55.74,0,0,0-6.2.09c-6.3.47-12.08,0-14.69-7.72-5.44,8,2.79,9.15,5.91,12.73-2.48,1-4.1-.43-5.68-1.32a7.26,7.26,0,0,1-2.05-11.23A15.52,15.52,0,0,0,225.65,10c-.4-.21-.6-.41-.78-.39-2.12.23-4.25.46-6.36.78-3.42.52-4.94,3.58-2.88,6.38,4.74,6.45,9.71,12.67,13.67,19.76,3.71,6.63,8,13,12,19.47C246.68,64.5,251.75,73.2,257,81.78c2,3.3,4.41,6.4,6.47,9.7q7.46,11.92,14.76,24C282.27,122,286.21,128.64,290.19,135.24Zm92.86-50c4,9.56,7.49,18.74,2.37,28.52a36.08,36.08,0,0,1-22.07,18.33c14.79-1.74,29.1-6,44.4-6.91a4.56,4.56,0,0,1-3.11,1.83c-8.94,2.68-18.45,2.15-27.38,5.13-9.9,3.31-20.39,4.31-30.46,6.88-12,3.07-24.14,5.66-36.25,8.32-2.57.57-5.72.48-7.22,3.07-2.27,3.93-4.09,8.12-6.39,12.77,6.3-1.07,12.21-1.15,17.84-3.26,3-1.13,5.8-2.91,9.2-3a32.45,32.45,0,0,0,7.91-1.46c10.19-2.73,20.47-5.08,30.81-7.19,11.91-2.43,23.8-5,35.69-7.53.74-.15,1.49.13,2-1.07a42.93,42.93,0,0,1,8.17-11.95c.94-1,2-2.16,1.38-3.74-.87-2.09-1.55-4.38-2.88-6.14C399,107.24,392.57,95.45,383.05,85.23Zm-133,44.13c2.61-.14,5.26-.6,7.84-.34s3.43-.77,3.57-3c0-.52.16-1,.18-1.57.19-4.7,3.61-8.2,4.72-12.6.54-2.12.36-2.55-1.83-2.63-10.89-.37-21.74,1-32.66.26-12.91-.83-25.78,1.83-38.73,1.33-.55,0-1.75-.33-1.76.88,0,4.55-2.34,9.25,1.41,13.55a26,26,0,0,1,4.37,7.19c1,2.51,2.51,2.81,4.81,2.44,6.21-1,12.39-2.18,18.74-2.13a48.41,48.41,0,0,0,8.9-.83C236.42,130.68,243.19,129.49,250.09,129.36ZM168.3,185.19a11.9,11.9,0,0,0,5.35-.27q7.8-1.47,15.59-3c7.81-1.52,15.62-3,23.41-4.64,1.92-.4,3-1.48,1-3.29a6,6,0,0,1-1.15-1.53c-6.3-11.18-11.71-22.86-18.47-33.79-.3-.5-.27-1.41-1.49-.88C195.85,159,188.6,175,168.3,185.19Zm80.75-165.8c-2-1.79-4.6-3.22-5.78-5.43-2.44-4.58-6.36-4.15-10.35-4.15A17.55,17.55,0,0,0,231,10c-1.48.12-2.26.64-2.21,2.41.11,4.2,3.16,7.05,8.28,7.23C240.91,19.74,244.74,19.36,249.05,19.39Zm-215.24,15c-.64-.26-1.4.12-2.23.41-1.81.64-3.68,1.86-4,3.41-.34,1.84,1.39,3.45,3,4.55,3.69,2.46,7.6,2.33,11.63,1,1.9-.65,1.19-1.85.47-2.74-1.28-1.58-3-2.83-4.12-4.51S36,34.23,33.81,34.42ZM77,204.29c.45,4.59,2.3,8.14,6.54,10.14,3,1.43,6.11,2.21,9.14,0A8.54,8.54,0,0,0,94,213a6,6,0,0,0-1.69-.74,6.77,6.77,0,0,1-4.17-1.49c-3-2.74-6.32-5.11-8-9-.29-.65-.17-2.06-1.35-1.91s-1.19,1.38-1.38,2.32C77.2,202.9,77.1,203.64,77,204.29Zm225.65-38.87c-10.65,2-15.7-4.54-19.79-13.5-1,3.87-2.75,6.43-1,9.41C286.16,168.53,296.3,169.41,302.65,165.42ZM6.89,49.53C.06,56.92,5.19,65,12.38,67.18a3.81,3.81,0,0,0,2.19.07c.6-.19.34-1,.12-1.43C12.16,60.48,9.59,55.15,6.89,49.53Zm308,74.48c-1-1.94-2.69-3.09-1.56-4.36s1.88.28,2.73,1a1.38,1.38,0,0,0,2.17-.64c.7-1.71.38-3.86-1.28-4.31s-3.63-4-5.49-.19c-.83,1.68-2.22,2.93-4,2.69-2.15-.28-3.55-2-4.39-3.91s.68-3.06,2-4c-1.84-2-3.4-2.89-4.48.61-.47,1.51-2.09,2.14-4,2.78C302.47,117.44,308.23,120.68,314.86,124Zm50.91-3.85c.37,1.31,1.74,2.46,1,4.16a3.19,3.19,0,0,1-2.07,1.88c-1.11.32-1.52-.57-2.05-1.23-1.18-1.47.66-1.09,1-1.63a1.72,1.72,0,0,0,0-1.85c-.34-.67-.88-.34-1.4-.21-2,.5-4.06,1-6.4,1.52,2.87,2.26,2.55,4.72.38,7.33,7.62-1.1,14.79-3.87,18.29-7-1.7.16-3.26-.18-4-1.68C369.37,119.05,367.87,118.72,365.77,120.16ZM273.14,41.54c9.21-7.55,20.12-7.31,31.07-9.23-3.08-.35-5.53-.77-8-.86a30.17,30.17,0,0,0-7.73.33c-2.3.53-6.42-.64-6.66,1.66-.65,6.34-3.83-1.52-5.47,1.29-.74,1.28-3.64,2.13-6,3.22C271.81,38.79,273,39.56,273.14,41.54Zm13.93,60.33c-.3-1.86,1.14-3.87.51-4.78a62.94,62.94,0,0,0-5-5.77c-1.15-1.31-3.07-1-4.53-.59s-.72,3.08-2.66,3.48c1.65,2,3.21,4,5,5.88,1,1,1-1.1,2.08-1s1.68.23,2,1.08C284.8,101.29,285.65,101.56,287.07,101.87ZM262.41,52.29c-1.12,3.46-.78,6.7-.92,9.93-.17,3.82,2.19,5.46,5.12,7.16.62-3.55,1.19-6.93,0-11.1-.29,2.24-1.44,2.08-2.41,1.51A2.9,2.9,0,0,1,263,58c-.15-.81.62-1,1.33-1,3.44.12,2.81-2.44,3.33-5.51C265.74,54.58,264.17,53.18,262.41,52.29ZM95.24,35.59c3.33-.52,6.8-1.19,10.31-1.54,1.37-.13,2.35-.12,2-1.81-.31-1.34-.77-2-2.63-1.77-3.7.35-7.39,1.53-11.2.55-1.17-.3-3.1-.85-3.57.19-.4.86.67,2.48,1.26,3.68C92.25,36.68,93.84,35.27,95.24,35.59ZM66.41,78.23c-1.39,2.53-3.49,4.44-1.13,7.11.57.63.37,1.49-.15,2.37S64,90,65.24,90.52c1.09.49,1-.88,1.26-1.58.08-.19.57-.45.68-.38,2.64,1.65,2-.86,2.52-2,1-2.46,2.14-4.9,3-7.42.3-.82,1.68-1.76.18-2.75-.71-.47-1.41-1.05-2.31-.27s-1.89,1.51-.76,2.88A1.22,1.22,0,0,1,69.53,81c-.82.45-1.35-.16-1.74-.91A17.57,17.57,0,0,0,66.41,78.23Zm225.5,32c-1.07-2.35-1.25-4.55,1.07-4.89s2.19,1.74,1.92,3.42c-.12.79.24,1.29,1,1.31a2.07,2.07,0,0,0,2.23-1.52,3.48,3.48,0,0,0-.86-3.36c-2.27-2.14-4.79-4-8-6.66.75,2.9.25,4.82-1.08,5.77-2.61,1.85-1.19,2.82.42,3.93C289.48,108.83,290.41,109.33,291.91,110.23ZM98.81,60.87a48.69,48.69,0,0,0-18.7,3.36c-2.6,1-.71,2.82-1.5,4-.26.4-.29.92.21,1,1.31.34,2.25-.35,3.14-1.22a12.67,12.67,0,0,1,1.62-1C88.18,63.84,93.57,62.57,98.81,60.87ZM269.62,72.15c-1.05,1.24-2.13,2.1-3.71,1.85-1.29-.2-1.19.6-.93,1.36a25.09,25.09,0,0,0,3.57,7.22c.66.84,2.37,1.58,2.45.13.15-2.56,2.59-5.19.06-7.82A11.79,11.79,0,0,1,269.62,72.15ZM338,129.63c-2.26-2.23-4.39-3.64-3.14-6.54.22-.51.06-1.14-.75-1-.47.08-1.22-.73-1.36.09-.39,2.3-1.8,1-2.93,1s-2.42.25-2.79,1.67a2.2,2.2,0,0,0,1.44,2.62A26,26,0,0,0,338,129.63ZM310.84,13.15c0-2.8-1.24-3.69-4-3.29-3.51.51-7.09.49-10.64.66-.92,0-1.7-.07-1.35,1.32.25,1,.22,2.2,1.63,1.79C301.21,12.25,306,13.22,310.84,13.15ZM40.34,46.74c-6.32.87-11.57-1.35-14.93-6.1-.41-.57-.54-1.67-1.52-1a1.55,1.55,0,0,0-.21,2.33c.87,1.22,1.87,2.36,2.76,3.57C29.13,49.21,36.24,50,40.34,46.74Zm142.31,153c2.73-.17,5.37-.46,7.26-2.79.5-.61,1.49-1.1,1-2-.55-1-1.71-.83-2.63-.59-2.06.54-4.05,1.34-6.12,1.79-1.21.26-2.14.46-1.79,1.94C180.66,199.31,181.35,200,182.65,199.78Zm167.22-69.07c-1.58-2.26-3.37-4-3.43-6.71,0-.72-.77-.72-1.5-.72-1.12,0-.9.65-.82,1.25.49,3.77-1.82,5-5.74,5.38A41.87,41.87,0,0,0,349.87,130.71Zm-34.25-6.2a22.51,22.51,0,0,0,6.7,1.5c.76.09,1.76.46,1.47-.83-.67-3,1.48-3.89,3.72-5.06l-5.88-2C321.71,121.38,320.8,124,315.62,124.51ZM75.19,75c2.42-2.78,2.84-5.67.4-6.63-2.86-1.12-3.38,2.67-5.91,4.19C72.46,72.56,73.76,73.93,75.19,75ZM267.86,50c.71-1.76,2.64-3.14,1.65-5-.74-1.4-1.54-2.32.31-3.38.45-.26.34-1.16,0-1.45s-.85.22-1.25.59c-1.65,1.58-2.7,3.58-4.06,5.45C265.78,47.31,267.78,47.77,267.86,50ZM68.42,94c-1.61.69-3,1.11-4.47.08-.7-.48-1.11-1.91-2.21-1.29s-.39,1.81-.55,2.74c-.28,1.61.09,2.63,2.07,1.59a2.65,2.65,0,0,1,2.16-.21C68.92,98.92,68.49,96.46,68.42,94Zm284.13,29.07c-1.07.41-3.19-.87-3.16,1.42,0,1.65.77,3.6,2.9,3.65s2.46-1.75,2.65-3.38C355.16,122.91,354,122.74,352.55,123.05ZM275.43,83.17c-.09,3-6.51,4.81-1.43,8.9-.29-3.33,1.9-4.36,4.85-4.9C277.58,85.73,277.11,84.06,275.43,83.17ZM67.13,101.85c-.11-1-1.13-1.07-1.83-1-1.64.06-2,1.37-2.14,2.7-.13,1.15.31,1.88,1.59,1.88C67.11,105.36,66.18,103.11,67.13,101.85ZM305.91,15c.62,1.34,1,2.13,1.34,2.91s.77,1.43,1.34,2.49c.64-1.45,2.46-1.75,2-3.35C310,14.86,307.87,16,305.91,15ZM189.2,110.76c-1.51-.4-2.71-1.14-4.29-.52.77,1.43,1.43,2.67,2.24,4.2ZM101.91,38.15c1,1.47,1.83,3.06,3.79,1.6.4-.31,1.34-.37.66-1.36C105.06,36.49,103.61,37.45,101.91,38.15Zm239.45,86.43a1.36,1.36,0,0,0-1.53-1.65c-1.25,0-1.39,1.22-1.72,2.06a1.07,1.07,0,0,0,1.08,1.55A2,2,0,0,0,341.36,124.58Zm54.5,20.72c-2.94-.22-4.92,1.39-7.16,2.08C391.4,148.32,393.52,147.21,395.86,145.3Z"/><path d="M77.36,151.59c5.25,7.55,8.68,16,11.75,24.73C85.06,168.16,81.67,159.68,77.36,151.59Z"/><path d="M135.25,114.31c.09,1.47-.54,2.23-2.06,2.24-1.77,0-4.1-2.74-3.9-4.74a2.35,2.35,0,0,1,2.82-2.37C135,109.79,135,112.17,135.25,114.31Z"/><path d="M234.24,94.14c-.73,3.5-3.3,5.61-6.26,7.17-2.53,1.33-4.36-.15-6.11-2.09-3.85-4.28-3.71-10.86.61-14.49a2.42,2.42,0,0,1,3-.23,43.8,43.8,0,0,1,8.15,7.65A6.17,6.17,0,0,1,234.24,94.14Zm-9-5.26c-.53,0-3.85,4.89-3.47,5.41,1.14,1.6,1.76,3.86,3.87,4.4,1.37.35,4.6-3.67,4.59-5.32C230.28,92.38,226.38,88.87,225.29,88.88Z"/><path d="M234.1,67.29c.73,2.8-.76,3.46-3.48,3.35A43.44,43.44,0,0,0,220,71.74c-2.77.57-3.78-.69-3-3.46,1.59-5.4,2.51-6,8-4.76a9.31,9.31,0,0,0,4.42,0C233.1,62.6,234,63.32,234.1,67.29Zm-4.17.46,0-.86a26,26,0,0,1-6.82-1.07c-1.56-.5-1.48.88-1.88,1.6a.84.84,0,0,0,.84,1.3C224.68,68.47,227.3,68.08,229.93,67.75Z"/><path d="M194.33,71.9c-.43,0-.86,0-1.29,0-2-.15-5,1.68-5.25-2.09s2.52-7,5.78-6.83c1.29.08,2.57.31,3.85.46,4.2.5,5.78,4.07,3.45,7.7-.51.8-1.23.78-2,.79-1.52,0-3,0-4.56,0Zm-.61-2.1c1.64-.31,4.13.87,4.19-2,.06-3.27-2.71-1.3-4.11-1.81-2.71-1-2.42,1.88-2.54,2.87C191,71.11,193.25,68.48,193.72,69.8Z"/><path d="M203.26,49.51c-.13,5.66-.13,5.65-5.21,5a9.34,9.34,0,0,1-1.6-.12c-1.6-.52-4.18.58-4.26-2.54-.11-4,.59-5,4.1-5.45a25.52,25.52,0,0,1,3.14-.33C202,46.05,203.68,46.94,203.26,49.51Z"/><path d="M184.29,28.21a9.39,9.39,0,0,1-6.18-1.46,3.45,3.45,0,0,1-1.67-3.57c.24-1.65,1.27-2,2.63-2.32A25,25,0,0,0,182,19.5a4.93,4.93,0,0,1,5.36,1.08,5.52,5.52,0,0,1,1.79,5.55C188.56,28.47,186.33,28.5,184.29,28.21Zm-3.85-3.76c1.34,1,2.67,1.62,4,.7.4-.28.22-1.59-.43-2C182.59,22.27,181.57,23.13,180.44,24.45Z"/><path d="M179.28,55c-4.65.35-4.7.35-4-4.24.25-1.76-.73-4.31,1.68-5,2.74-.76,5.67-.27,8.5.09.63.08.81.63.82,1.21a9.38,9.38,0,0,1,0,1.3C185.52,54.48,185.51,54.48,179.28,55Zm-1-3.54c.5.21-.48,1.35,1.32,1.23,2.49-.16,2.42-1.65,2.68-3.2.2-1.21-.07-2.28-1.58-2.15C178.25,47.5,178.85,49.7,178.3,51.41Z"/><path d="M220.64,49.55c.07,2.65-.26,4.79-3.9,3.71a15,15,0,0,0-3.5-.23c-4.11-.2-5-1.69-3.35-5.46,1-2.23,4-3,8-2C219.89,46,220.63,47.08,220.64,49.55Zm-6.92-1.31c-.69-.2-1.26.15-1.28,1.53,0,1.72,1.22,1.16,2,1.23,1,.08,2-.09,1.91-1.52S215.19,48.28,213.72,48.24Z"/><path d="M201.11,28.07c-4.82-.2-7.21-1.54-7-3.94.1-1.41,3.56-3.91,5.29-3.82,2.95.14,5.38,2.45,5.3,5.05C204.58,27.7,203.06,28.18,201.11,28.07Zm-1.61-1.92c.73,0,1.32-.48,1.16-1.55s-.93-2-1.78-1.87-2.16.77-1.94,2.11C197.13,26,198.2,26.08,199.5,26.15Z"/><path d="M167.27,26.83c-2.27-.2-4.92-.57-5.24-3.46-.29-2.65,1.56-4.34,4.16-5,.52-.14,1.41-.38,1.48.08.42,2.55,4.26,3.75,2.8,7C169.92,26.6,168.68,26.83,167.27,26.83Zm.19-3.27a2,2,0,0,0-1.85-1.9c-1.22-.15-.85,1-.93,1.61A1.42,1.42,0,0,0,166.17,25,1.15,1.15,0,0,0,167.46,23.56Z"/><path d="M204.83,42.7c-3.91,0-4.46-.8-3.61-4,.28-1.05.67-2,1.71-2a1.65,1.65,0,0,1,1.65,1.69c.11,1.7,1.26,1.07,2.11.92,2.15-.37,4.28-.53,6.21.75a1.85,1.85,0,0,1,.64,1.06c.1.55-.34.69-.82.66C209.9,41.59,207.18,42.37,204.83,42.7Z"/><path d="M174.46,40.64c-1.62,0-4.21.88-4.47-.89s2.52-1.18,3.91-1.76c.57-.23,1.38,0,1.77-.63.82-1.22,2-2,3.28-1.34,1.43.72.2,2.17.15,3.23-.09,1.94-1.77,1.4-3,1.4Z"/><path d="M329.62,71.87c.07,2.44-.75,3.89-2.07,4.18-1.49.32-2.57-1.09-2.67-2.56s-2.3-2.52-.63-4a2.37,2.37,0,0,1,2.4-.64C328.29,69.63,329.53,70.75,329.62,71.87Z"/><path d="M400.44,115.76c.09,3.37-1.6,5.68-4.21,5.77s-5.71-3.21-5.82-6a4.86,4.86,0,0,1,4.79-5C398.63,110.38,400.34,112.09,400.44,115.76Zm-2.36,1.15c.3-2.58-.86-3-2.27-3-1.63,0-2.68.75-2.69,2.47,0,1.45.73,2.59,2.25,2.57A2.88,2.88,0,0,0,398.08,116.91Z"/><path d="M116.32,165.74a4.44,4.44,0,0,1-3.06,4.74,3.84,3.84,0,0,1-4.41-1.22c-1.18-1.41-2.41-3.15-1.4-5.3a1.93,1.93,0,0,1,2.63-1.16c1.54.45,1,1.51.69,2.32s-.79,1.85.41,2a1.82,1.82,0,0,0,2.33-1.62c.11-.85-.91-2.54,1-2.41A2.07,2.07,0,0,1,116.32,165.74Z"/><path d="M102.8,155.42c3,2.52,2.65,5-.38,6.32-2,.87-3.49.2-4.82-1.37S94.82,157,96,154.64a3,3,0,0,1,4-1.56,1.68,1.68,0,0,1,1.18,1.4,1.2,1.2,0,0,1-.94,1.47c-1,.31-2.31.48-1.62,2.06.3.68.85,1.48,1.65,1.35a2.25,2.25,0,0,0,2.17-2.38A9.92,9.92,0,0,1,102.8,155.42Z"/><path d="M133.45,181.38a34.79,34.79,0,0,1-2.27-3,4.29,4.29,0,0,1,1.9-6A4.52,4.52,0,0,1,139,174.7a1.16,1.16,0,0,1-.18,1.46c-.64.63-1,0-1.25-.38a2,2,0,0,0-3.12-.3c-1.12.87-.53,2,.14,3.09.77,1.26.86,2.56-1.21,2.7Z"/><path d="M89.62,150.52c1.24.67,1.95.41,2.32-.33.5-1-.35-1.28-1-1.67-1-.6-1.78-1.76-1.18-2.61.9-1.27,2.13-.33,3.07.39,3,2.32,3.1,6,.15,7.42-2.2,1.07-3.56-.27-4.37-2C88.09,150.68,89.12,150.48,89.62,150.52Z"/><path d="M126.7,172.16a4.53,4.53,0,0,1-3,3.91,2.93,2.93,0,0,1-3.62-1.34c-.44-.64-1-1.31-.44-2s1.17-.41,1.95,0c1.83.9,2.23-.29,2-1.8-.09-.78-1.74-1.59,0-2.26,1.27-.49,1.87.7,2.62,1.44C126.83,170.58,126.64,171.24,126.7,172.16Z"/><path d="M161.55,178.29a4.19,4.19,0,0,1-3.56,4.05c-2.22.42-3.4-1.32-4.15-3.27a1.05,1.05,0,0,1,.31-1.4c.65-.52,1.11-.25,1.63.31,1.42,1.5,2.32.85,3.22-.7.33-.57.12-2.16,1.48-1.58C161.41,176.1,161.61,177.23,161.55,178.29Z"/><path d="M148.13,178.84a2.94,2.94,0,0,1-2.45,2.84c-1.63.31-3.9-2.43-3.91-4.42,0-1.2.61-2.07,1.73-1.7C145.31,176.17,148.15,175.5,148.13,178.84Z"/><path d="M165.73,178.4c-.74-.74-1.71-1.29-1.76-2.55-.08-2.13,1.17-3.15,3-3.59a3.49,3.49,0,0,1,4,1.93,1.29,1.29,0,0,1-.22,1.75,1.38,1.38,0,0,1-1.73.36c-1.54-.86-1.61-.84-2.24,1A2,2,0,0,1,165.73,178.4Z"/><path d="M177,173.38a2.64,2.64,0,0,1-2.38-2.46c-.06-1.28,1.42-1.12,2.17-1.36,1.22-.38,1.64.71,1.72,1.74S177.67,172.92,177,173.38Z"/><path d="M201,162.24c3,0,4.88,2.76,4.65,6.77-.15,2.55-1.93,3.51-4.12,3.61-2.59.13-6.08-3.38-6-5.77C195.57,164.07,197.8,162.2,201,162.24Zm2.14,5.36c-.75-.64-1.11-2.29-2.76-2.25a2.23,2.23,0,0,0-2.26,2.28,2.56,2.56,0,0,0,2.84,2.08C201.94,169.69,203.21,169.57,203.13,167.6Z"/></g></g></g></svg>