<svg xmlns="http://www.w3.org/2000/svg" viewBox="0 0 230.26 231.61"><g id="Layer_2" data-name="Layer 2"><g id="Layer_1-2" data-name="Layer 1"><g id="Layer_2-2" data-name="Layer 2"><path d="M230.13,115.06c.33,3.27-.24,6.93-.47,10.61a35.59,35.59,0,0,1-1.09,6.62c-.63,2.44-.85,5-1.55,7.42-.81,2.86-2.07,5.53-3.05,8.31-.42,1.21-.89,2.4-1.27,3.61a18.68,18.68,0,0,1-1.08,2.93c-1.78,3.53-3.29,7.19-4.81,10.83-2.07,5-5.26,9.21-8.29,13.58a68.19,68.19,0,0,1-6.4,8.38c-3.34,3.49-6.44,7.25-10.15,10.36s-7.15,6.08-11.49,8.1A65.5,65.5,0,0,0,170,212.44a41.58,41.58,0,0,1-6.54,3.91,68,68,0,0,0-10.7,6.14,20.23,20.23,0,0,1-6.86,2.89,56.37,56.37,0,0,0-8.66,3c-1.69.77-3.46.84-5.16,1.34-.74.21-1.54.26-2.27.49a28.76,28.76,0,0,1-8.66.89c-4.35,0-8.69.45-13,.52-1.53,0-3-.18-4.54-.3-2-.17-4.06-.53-6.09-.79-1.36-.17-2.71-.53-4.06-.82-2.88-.62-5.69-1.5-8.57-2.08s-5.71-2-8.56-2.94c-3.22-1.09-6.31-2.5-9.5-3.67a35.36,35.36,0,0,1-5.95-3.31,107.33,107.33,0,0,1-11.1-7.19C46,207.56,42,205,38.47,201.85c-4.3-3.85-8.68-7.61-12.7-11.76a57.32,57.32,0,0,1-8.34-12c-2.25-4-4-8.21-6.06-12.25-1-1.92-1.29-4.11-2.12-6.09-1.56-3.73-2.42-7.69-3.91-11.44a37.05,37.05,0,0,1-1.54-6.25c-.53-2.53-1.59-4.92-1.91-7.48C1.35,130.3.4,126.05.29,121.68.21,118.15,0,114.62,0,111.09a3.26,3.26,0,0,1,.35-1.7,4.49,4.49,0,0,0,.42-1.94A107.8,107.8,0,0,1,3,91.65c.27-1.36.48-2.73.67-4.11.42-3,1.68-5.68,2.67-8.47A70.56,70.56,0,0,0,8.9,70.9a17.88,17.88,0,0,1,1.71-3.69c1.07-2.26,2.2-4.5,3.22-6.79a59.43,59.43,0,0,1,5.37-8.71c2-3,4.44-5.6,6.65-8.42A57.84,57.84,0,0,0,29.75,38a22.7,22.7,0,0,1,5.65-5.75A164.84,164.84,0,0,1,53.77,19.9,226.47,226.47,0,0,1,74.7,8.9c3.52-1.57,7-3.24,10.61-4.63A48.43,48.43,0,0,1,98.9,1.18c2-.17,4-.54,6-.71A65,65,0,0,1,116.69.16c1.15.1,2.3.07,3.45.09,2.62,0,5.24.06,7.85.13a49,49,0,0,1,7,.88,28.33,28.33,0,0,0,3.15.52c4.25.21,8.16,1.89,12.28,2.7,4.3.83,8.22,2.78,12.29,4.29,3.85,1.43,7.52,3.26,11.3,4.85a55.19,55.19,0,0,1,12.53,7.77c1.81,1.42,3.29,3.21,5.09,4.65,4,3.2,7.44,7,11.1,10.61,3.89,3.81,6.74,8.4,10,12.69A61.58,61.58,0,0,1,218.87,60a128,128,0,0,1,5.41,14.23c1.57,4.56,2.13,9.36,3.15,14,.41,1.9.9,3.77,1.34,5.66a52.11,52.11,0,0,1,1.23,8.51A107.39,107.39,0,0,1,230.13,115.06Zm-3.43-.84a92.47,92.47,0,0,0-.2-9.85,51.56,51.56,0,0,0-1.26-9.27q-1.49-6.15-2.66-12.35a58.9,58.9,0,0,0-2.19-8.6,134.28,134.28,0,0,0-5.14-13.36,50.32,50.32,0,0,0-4.32-8.1c-.53-.74-1.14-1.43-1.61-2.2-3.71-6.1-8.49-11.32-13.48-16.35a70.45,70.45,0,0,0-7.07-6.63c-1.6-1.22-2.89-2.81-4.71-3.8a5,5,0,0,1-2-1.82,2.49,2.49,0,0,0-.88-.86,72,72,0,0,0-9.36-4.62q-6.32-2.69-12.69-5.23a80.92,80.92,0,0,0-9.69-3.46,92.06,92.06,0,0,0-11.51-2.23c-3.07-.36-6.09-1.06-9.18-1.28-4.93-.36-9.88,0-14.82-.46-2.5-.23-5,.28-7.5.41-3,.15-5.87.66-8.82.9a58.68,58.68,0,0,0-9.79,2,61.36,61.36,0,0,0-9.61,3.58,3.39,3.39,0,0,1-1.85.39,2.1,2.1,0,0,0-1.22.25c-3.61,1.76-7,3.87-10.5,5.9q-6.26,3.66-12.4,7.52Q44.89,29.35,38,34.61a35.51,35.51,0,0,0-4.58,4.26c-1.42,1.55-2.54,3.35-3.92,5-2.19,2.54-4.09,5.33-6.69,7.5a3.3,3.3,0,0,0-.51.61A59.32,59.32,0,0,0,16.38,62c-1.32,3-2.91,6-4.18,9.07-1.79,4.36-3,8.92-4.55,13.38a47,47,0,0,0-2.51,11c-.26,2.76-.55,5.52-.85,8.27a60,60,0,0,0-.67,9.48c.17,3.89.23,7.79.54,11.68.23,2.95.94,5.82,1.22,8.77a34.73,34.73,0,0,0,1.51,5.92c.65,2.3.84,4.71,1.63,7A44.21,44.21,0,0,1,10.37,152c.56,2.58,1.84,4.91,2.52,7.45a31.37,31.37,0,0,0,1.38,4.31,120.54,120.54,0,0,0,6.05,12.67,56,56,0,0,0,5.46,8.09,116.23,116.23,0,0,0,8.83,9.07c3.4,3.17,7,6,10.62,9,3,2.42,5.91,4.81,9,7a95.48,95.48,0,0,0,13.45,8.11,93.29,93.29,0,0,0,15.43,6.07c3.59,1,7.17,2.07,10.84,2.72,1.6.27,3.22.43,4.82.68a65.74,65.74,0,0,0,9.5,1c4.76.06,9.5-.52,14.26-.36a10.38,10.38,0,0,0,1.66-.17c1.84-.25,3.67-.55,5.51-.76a27,27,0,0,0,6.75-1.43c3.93-1.55,8-2.64,11.92-4.26a71.61,71.61,0,0,0,11.21-5.79c3.89-2.49,7.82-4.93,11.71-7.41,2.13-1.37,4.38-2.55,6.41-4.1,2.44-1.86,4.94-3.65,7.3-5.62,1.54-1.29,3.22-2.39,4.69-3.77,2-1.88,3.77-4,5.73-6a107.78,107.78,0,0,0,11.08-13A69.77,69.77,0,0,0,213.24,164c1.2-2.55,2.21-5.2,3.65-7.64a12,12,0,0,0,1-2.24q.8-2.29,1.62-4.58c2.1-5.84,4.5-11.58,5.75-17.7.35-1.71,1.3-3.27,1.28-5.07,0-.83.06-1.66.06-2.49,0-1.89.31-3.79.13-5.69A36.77,36.77,0,0,1,226.7,114.22Z"/><path d="M62.59,106.7a45.68,45.68,0,0,1,.76-7.15c.4-3.14,1.86-5.92,2.93-8.83a65.11,65.11,0,0,1,7.11-13.49A41.1,41.1,0,0,1,83.62,66.62a61.75,61.75,0,0,1,10.07-5.78,9.45,9.45,0,0,0,1.42-1.16,25.78,25.78,0,0,1,9.2-4,41.35,41.35,0,0,1,11.61-1.23c1.4.06,2.77.46,4.19.54,4.79.3,9.46,1.46,14.21,2a14.26,14.26,0,0,1,6.16,2.5c2,1.31,4,2.61,5.86,4a46.41,46.41,0,0,1,14,15.79,35,35,0,0,1,1.89,5.06A30.15,30.15,0,0,1,164,91.17a25.73,25.73,0,0,0,1.42,6.26,44.19,44.19,0,0,1,1.65,5.24,21.71,21.71,0,0,1-.76,12.78,187,187,0,0,1-8,19.31,62.52,62.52,0,0,1-5,7.43c-1.68,2.39-3.92,4.14-6,6.1-2.27,2.14-4.63,4.19-7,6.22s-5,3-7.61,4.3a40.67,40.67,0,0,1-8.81,2.79,18.15,18.15,0,0,1-3.39.4c-1.79,0-3.57.23-5.36.15A78.18,78.18,0,0,1,104,161a5.19,5.19,0,0,1-1.22-.36,7.8,7.8,0,0,0-3.85-.76c-2.55.15-4.79-1-7.1-1.87a26.77,26.77,0,0,1-9-5.89c-4.84-4.66-9.45-9.54-12.74-15.55a62.53,62.53,0,0,1-5.29-12.1,49.74,49.74,0,0,1-1.88-10.83C62.78,111.55,62.66,109.44,62.59,106.7Zm52.3,52.71A31.52,31.52,0,0,0,127.05,158c4.13-1.5,8.11-3.26,11.35-6.41,3.85-3.73,8.09-7,11.35-11.37a51.93,51.93,0,0,0,7-12.36c.88-2.25,1.74-4.52,2.65-6.76,1.45-3.6,3-7.15,3.48-11.07a17.8,17.8,0,0,0-.48-7.12c-.81-2.78-2-5.43-2.55-8.28-.46-2.46-.83-4.92-1.49-7.35-1.81-6.71-5.88-11.87-10.78-16.52a66.15,66.15,0,0,0-9.21-6.92,17,17,0,0,0-6.27-2.88c-1.75-.31-3.52-.52-5.28-.78-2.18-.33-4.31-.93-6.53-1.07a44.4,44.4,0,0,1-4.58-.57,20.23,20.23,0,0,0-8.31,0c-1.27.31-2.48.87-3.76,1.21a49.58,49.58,0,0,0-15.95,7.77A39.08,39.08,0,0,0,77.37,77.59a59.31,59.31,0,0,0-5.94,10.58,79.3,79.3,0,0,0-3.56,9,35.48,35.48,0,0,0-1.33,11c.11,2.77.23,5.54.53,8.3a42.08,42.08,0,0,0,1.68,7.93A53.72,53.72,0,0,0,79.89,143.4c1.34,1.56,2.94,2.88,4.34,4.4a30,30,0,0,0,6.69,5.25,33.59,33.59,0,0,0,7.61,3.22,15.53,15.53,0,0,1,3.21,1.54,10.52,10.52,0,0,0,4.73,1.28A59,59,0,0,0,114.89,159.41Z"/><path d="M110,214c-3.55,0-7.09-.3-10.63-.58A74.15,74.15,0,0,1,82.65,210a142.43,142.43,0,0,1-16.19-6.56,67.2,67.2,0,0,1-12-6.71c-4.74-3.5-9.11-7.42-12.12-12.62a9.62,9.62,0,0,1-.54-1.06c-.07-.2-.32-.48-.07-.65a.7.7,0,0,1,.75.1c.93.66,1.88,1.3,2.79,2,3.76,2.87,7.44,5.84,11.26,8.62,4,2.93,8.63,4.82,13.11,6.93a130.46,130.46,0,0,0,13.27,5.29,71.09,71.09,0,0,0,12.72,3,114,114,0,0,0,12.52,1c4.2.17,8.37-.24,12.56-.46,2.48-.13,5-.21,7.45-.35,1.68-.09,3.34-.39,5-.53a63.53,63.53,0,0,0,6.59-.73c3.75-.72,7.43-1.72,11.16-2.46,4.11-.82,7.64-2.89,11.26-4.77,2.56-1.33,5-2.79,7.56-4.2a1.51,1.51,0,0,1,.28-.15c.38-.1.78-.58,1.14-.11s.12.94-.21,1.37a16.65,16.65,0,0,1-3.54,3.11,84.31,84.31,0,0,1-12.85,7.52,30.56,30.56,0,0,1-5.18,1.53c-3.47,1-7,1.89-10.55,2.62-1.57.32-3.16.42-4.74.6s-3.41.44-5.13.59-3.5.38-5.26.39c-3.52,0-7,.45-10.53.6C112.07,214,111,214,110,214Z"/><path d="M55.72,33.94c.3-2.93,2.4-4.43,4.51-5.75A58.61,58.61,0,0,1,72,22c2.56-.89,5.1-1.85,7.67-2.71a55.14,55.14,0,0,1,9.41-2.18c2.43-.36,4.79-1.06,7.21-1.38,1.56-.2,3.14-.34,4.71-.39a59.81,59.81,0,0,0,6.27-.7,23.46,23.46,0,0,1,7,.24,19,19,0,0,0,2.7.26c2.57,0,5.14,0,7.71,0a20,20,0,0,1,5.9.88,25.93,25.93,0,0,0,5.62.67A62,62,0,0,1,143,18c3,.53,5.8,1.78,8.77,2.4a31.24,31.24,0,0,1,6.05,1.39A95.78,95.78,0,0,1,173.53,30,69.72,69.72,0,0,1,184,38.14a4.5,4.5,0,0,1,.86,1c.1.18.31.38.14.58a.56.56,0,0,1-.61.05,2.71,2.71,0,0,1-.77-.41,135.23,135.23,0,0,0-13.75-8.92,75.08,75.08,0,0,0-13.61-6.08c-1.74-.58-3.63-.53-5.4-1-2.23-.63-4.42-1.42-6.69-1.87-3.12-.61-6.2-1.5-9.45-1.46a23.26,23.26,0,0,1-5.59-.93c-2.22-.53-4.46-.27-6.7-.31s-4.6.06-6.89,0c-1.86-.07-3.7-.46-5.58-.47a36.69,36.69,0,0,0-5.53.71c-1.51.21-3,.29-4.53.38a45.59,45.59,0,0,0-6.68,1c-3,.63-6,1.1-9,1.78a84.66,84.66,0,0,0-9.35,3.11,136.83,136.83,0,0,0-17.31,8.09C57,33.67,56.26,33.5,55.72,33.94Z"/><path d="M25.87,116.94A57.64,57.64,0,0,1,27,109.76c.65-3.5,1.29-7,1.88-10.52.37-2.22,1.2-4.3,1.76-6.46a37.39,37.39,0,0,1,2.75-8.4,26.13,26.13,0,0,0,1.47-3.87,57.37,57.37,0,0,1,6.86-14.29,13.88,13.88,0,0,1,.92-1.11c.53-.61,1-1.19.67-2.11a1.6,1.6,0,0,1,.24-1.38c2.71-4.66,5.31-9.4,9.21-13.23,1.86-1.81,3.39-3.93,5.34-5.65a82.37,82.37,0,0,1,8.62-6.11A92,92,0,0,1,85,27.29a32.91,32.91,0,0,1,7.71-2,3.68,3.68,0,0,1,1.74.13c.22.08.39.18.42.43s-.18.42-.42.5c-.45.16-.91.3-1.37.44a79.36,79.36,0,0,0-15.33,6.68A155.63,155.63,0,0,0,61.49,44a32,32,0,0,0-5,5.09c-1.88,2.11-4,4-5.52,6.43a3.32,3.32,0,0,0-.63,1.59,4.06,4.06,0,0,1-.79,1.73,70.92,70.92,0,0,1-4.45,7.46,32.16,32.16,0,0,0-3.46,5.62,71.63,71.63,0,0,0-3.87,9.33,43.43,43.43,0,0,1-2.17,6c-1.48,3.08-1.81,6.48-2.87,9.68-1.39,4.2-1.7,8.63-2.58,12.94-.51,2.48-1,5-1.34,7.45a27.4,27.4,0,0,0,0,5c.13,2.48.3,5,.3,7.45,0,.57,0,1.18-.53,1.6-.36.27-.57.24-.84-.14a7.34,7.34,0,0,1-1.18-3.66C26.2,124.18,25.92,120.88,25.87,116.94Z"/><path d="M117.27,49.27a43.78,43.78,0,0,0-8.92.85,11.54,11.54,0,0,0-1.69.48c-.27.08-.52.15-.66-.19s0-.49.31-.63a13.59,13.59,0,0,1,2.91-1.09,38.8,38.8,0,0,1,14.58-1.27c6.66.55,13.26,1.44,19.53,3.85a83.82,83.82,0,0,1,13.11,6.26c2.31,1.37,4.1,3.41,6.19,5.07a84.71,84.71,0,0,1,8.88,8.79,37.8,37.8,0,0,1,6.18,9.9c1.72,3.6,2.39,7.47,3.22,11.32.41,1.91,1,3.78,1.31,5.7.49,3.16,1.56,6.21,1.86,9.4A6,6,0,0,1,184,110a2.32,2.32,0,0,1-.74,1.11c-.41.34-.66.24-.95-.18a9.61,9.61,0,0,1-1.48-4.47c-.23-2-.9-3.91-1.22-5.88-.63-4-1.7-7.88-2.51-11.83a32,32,0,0,0-8.66-16.34c-1.63-1.65-3-3.55-4.81-5-2.75-2.28-5.21-4.91-8.13-7-1.67-1.2-3.63-1.9-5.39-2.93a55.68,55.68,0,0,0-15.53-5.94,84.44,84.44,0,0,0-12.94-2.07C120.15,49.33,118.71,49.27,117.27,49.27Z"/><path d="M214.91,112.75c0,2.35.06,4.6,0,6.85-.12,3.36-.34,6.71-.35,10.08,0,1.71-.48,3.42-.62,5.15a58,58,0,0,1-1.59,9.26A61.46,61.46,0,0,1,207.61,157a78.12,78.12,0,0,1-6.07,10.64,38.16,38.16,0,0,1-9.65,9.61,6,6,0,0,1-1.11.62c-.36.14-.73.61-1.15.2a1.38,1.38,0,0,1-.34-1.46,11.12,11.12,0,0,1,2.78-4.42,54.72,54.72,0,0,0,6.22-8,115.56,115.56,0,0,0,7.29-13.95,66.56,66.56,0,0,0,3.78-12.25c.73-3.41,1.08-6.87,1.84-10.27.26-1.16,0-2.4.19-3.6.27-1.89.49-3.8.7-5.7s.38-4,.61-6c.27-2.36.59-4.7.89-7,0-.37.07-.75.13-1.11,0-.18.11-.39.32-.43s.33.15.44.29a1.68,1.68,0,0,1,.29,1C214.88,107.62,215,110.24,214.91,112.75Z"/><path d="M172.23,169.19a7.46,7.46,0,0,1,1.44-2.06c1.84-1.94,3.74-3.82,5.49-5.84,3.57-4.13,7-8.34,9.29-13.37,1-2.24,1.68-4.6,2.47-6.92a53.56,53.56,0,0,0,2.59-9.37c.24-1.66.44-3.33.55-5a117.39,117.39,0,0,0,.31-12c-.12-3.22-.41-6.44-.56-9.66s0-6.31-.06-9.47c0-2.37-.4-4.71-.6-7.07A45.51,45.51,0,0,0,192,81.14a41.73,41.73,0,0,0-1.73-4.6c-1.71-4.45-3.54-8.84-5.66-13.11-.3-.62-.65-1.22-1-1.82-.09-.17-.22-.35,0-.5s.36,0,.51.11a5.71,5.71,0,0,1,1.68,1.91A57.36,57.36,0,0,1,191,73.39c.87,2.44,2.21,4.69,2.93,7.19a46.09,46.09,0,0,1,1.57,8.64c.15,1.72.37,3.44.57,5.15a5.32,5.32,0,0,1,.06.56c-.09,2.83.2,5.66.17,8.5,0,3.12.46,6.22.57,9.33a62.84,62.84,0,0,1,.11,8.57c-.16,1.65-.12,3.31-.17,5a49.71,49.71,0,0,1-3,15.83,81.44,81.44,0,0,1-3,8.3,49.43,49.43,0,0,1-8.27,11.88c-1.65,1.77-3.76,3-5.63,4.48a21.15,21.15,0,0,1-2.85,1.91A4.46,4.46,0,0,1,172.23,169.19Z"/><path d="M111.57,202.44a1.28,1.28,0,0,1-1.57,1.25c-.93-.11-1.84-.32-2.77-.45-2.71-.37-5.44-.69-8.15-1.1a70.07,70.07,0,0,1-12.34-3.5A60.43,60.43,0,0,1,80,196c-4.73-2.32-9.6-4.34-14.21-6.9a28.27,28.27,0,0,1-5-3.86c-2.75-2.45-5.48-4.94-8.21-7.42a20,20,0,0,1-2.87-3.23c-2.11-3-4.53-5.68-6.44-8.77-2.62-4.23-5-8.6-7.31-13a13.2,13.2,0,0,1-.53-1.41c-.08-.23-.17-.49.11-.63s.47-.3.81-.09A4.67,4.67,0,0,1,37.5,152c2.3,3.19,4.27,6.59,6.28,10A87.6,87.6,0,0,0,49.5,170a43,43,0,0,0,3,3.72c1.61,1.72,3.47,3.17,5.18,4.78A91.78,91.78,0,0,0,65.06,185a15,15,0,0,0,2.39,1.46c2.81,1.4,5.61,2.82,8.5,4.05,2.47,1.06,4.79,2.47,7.33,3.38a109.77,109.77,0,0,0,13.54,4.31c2.72.58,5.47,1.07,8.25,1.43a34.08,34.08,0,0,1,4.77.94A2,2,0,0,1,111.57,202.44Z"/><path d="M40.42,100.27a2.93,2.93,0,0,1,.64,1.9c.13,1.68.21,3.36.19,5a63.71,63.71,0,0,0,.36,7c.34,3.33.58,6.67.93,10a80,80,0,0,0,1.92,12.12,55.34,55.34,0,0,0,6.25,15c2.73,4.4,5.26,8.94,8.46,13a3,3,0,0,0,1.24,1,26.67,26.67,0,0,1,6.09,4.1c3.58,2.82,7.67,4.67,11.74,6.59a92.17,92.17,0,0,0,11.46,4.47c3.15,1,6.32,1.91,9.48,2.86a2.38,2.38,0,0,1,.91.49,1.11,1.11,0,0,1,.32,1.31c-.17.42-.61.51-1.08.49a56.06,56.06,0,0,1-5.89-1.11c-5.94-1-11.41-3.38-16.91-5.69a50.44,50.44,0,0,1-8-3.92A40.66,40.66,0,0,1,60,168.23a78.92,78.92,0,0,1-8.44-11.61c-1.47-2.4-3-4.76-4.26-7.28a70.17,70.17,0,0,1-5.09-13.49,64.47,64.47,0,0,1-1.26-6.93c-.59-3.87-.82-7.78-1.06-11.68-.16-2.69-.47-5.37-.38-8.07.08-2.38.31-4.74.62-7.09C40.19,101.5,40,100.89,40.42,100.27Z"/><path d="M101.78,41.47A114.68,114.68,0,0,0,87,46.8a42.33,42.33,0,0,0-7.26,3.83,44.61,44.61,0,0,0-5.18,4.63c-3.2,3.18-6.39,6.37-9.87,9.26a22,22,0,0,0-4.44,5.83c-1.52,2.52-3.22,4.94-4.5,7.6a38.06,38.06,0,0,0-3.71,12,114.25,114.25,0,0,1-2.91,15.25c-.07.29-.12.71-.39.71s-.41-.45-.47-.73A8.55,8.55,0,0,1,48,103.4a58.55,58.55,0,0,1,.12-7.61c.3-2.32.51-4.66.85-7a41.5,41.5,0,0,1,6-16.54c1.26-2,2.42-4,3.66-5.93a21.35,21.35,0,0,1,4.33-5c2.4-2,4.65-4.18,7-6.27,3.28-2.94,6.51-6,10.45-8.06a58.92,58.92,0,0,1,8.3-3.23,57.51,57.51,0,0,1,11.9-2.63A1.14,1.14,0,0,1,101.78,41.47Z"/><path d="M18.33,126.5c.05-2.38-.42-5-.63-7.61-.07-1-.11-2-.18-3-.14-2.13-.45-4.24-.59-6.35a57.55,57.55,0,0,1,0-6c.06-1.67.33-3.34.42-5a31.64,31.64,0,0,1,1.33-7.29c1-3.47,1.76-7,2.54-10.53a42.15,42.15,0,0,1,4.83-12,109.1,109.1,0,0,1,7.55-11.9l.73-.95c.14-.19.27-.48.55-.34a.56.56,0,0,1,.22.77,32.59,32.59,0,0,1-1.44,3.45c-2,4.05-4,8.11-6.08,12.16a48.25,48.25,0,0,0-4.11,12.84c-.65,3.39-1.5,6.73-2.32,10.08a49.07,49.07,0,0,0-1.07,8.63c-.05.9-.1,1.81-.19,2.71-.3,3,.22,6,.49,9,.14,1.67.21,3.35.36,5,.17,2,.41,4,.57,6a17.93,17.93,0,0,1,0,2.64A18.75,18.75,0,0,0,23,136.4a10.32,10.32,0,0,1,.81,2.56,1.34,1.34,0,0,1-.91,1.46c-.6.19-.74-.29-1-.68a27.82,27.82,0,0,1-3.57-10.65A20,20,0,0,1,18.33,126.5Z"/><path d="M121,202.27a2.71,2.71,0,0,1-2.76-1.5c-.37-.72-.28-1,.45-1.34a10.73,10.73,0,0,1,3.92-.65c1.91-.14,3.83-.24,5.74-.45a36.91,36.91,0,0,0,7-1.73,188.29,188.29,0,0,0,18.92-7.14,71.93,71.93,0,0,0,7.27-4.18,95.35,95.35,0,0,0,8.58-5.28c2.8-2.05,5.77-3.86,8.57-5.91a5,5,0,0,1,.54-.35c.28-.17.56-.21.75.12a.61.61,0,0,1-.11.8c-2.28,2.33-4.78,4.42-7.23,6.56a71.31,71.31,0,0,1-8.62,6.14,76.84,76.84,0,0,1-9.13,5.51c-4.1,1.88-8.33,3.47-12.54,5.08a85.46,85.46,0,0,1-12.39,3.77,31.3,31.3,0,0,1-5.88.54C123,202.29,122,202.27,121,202.27Z"/><path d="M180.43,132.78a15.48,15.48,0,0,1-1.14,4c-1.09,2.82-2,5.73-3.3,8.45a35.67,35.67,0,0,1-6.66,9.23c-1.64,1.69-3.22,3.43-4.83,5.14a116,116,0,0,1-11.32,10,43.14,43.14,0,0,1-4.26,3.51,9.51,9.51,0,0,1-3,1.53,1.06,1.06,0,0,1-1.24-.48,1.11,1.11,0,0,1,.22-1.26,26.56,26.56,0,0,1,2-2c3-2.8,6.26-5.33,9.43-7.94,3.75-3.1,6.93-6.75,10.38-10.15a48,48,0,0,0,7.18-8.89c1.38-2.23,2.15-4.76,3.4-7.06.72-1.31,1.36-2.66,2-4a2.86,2.86,0,0,1,.21-.43c.2-.28.36-.74.73-.65S180.34,132.46,180.43,132.78Z"/><path d="M165.43,145.87A13.91,13.91,0,0,1,163,150a107.76,107.76,0,0,1-9.1,10.23,36,36,0,0,1-7.79,5.83c-4.43,2.47-8.91,4.86-13.57,6.89-1.85.8-3.87,1.12-5.76,1.82a22.45,22.45,0,0,1-6.07,1.24c-1.39.11-2-.91-2.3-2-.12-.37.11-.56.44-.73a10,10,0,0,1,3.41-.74,34.9,34.9,0,0,0,4.4-1.09c5.59-1.51,10.69-4.14,15.76-6.83a47.38,47.38,0,0,0,9.07-5.66c2.51-2.17,4.93-4.43,7.37-6.67q2.58-2.35,5.11-4.75C164.42,147,164.85,146.51,165.43,145.87Z"/><path d="M96.91,193.29a39.4,39.4,0,0,1-8.59-1.78,127.07,127.07,0,0,1-20.23-8,33.55,33.55,0,0,1-8-5.95c-.73-.71-1.52-1.35-2.29-2a4.75,4.75,0,0,1-1.11-1.45c-.08-.17-.32-.43,0-.65a.63.63,0,0,1,.75-.08c.18.1.38.18.57.28a84.57,84.57,0,0,1,7.6,4.39A77.47,77.47,0,0,0,78,184.26,161.39,161.39,0,0,0,96.21,191c.72.21,1.44.4,2.17.56a.85.85,0,0,1,.73.82c0,.44-.31.57-.63.72A3.24,3.24,0,0,1,96.91,193.29Z"/><path d="M216.21,80.7A1.87,1.87,0,0,1,215,82.49a.83.83,0,0,1-1-.39,16.5,16.5,0,0,1-1.59-3,57.47,57.47,0,0,0-3-7.55,107.65,107.65,0,0,1-4.57-9.94,98.32,98.32,0,0,0-4.3-9.88,20.24,20.24,0,0,0-1.88-3.49c-.2-.24-.49-.63-.18-.91a1,1,0,0,1,1.12-.11,3.68,3.68,0,0,1,1.58,1.44c1.65,2.69,3.3,5.37,4.79,8.16,1.72,3.21,2.93,6.64,4.71,9.81.89,1.6,1.71,3.25,2.5,4.88a32.76,32.76,0,0,1,3.1,8.88C216.21,80.52,216.2,80.65,216.21,80.7Z"/><path d="M145.15,27.42a1.58,1.58,0,0,1-1.34.57,45.45,45.45,0,0,1-9.75-.37,84.24,84.24,0,0,0-11-1c-4.49-.08-9-.34-13.46-.23a29.83,29.83,0,0,0-5,.68c-1,.19-2.36-1.28-2.14-2.24.07-.28.31-.33.53-.43a11.49,11.49,0,0,1,4-.87c5-.54,9.92,0,14.88.09s10,1.29,15,2.34c2.5.52,5.05.83,7.57,1.23A1.14,1.14,0,0,1,145.15,27.42Z"/><path d="M207.87,111.71c-.27,3.13-.05,6.22-.5,9.27-.58,3.86-.6,7.79-1.59,11.6a2.75,2.75,0,0,1-1.25,1.86c-.35.19-.69.17-.86-.1a4.18,4.18,0,0,1-.9-3.61,40,40,0,0,0,1.28-7.78c.1-1.37.46-2.72.63-4.1.2-1.63.36-3.28.46-4.93a40.09,40.09,0,0,0,.15-6.48c-.29-2.94-.22-5.91-.58-8.85a13.68,13.68,0,0,1-.2-2.86c0-.36,0-.73.48-.82s.63.27.73.59a34,34,0,0,1,1.18,5.65c.27,2.43.38,4.87.76,7.28C207.83,109.53,207.81,110.67,207.87,111.71Z"/><path d="M123.82,188.22a2.06,2.06,0,0,1,1.17-.9c4.15-1.71,8.39-3.18,12.57-4.78,5.07-1.94,10-4.2,14.83-6.63.47-.24,1-.39,1.45-.64a1,1,0,0,1,1.42.4,1.18,1.18,0,0,1-.24,1.7,34.18,34.18,0,0,1-4.14,2.7c-4.68,2.53-9.38,5-14.58,6.36a86.59,86.59,0,0,1-11.06,2.1A2.32,2.32,0,0,1,123.82,188.22Z"/><path d="M110,180a32.44,32.44,0,0,1-8-1.35c-2.86-.76-5.82-1-8.65-1.88-1.71-.5-3.39-1.09-5-1.75a5,5,0,0,1-2.6-2.54c-.21-.41-.55-1.09-.17-1.31s1-.79,1.75-.53c1.61.58,3.22,1.12,4.84,1.66,2.65.89,5.4,1.4,8.11,2.07s5.51,2,8.36,2.66a8.89,8.89,0,0,1,2.86,1,1.44,1.44,0,0,1,.68.74c.24.69,0,1.18-.76,1.25A12.34,12.34,0,0,1,110,180Z"/><path d="M148.6,201.18c-1-.13-1.95,0-2.39-1.07-.21-.52-.25-.91.35-1.26a20,20,0,0,1,3.55-1.4c3.33-1.13,6.25-3.06,9.32-4.71,5.14-2.76,10.11-5.84,15.31-8.5.32-.16.7-.66,1-.24s-.15.85-.46,1.1c-2.05,1.62-4.09,3.26-6.21,4.78-4.48,3.21-9.12,6.16-13.87,9a18.94,18.94,0,0,1-5.7,2.22C149.22,201.12,148.87,201.14,148.6,201.18Z"/><path d="M136.19,33.5c10,.88,19.48,3.52,27.92,9.22,1,.67,2.06,1.22,3.06,1.88a1.5,1.5,0,0,1,.13,2.48c-.47.33-.8.11-1.16-.12-1.93-1.23-3.84-2.5-5.79-3.68a62.41,62.41,0,0,0-19.78-7.47c-1.38-.28-2.76-.62-4.14-.91a3,3,0,0,1-1.26-.65c-.15-.11-.35-.22-.3-.44s.29-.17.46-.23A1.41,1.41,0,0,1,136.19,33.5Z"/><path d="M110.5,28.42a4.47,4.47,0,0,1,2.5,1.26c.2.2.2.38,0,.5a7,7,0,0,1-2.51,1.13,93.84,93.84,0,0,0-13.92,2.33c-4.28,1-8.36,2.49-12.5,3.85a3,3,0,0,1-1.56.26c-.21,0-.48,0-.52-.27s.24-.34.42-.42c1.6-.78,3.19-1.58,4.82-2.3a78.75,78.75,0,0,1,17.69-5.44C106.76,29,108.66,28.72,110.5,28.42Z"/><path d="M64.17,80.11a23.63,23.63,0,0,1,3.16-6.83,44.45,44.45,0,0,1,7.46-9.17,68.89,68.89,0,0,1,8.68-6.31c1.39-.88,2.77-1.81,4.08-2.82a8.89,8.89,0,0,1,1.57-.93,1,1,0,0,1,1.34.27,1.24,1.24,0,0,1,0,1.5,3.33,3.33,0,0,1-.93.86c-2.61,1.85-5.39,3.41-8.11,5.07A44.25,44.25,0,0,0,69.83,71.89a63.39,63.39,0,0,0-5.32,7.69A6,6,0,0,1,64.17,80.11Z"/><path d="M73.33,158.86c0,.46-.32.69-.66.91a1,1,0,0,1-1.12-.1,18.35,18.35,0,0,1-5.32-5.25,78.23,78.23,0,0,1-5.18-10.36c-1.46-3.17-2.41-6.55-4-9.68-.08-.17-.18-.36,0-.52s.39,0,.57.07a3.2,3.2,0,0,1,1.17,1.38c1.62,2.67,2.8,5.54,4.14,8.34,1.2,2.48,2.41,4.95,3.73,7.37a14.68,14.68,0,0,0,5,5.45A2.85,2.85,0,0,1,73.33,158.86Z"/><path d="M159.26,33.21c0,1.1-.87,1.55-1.6,1.13-2.38-1.36-4.73-2.77-7.23-3.91l-2.53-1.18a2.44,2.44,0,0,1-1.2-1.13c-.13-.25-.34-.57-.15-.8a.83.83,0,0,1,.94-.22,41.32,41.32,0,0,1,5.08,1.9c1.76.83,3.5,1.69,5.25,2.54C158.66,31.94,159.35,32.45,159.26,33.21Z"/><path d="M215.42,88.19v-1a1.8,1.8,0,0,1,1.87-2,2,2,0,0,1,1.61,1.33c.31,1.72.62,3.44.81,5.18.1,1-.8,1.29-1.44,1.74a.77.77,0,0,1-1-.09c-.08-.06-.2-.1-.25-.18C216.12,91.58,215,90.13,215.42,88.19Z"/><path d="M57.15,52a1.21,1.21,0,0,1,.33-.87,23.09,23.09,0,0,1,5-4.79c.43-.33,1-.76,1.54-.16a1.38,1.38,0,0,1,0,1.87c-.72.78-1.52,1.5-2.25,2.28S60.22,52.1,59.44,53l0,.06c-.42.35-.84,1-1.39.73A1.82,1.82,0,0,1,57.15,52Z"/><path d="M117,196.19a2.38,2.38,0,0,1-2.5-2.14c-.13-.67.28-1.11,1.28-1.2a22.16,22.16,0,0,1,4.07.19,1.88,1.88,0,0,1,1.2.74,1.24,1.24,0,0,1-.91,2.06A17.84,17.84,0,0,1,117,196.19Z"/><path d="M161.49,54.13A1.09,1.09,0,0,1,163,53.07c1.39.82,2.72,1.7,2.9,3.54a1.54,1.54,0,0,1-1,1.71c-.63.35-1.06,0-1.38-.42A8.68,8.68,0,0,1,161.49,54.13Z"/><path d="M127.12,40.54c-.85.05-1.28-.59-1.63-1.17a7,7,0,0,1-.55-1.65.39.39,0,0,1,.21-.47,3.41,3.41,0,0,1,4.28.81c.86,1.24.33,1.95-1.12,2.39A5.86,5.86,0,0,1,127.12,40.54Z"/><path d="M29.86,137.28a.8.8,0,0,1,.62-1,.86.86,0,0,1,1.13.44A10,10,0,0,1,33,140.54c.08.67-.52,1-1.07,1.25s-.61-.36-.88-.66C30.06,140,30.08,138.61,29.86,137.28Z"/><path d="M159.85,49.77c0,.29,0,.59.07.87a1.35,1.35,0,0,1-1,1.39.94.94,0,0,1-1.17-.6,5.85,5.85,0,0,0-.5-.79c-.74-1.22-.9-2.34.89-3.1a1.2,1.2,0,0,1,1.55.67A2.68,2.68,0,0,1,159.85,49.77Z"/><path d="M127.44,193.69a.79.79,0,0,1-1.14.81c-.34-.12-.49.08-.71.2s-.64.3-.86,0a8.63,8.63,0,0,1-1.28-2.32c-.18-.72.37-1.22,1.35-1.27A3,3,0,0,1,127.44,193.69Z"/><path d="M117,35.54a2.27,2.27,0,0,1,2.47,1.65c.08.46-.11.78-.53.79a7.09,7.09,0,0,0-2,.5.71.71,0,0,1-1-.46c0-.07,0-.17-.07-.22-.47-.45-.9-1.13-.58-1.6A2.2,2.2,0,0,1,117,35.54Z"/><path d="M131.79,190.53c0-.44,1-1.18,1.76-1.18a1.13,1.13,0,0,1,1.27,1.13l.12,1c0,.19.1.46-.1.51-.56.15-.79.69-1.24,1-.26.16-.54.24-.72,0A4.21,4.21,0,0,1,131.79,190.53Z"/><path d="M66.83,42.39c0-.46,1.17-1.23,1.86-1.23s1.42.94,1.42,1.91a2.54,2.54,0,0,1-1.78,1.73C67.81,44.79,66.81,43.18,66.83,42.39Z"/><path d="M75.66,39.34a2,2,0,0,1-1.56,1.51c-.44,0-1.2-1.26-1.17-1.92a1.79,1.79,0,0,1,1.59-1.25C75.15,37.67,75.69,38.44,75.66,39.34Z"/><path d="M158.06,182.87c0,.47-1.24,1.6-1.73,1.61s-1.26-1.39-1.24-2c0-.37,1.23-1.07,1.82-1A1.44,1.44,0,0,1,158.06,182.87Z"/><path d="M151.33,183.14a2.54,2.54,0,0,1,.82,1.35c.08.52-.41.6-.66.58a1,1,0,0,1-.89-.95C150.52,183.58,150.9,183.39,151.33,183.14Z"/><path d="M115.15,152.37a37.61,37.61,0,0,1-7.65-.67,6.07,6.07,0,0,0-2.18.2c-2.11.35-4-.54-5.9-1.05a19.13,19.13,0,0,1-4.66-2c-2-1.14-4-2.13-5.89-3.38a23.44,23.44,0,0,1-6.81-7.11c-1.34-2.09-2.79-4.11-4.23-6.13A19.45,19.45,0,0,1,75.58,128c-1.37-3.46-3.07-6.79-3.88-10.45a29.26,29.26,0,0,1-1-8.22c.11-1.68.36-3.34.48-5a62.18,62.18,0,0,1,2-11.37A42.39,42.39,0,0,1,77,83.22a34.07,34.07,0,0,1,7.33-9,38.08,38.08,0,0,1,10.26-6.7A34.36,34.36,0,0,1,103,64.94a6.79,6.79,0,0,1,2.61.1,7.19,7.19,0,0,0,3.15-.2c4.12-.89,8.27-.63,12.42-.47,1.6.06,3.21.09,4.81.17a20.06,20.06,0,0,1,11.31,4.06,60.32,60.32,0,0,1,5.89,5.05,27.79,27.79,0,0,1,6.33,8.75c1.39,3.18,3.28,6.12,4.48,9.39,1,2.81,2,5.66,2.74,8.55a19.69,19.69,0,0,1,.57,4.66c0,1.25.07,2.51.11,3.76a37.63,37.63,0,0,1-.3,4.86,29.44,29.44,0,0,1-1.56,7.3c-1.28,3.39-2.36,6.87-4.5,9.85a65.37,65.37,0,0,1-9.85,10.91c-3.24,2.86-7,4.77-10.67,7a27.19,27.19,0,0,1-10.29,3.51A38.11,38.11,0,0,1,115.15,152.37Zm37.52-45a21.77,21.77,0,0,0-.48-6.22,44.2,44.2,0,0,0-2.82-8.53c-1.4-3-2.85-5.89-4.29-8.83a27,27,0,0,0-4.85-6.44,46.42,46.42,0,0,0-5.84-5,18.71,18.71,0,0,0-8.47-3.74A107.79,107.79,0,0,0,115,67.94c-3.66-.2-7.23.64-10.84,1a7.55,7.55,0,0,0-3,.8c-2.4,1.38-4.78,2.81-7.17,4.21a19.61,19.61,0,0,0-5.66,4.38c-1.71,2.11-3.59,4.09-5.4,6.12a20,20,0,0,0-4.27,7.64C78,94,78,96.08,77.22,98A17.06,17.06,0,0,0,76,102.4a2.52,2.52,0,0,1-.65,1.6,2.65,2.65,0,0,0-.81,1.9,28.3,28.3,0,0,0-.34,4.94,39.18,39.18,0,0,0,1,6c.66,2.86,2,5.44,3.12,8.15a28.91,28.91,0,0,0,3.54,6.39c1.37,1.9,2.66,3.87,4,5.77A14.5,14.5,0,0,0,88.41,140,41,41,0,0,0,102.75,148c1.61.47,3.16,1.16,4.78,1.49a31.6,31.6,0,0,0,6.37.5,36.76,36.76,0,0,0,7.62-.62,14.17,14.17,0,0,0,4.27-1.17c2.36-1.34,4.74-2.68,7-4.19a44.15,44.15,0,0,0,8.26-7.07c3.33-3.75,6.64-7.51,8.37-12.36,1.12-3.12,2.48-6.15,2.85-9.51A53.43,53.43,0,0,0,152.67,107.37Z"/><path d="M114.94,120.59a9.71,9.71,0,0,1-3.89-.73c-2.42-1-3.52-3.07-4.43-5.29a14.91,14.91,0,0,1-1.12-5,7.2,7.2,0,0,1,3.26-6.71,12,12,0,0,1,4.78-2.24c1.21-.2,2.46-.43,3.6.44.58.44,1.39.25,2.1.39,3.74.71,7.43,4.4,7.79,8.14a9.27,9.27,0,0,1-2.29,6.8,12,12,0,0,1-7.57,4A14.21,14.21,0,0,1,114.94,120.59Zm1.32-3a5,5,0,0,0,1.79-.27c2.85-.84,4.12-3,4.76-5.68a3.63,3.63,0,0,0-.61-3.4,9.62,9.62,0,0,0-7.25-3.66,12.71,12.71,0,0,1-2.55-.07,2.09,2.09,0,0,0-2.52,1,5.71,5.71,0,0,0-.57,1.13,7.56,7.56,0,0,0-.15,4.63C110.1,115.19,112.09,117.43,116.26,117.54Z"/></g></g></g></svg>