<svg xmlns="http://www.w3.org/2000/svg" viewBox="0 0 272.03 206.64"><g id="Layer_2" data-name="Layer 2"><g id="Layer_1-2" data-name="Layer 1"><g id="Layer_2-2" data-name="Layer 2"><path d="M66.83,35.28c-.26-6.92-.26-13.84-.23-20.76A2.73,2.73,0,0,1,68.13,12,48.58,48.58,0,0,1,72.5,9.72a24.67,24.67,0,0,1,3.83-1c2.38-.55,4.73-1.24,7.08-1.9,2-.56,4.13-.49,6.17-1,5.63-1.48,11.47-1.92,17.12-3.36a71.1,71.1,0,0,1,7.88-1.08A143.28,143.28,0,0,1,130.08.14C135.22,0,140.37,0,145.51,0a61.5,61.5,0,0,1,10.1,1.22c3,.54,6,1,8.93,1.53a65.92,65.92,0,0,1,11.34,3.36c3.56,1.39,7.18,2.74,10.28,5,2.54,1.84,5.25,3.41,7.76,5.27a6.91,6.91,0,0,1,2.69,5.94c0,5.45,0,10.89.08,16.33,0,5.68,0,11.36-.16,17,0,.72.2.93.89.89.45,0,.53-.21.58-.61.11-.92.27-1.83.44-2.75a10.88,10.88,0,0,1,5-7.29c3-2,5.81-4.37,9.33-5.5a18.39,18.39,0,0,1,4.49-.73,66,66,0,0,1,7.31,0,24.7,24.7,0,0,1,11.11,2.82c3.7,2,6.72,4.85,7.66,9.22a31.69,31.69,0,0,1,.36,4.38c0,.37-.18.9.55.79.07,0,.17.19.24.3A11.22,11.22,0,0,0,248,60.56a64.9,64.9,0,0,1,6.64,4.66c2.52,2.27,5.11,4.48,7.67,6.71a8,8,0,0,1,2.18,2.71.88.88,0,0,0,1,.59c1,0,2,0,3,0a1.72,1.72,0,0,1,1.82,1.41c.77,3,1.81,5.89,1.68,9.1-.19,4.87.05,9.76-.27,14.64-.27,4-.65,8.1-1,12.15-.1,1.37-.13,2.74-.18,4.1-.13,3.2-.26,6.4-.32,9.61q-.14,7.5-.58,15c-.23,3.86-.28,7.73-.61,11.58-.38,4.55-.36,9.11-.86,13.66-.82,7.49-1.52,15-1.89,22.52a9.69,9.69,0,0,1-1,4.36c-.19.35-.38.59-.83.56a3.27,3.27,0,0,0-3.33,1.89,16,16,0,0,1-7,6.36c-2.79,1.31-5.51,2.84-8.61,3.27-3.45.48-6.88.75-10.15-1.1-2.7-1.53-5.77-2.26-8.64-3.47a7.09,7.09,0,0,1-4.08-4.25c-.49-1.35-1.23-1.53-2.48-1.53-22.8,0-45.6.07-68.4,0-8.06,0-16.11-.11-24.17-.09-12,0-23.94-.07-35.9-.07-7.39,0-14.78-.31-22.17-.22a1.35,1.35,0,0,0-1.46.85c-1.89,4.18-5.58,6.27-9.47,8.18-4.8,2.35-9.93,2.75-15.15,2.76-1.81,0-3.63-.12-5.41.06a10.07,10.07,0,0,1-6.67-1.91,15.26,15.26,0,0,1-6.73-9.34c-.16-.61-.35-.8-1-.8-3.67,0-7.35,0-11-.17-.58,0-.84-.11-1-.77-1-4.64-1.76-9.32-2.59-14-.35-1.94-.19-3.93-.5-5.88-.63-4-1.26-8-1.74-12C6.23,156,5,150.39,4.42,144.64c-.42-4.12-.6-8.26-.87-12.39s0-8.57-.4-12.82c-.41-3.88-.24-7.75-.41-11.62-.12-2.66-.6-5.3-.83-8C1.53,95.53.5,91.32.09,87c-.36-3.73.49-7.3.6-10.94a2.41,2.41,0,0,1,1.36-1.9c3.41-2.09,6.12-5,9.22-7.51,1.91-1.52,3.67-3.21,5.49-4.83a1,1,0,0,0,.34-1C16,54.41,18,48.89,21.78,43.88q.88-1.16,1.83-2.25a2,2,0,0,1,2.12-.72c.38.12.54-.16.78-.32a20.1,20.1,0,0,1,7-3.36,38.84,38.84,0,0,1,10.7-.89,5.88,5.88,0,0,1,2.82.89,68.17,68.17,0,0,1,8.77,6.41,13,13,0,0,1,4,8.26,20.92,20.92,0,0,1,.18,4.47c-.05.58.09.84.75.81,1.87-.07,3.74.06,5.61-.17.57-.07.71-.23.71-.78,0-2.54-.09-5.08-.14-7.62C66.76,44.17,66.83,39.72,66.83,35.28ZM210.5,190.79h8c12.7,0,25.41,0,38.11,0a11.58,11.58,0,0,0,4.35-.82,1.55,1.55,0,0,0,1.15-2c-.8-5.57-.31-11.11.32-16.66.35-3.07.6-6.16.93-9.23.23-2.13,0-4.28.26-6.41.42-4.12.42-8.26.74-12.39.25-3.26.29-6.54.44-9.81.26-5.73.68-11.46.94-17.2.18-4.23.68-8.44,1.06-12.66S267.59,95.2,268,91a1.66,1.66,0,0,0-.09-1,5.4,5.4,0,0,1-.72-2.94c0-1.64,0-3.28.15-4.91,0-.44.15-1.25-.23-1.27-1.23,0-2.21-.9-3.42-.9H203.89c-7.35,0-14.7,0-22,0-4.65,0-9.29-.1-13.93-.12-8.06,0-16.11,0-24.17.11-4.57.09-9.15-.1-13.73-.1-13.67,0-27.33.08-41,0-22-.14-44.06.19-66.09-.2-5.68-.1-11.36.07-17-.38-.95-.07-1.59.46-1.53,1.37.19,2.73.42,5.45.64,8.17.31,3.91,1.5,7.68,1.84,11.6s1.17,7.9,1.08,11.91c-.11,4.64.76,9.24.63,13.89,0,1.44,0,2.88,0,4.31.23,3.79.47,7.58.8,11.36.21,2.51.54,5,.9,7.51s1,5.22,1.24,7.86c.38,3.8.9,7.6,1.55,11.34.86,5,.92,10,1.53,15,.31,2.49.23,5.09,1.76,7.33a1.22,1.22,0,0,0,1.2.69c3.4-.08,6.81-.15,10.21-.19,9.43-.09,18.86,0,28.28-.14,14.11-.28,28.21-.06,42.32-.22,24.7-.27,49.4.06,74.11-.22C185.15,190.67,197.83,190.79,210.5,190.79ZM192,39.86c0-4.33,0-10.52,0-16.7a1.62,1.62,0,0,0-.46-1.14c-2.6-3.1-6.2-4.92-9.36-7.29A31.34,31.34,0,0,0,174.85,11,83.85,83.85,0,0,0,162.94,7c-3.19-.75-6.46-1.16-9.69-1.77A62.87,62.87,0,0,0,142,3.81a221.57,221.57,0,0,0-22.61.54c-3.3.32-6.58.74-9.88,1.09-4.19.45-8.25,1.74-12.45,2.26-2.75.34-5.47.88-8.17,1.49-2.35.52-4.79.52-7.13,1.2-3.17.92-6.46,1.28-9.68,2-.8.18-1.53.33-.85,1.41a1.52,1.52,0,0,1,.11.78c0,8.55,0,17.11-.14,25.67Q71,47.94,71,55.6c0,3.61-.11,7.22-.37,10.82,0,.24-.25.7.37.66a30.16,30.16,0,0,1,5.7.1A9.73,9.73,0,0,0,79.83,67c.36-.09.78-.11.79-.69,0-1,.18-2.07.16-3.1-.09-4.17-.09-8.34-.35-12.51-.1-1.67-.09-3.34-.13-5-.13-5.67,1-11.41-.83-17a1.29,1.29,0,0,1,.33-1.1,8.49,8.49,0,0,1,4.85-3.09,29.41,29.41,0,0,1,6.92-.75c4.57-.24,9.15-.19,13.72-.24,3.25,0,6.5.11,9.73-.1a72.78,72.78,0,0,1,9.8.2c3.06.2,6.11.63,9.18.67a85.91,85.91,0,0,1,11.67.8,49.25,49.25,0,0,0,5.92.81,43.75,43.75,0,0,1,6.77.68c4,.75,8.08.77,12.1,1.31,2.73.37,5.49.47,8.15,1.36a6.14,6.14,0,0,0,3.08.6c1.81-.33,2.52-.07,3,2.05.46,2,.13,4,.3,6s0,3.95.14,5.91A119,119,0,0,1,185.2,57c-.1,2.68,0,5.35-.11,8,0,.4.11.56.56.61,2.1.21,4.2.16,6.3.2.7,0,.82-.22.75-.87-.22-1.89-.47-3.78-.51-5.68C192.05,53.41,191.89,47.56,192,39.86ZM132.92,56.77v-.19h4.41q21,0,42,0c.91,0,1.15-.3,1.16-1.12,0-2.47.19-4.93.13-7.4-.12-4.9-.5-9.8-.52-14.72,0-.72-.39-.79-.88-.65a5.35,5.35,0,0,1-2.28.14c-4.61-.52-9.26-.19-13.87-.77-2.18-.28-4.38-.3-6.56-.55a59.23,59.23,0,0,0-6.24-.69,49.17,49.17,0,0,1-5.27-.5c-2.76-.35-5.51-.83-8.32-.91-2.26-.06-4.53-.1-6.8-.2-4.76-.22-9.5-.91-14.27-.9-2.93,0-5.86.12-8.79.31-3.17.21-6.31-.25-9.5,0-3.68.25-7.39,0-11.07.44-.82.09-1.08.35-1.08,1.15,0,2.51.12,5,.18,7.51,0,2.73-.05,5.47-.13,8.21-.09,3.3.11,6.61.15,9.91,0,.73.26,1,1,1Q109.65,56.75,132.92,56.77ZM45.07,75.22l0,.24c55-.18,109.94,0,165.17-.25-1.1-.77-2-1.33-2.79-1.95-4.13-3.14-7.75-6.67-8.84-12-.12-.57-.36-.62-.82-.43A2,2,0,0,1,197,61c-.54,0-.63.25-.67.73-.13,1.46-.32,2.91-.44,4.38a2.53,2.53,0,0,1-1.31,2.16,13.66,13.66,0,0,1-6.25,1.35c-2.14,0-4.28,0-6.41-.19a1,1,0,0,1-1-.83,18.52,18.52,0,0,1-.57-6.45c0-.87-.14-1.25-1.12-1.18-1.57.1-3.14.05-4.71.05Q152,61,129.56,61c-6.86,0-13.71,0-20.56-.09-7.59-.12-15.18-.07-22.77-.11-.61,0-.72.24-.7.77a25.54,25.54,0,0,1-.09,2.9c-.07,1-.54,2.16-.14,3.17a1.38,1.38,0,0,1-.78,2,16.61,16.61,0,0,1-7.7,2A46.44,46.44,0,0,1,69.56,71c-2.08-.27-2.13-1-2.18-2.45-.07-2.37-.17-4.74-.22-7.11,0-.66-.17-.95-.91-.93a32.59,32.59,0,0,1-5.41-.16c-1-.14-1.41.25-1.52,1.22a25.88,25.88,0,0,1-1.82,6.5,7.26,7.26,0,0,1-2.76,3.47,20.79,20.79,0,0,1-7,3Zm180.75-1.36c3.81.38,7.17-1.63,9.38-5.28a25,25,0,0,0,3.46-14.64,5.33,5.33,0,0,0-.94-2.8,16,16,0,0,0-10.78-6.6,41,41,0,0,0-11.55-.46,12.58,12.58,0,0,0-5.95,2.25,15.21,15.21,0,0,1-2.1,1.14c-.38.19-.62,0-.7-.27-.23-1-.52-.3-.8-.06A11,11,0,0,0,202.43,54c-.79,4.53,0,8.59,3.35,11.95a30.34,30.34,0,0,0,3.37,3.14c2.35,1.73,4.72,3.5,7.64,4.13A48.54,48.54,0,0,0,225.82,73.86ZM40.35,39.9a26.44,26.44,0,0,0-5.36.58c-3.1.49-5.4,2.39-7.73,4.24-1.19,1-1.93,2.49-3.33,3.12a3.35,3.35,0,0,0-1.8,2.2,15,15,0,0,0-.85,3.37c-.45,3.4-.6,6.81.76,10,1.77,4.2,4.22,7.73,9.16,8.76a22.64,22.64,0,0,0,8.5.54,85.34,85.34,0,0,0,8.48-2c2.43-.67,4.3-1.94,5.09-4.64A35.26,35.26,0,0,0,55,53.08a8.79,8.79,0,0,0-2.43-5.64,50.85,50.85,0,0,0-6.85-5.83A7.58,7.58,0,0,0,40.35,39.9ZM27.22,194.61a13.18,13.18,0,0,0,5.23,6.59,16.35,16.35,0,0,0,7.7,2.68,27.16,27.16,0,0,0,7.54-.12,35.85,35.85,0,0,0,10.54-3.6,11.1,11.1,0,0,0,4.92-4.67c.27-.57.22-.78-.44-.73-.4,0-.8,0-1.2,0-5.68-.07-11.35,0-17-.12S33.06,194.61,27.22,194.61ZM258.09,75.21c-4-3.74-7.67-7.68-11.87-11.09A3,3,0,0,1,244.83,62c-.05-.65-.45-.74-1-.63-1.18.2-1.08,1.24-1.29,2-1.18,4.25-3.17,8-6.8,10.66-.47.35-1,.69-1.62,1.15ZM255.62,195.4c-9.78-.09-19.34-.33-29.07-.18a11.58,11.58,0,0,0,4.28,4.21,42.88,42.88,0,0,0,6.33,2.34,12.67,12.67,0,0,0,7.75.19,33.63,33.63,0,0,0,6.72-2.91A13,13,0,0,0,255.62,195.4ZM6.25,75c.51.28.68.94,1.44.93,3.5-.08,7-.35,10.5-.29,3,0,6,0,9.14,0-.32-.46-.72-.45-1-.59a8.71,8.71,0,0,1-3.23-2.11,23.11,23.11,0,0,1-4.33-6.68c-.35-.82-.51-1-1.27-.31C14,69.18,10.11,72,6.25,75Z"/><path d="M138.27,89.25H206c12.2,0,24.41,0,36.61-.08,5,0,10,0,14.94-.14a2.54,2.54,0,0,1,2.7,2.66c.12,5.65.92,11.25.91,16.9,0,2.77.24,5.55.11,8.31-.21,4.52-.47,9-.89,13.55-.36,3.81-1.27,7.54-1.45,11.36,0,1,0,1.92,0,2.87.13,5.72-.58,11.4-.66,17.1,0,3.1.09,6.21-.2,9.31a66.92,66.92,0,0,1-.88,6.91,17.16,17.16,0,0,0-.11,3.2A1.77,1.77,0,0,1,256,183a6.82,6.82,0,0,0-2.28,1.62,5.35,5.35,0,0,1-3.9,1.54c-6.18,0-12.37,0-18.55,0-49.75,0-99.5.07-149.25-.06-14.44,0-28.89-.05-43.33-.17-5.41,0-10.82-.25-16.23-.38-.42,0-1,.1-1.11-.43s-.67-1.24.1-1.83a1.44,1.44,0,0,0,.44-1.27c-.07-2.47-.38-4.91-.66-7.37-.34-3.08-.6-6.18-.76-9.27-.3-5.94-.52-11.88-1.17-17.79s-1-11.71-1.71-17.54c-.66-5.48-.78-11-1.29-16.48-.18-1.83.08-3.68-.18-5.51-.44-3-.92-6.06-1.37-9.09a34.79,34.79,0,0,1-.54-5.77,3.58,3.58,0,0,1,3.39-3.5c4.52,0,9-.25,13.54-.23,12.1,0,24.21.14,36.31,0C91.8,89.09,116.17,89.43,138.27,89.25Zm116,43a5.83,5.83,0,0,0,.19-.57c.41-4.25.87-8.49,1.22-12.74.47-5.69.51-11.41.79-17.11a65.58,65.58,0,0,1,.22-7c.09-.52.11-1,.16-1.57l-1.66,0c-8.15-.05-16.3-.11-24.45-.13q-17.25-.06-34.49,0c-13,0-26.07,0-39.11,0-31.79-.1-63.58.2-95.37-.18-14.24-.18-28.48.22-42.72-.24-.73,0-1.06.13-.89.92.6,2.82,1.19,5.65,1.76,8.47.61,3.06,1.55,6.06,1.46,9.23a15.85,15.85,0,0,0,.22,3c.6,3.78.48,7.63,1,11.43.29,2.34.49,4.69.72,7s.5,4.63.69,6.94c.24,3,.39,5.92.63,8.87.29,3.41.71,6.82.77,10.25,0,2.64.09,5.27.24,7.91.06,1,.15,2.06.19,3.09.18,3.89.88,7.75.77,11.66,0,.77.22.92.95.93,3.54,0,7.07-.28,10.62-.24,5.31.06,10.63,0,16,0a9.22,9.22,0,0,1,2.76.2,12.17,12.17,0,0,0,6.14.31,18.38,18.38,0,0,1,3.84-.67l43.23,0c37.13,0,74.27.11,111.41-.12,9.86-.07,19.73-.05,29.59,0,.8,0,1-.24,1-1a22.69,22.69,0,0,1,.07-3.4,61.18,61.18,0,0,0,.71-8.86c0-2.54-.21-5.08-.09-7.61.13-2.74-.07-5.49.18-8.24a37.87,37.87,0,0,0-1.87,4.18,24.58,24.58,0,0,1-6,9.69c-.53.51-1.27.86-1.32,1.77,0,.23-.34.43-.65.55a26.38,26.38,0,0,0-2.87,1.28,44.3,44.3,0,0,1-10,4.28,78.89,78.89,0,0,1-11.54,2.33A19.19,19.19,0,0,1,208,175.05c-1.73-.87-3.33-2-5-2.84a15.8,15.8,0,0,1-5.45-4.46c-2.26-2.87-3.63-6.29-5.58-9.35a32.13,32.13,0,0,1-3.39-8.2,9.91,9.91,0,0,0-1.48-3.59,2.13,2.13,0,0,1-.27-.85,38.24,38.24,0,0,1,.49-16.56c1-4.39,3.63-7.94,6.46-11.33,1.16-1.38,2.67-2.44,3.74-3.91a19.07,19.07,0,0,1,7.87-6.32,37.73,37.73,0,0,1,7-2.82,43.72,43.72,0,0,1,5-.36,15.29,15.29,0,0,1,6.9.63c2.9,1.07,5.7,2.42,8.56,3.6a21.48,21.48,0,0,1,5.7,3.48,46.51,46.51,0,0,0,4,3,14.31,14.31,0,0,1,1.88,1.49C248.8,121,252.46,125.93,254.32,132.24Zm-47.94,6.87-.23-.43c-.67-1.19-1.37-2.37-2-3.58-.31-.58-.54-.51-.92-.07-1,1.14-2,2.24-3,3.39-.78,1-2.1,2-2.08,2.92s1.31,2.06,2,3.09l.07.08c.19.4.39.43.73.1,1.68-1.68,3.38-3.33,5.08-5C206.25,139.48,206.42,139.36,206.38,139.11Zm-2,17.38-.4.25c-1.61,1.09-3,2.43-4.55,3.6-.37.27-.2.47-.05.74A33.85,33.85,0,0,0,202,165c.44.56.75.56,1.24,0,1.27-1.37,2.59-2.69,3.9-4,.26-.27.42-.46.14-.84-.82-1.1-1.58-2.23-2.38-3.35C204.76,156.66,204.67,156.45,204.38,156.49Zm12.13,9.19a4.18,4.18,0,0,0,.41-.19c1.19-.84,2.37-1.71,3.59-2.51.46-.3.44-.53.18-.94q-1.45-2.32-2.87-4.67c-.28-.47-.52-.46-.94-.14-1.23,1-2.49,1.9-3.75,2.83-.38.28-.49.5-.15.95,1.05,1.42,2,2.91,3.16,4.24C216.26,165.4,216.39,165.54,216.51,165.68Zm25.82-10.61a4.85,4.85,0,0,0-.29-.41c-1.07-1.32-2.15-2.63-3.2-4-.38-.47-.62-.17-.88.08-1.11,1.06-2.2,2.14-3.33,3.17-.36.34-.3.57,0,.91.95,1.33,1.89,2.66,2.81,4,.29.43.48.38.82.06,1.19-1.12,2.42-2.2,3.62-3.3A7.19,7.19,0,0,0,242.33,155.07Zm-17-4.83a2,2,0,0,0-.22.16c-1.25,1.09-2.5,2.2-3.76,3.28-.27.23-.22.41-.05.67q1.43,2.28,2.82,4.57c.23.37.41.46.73.08,1.11-1.29,2.24-2.55,3.37-3.82a.54.54,0,0,0,.09-.77c-.83-1.33-1.65-2.66-2.6-3.9C225.67,150.39,225.63,150.19,225.38,150.24Zm-15.7-14,.41-.35c1.29-1.21,2.57-2.43,3.88-3.62.35-.31.24-.54,0-.85-.83-1.25-1.64-2.51-2.46-3.76-.15-.23-.26-.46-.59-.16-1.31,1.19-2.63,2.36-4,3.53a.54.54,0,0,0-.11.84c.83,1.28,1.6,2.6,2.4,3.9A3.92,3.92,0,0,0,209.68,136.23Zm19.65,30.87c1.53-1.39,3-2.71,4.43-4,.32-.29.3-.51.06-.84-.88-1.21-1.75-2.42-2.6-3.66-.26-.38-.44-.37-.76-.06q-1.86,1.88-3.77,3.71a.49.49,0,0,0-.09.76C227.52,164.33,228.4,165.69,229.33,167.1Zm-23.88-16.29a3,3,0,0,0,.32-.25,40.88,40.88,0,0,1,4.76-4c.32-.23.32-.46.11-.76-.71-1.09-1.42-2.18-2.11-3.29-.22-.36-.4-.34-.69-.08l-5,4.38c-.23.21-.42.38-.12.73.79.94,1.54,1.93,2.31,2.89A2.59,2.59,0,0,0,205.45,150.81Zm-3-37.32a.87.87,0,0,0-.2.12,29,29,0,0,0-5.12,6.09c-.17.28,0,.39.28.46a2.66,2.66,0,0,1,1.84,1.39c.23.41.5.52.94.14q2.25-2,4.58-3.86c.41-.34.19-.58.07-.93-.44-1.29-1.73-2-2.22-3.22C202.61,113.6,202.52,113.55,202.47,113.49Zm12,29.93.23-.14a47.05,47.05,0,0,0,4.05-3.27c.27-.23.23-.42.07-.68-.74-1.23-1.47-2.46-2.18-3.71-.26-.45-.47-.56-.9-.17-1.28,1.17-2.58,2.31-3.9,3.44a.49.49,0,0,0-.1.76l2.33,3.49C214.2,143.28,214.26,143.44,214.5,143.42Zm3.24-14.61a2.74,2.74,0,0,0,.31-.23c1.09-1.08,2.16-2.17,3.27-3.24.3-.3.17-.52,0-.77-.92-1.27-1.86-2.52-2.76-3.81-.34-.48-.55-.38-.89,0-1,1.08-2,2.15-3,3.19-.33.32-.27.52-.05.82.88,1.21,1.75,2.44,2.63,3.65C217.32,128.6,217.43,128.83,217.74,128.81Zm-22.11,8.52c1.27-1.43,2.54-2.84,3.78-4.27.66-.76,1.85-1.44,1.79-2.35s-1.07-1.7-1.62-2.58c-.3-.48-.49-.37-.79,0-1,1.25-2.15,2.46-3.18,3.72-1.78,2.18-1.77,2.19-.44,4.67C195.31,136.78,195.46,137,195.63,137.33Zm15.05,20.37c1.44-1.2,2.81-2.37,4.2-3.51a.69.69,0,0,0,.16-1.08,32.91,32.91,0,0,1-1.76-2.9c-.31-.57-.58-.47-1-.16-1.37,1.11-2.74,2.23-4.14,3.31-.42.32-.32.54-.07.87C209,155.35,209.78,156.48,210.68,157.7ZM213,168.21a47.85,47.85,0,0,1-3.33-4.53c-.26-.38-.44-.5-.85-.16-1.28,1.07-2.58,2.11-3.89,3.14-.5.39-.37.57.09.85,1,.61,2.07,1.21,3,1.91,1.3.94,2.47,1.08,3.64-.21A9.88,9.88,0,0,1,213,168.21Zm11.76-55.32c-1.21,1.38-2.38,2.73-3.57,4.07-.32.36-.11.61.1.86,1.06,1.32,2.14,2.63,3.24,4,1-1.08,2-2.13,3-3.16.25-.26.14-.47,0-.71Zm-2.27,23.45c1.42-1.25,2.82-2.48,4.23-3.69.34-.3.4-.52.1-.9-.85-1-1.66-2.09-2.46-3.15-.31-.41-.53-.25-.8,0l-3.48,3.16c-.21.19-.35.35-.14.66C220.8,133.72,221.64,135,222.49,136.34Zm-25,21.59c1.45-1.44,2.93-2.68,4.42-3.91.26-.21.47-.41.15-.81-.8-1-1.55-2-2.29-3-.24-.33-.38-.29-.68-.05-1.28,1-2.35,2.26-3.54,3.37-.35.32-.27.59-.06,1C196.16,155.57,196.79,156.7,197.5,157.93ZM232,151l.34-.28c1.19-1.12,2.38-2.25,3.59-3.34.36-.32.32-.56.07-.91-.65-.93-1.31-1.86-1.9-2.82-.3-.5-.52-.46-.9-.12q-1.73,1.53-3.5,3c-.36.3-.47.55-.15,1,.74,1,1.44,2.08,2.15,3.12C231.78,150.72,231.88,150.83,232,151Zm-5.92,19.39a1.65,1.65,0,0,0-.17-.31,37,37,0,0,1-3-4.39c-.25-.42-.5-.3-.81-.12-1.11.67-2.22,1.35-3.34,2-.37.21-.48.38-.14.73q1.59,1.67,3.13,3.38a.63.63,0,0,0,.7.23l2.41-.55C225.47,171.19,225.71,170.71,226.07,170.35Zm-12.39-56.84c-1.39,1.39-2.38,3-3.78,4.25-.32.29-.17.53,0,.77.59.81,1.19,1.6,1.77,2.41.28.38.48.42.84.07,1.08-1.06,2.17-2.08,3.29-3.08a.62.62,0,0,0,.11-1C215.17,115.84,214.46,114.71,213.68,113.51Zm22.1,10.82a2.22,2.22,0,0,0,.29-.21c1.05-.92,2.09-1.86,3.15-2.77.43-.37.23-.58-.11-.84-1-.76-2-1.5-3-2.33-.74-.63-1.34-1-2.09,0a6.07,6.07,0,0,1-1.34,1.18c-.49.36-.41.66-.08,1.06,1,1.18,1.92,2.38,2.87,3.57Zm-31.5,3.82c.92-.77,1.84-1.49,2.7-2.27.69-.62,1.79-1.09,1.94-1.93s-.88-1.54-1.31-2.36c-.05-.09-.12-.17-.16-.26-.23-.57-.48-.64-1-.18a44.32,44.32,0,0,1-4.08,3.53c-.36.25-.37.43-.1.77C203,126.31,203.59,127.21,204.28,128.15ZM249.07,136a39.77,39.77,0,0,0-1.3-4.37c-.25-.6-.46-.59-.88-.17q-1.59,1.6-3.22,3.15c-.32.3-.29.5-.06.84.62.9,1.24,1.81,1.77,2.77.26.46.42.33.75.12a25,25,0,0,1,2.76-2A.28.28,0,0,0,249.07,136Zm-25.66-25a20.48,20.48,0,0,0-6-1.68c-.69-.1-.91.43-1.24.83s-.1.67.12,1c.76,1,1.55,2.08,2.27,3.16.35.54.62.56,1.07.14C220.86,113.27,222.13,112.14,223.41,111Zm-4.67,39.44,2.48-2.29c2-1.85,2-1.84.47-4.09a1,1,0,0,1-.1-.17c-.19-.35-.4-.34-.71-.1q-1.9,1.47-3.84,2.89c-.39.29-.36.51-.1.89C217.55,148.46,218.11,149.41,218.74,150.43Zm8-7.4a7.09,7.09,0,0,0,.68-.5c1-.9,1.81-1.88,2.83-2.68a1.53,1.53,0,0,0,.41-2.36c-.94-1.63-.88-1.69-2.28-.49a31.67,31.67,0,0,0-3.05,2.86c-.23.27-.5.47-.22.83A21.79,21.79,0,0,0,226.73,143ZM194,152a39.49,39.49,0,0,1,3.38-3.81c.39-.35.34-.62.06-1A22.41,22.41,0,0,1,196,145c-.38-.69-.67-.64-1.12-.07-.65.82-1.19,1.77-2.4,1.94-.27,0-.41.27-.29.61A29.12,29.12,0,0,0,194,152ZM230,122.13a2.32,2.32,0,0,0-.26.21c-.76.84-1.51,1.69-2.28,2.52-.24.25-.09.43,0,.59.92,1.1,1.86,2.17,2.78,3.27.29.35.53.32.81,0,.56-.57,1.08-1.18,1.69-1.7.42-.35.36-.61.09-1-.84-1.16-1.66-2.33-2.5-3.49A5.2,5.2,0,0,0,230,122.13Zm14.85,4.55c-.3-.4-.63-.91-1-1.35-1-1.16-1.06-1.15-2.13-.07-.28.29-.57.57-.86.83-.7.62-1.82,1.13-2,1.86s.95,1.55,1.38,2.4c.25.51.5.57.93.13,1.12-1.14,2.28-2.24,3.43-3.35C244.65,127,244.87,127,244.82,126.68Zm3.73,20.06a5.19,5.19,0,0,1-.56.34,2,2,0,0,1-2.73-.41c-1-1.43-1-1.38-2.34-.26-.56.47-.5.78-.09,1.25.79.91,1.52,1.87,2.34,2.74.24.25.29,1.15,1.06.54.41-.34,1.2-.17,1.41-.65A11.09,11.09,0,0,0,248.55,146.74Zm-8.74-8.83a.91.91,0,0,0-.25.11c-.66.55-1.56,1-1.91,1.71-.26.51.64,1.12,1,1.72.11.21.27.38.39.58,1,1.49,1,1.47,2.41.36.57-.45.75-.82.31-1.47-.55-.83-1-1.72-1.51-2.59C240.12,138.17,240.08,137.94,239.81,137.91Zm-32.19-22.75c.15-.12.26-.19.35-.28,1.27-1.27,2.52-2.56,3.81-3.82.38-.38.09-.65-.07-1-.27-.51-.58-.15-.81,0-1.34.92-2.68,1.85-4,2.8-.23.17-.73.3-.45.74S207.22,114.64,207.62,115.16ZM235,135.43a8.91,8.91,0,0,0,2.34-1.76.46.46,0,0,0-.06-.28c-.49-.87-.81-2-1.55-2.48-.43-.28-1.16,1-1.79,1.46l-.23.2c-.23.19-.33.37-.12.67C234.11,134,234.58,134.75,235,135.43ZM196,121.7a30.44,30.44,0,0,0-3.39,7.23c1.5-1.43,2.73-3.1,4.25-4.49.18-.17.13-.34,0-.53A6.27,6.27,0,0,1,196,121.7Zm-4.57,14a27.39,27.39,0,0,0-.08,6.83,17.27,17.27,0,0,0,1.71-1.85c.15-.19.27-.35.16-.62C192.57,138.62,192,137.16,191.39,135.71Zm39.89,33.63a22.18,22.18,0,0,0,5.95-2.8c-.52-.19-.44-1.49-1.42-.76C234.27,166.92,232.79,168.15,231.28,169.34Zm.36-54.56a24.37,24.37,0,0,0-4.15-2,18.76,18.76,0,0,0,1.22,1.94C230,116.61,230,116.61,231.64,114.78Zm12.12,44.31c-1.16,1-2.35,1.9-3.47,2.92-.62.56.17.82.4,1.19s.5.2.75-.09A12,12,0,0,0,243.76,159.09Zm-27.37,13.25c-1.69-2.47-1.69-2.47-4.14-1.24a.59.59,0,0,0-.17.13A19.31,19.31,0,0,0,216.39,172.34Zm33.09-31.44c-1.9,1.21-2,1.81-.41,3.31A9.89,9.89,0,0,0,249.48,140.9Z"/><path d="M117.25,29.89c3.24.13,6.46-.34,9.7-.21a34.33,34.33,0,0,1,6.23.76,3.09,3.09,0,0,1,2.17,2.47,1,1,0,0,1-.55,1c-1.55.58-3,1.69-4.76,1.38s-3.33-.56-5-.7c-.33,0-.66-.09-1-.09-3.67,0-7.33-.24-11-.42-.8,0-1.57-.27-2.37-.34-1.1-.09-1.27-1-1.45-1.75s.48-1,1-1.35a7.29,7.29,0,0,1,3.56-.71C114.91,29.81,116.08,29.89,117.25,29.89Z"/><path d="M119.32,55.38c-3.71-.23-7.44-.36-11.15-.8-2.54-.3-5.1-.4-7.65-.66a29.5,29.5,0,0,0-3.39-.19c-.3,0-.73.17-.82-.32s-.38-.9.16-1.35a6.14,6.14,0,0,1,3.37-1.29,55.37,55.37,0,0,1,9.89-.07q3.15.19,6.31.24a52.81,52.81,0,0,1,7.82.93c.89.15,1.77.13,2.23,1.15a.82.82,0,0,1-.47,1.27A13.58,13.58,0,0,1,119.32,55.38Z"/><path d="M137.46,51.09a22.77,22.77,0,0,1,4.39.42,2.92,2.92,0,0,1,2.06,2c.25.61-.21.9-.66,1.15a9,9,0,0,1-6.8.67,13.13,13.13,0,0,0-3.25-.38c-1.5,0-2-.45-2-1.91,0-.7,1-1.5,2-1.68C134.47,51.11,135.84,51.2,137.46,51.09Z"/><path d="M235.06,58.4a9.86,9.86,0,0,1-5.74,9.82,27.67,27.67,0,0,1-9.42,2.84c-6.08.77-11.67-4.75-12.54-9.74-.65-3.79.64-6.79,3.08-9.49.42-.47.89-.9,1.34-1.35.16-.17.4-.32.32-.58-.56-1.79.87-2.33,2-2.94a13.1,13.1,0,0,1,5.39-1.21c6-.53,10.46,2.18,13.9,6.84A8.49,8.49,0,0,1,235.06,58.4Zm-14.95-8.93c-5.91.37-6,.43-7.93,4.39a1,1,0,0,0,0,.1,11.54,11.54,0,0,0-1.35,4.76c0,4.12,2.34,6.78,5.8,8.47s6.72.66,9.9-1a6.63,6.63,0,0,0,3.87-4.3c.52-2.08,1.19-4.3-.16-6.18C227.54,52.05,224.15,49.38,220.11,49.47Z"/><path d="M38.49,43.73c5.14-.9,11.53,3.6,13.18,8a19.48,19.48,0,0,1,1.45,5.14c.27,3.22-1.24,5.83-2.88,8.34A12.81,12.81,0,0,1,40.09,71a26.1,26.1,0,0,1-6.67-.11c-3.27-.55-5.45-2.73-7.06-5.43A17.45,17.45,0,0,1,24.08,57c-.08-2.69,1.3-4.85,2.9-6.85A38.73,38.73,0,0,1,32.2,45.2c1.3-1.12,3-1.27,4.67-1.46A12.63,12.63,0,0,1,38.49,43.73ZM27.76,56.83a12.63,12.63,0,0,0,.91,4.88,9.24,9.24,0,0,0,5.93,5.65,15,15,0,0,0,6.54.2,5.38,5.38,0,0,0,2.72-1.1c1.91-1.51,2.88-3.62,3.89-5.73a7.17,7.17,0,0,0,.45-5,10.88,10.88,0,0,0-5.5-6.8,10,10,0,0,0-9.88-.53,7.09,7.09,0,0,1-1.92.77.76.76,0,0,0-.56.39C29,51.77,27.75,54.09,27.76,56.83Z"/><path d="M63,104.09a26,26,0,0,1,3.36.27A8.21,8.21,0,0,1,72.26,108c1.42,2,3.36,3.39,5.13,5a29.67,29.67,0,0,1,4.69,5.56c.5.75,1,1.49,1.54,2.21a38.58,38.58,0,0,1,7,16.93,39.73,39.73,0,0,1,.77,7.52,30.78,30.78,0,0,1-1.49,8.5,45.33,45.33,0,0,1-4.56,10,.86.86,0,0,0-.12.91c.34.71-.09,1.12-.7,1.24a2.17,2.17,0,0,0-1,.53c-4.06,3.27-8.8,5.09-13.72,6.57a27.18,27.18,0,0,1-8.21,1.22c-1.56,0-3.12.25-4.68.32a30.47,30.47,0,0,1-5.46-.64,72.26,72.26,0,0,1-7.71-1.75,8.5,8.5,0,0,1-1.48-.6c-6-2.77-9.83-7.45-12.25-13.55A50.62,50.62,0,0,1,26.61,139c0-3.37-.07-6.74.85-10C29.7,121,34,114.71,41.19,110.36a35,35,0,0,1,12.13-4.47c1.94-.35,3.84-.89,5.73-1.43A11.65,11.65,0,0,1,63,104.09Zm1.68,30.11c-1.16,1.54-2.25,3-3.36,4.45-.21.27-.22.43,0,.68,1.07,1.22,2.12,2.45,3.24,3.75,1.23-1.58,2.38-3.07,3.56-4.54.25-.31.33-.55,0-.86C67,136.54,65.89,135.38,64.72,134.2Zm-23.23-1a2.18,2.18,0,0,0-.06-.22l-1.86-2.84c-.24-.37-.43-.17-.61.06-1.23,1.53-2.45,3.08-3.7,4.6-.33.4-.16.65.1.94.8.89,1.62,1.77,2.41,2.67.37.44.58.39.85-.1.86-1.58,1.77-3.13,2.66-4.69C41.36,133.5,41.43,133.35,41.49,133.22Zm33.37-13.89c-.91,1.32-1.78,2.63-2.7,3.89-.25.35-.15.52.1.75l3.57,3.37c.19.17.34.3.57,0,.7-.77,1.42-1.51,2.1-2.29.15-.17.36-.38.12-.69A53.24,53.24,0,0,0,74.86,119.33Zm0,25.44c-.13-.15-.22-.28-.33-.4-.64-.68-1.32-1.32-1.92-2s-1-.74-1.49.11a18.44,18.44,0,0,1-1.33,1.62c-.66.87-2,1.6-1.9,2.55S69.29,148.23,70,149a.27.27,0,0,1,.08.07c.29.39.5.35.84,0,1.14-1.3,2.34-2.56,3.52-3.83ZM53.25,155.9l3-3.38c.19-.21.31-.38.07-.67-.88-1-1.74-2.1-2.6-3.17-.25-.31-.45-.3-.72,0q-1.47,1.5-3,3c-.18.19-.28.35,0,.58C51.11,153.35,52,154.76,53.25,155.9Zm5.84,6.79a3.72,3.72,0,0,0,.33-.27c1-1.09,2-2.18,2.95-3.25.33-.36.07-.53-.13-.74-.92-1-1.85-1.91-2.75-2.89-.28-.31-.45-.29-.71,0-.9,1-1.8,2-2.73,2.91-.33.34-.32.55,0,.89.9.94,1.74,1.93,2.6,2.89C58.79,162.38,58.93,162.52,59.09,162.69ZM35.16,123.55A26,26,0,0,0,32.41,131a2,2,0,0,0,.63,2c.33.36.46.34.71-.05q1.76-2.65,3.55-5.3a.71.71,0,0,0,0-.9A23.92,23.92,0,0,0,35.16,123.55Zm11.39-12.77-.24.18c-1.44,1.22-2.88,2.46-4.34,3.67-.38.31-.23.55,0,.83.65.8,1.31,1.6,1.94,2.41.31.4.52.37.83,0,1.09-1.39,2.2-2.75,3.31-4.12.08-.11.24-.27.21-.32-.49-.86-1-1.72-1.53-2.57C46.7,110.8,46.61,110.8,46.55,110.78Zm-3.39,33.46c.38-.45.76-.83,1.07-1.27.76-1.05,2-2.08,2.08-3.22.11-1-1.25-1.92-2-2.89a.22.22,0,0,1,0-.08c-.31-.53-.52-.43-.83.05-.89,1.4-1.82,2.79-2.76,4.16-.24.34-.27.54,0,.84C41.57,142.62,42.35,143.43,43.16,144.24Zm-3.55-19.81c.81-1.05,1.55-2.07,2.35-3.05a.9.9,0,0,0,0-1.24c-.61-1-1.17-2-1.71-2.94-.22-.42-.39-.56-.78-.17a28.64,28.64,0,0,0-2.77,3.15.65.65,0,0,0,.07,1A21.52,21.52,0,0,1,39.61,124.43ZM76.28,155a2.61,2.61,0,0,0,.3-.27c.93-1,1.89-2,2.77-3,1-1.23,1-1.26-.14-2.45-.3-.31-.61-.62-.89-1s-.49-.32-.79,0c-.87.92-1.79,1.79-2.66,2.71-1.23,1.32-1.22,1.33,0,2.67.32.35.66.66,1,1A4.24,4.24,0,0,0,76.28,155ZM32.94,138a2.53,2.53,0,0,0-.92,1.63,52.63,52.63,0,0,0,.43,6.64c0,.28.09.52.43.58s.48-.16.63-.39c.86-1.3,1.7-2.62,2.58-3.9.28-.41.14-.66-.11-1l-2.55-3.19C33.31,138.25,33.24,138,32.94,138Zm36.53-10.64a3.34,3.34,0,0,0-.92,1.3c-.39.74-1.48,1.32-1.2,2.12s1.15,1.27,1.83,1.79,1.3,1.91,2.12,1.64,1.1-1.5,1.67-2.28a.69.69,0,0,0-.07-1c-1-1-2-2.08-3-3.11C69.78,127.63,69.63,127.51,69.47,127.36ZM48.2,162.06c.26,0,.31-.17.42-.28,2-2.16,2-2.17.12-4.37-.65-.78-1.16-2.22-2-2.16s-1.4,1.38-2.13,2.1c-.34.34-.34.56,0,.89,1.1,1.16,2.17,2.35,3.25,3.52A4.09,4.09,0,0,0,48.2,162.06ZM64,116.35c.25,0,.33-.24.45-.39.49-.63,1-1.26,1.46-1.9,1.09-1.48,1.1-1.5-.42-2.5-.83-.55-1.72-1.77-2.52-1.4s-1.16,1.7-1.71,2.61a1,1,0,0,0-.1.17.61.61,0,0,0,.09.81l2.44,2.38A1.6,1.6,0,0,0,64,116.35Zm-10.2,12.86,3.11-3.69c-.54-1-1.52-1.76-2.13-2.75l-.06-.08c-.26-.41-.47-.44-.8,0-.76,1.06-1.56,2.08-2.38,3.08-.27.33-.28.54,0,.85C52.32,127.46,53.05,128.32,53.83,129.21ZM38.15,144.35a31.8,31.8,0,0,1-2.92,3.47c-.23.27-.52.56,0,.87A33.35,33.35,0,0,1,37.8,151L39,149.41c.41-.53.77-1.1,1.22-1.59s.3-.64,0-1C39.56,146.05,38.91,145.24,38.15,144.35Zm26.17,23.37c.24,0,.33-.19.45-.34A13.76,13.76,0,0,0,65.88,166c.42-.68,1.57-1.08,1.34-1.91s-1.09-1.22-1.59-1.89-.84-.52-1.3,0-.94.94-1.42,1.41c-1.71,1.67-1.7,1.7.26,3.17C63.57,167.06,63.93,167.4,64.32,167.72ZM48.5,109.57c.41.52.71.87,1,1.25.37.54.72.57,1.1,0a2.62,2.62,0,0,1,2.28-1c1-.08,1.31.54,1.69,1.24s0,1-.41,1.48-.9,1.07-1.39,1.57c-.35.34-.3.61,0,.93a6.72,6.72,0,0,1,.63.78c.27.39.46.31.76,0a17.61,17.61,0,0,0,2.06-3.4c.16-.27,0-.44-.14-.62-.57-.9-1.16-1.79-1.72-2.7a.71.71,0,0,0-.7-.44A21.28,21.28,0,0,0,48.5,109.57Zm-2.72,55.86a2.32,2.32,0,0,0-.2-.36,52.78,52.78,0,0,1-3.37-4.1c-.28-.37-.46-.21-.68.06-.47.57-.92,1.15-1.43,1.67-.3.31-.2.5,0,.75a14.5,14.5,0,0,0,3.52,3.06c.32.18.66.67,1,.35A8,8,0,0,0,45.78,165.43Zm13.42-49-2.6,3L59,122.16s.1.09.14.14c.22.3.4.24.63,0,.65-.76,1.31-1.51,2-2.24.28-.3.19-.5,0-.76C60.9,118.38,60.08,117.46,59.2,116.47ZM78.11,141.4c.1,0,.19,0,.22-.09.55-.79,1.1-1.59,1.62-2.4,0-.07-.1-.3-.2-.42-.83-1-1.68-2-2.52-3-.28-.34-.48-.35-.74.05-.46.69-.94,1.37-1.46,2-.32.39-.22.61.1.91.86.83,1.7,1.69,2.56,2.54C77.83,141.16,78,141.28,78.11,141.4Zm-29.37-12c-.67,1-1.28,1.9-2,2.78a.87.87,0,0,0,0,1.34c.62.69,1.22,1.42,1.77,2.17.32.42.48.3.71-.06.54-.84,1.08-1.67,1.65-2.5a.65.65,0,0,0,0-.89A27.46,27.46,0,0,0,48.74,129.38ZM49,143.05a37.64,37.64,0,0,1-3.17,3.37c-.37.35-.49.67,0,1.06.61.53.93,1.63,1.62,1.66s1.15-1.06,1.72-1.64l.07-.07C51.13,145.3,51.13,145.25,49,143.05Zm10.54,5.82.34-.3c1.76-1.56,1.78-1.71.32-3.54-.17-.21-.35-.41-.52-.61-1.63-1.92-1.62-1.91-3.09.2a.6.6,0,0,0,.1.87l2.52,3Zm-7,13.3c-.6.64-1.13,1.25-1.71,1.79-.37.34-.35.54,0,.85,1.17,1,2.32,2,3.49,3,.42-.45.81-.89,1.23-1.31s.3-.52,0-.84A39.75,39.75,0,0,0,52.6,162.17Zm-4.2-39a5,5,0,0,0,.38-.42c.87-1.22,1.72-2.45,2.6-3.65.24-.32.29-.54,0-.85a4.69,4.69,0,0,1-.63-.9c-.26-.48-.46-.42-.78,0-.89,1-1.83,2-2.71,3.07-.22.27-.8.52-.5,1A20.83,20.83,0,0,0,48.4,123.14Zm-6.21,32.52,2.25-2.74c.2-.24.34-.46.07-.77-.53-.6-1-1.21-1.55-1.83-.21-.26-.37-.3-.61,0-.67.82-1.36,1.63-2.05,2.43-.25.29-.34.52,0,.84C40.93,154.25,41.54,155,42.19,155.66Zm40.43-2.26c-.23.21-.4.35-.56.52l-1.73,1.93c-.5.57-1.46,1.21-1.39,1.7s1,1.16,1.56,1.73c.07.07.15.14.21.21.26.29.39.2.58-.11a18.5,18.5,0,0,0,2-4.62C83.53,154.07,82.88,153.9,82.62,153.4ZM58.26,135.11c.93-1.39,1.84-2.76,2.77-4.13a.61.61,0,0,0-.06-.88c-.38-.39-.74-.81-1.11-1.23l-1.71,2C56.35,132.92,56.35,132.92,58.26,135.11Zm-12.1-9c-.57-.74-1.13-1.48-1.71-2.2-.12-.14-.26,0-.33.09A12.56,12.56,0,0,0,41.78,127c-.28.68,1,1.38,1.39,2.15s.64.45,1-.05c.5-.79,1-1.55,1.58-2.31C45.84,126.56,46,126.38,46.16,126.13Zm21.28,27.12c-.15-.18-.27-.34-.4-.48l-1.28-1.27c-1.48-1.48-1.47-1.47-2.89.19-.32.36-.32.6,0,.91l2.44,2.52c.11.12.28.33.39.22C66.27,154.67,66.83,154,67.44,153.25Zm11,10.69-2.67-2.58c-.14-.13-.3-.39-.49-.21-.7.65-1.8,1.24-1.87,2.11s1.24,1.35,1.81,2.13a.57.57,0,0,0,.85.17A12.65,12.65,0,0,0,78.39,163.94Zm-40.07-2.63c.34-.54.63-1,.93-1.47.91-1.4.91-1.4-.17-2.72-1.34-1.61-1.33-1.61-2.77-.07-.29.31-.62.55-.3,1.09A17.8,17.8,0,0,0,38.32,161.31ZM73,158.86a2.65,2.65,0,0,0-.23-.34c-.72-.73-1.46-1.45-2.17-2.19-.28-.29-.45-.16-.63.08s-.35.41-.53.6c-1.29,1.38-1.29,1.38,0,2.7s1.25,1.26,2.57,0C72.35,159.41,72.68,159.14,73,158.86ZM85.27,144h0a5.24,5.24,0,0,0,0-.7c-.1-.41.23-1.12-.39-1.16s-1.24-.2-1.69.53a12,12,0,0,1-1.4,1.55c-.14.15-.49.29-.26.55A10.81,10.81,0,0,0,83,146.33c.46.35.52-.49.94-.49.25,0,.51-.18.76-.17.51,0,.65-.2.59-.67C85.28,144.68,85.29,144.34,85.27,144Zm-3.72-15.09a11.12,11.12,0,0,0-1.69,1.87c-.16.21-.22.34,0,.57,1.16,1.27,2.31,2.56,3.46,3.85.17.18.39.36.6.22s.11-.42,0-.64A47.59,47.59,0,0,0,81.55,128.92Zm-27.69,7.63L52,139.17c-.12.18-.33.31-.09.57a16.19,16.19,0,0,0,1.72,2c.56-.82,1.08-1.59,1.62-2.34a.57.57,0,0,0,0-.79C54.82,138,54.39,137.31,53.86,136.55ZM33.19,150.28a21.24,21.24,0,0,0,1.51,4.88c.31-.45.55-.76.74-1.1s.63-.48.36-.84A15.77,15.77,0,0,0,33.19,150.28Zm30.23-23.37c.27.08.32-.06.39-.16.59-.92,1.18-1.85,1.8-2.75.24-.36,0-.55-.2-.75s-.49,0-.65.18c-.61.66-1.21,1.33-1.8,2-.15.18-.5.33-.26.65S63.22,126.68,63.42,126.91ZM71.26,116c0-.33-.23-.39-.39-.52s-.32.1-.42.22a28.84,28.84,0,0,0-2.49,3.7c-.14.23-.37.48,0,.68s.44-.15.59-.34c.88-1.13,1.6-2.37,2.57-3.42A2.69,2.69,0,0,0,71.26,116Zm-12,53.63c-1.42-1.65-1.09-1.89-2.8,0A14.62,14.62,0,0,0,59.27,169.64ZM46.53,168a7.07,7.07,0,0,0,2.34.63C47.58,167.13,47.58,167.13,46.53,168Zm11.88-59.52a4,4,0,0,0-1.61.11C57.85,109.81,57.85,109.81,58.41,108.52Z"/><path d="M102.29,122.32c.07-3.49-.14-6.4.17-9.3.2-1.91,1.09-2.79,2.92-2.76.1,0,.23,0,.29,0,1.67,1.19,3.65.75,5.48,1a50.84,50.84,0,0,0,8,.43c3.07-.08,6.14.11,9.21,0,3.6-.09,7.19-.27,10.78-.58a104,104,0,0,1,11.71,0c6.55.18,13.1.4,19.65.21,2.42-.08,4.86,0,7.28-.2.86-.07,1.71-.18,2.58-.19,2,0,2.72.61,3.17,2.6a13.12,13.12,0,0,1,0,2.87c.05,3.51-.35,7-.23,10.51,0,1.2.28,2.39.21,3.59s-.23,2.24-1.75,2.91a28.5,28.5,0,0,1-8.41,2c-3.95.47-7.94.43-11.89,1.1-2.74.47-5.56.37-8.33.69a78.89,78.89,0,0,1-10.19.36c-3.77-.07-7.52-.3-11.27-.74a46.34,46.34,0,0,0-5-.21c-2.9,0-5.8-.31-8.71-.25a75.23,75.23,0,0,1-10.17-.6,1.58,1.58,0,0,0-1.36.37,4.24,4.24,0,0,1-2.38.61.6.6,0,0,1-.69-.59c-.13-1.12-.61-2.17-.65-3.31C102.57,129.15,102.41,125.44,102.29,122.32Zm39.9,10.28h6.14c.51,0,.51-.29.49-.64-.07-.9-.19-1.8-.18-2.7,0-2.76,0-5.54.23-8.3.13-1.72,0-3.52.92-5.25a57.12,57.12,0,0,1-6.44-.21c-.95,0-1.27.19-1.2,1.19.2,2.69.21,5.39.46,8.08.14,1.5,0,3,.23,4.48A4,4,0,0,1,142.19,132.6Zm18.52-.85c2-.18,3.93-.75,5.88-.79,1,0,1.45-.51,1.29-1.57-.1-.75,0-1.53-.08-2.3a36.42,36.42,0,0,1,.59-11c-1.91,0-3.81,0-5.72,0-.64,0-.87.18-.85.84.06,1.73.1,3.47.05,5.2A41.25,41.25,0,0,1,160.71,131.75Zm-32.33.29V132c.56,0,1.13,0,1.7,0,.21,0,.49.07.42-.34a44.42,44.42,0,0,1-.25-5.88c-.16-3.09-.14-6.2-.14-9.3,0-.51-.15-.58-.54-.52a21.93,21.93,0,0,1-5.49,0c-.78-.06-1.34,0-.8,1a5.08,5.08,0,0,1,.23,1,79.66,79.66,0,0,1,2,11.67c.07.76-.38,1.81.43,2.22A7,7,0,0,0,128.38,132Zm23.8-16.22a7.08,7.08,0,0,1,.16,1c.16,3.07.3,6.14.48,9.2.1,1.83.26,3.66.4,5.48.05.56.25.9.94.77a10.7,10.7,0,0,1,1.7,0c1.9-.07,1.9-.07,2-1.92,0-.07,0-.14,0-.2a119,119,0,0,0,0-13.22c0-.52-.17-.74-.75-.75C155.53,116.06,153.91,115.93,152.18,115.82ZM116,123.33c0,2.36.45,5,.69,7.71.09.94.46,1.31,1.46,1A5.11,5.11,0,0,1,120,132c.92.11,1.16-.22,1.15-1.14,0-4.8-.1-9.6-.29-14.4,0-.51-.24-.63-.67-.63-1.2,0-2.41,0-3.6-.13-.85-.07-.94.31-.87,1A52.8,52.8,0,0,1,116,123.33Zm-8.64-6.78c.16,1.83.33,3.65.46,5.48q.33,4.83.61,9.67c0,.5.18.75.74.63a9.12,9.12,0,0,1,2.39-.12c.6,0,.73-.15.63-.75a40.79,40.79,0,0,1-.35-7.49c.05-2.57.47-5.12.48-7.69,0-.71-.23-.94-.91-1a13.08,13.08,0,0,1-2.06-.28C107.44,114.62,107.44,114.6,107.4,116.55Zm66.7-.42c-2,0-2,0-2,2v.2c-.08,3.47.36,6.9.58,10.36.1,1.63,0,1.63,1.64,1.5.23,0,.46,0,.7,0,2.2-.12,2.2-.12,2.23-2.31v-.1a105.84,105.84,0,0,1,.25-11c0-.86-.36-1-1-.85A10.57,10.57,0,0,1,174.1,116.13Zm-35-.66a45.45,45.45,0,0,1-5,.29c-.47,0-.84.24-.7.83a45,45,0,0,1,.91,6.11,59.81,59.81,0,0,1,.63,8.86c0,.51.17.57.52.6a13.66,13.66,0,0,1,2.9.26C137.61,129.32,138.05,118.78,139.05,115.47Z"/><path d="M172.67,175.46c-2.88.46-5.79.1-8.68.17-3.43.08-6.86,0-10.29.18-1.77.07-3.54.1-5.31.1-4.54,0-9.08.21-13.62.24-4.26,0-8.53.22-12.77.61a66.48,66.48,0,0,1-9.55.53,33.92,33.92,0,0,0-5.79,0,13.24,13.24,0,0,0-3.11.53,4.62,4.62,0,0,1-1.17.26c-1.56.15-1.77-.09-2.12-1.62-1.07-4.63-.28-9.2.34-13.78.13-1,.31-1.89.46-2.84.26-1.75,1-2.45,2.69-2.31a28.4,28.4,0,0,0,4.88-.05c1.8-.15,3.6-.09,5.41-.19,3.49-.19,7-.16,10.51-.25,15.8-.41,31.61-.37,47.41-.44,2.31,0,4.62,0,6.92,0a2.33,2.33,0,0,1,1.82,2.8,7.71,7.71,0,0,0-.6,3.1,68.9,68.9,0,0,1-.22,7.6,10.13,10.13,0,0,1-.88,3.15,1.67,1.67,0,0,1-1.41,1.09c-.71.07-1.17.81-1.93,1A12.5,12.5,0,0,1,172.67,175.46Zm-2.88-4.74h2.81c1.62,0,1.62,0,1.69-1.64,0-.1,0-.2,0-.3.1-2.19,0-4.39.06-6.59,0-1-.26-1.15-1.18-1.15-10.32,0-20.65.13-31-.12-7.35-.17-14.7-.18-22-.26-.34,0-.67,0-1,0-4.23-.33-8.48-.16-12.71-.57-.47,0-.62.1-.6.6a34.23,34.23,0,0,1,0,3.51c-.2,3-.36,5.92-.36,8.89,0,.49.06.68.67.61a47.93,47.93,0,0,1,5.86-.51,88,88,0,0,0,10.63-.8c4.59-.57,9.24-.6,13.86-.83,3.23-.15,6.47,0,9.71-.16,4.16-.18,8.33-.23,12.49-.4C162.38,170.83,166.09,170.73,169.79,170.72Z"/><path d="M125.47,151.23c-3.08,0-4.52-1.24-4.92-4.12a2,2,0,0,1,.21-1.36c1.53-2.46,3.54-4.2,6.61-4.33a8.29,8.29,0,0,1,2.28,0,4.57,4.57,0,0,1,3.13,4.94c-.67,3-1.85,3.6-5.4,4.63A3.83,3.83,0,0,1,125.47,151.23Zm1.23-3.38c1.4.1,1.65-.66,1.84-1.82.1-.57-1-1.34-1.74-1.31a2.31,2.31,0,0,0-1.9,2C124.91,147.42,125.61,147.86,126.7,147.85Z"/><path d="M112.24,141.82a5,5,0,0,1,2,.33,3.79,3.79,0,0,1,2.9,3,4.06,4.06,0,0,1-1.86,4.23,6.82,6.82,0,0,1-7.17.41,3.38,3.38,0,0,1-.46-5.87A8.14,8.14,0,0,1,112.24,141.82Zm-.65,6.83a2.48,2.48,0,0,0,2.74-2.57c0-1-.65-1.39-1.38-1.73a1.31,1.31,0,0,0-1.84.28,4,4,0,0,1-1.89,1.26c-.62.21-.63.56-.36,1.06A3.32,3.32,0,0,0,111.59,148.65Z"/><path d="M152.36,144.64a18.59,18.59,0,0,0,5.14-.55c1.94-.44,2.75-.06,3.41,1.35a.87.87,0,0,1-.39,1.27,13,13,0,0,1-7.71,1.2,27.23,27.23,0,0,0-4.78-.29c-.43,0-.88.08-1.06-.5a1.39,1.39,0,0,1,.21-1.56c.93-1,2.17-.69,3.28-.9A10.94,10.94,0,0,1,152.36,144.64Z"/><path d="M159.25,97.72c1.93,0,2.51.46,3.28,2.09a2.32,2.32,0,0,1-.68,2.87,7.45,7.45,0,0,1-4.76,2c-1.24.06-2.68-1.82-2.14-2.94.35-.73.27-1.54.86-2.26A4.75,4.75,0,0,1,159.25,97.72Z"/><path d="M183.76,104.49c-1.39,0-2.15-.49-2.41-1.35-.6-1.94-.35-2.92.92-3.77a7.05,7.05,0,0,1,4.59-.93c1.19.09,2.49,1.83,2.47,3a1.2,1.2,0,0,1-.56,1A11.3,11.3,0,0,1,183.76,104.49Z"/><path d="M144.56,105.91c-1.28.08-1.47,0-1.82-1.3-.1-.39-.25-.76-.32-1.15-.37-2.23,1.14-3.75,3.69-3.76A2.74,2.74,0,0,1,149,103a2.94,2.94,0,0,1-1.22,1.76A8,8,0,0,1,144.56,105.91Z"/><path d="M166.76,148a8,8,0,0,1-1.4,0,1.28,1.28,0,0,1-1.1-.84,1.07,1.07,0,0,1,.42-1.28,2.78,2.78,0,0,1,1.26-.76,23.38,23.38,0,0,1,6.3-1.18,2.23,2.23,0,0,1,2.15,2,.91.91,0,0,1-.61.84c-1.46.59-2.88,1.29-4.55,1.1C168.38,147.75,167.53,148.18,166.76,148Z"/><path d="M170.56,103.29c-2,0-2.55-.42-2.72-2.23A1.73,1.73,0,0,1,169,99.34a7,7,0,0,1,3.53-.87,2.89,2.89,0,0,1,2.66,2.36,1.35,1.35,0,0,1-.92,1.31C173,102.71,171.85,103.48,170.56,103.29Z"/><path d="M222.12,52.56c2.89,0,4.93,1.66,6.13,4.67s-.83,6.8-4.75,7.52A10.46,10.46,0,0,1,218,64.6c-3.43-1.19-4.93-7.21-2-9.83C218.33,52.75,218.9,52.82,222.12,52.56Zm-3.91,5.81a3.39,3.39,0,0,0,3.44,3.69c.68,0,1.48.1,2-.64a2.78,2.78,0,0,0-.25-3.81A4.59,4.59,0,0,0,221,56.28C218.83,55.73,218.23,56.16,218.21,58.37Z"/><path d="M38.85,63.16c-4.29,0-8.24-3.88-8.19-8a5,5,0,0,1,2-3.56,5.7,5.7,0,0,1,3.45-1.63,1.57,1.57,0,0,0,.55-.19c5-2.62,8.73.63,9.83,4.9.9,3.49-.47,6.07-3.81,7.54A8.44,8.44,0,0,1,38.85,63.16Zm3.41-6.5a5.71,5.71,0,0,0-.65-2,3.88,3.88,0,0,0-4.38-1.81c-.68.14-1.39.52-2.12.09-.34-.19-.48.12-.63.32a3.53,3.53,0,0,0,.41,4.49,8.81,8.81,0,0,0,3.6,2.05C40.55,60.35,42.29,59,42.26,56.66Z"/><path d="M124.57,163.9a2.28,2.28,0,0,1,2.59,1.44,1.09,1.09,0,0,1-.23,1.44,7.22,7.22,0,0,1-5.14,1.92.77.77,0,0,1-.85-.78c-.09-.8-.64-1.57.12-2.41A4.14,4.14,0,0,1,124.57,163.9Z"/><path d="M168.2,162.69a2.43,2.43,0,0,1,2.57,2.6,1,1,0,0,1-.51.8,8.24,8.24,0,0,1-3.72,1.56c-.64.1-1.31.13-1.55-.81C164.28,164.15,165.3,162.79,168.2,162.69Z"/><path d="M131.74,168.74c-.61-.1-1.4.17-1.73-.64a2.28,2.28,0,0,1,.78-3,5,5,0,0,1,3.39-.91A2.33,2.33,0,0,1,136,166a1.54,1.54,0,0,1-1.07,1.72A6.09,6.09,0,0,1,131.74,168.74Z"/><path d="M157.82,165.43a1.18,1.18,0,0,1-.56,1,7.85,7.85,0,0,1-3.91,1.59,1.14,1.14,0,0,1-1.25-.65c-.25-.62-.72-1.26-.3-2a4.34,4.34,0,0,1,4.35-2A2.36,2.36,0,0,1,157.82,165.43Z"/><path d="M144.23,163.7a1.77,1.77,0,0,1,1.65.59c1.11,1.22,1.19,2.27-.5,2.89a11.62,11.62,0,0,1-2.63.88c-.58.07-1.31.19-1.55-.55s-.74-1.58-.07-2.45A3.39,3.39,0,0,1,144.23,163.7Z"/><path d="M114.46,163.48c.78-.14,1.14.25,1.43.86s-.18.83-.5,1.15-.45.37-.5.59c-.37,1.58-1.74,1.78-3,2.15a1,1,0,0,1-1.18-.55c-1.15-2.06-.77-3.07,1.63-3.55C113.13,164,113.65,163.18,114.46,163.48Z"/></g></g></g></svg>