<svg width="62" height="54" viewBox="0 0 62 54" fill="none" xmlns="http://www.w3.org/2000/svg">
<g clip-path="url(#clip0_129_182)">
<path d="M8.42665 35.5146C8.34016 35.3586 8.24521 35.2073 8.14222 35.0615C7.67397 34.3204 7.25174 33.5516 6.87789 32.7595C6.53654 32.0568 6.25718 31.3262 6.04295 30.5758C5.88774 30.0702 5.76516 29.5554 5.67595 29.0344C5.56951 28.3647 5.49244 27.6896 5.4484 27.0108C5.41114 26.5411 5.3995 26.0697 5.41354 25.5987C5.41895 25.1426 5.4681 24.688 5.56034 24.2411C5.6943 23.6697 5.7677 23.0819 5.98056 22.5287C6.3806 21.4969 6.71457 20.4433 7.16232 19.4351C7.56205 18.5373 8.01108 17.6619 8.50739 16.8128C8.86155 16.1995 9.15699 15.5572 9.50564 14.9421C10.08 13.9248 10.6599 12.913 11.3297 11.954C11.6783 11.4572 12.0215 10.9568 12.3848 10.4691C12.7481 9.98137 13.2216 9.53007 13.6216 9.04419C13.8675 8.74392 14.1299 8.4564 14.396 8.17251C14.9453 7.59261 15.5172 7.03394 16.1117 6.4965C16.3852 6.24901 16.6622 5.9997 16.9393 5.76859C17.5229 5.27907 18.1358 4.82413 18.7597 4.38738C19.1267 4.13079 19.4937 3.88148 19.8882 3.65947C20.5653 3.2755 21.2461 2.89698 21.9526 2.5676C22.3637 2.37289 22.771 2.16907 23.1931 1.99801C23.9271 1.70503 24.6611 1.40295 25.4227 1.18276C26.1842 0.962566 26.9292 0.776947 27.6889 0.600429C28.2394 0.473044 28.7899 0.365679 29.3569 0.28379C29.924 0.2019 30.524 0.130928 31.1094 0.101812C31.726 0.0690561 32.3425 0.0308369 32.9609 0.0180984C33.6208 -0.00104453 34.2813 0.0171862 34.9391 0.072695C35.6327 0.138207 36.3282 0.161866 37.0218 0.216459C37.8046 0.267542 38.5809 0.389366 39.3413 0.580414C40.0753 0.780589 40.8002 1.06811 41.5232 1.3338C42.364 1.64635 43.1731 2.03691 43.9399 2.50027C44.7614 2.99316 45.5446 3.54608 46.2832 4.15445C46.8337 4.60575 47.3842 5.05524 47.8797 5.55386C48.4669 6.138 49.0321 6.74399 49.6083 7.33906C49.895 7.62217 50.164 7.92239 50.4139 8.23802C50.4671 8.30718 50.5203 8.37451 50.5588 8.21983C50.6074 8.07654 50.6966 7.95017 50.8157 7.85587C51.1351 7.51678 51.4922 7.2146 51.8801 6.95509C52.305 6.68637 52.7675 6.48098 53.2527 6.34546C53.8123 6.19988 54.5702 6.55291 54.8803 7.04789C55.3152 7.73758 55.451 8.50371 55.5262 9.29531C55.5391 9.43726 55.5685 9.57556 55.5813 9.7175C55.6314 10.4547 55.6394 11.1941 55.6051 11.9322C55.5923 12.5654 55.5538 13.206 55.5666 13.832C55.5786 14.4407 55.6246 15.0482 55.7042 15.6518C55.7686 15.9585 55.8626 16.2583 55.985 16.5471C55.9972 16.5921 56.022 16.6328 56.0566 16.6644C56.0911 16.6961 56.1339 16.7174 56.1802 16.726C56.2264 16.7345 56.2741 16.73 56.3178 16.7128C56.3615 16.6957 56.3994 16.6666 56.4272 16.629C56.5937 16.4458 56.7493 16.2532 56.8933 16.0521C57.2196 15.5571 57.5762 15.0824 57.9613 14.6309C58.3707 14.1535 58.8487 13.7384 59.3798 13.3989C59.8056 13.13 60.2942 12.9746 60.7983 12.9476C61.3488 12.9276 61.9507 13.3589 61.9984 14.1687C62.0093 14.5448 61.9327 14.9184 61.7745 15.2605C61.6377 15.6069 61.4739 15.9421 61.2846 16.2632C60.9543 16.7982 60.5946 17.3132 60.2313 17.8246C59.9248 18.2559 59.5872 18.6635 59.266 19.0839C58.8161 19.6619 58.4321 20.2874 58.121 20.9492C57.8874 21.4521 57.7072 21.9779 57.5833 22.5178C57.4822 23.0347 57.4209 23.5585 57.3998 24.0846C57.3966 24.1293 57.4043 24.1741 57.4222 24.2153C57.44 24.2565 57.4676 24.2928 57.5026 24.3212C57.6438 24.446 57.7491 24.6058 57.8078 24.7842C57.8665 24.9626 57.8764 25.1532 57.8365 25.3366C57.7833 25.5714 57.7833 25.8189 57.7099 26.0463C57.5815 26.4467 57.4145 26.8379 57.264 27.2328C57.264 27.2529 57.2457 27.2711 57.2402 27.2911C57.0823 27.8188 56.8309 28.3101 56.6897 28.8433C56.5366 29.4186 56.3529 29.9853 56.1391 30.5412C55.9465 31.0343 55.8327 31.5621 55.5648 32.0225C55.3931 32.3778 55.1473 32.6929 54.8436 32.9469C54.6543 33.1025 54.4571 33.2483 54.2527 33.3837C53.8949 33.5929 53.5573 33.5493 53.1921 33.4874C52.4033 33.3467 51.6421 33.0825 50.9368 32.7049C50.6237 32.5704 50.3715 32.3261 50.2285 32.0188C50.0648 32.375 49.8531 32.7074 49.5991 33.007C48.9969 33.888 48.3399 34.731 47.632 35.531C47.2374 35.9568 46.8704 36.4081 46.4814 36.8394C46.0924 37.2707 45.652 37.6893 45.2281 38.1133C44.9455 38.3917 44.6556 38.6592 44.3675 38.9358C43.9781 39.3026 43.5623 39.6408 43.1233 39.9476C42.9049 40.1023 42.7214 40.3116 42.5122 40.4717C42.226 40.7064 41.9214 40.9157 41.6223 41.1323C41.0088 41.5768 40.3616 41.9735 39.6863 42.3188C39.0734 42.6372 38.4789 42.9866 37.8513 43.2742C37.142 43.6256 36.4056 43.9207 35.6493 44.1567C34.862 44.3769 34.0766 44.608 33.2784 44.7864C32.755 44.9111 32.2251 45.0071 31.6911 45.0739C31.0782 45.1431 30.4635 45.2086 29.8469 45.2559C29.078 45.305 28.3055 45.285 27.5348 45.3232C27.0687 45.3469 26.6007 45.336 26.1365 45.3432C25.4575 45.3432 24.7749 45.3087 24.0978 45.2541C23.3638 45.1958 22.6297 45.123 21.9123 45.0102C21.5457 44.9707 21.1817 44.9099 20.8222 44.8282C19.9047 44.5717 19.0001 44.3132 18.1064 44.0057C17.5123 43.8083 16.9374 43.558 16.3888 43.2578C15.7649 42.9084 15.1043 42.6099 14.5318 42.1823C14.0583 41.8329 13.5904 41.478 13.1518 41.0904C12.9683 40.9266 12.7665 40.7792 12.5775 40.6173C12.1059 40.206 11.66 39.762 11.2397 39.3125C10.6831 38.7468 10.18 38.1315 9.73686 37.4745C9.71484 37.44 9.69649 37.389 9.64878 37.3926C9.60107 37.3963 9.5974 37.4509 9.57905 37.4873C9.49509 37.6794 9.39116 37.8624 9.26893 38.0332C9.21282 38.1125 9.18038 38.2058 9.17534 38.3025C9.14459 38.7043 9.20737 39.1078 9.35884 39.4817C9.52032 39.8712 9.76989 40.2097 9.95156 40.5736C10.2048 41.0941 9.9222 41.7838 9.51849 42.1022C9.14101 42.3636 8.7462 42.5995 8.33673 42.8083C8.15323 42.9193 8.13488 42.9903 8.26884 43.1613C8.30435 43.197 8.32913 43.2417 8.3404 43.2905C8.38444 43.6654 8.50005 44.0294 8.51106 44.4133C8.52574 44.8847 8.58997 45.3542 8.61199 45.8237C8.6409 46.2332 8.70661 46.6394 8.80834 47.0374C8.83705 47.1746 8.91941 47.2949 9.03738 47.372C9.15535 47.4491 9.29932 47.4767 9.43775 47.4487C9.77571 47.3816 10.1243 47.3871 10.4599 47.4651C10.7883 47.5652 10.9957 47.7999 11.2177 48.0238C11.649 48.4785 11.9384 49.0473 12.0508 49.6616C12.1989 50.3413 12.1493 51.0487 11.9077 51.7015C11.7138 52.2241 11.377 52.6828 10.9351 53.0263C10.6014 53.2889 10.2304 53.501 9.83411 53.656C9.50306 53.7904 9.14478 53.8459 8.78815 53.8179C8.3809 53.7921 7.98521 53.6732 7.63208 53.4704C7.09295 53.1678 6.68623 52.6775 6.4907 52.0946C6.35979 51.6044 6.35537 51.0893 6.47785 50.5969C6.62159 50.0164 6.70764 49.4234 6.73476 48.8263C6.73032 48.3746 6.68735 47.9241 6.6063 47.4797C6.49194 46.8079 6.43058 46.1282 6.4228 45.447C6.41379 44.7738 6.55084 44.1067 6.82467 43.4907C7.02469 43.0467 7.30361 42.6754 7.80274 42.5299C7.9 42.5007 7.98624 42.4589 8.00092 42.3606C8.0299 42.2684 8.08305 42.1854 8.15494 42.1202C8.22684 42.055 8.3149 42.0098 8.41013 41.9894C8.51737 41.9512 8.61963 41.9005 8.71475 41.8383C9.11111 41.5909 9.21571 41.2742 9.00468 40.8539C8.85054 40.5445 8.67621 40.2424 8.52391 39.944C8.1569 39.2161 8.06515 38.3935 8.64869 37.6092C8.80473 37.3647 9.02397 37.1661 9.28361 37.0341C9.36618 36.9977 9.39371 36.9577 9.33499 36.874C9.16433 36.632 9.00101 36.3845 8.83219 36.1461C8.79549 36.0933 8.75512 36.0387 8.67438 36.0769C8.15323 36.3244 7.67979 36.6229 7.42106 37.1688C7.10952 37.8026 6.88842 38.4763 6.76412 39.1706C6.6962 39.6453 6.57304 40.1106 6.39711 40.5572C6.16253 41.0519 5.80825 41.4814 5.36583 41.8074C5.00983 42.0895 4.58227 42.2678 4.26481 42.5972C4.10907 42.7596 3.99019 42.9532 3.91616 43.165C3.81707 43.4234 3.73265 43.6854 3.65375 43.9493C3.62255 44.0494 3.52897 44.0912 3.46107 44.1313C3.39154 44.1818 3.33537 44.2482 3.29734 44.3249C3.25931 44.4015 3.24057 44.4862 3.2427 44.5717C3.21334 45.1904 3.01699 45.7927 3.05003 46.4205C3.04523 46.4828 3.03164 46.544 3.00965 46.6025C2.93625 46.9028 2.97846 46.9556 3.2427 47.0957C3.4239 47.1922 3.58963 47.3148 3.73449 47.4596C4.14809 47.874 4.47654 48.3641 4.70155 48.9027C4.86836 49.2797 5.01416 49.6654 5.13828 50.0583C5.35447 50.6873 5.40563 51.3605 5.28692 52.0145C5.19307 52.5418 4.9062 53.0162 4.48134 53.3466C4.2266 53.5522 3.94438 53.7218 3.64274 53.8507C3.35303 53.9694 3.03915 54.0185 2.72666 53.9942C2.41416 53.9698 2.11188 53.8727 1.84441 53.7106C1.33639 53.4229 0.912667 53.0089 0.614946 52.5095C0.418725 52.2159 0.261454 51.8985 0.147015 51.565C-0.037029 50.9409 -0.0490683 50.2792 0.112149 49.6488C0.2498 49.1444 0.471865 48.6664 0.769089 48.2349C0.792944 48.1966 0.829644 48.173 0.792944 48.1293C0.752055 48.0705 0.72748 48.002 0.721682 47.9308C0.715885 47.8596 0.729069 47.7881 0.759913 47.7235C0.841101 47.3631 0.90236 46.9986 0.943416 46.6316C1.09389 45.8273 1.31042 45.0466 1.92699 44.4479C2.14719 44.235 2.34538 43.982 2.661 43.8892C2.71754 43.8723 2.76735 43.8383 2.80352 43.792C2.83969 43.7457 2.86043 43.6894 2.86285 43.6308C2.9377 43.2104 3.10901 42.8127 3.36356 42.4685C3.61811 42.1242 3.94908 41.8426 4.33087 41.6455C4.77646 41.4074 5.14678 41.0515 5.40069 40.6173C5.60989 40.2533 5.64475 39.8548 5.74568 39.4672C5.92918 38.7866 6.04662 38.0914 6.35491 37.4454C6.50525 37.1111 6.69828 36.7974 6.92927 36.5119C7.24877 36.1226 7.64695 35.8039 8.09818 35.5765C8.20278 35.5365 8.31288 35.5565 8.42665 35.5146ZM30.0102 0.878854C29.4377 0.955285 28.8266 1.08631 28.2192 1.22461C27.7917 1.32288 27.3696 1.45572 26.9439 1.55945C26.3218 1.71231 25.7126 1.89611 25.1089 2.10538C24.7419 2.23458 24.3583 2.36379 23.995 2.52939C23.6684 2.67679 23.3271 2.80236 22.9931 2.93702C22.5813 3.10828 22.1789 3.30084 21.7875 3.51389C21.1305 3.86147 20.4644 4.19812 19.8332 4.59119C19.2019 4.98427 18.6496 5.39736 18.0844 5.8341C17.5192 6.27085 17.0109 6.70942 16.5008 7.1771C15.9906 7.64478 15.4695 8.14703 14.9869 8.66385C14.3483 9.34809 13.7023 10.0378 13.1317 10.773C12.5243 11.5446 11.9591 12.3544 11.4269 13.1787C10.8948 14.0031 10.447 14.8165 9.97174 15.65C9.72585 16.0776 9.53868 16.5435 9.26709 16.9547C8.81384 17.639 8.49271 18.3905 8.09084 19.1021C7.88165 19.466 7.74402 19.8882 7.56786 20.2813C7.36034 20.6887 7.19377 21.1154 7.07057 21.5551C7.06323 21.5827 7.0534 21.6094 7.04121 21.6352C6.85472 22.0215 6.69948 22.4219 6.57694 22.8326C6.55079 23.0008 6.51215 23.1669 6.46134 23.3294C6.26426 23.7963 6.12501 24.2851 6.04662 24.7852C5.95429 25.4577 5.9389 26.1384 6.00075 26.8143C6.04846 27.3711 6.13287 27.9262 6.22829 28.4776C6.36229 29.2688 6.56552 30.047 6.83568 30.8032C7.0531 31.4446 7.32187 32.0678 7.63942 32.6667C7.7587 32.8814 7.91284 33.0798 8.00643 33.3036C8.24524 33.8131 8.52958 34.3003 8.85605 34.7594C9.23488 35.337 9.64788 35.8918 10.0929 36.4209C10.765 37.241 11.5073 38.002 12.3114 38.6956C13.2385 39.4321 14.2139 40.1069 15.2309 40.7155C15.6603 40.9867 16.1484 41.1596 16.5797 41.4435C17.1504 41.822 17.8183 41.9585 18.4147 42.2514C18.8716 42.4377 19.3406 42.5933 19.8185 42.7173C20.6508 42.9819 21.4982 43.197 22.3563 43.3615C23.0842 43.4862 23.82 43.5592 24.5584 43.5799C25.1786 43.6145 25.8043 43.6199 26.4246 43.5981C27.3234 43.5794 28.2203 43.5095 29.1111 43.3888C29.946 43.2632 30.7754 43.094 31.603 42.9175C32.1187 42.8065 32.638 42.6918 33.1426 42.5408C33.9207 42.3097 34.6877 42.0367 35.4456 41.7492C35.8805 41.5836 36.3044 41.3852 36.7301 41.2032C37.1943 41.0104 37.6476 40.7956 38.0953 40.5645C38.7688 40.2151 39.4441 39.8639 40.0955 39.4726C40.7029 39.1087 41.2883 38.7174 41.8682 38.3171C42.1819 38.1005 42.4884 37.8694 42.7857 37.631C43.4004 37.1415 44.0115 36.6502 44.5785 36.1115C45.26 35.4631 45.8872 34.7608 46.4539 34.0115C46.9016 33.4195 47.3537 32.8317 47.81 32.2481C48.2834 31.6422 48.6284 30.9597 49.0101 30.301C49.4266 29.5731 49.7661 28.8142 50.1349 28.0663C50.3276 27.675 50.4689 27.262 50.6653 26.8707C50.8176 26.5686 50.88 26.221 51.0231 25.9135C51.2866 25.311 51.5085 24.6915 51.6874 24.0591C51.9314 23.273 52.0801 22.4559 52.2599 21.6516C52.3443 21.2713 52.381 20.8818 52.4287 20.4997C52.5351 19.6757 52.5921 18.8463 52.5994 18.0157C52.5813 17.9056 52.5739 17.7941 52.5774 17.6827C52.6544 17.2732 52.559 16.8692 52.526 16.4689C52.5006 16.0198 52.428 15.5746 52.3094 15.1404C52.3086 15.1259 52.3086 15.1113 52.3094 15.0968C52.2211 14.4374 52.0893 13.7846 51.9149 13.1423C51.8316 12.787 51.7287 12.4365 51.6066 12.0923C51.5075 11.8084 51.414 11.5209 51.324 11.2352C51.1669 10.6959 50.9412 10.1785 50.6524 9.69566C50.2538 9.10892 49.805 8.55731 49.311 8.04695C48.8376 7.52649 48.3311 7.0388 47.843 6.53472C47.2279 5.89986 46.5708 5.3065 45.8758 4.75862C44.8954 3.96853 43.8522 3.25832 42.7563 2.63494C41.9552 2.19325 41.1164 1.8224 40.2497 1.52669C39.4086 1.22015 38.5388 0.997641 37.6531 0.862477C36.8934 0.762389 36.1227 0.73327 35.3556 0.700514C34.6932 0.671398 34.0308 0.653201 33.3665 0.667759C32.816 0.678678 32.282 0.740552 31.7296 0.709616C31.2984 0.702826 30.8677 0.742486 30.4451 0.827901C30.3037 0.867372 30.157 0.884566 30.0102 0.878854ZM61.0845 14.549C61.0896 14.3833 61.0596 14.2184 60.9965 14.0649C60.9823 14.0176 60.9572 13.9741 60.9231 13.9381C60.889 13.9021 60.8469 13.8745 60.8001 13.8575C60.5197 13.765 60.2144 13.7806 59.945 13.9012C59.5838 14.0842 59.2592 14.3308 58.9871 14.6291C58.4926 15.1667 58.0451 15.7451 57.6494 16.3579C57.3156 16.8788 56.8352 17.2913 56.2676 17.5444C55.9648 17.6736 55.6455 17.6754 55.4363 17.4406C55.1983 17.187 55.0198 16.8844 54.9133 16.5544C54.7986 16.2078 54.7199 15.8505 54.6785 15.488C54.6344 14.9894 54.5941 14.489 54.5904 13.9922C54.5904 13.246 54.6289 12.4981 54.6473 11.752C54.6353 11.5265 54.6353 11.3006 54.6473 11.0751C54.681 10.662 54.6706 10.2466 54.6161 9.83579C54.5847 9.33048 54.5005 8.82978 54.3647 8.34175C54.2995 8.0818 54.2028 7.83066 54.0766 7.59383C53.9059 7.3063 53.2086 7.11159 52.8728 7.26809C52.4546 7.45445 52.0797 7.72458 51.7718 8.06151C51.5363 8.32369 51.2723 8.55927 50.9846 8.76394C50.8946 8.82763 50.891 8.86403 50.957 8.94592C51.0561 9.0642 51.2249 9.16975 51.2598 9.28804C51.3699 9.66291 51.6268 9.95589 51.7736 10.3016C51.9131 10.6183 52.0819 10.9222 52.2342 11.2334C52.4874 11.7538 52.6783 12.3052 52.9334 12.822C53.2218 13.414 53.4528 14.0319 53.6233 14.6673C53.7248 14.9314 53.8009 15.2043 53.8509 15.4825C53.9133 16.1377 54.0215 16.7873 54.0454 17.4497C54.0656 18.0484 54.0913 18.6435 54.0968 19.2422C54.1069 19.9321 54.0812 20.6222 54.0197 21.3095C54.0187 21.5701 53.9991 21.8304 53.961 22.0883C53.8545 22.536 53.8637 22.9982 53.7298 23.4477C53.6545 23.6952 53.6765 23.9736 53.594 24.2175C53.4251 24.7215 53.3646 25.2493 53.238 25.7625C53.0453 26.5431 52.7388 27.2801 52.4911 28.039C52.4251 28.2392 52.4361 28.3029 52.6544 28.2865C53.2049 28.2483 53.7701 28.3684 54.3206 28.1991C54.4427 28.1656 54.5548 28.1031 54.6473 28.0172C54.9409 27.7333 55.0712 27.3584 55.251 27.0072C55.5813 26.3612 55.6639 25.626 55.9942 24.9781C56.1538 24.6615 56.3061 24.3576 56.675 24.2502C56.6938 24.2476 56.7119 24.241 56.728 24.2308C56.744 24.2206 56.7576 24.2071 56.7679 24.1912C56.7782 24.1753 56.7849 24.1574 56.7875 24.1387C56.7902 24.12 56.7887 24.1009 56.7832 24.0828C56.7044 23.4598 56.7486 22.8274 56.9135 22.2212C57.0146 21.7458 57.1768 21.2853 57.3961 20.8509C57.5631 20.5506 57.7063 20.2358 57.8696 19.9301C58.2146 19.2786 58.6972 18.7199 59.1394 18.1358C59.7519 17.3731 60.2895 16.5541 60.7451 15.69C60.9111 15.3271 61.0253 14.9431 61.0845 14.549ZM14.7703 41.4853C14.7942 41.5872 14.8823 41.6218 14.9538 41.6673C15.4768 41.9894 16.0292 42.2332 16.5466 42.5353C17.1614 42.8993 17.8422 43.0813 18.4771 43.3852C18.9276 43.5638 19.3891 43.7139 19.8589 43.8346C20.7747 44.1265 21.7177 44.3265 22.6738 44.4315C22.8426 44.4515 23.0169 44.4315 23.1858 44.457C23.8152 44.528 24.4464 44.5844 25.0813 44.6026C25.6429 44.619 26.2062 44.6463 26.7696 44.6226C27.2228 44.6026 27.6761 44.5698 28.1312 44.5771C28.5275 44.5771 28.9202 44.5498 29.3129 44.528C29.8084 44.5007 30.3057 44.4479 30.8011 44.4206C31.4672 44.3824 32.1095 44.2277 32.7628 44.1349C33.1885 44.073 33.5977 43.902 34.0197 43.8073C34.3115 43.74 34.5831 43.5926 34.8767 43.558C35.2196 43.5031 35.5551 43.4097 35.8768 43.2796C36.3154 43.1249 36.7429 42.9339 37.1705 42.7501C37.6641 42.539 38.1357 42.2769 38.611 42.0221C38.978 41.8402 39.3156 41.6218 39.6771 41.4435C39.9652 41.3033 40.2276 41.1268 40.5047 40.974C40.8875 40.7489 41.2553 40.4997 41.6057 40.2278C42.2865 39.722 42.96 39.2088 43.5894 38.641C43.7949 38.459 43.9986 38.2661 44.206 38.0842C44.8042 37.5546 45.3859 37.0068 45.9327 36.4245C46.3493 35.9805 46.7291 35.5001 47.1402 35.0542C47.7035 34.4428 48.188 33.7804 48.7 33.1307C49.0358 32.7049 49.3275 32.2427 49.6413 31.7968C49.6982 31.7168 49.7551 31.5985 49.8468 31.5967C50.0175 31.5967 50.012 31.4675 50.012 31.3801C50.0345 30.9803 50.096 30.5835 50.1955 30.1954C50.3625 29.3292 51.0194 28.8888 51.6268 28.3902C51.6517 28.3769 51.6793 28.3694 51.7076 28.3684C51.7681 28.3684 51.792 28.3174 51.8085 28.2701C51.8911 28.0299 51.992 27.797 52.0819 27.5604C52.2287 27.1346 52.3186 26.6887 52.4581 26.2574C52.5975 25.8262 52.6801 25.3475 52.8067 24.9072C52.9026 24.5309 52.9791 24.1501 53.0361 23.7662C53.1701 23.0383 53.2857 22.294 53.3609 21.5533C53.4288 20.8818 53.4435 20.2049 53.46 19.5297C53.4728 19.1021 53.4472 18.6744 53.4362 18.245C53.4386 17.662 53.408 17.0794 53.3444 16.4998C53.3159 16.3688 53.2944 16.2364 53.2802 16.1031C53.2637 15.6427 53.0875 15.2205 52.9847 14.7201C52.9726 14.7537 52.964 14.7884 52.959 14.8238C53.1251 15.6614 53.2299 16.5098 53.2728 17.3624C53.2875 17.9083 53.2857 18.4542 53.249 19.0002C53.2013 19.7281 53.1242 20.4342 53.0196 21.1475C52.9177 21.92 52.7688 22.6857 52.5737 23.4404C52.4471 23.9045 52.3241 24.3667 52.1645 24.8216C52.0048 25.2766 51.8709 25.7315 51.6892 26.1828C51.5241 26.5886 51.4286 27.029 51.2158 27.4094C50.8671 28.0335 50.6781 28.7269 50.2983 29.342C49.9184 29.957 49.6615 30.5958 49.2908 31.1981C48.9066 31.8434 48.4774 32.4612 48.0063 33.047C47.5696 33.5748 47.1567 34.1225 46.742 34.6666C46.1691 35.4209 45.5358 36.128 44.8482 36.7812C44.395 37.2107 43.9179 37.6147 43.4408 38.0168C43.2407 38.1842 43.0499 38.368 42.8352 38.5191C42.3636 38.8485 41.8938 39.1742 41.4186 39.4981C41.1085 39.7092 40.8002 39.9294 40.4735 40.115C39.7285 40.539 38.9853 40.9685 38.2164 41.3543C37.6329 41.6455 37.0457 41.9221 36.4401 42.1695C35.7153 42.4662 34.9721 42.7155 34.2381 42.9866C33.7455 43.1628 33.2423 43.3086 32.7316 43.4234C32.2196 43.5417 31.7039 43.6454 31.1956 43.7764C30.6451 43.9184 30.0855 43.9911 29.5294 44.0912C28.9425 44.1873 28.3508 44.2517 27.7568 44.2841C27.1274 44.3278 26.5016 44.3606 25.8704 44.3533C25.2392 44.346 24.5859 44.3533 23.9436 44.306C23.2355 44.2772 22.5309 44.1908 21.837 44.0476C21.4169 43.9772 21.001 43.8843 20.591 43.7691C20.1561 43.6145 19.6937 43.5453 19.2533 43.3961C18.6202 43.1795 17.989 42.9575 17.3559 42.7428C16.874 42.5524 16.4045 42.3324 15.9503 42.084C15.5539 41.8948 15.1685 41.6891 14.7703 41.4853ZM56.8383 25.2475C56.7079 25.4729 56.6185 25.7193 56.574 25.9754C56.3894 26.5305 56.1662 27.0722 55.9061 27.5968C55.8085 27.8485 55.6599 28.0777 55.4694 28.2701C55.177 28.5487 54.8387 28.7758 54.4693 28.9416C54.1423 29.1017 53.7775 29.1703 53.4141 29.14C52.9627 29.0799 52.5058 29.1199 52.0617 29.0144C52.0202 29.0065 51.9772 29.0116 51.9388 29.029C51.5241 29.1745 51.1882 29.3929 51.0873 29.857C50.9791 30.3428 50.757 30.8069 50.8084 31.3255C50.8129 31.4488 50.849 31.5689 50.9132 31.6746C50.9774 31.7803 51.0676 31.8681 51.1754 31.9297C51.6952 32.2036 52.2387 32.4308 52.7994 32.6085C53.1153 32.6935 53.4374 32.7544 53.7628 32.7904C53.8483 32.8127 53.9384 32.8104 54.0226 32.7836C54.1068 32.7569 54.1816 32.7068 54.2381 32.6394C54.456 32.3992 54.6366 32.1281 54.7739 31.835C55.0203 31.3068 55.2217 30.7589 55.3758 30.1972C55.6584 29.3147 55.9263 28.4266 56.2713 27.5659C56.4346 27.1655 56.5575 26.7488 56.708 26.3448C56.8508 25.9975 56.8959 25.6182 56.8383 25.2475ZM7.48895 44.0403H7.44675C7.43231 44.0716 7.42005 44.1038 7.41005 44.1367C7.29752 44.6258 7.25795 45.1285 7.2926 45.6289C7.31981 46.2469 7.38107 46.8629 7.47611 47.4742C7.544 47.951 7.55868 48.4278 7.58254 48.9064C7.58128 48.9558 7.57638 49.005 7.56786 49.0538C7.49079 49.7325 7.29627 50.3931 7.24856 51.0792C7.19604 51.5151 7.30069 51.9553 7.544 52.3221C7.97707 52.9244 8.64502 53.0809 9.32948 53.05C9.61118 53.0392 9.88608 52.9611 10.1308 52.8223C10.3755 52.6835 10.5828 52.4882 10.7351 52.2529C10.9641 51.9193 11.1094 51.5362 11.159 51.1356C11.2644 50.3713 11.1176 49.5938 10.7406 48.9191C10.5918 48.6764 10.3705 48.4857 10.1074 48.3735C9.84435 48.2614 9.55255 48.2332 9.2726 48.2931C9.07599 48.3532 8.86471 48.3461 8.67268 48.2728C8.48066 48.1996 8.31904 48.0644 8.21379 47.8891C7.98066 47.5696 7.82551 47.2008 7.76054 46.8118C7.67796 46.2659 7.64309 45.7363 7.61373 45.194C7.58988 44.8082 7.52382 44.4243 7.48895 44.0403ZM3.30326 53.1464C3.45024 53.1595 3.59768 53.1271 3.72531 53.0536C4.22077 52.7625 4.35473 52.2711 4.39693 51.7798C4.43213 51.2231 4.34962 50.6652 4.15471 50.142C3.92166 49.4778 3.67577 48.8099 3.17114 48.2804C3.00231 48.0984 2.80413 47.9164 2.56558 47.9164C2.36528 47.9103 2.16685 47.9561 1.98986 48.0493C1.81286 48.1425 1.66343 48.2798 1.55631 48.4478C1.24064 48.8919 1.03691 49.4045 0.962201 49.9428C0.88749 50.4811 0.943974 51.0292 1.12692 51.5414C1.26653 51.8722 1.46759 52.1741 1.71963 52.4313C1.90672 52.6673 2.14817 52.8555 2.42371 52.9799C2.69925 53.1043 3.00087 53.1614 3.30326 53.1464ZM1.62788 47.4706C1.83157 47.4032 1.99489 47.3541 2.1527 47.2886C2.20821 47.2732 2.25592 47.2378 2.28647 47.1893C2.31703 47.1408 2.32822 47.0828 2.31785 47.0265C2.26096 46.4315 2.4408 45.8637 2.52337 45.2832C2.56007 45.0339 2.71789 44.8137 2.70688 44.5316C1.83524 45.3378 1.84992 46.4278 1.62788 47.4706Z" fill="black"/>
<path d="M20.0642 34.0317C20.1229 33.6987 20.0642 33.2692 20.2073 32.8889C20.4514 32.2611 20.7028 31.6242 21.2368 31.1637C21.6893 30.7561 22.2604 30.5013 22.8681 30.4358C23.1782 30.4049 23.4884 30.3703 23.7985 30.3467C23.981 30.3336 24.1581 30.28 24.3169 30.1899C24.4757 30.0998 24.6121 29.9755 24.716 29.8262C25.1394 29.2085 25.6366 28.6439 26.1969 28.1447C26.7102 27.6916 27.3055 27.3391 27.9512 27.1057C28.2081 27.0183 28.4778 26.9965 28.731 26.9055C28.8136 26.8745 28.9292 26.8836 28.8577 26.7381C28.843 26.7053 28.8742 26.6725 28.9072 26.6525C29.1162 26.4833 29.3722 26.3811 29.6412 26.3595C29.9673 26.3306 30.296 26.3627 30.6101 26.4542C31.0862 26.6351 31.5508 26.8447 32.001 27.082C32.3927 27.3236 32.8355 27.4719 33.2947 27.5151C33.5124 27.5228 33.7291 27.4824 33.929 27.3968C34.129 27.3112 34.3072 27.1825 34.4508 27.0201C34.6582 26.8072 34.8619 26.5925 35.071 26.3814C35.4747 25.9838 36.0084 25.7425 36.5758 25.7008C36.9348 25.657 37.2992 25.6974 37.6396 25.8188C37.98 25.9401 38.2869 26.1391 38.5356 26.3996C39.089 26.9888 39.4141 27.7535 39.4531 28.5578C39.4867 28.8939 39.4312 29.2329 39.2922 29.5412C39.1532 29.8495 38.9354 30.1165 38.6604 30.3157C38.3878 30.5426 38.0927 30.7414 37.7795 30.909C37.4273 31.084 37.0585 31.2242 36.6785 31.3275C36.2252 31.4371 35.7637 31.5108 35.2986 31.5477C35.1565 31.5618 35.0204 31.6117 34.9032 31.6926C34.786 31.7735 34.6915 31.8827 34.6288 32.0099C34.315 32.5559 34.1829 33.171 33.8379 33.6932C33.5311 34.1837 33.1376 34.6152 32.6763 34.9671C32.3747 35.2016 32.0516 35.4076 31.7111 35.5822C31.3964 35.7555 31.0584 35.8835 30.7074 35.9625C30.6111 35.9849 30.5171 36.016 30.4266 36.0553C29.3736 36.3957 28.2402 36.404 27.1823 36.079C26.7109 35.8967 26.2518 35.6845 25.8078 35.4439C25.3619 35.2237 24.916 35.0672 24.4132 35.2455C24.3177 35.2708 24.2262 35.3094 24.1416 35.3601C23.8884 35.5421 23.6278 35.7132 23.3728 35.8915C22.9847 36.1892 22.521 36.3744 22.0332 36.4265C21.457 36.4666 21.0184 36.1936 20.6753 35.766C20.2897 35.2676 20.0755 34.6597 20.0642 34.0317ZM32.113 28.1247C32.6207 28.5493 33.0126 29.0938 33.2525 29.7079C33.3851 30.0846 33.4683 30.4767 33.5003 30.8744C33.5158 30.9727 33.5158 31.0728 33.5003 31.171C33.3058 32.1046 32.9498 32.958 32.2524 33.6477C31.9923 33.9164 31.6988 34.1512 31.379 34.3465C30.864 34.6552 30.3082 34.891 29.7275 35.0471C29.2701 35.1761 28.7952 35.2332 28.32 35.2164C27.9561 35.1942 27.6019 35.0916 27.2832 34.9161C26.8172 34.6563 26.428 34.2799 26.1547 33.8243C25.8811 33.431 25.6936 32.9853 25.6042 32.5158C25.4836 31.8119 25.5775 31.0883 25.8739 30.4377C26.2203 29.6727 26.8015 29.0358 27.5346 28.6179C27.9915 28.3413 28.5273 28.2139 28.9861 27.9336C28.9989 27.9272 29.0125 27.9224 29.0265 27.9191C29.3935 27.8445 29.7348 27.6934 30.1146 27.7044C30.3881 27.7044 30.6652 27.6534 30.9386 27.7335C31.0996 27.7831 31.2658 27.8143 31.434 27.8263C31.1056 27.5879 30.7147 27.4896 30.4046 27.2458C30.3421 27.2104 30.2709 27.1934 30.1991 27.1966C29.6176 27.173 29.0358 27.2343 28.4723 27.3786C27.9546 27.526 27.4653 27.7579 27.0245 28.0647C26.541 28.4122 26.1251 28.8438 25.7968 29.3385C25.4629 29.8189 25.1197 30.2884 24.5949 30.6014C24.18 30.8284 23.7162 30.9532 23.2425 30.9654C22.9167 30.9695 22.5924 31.0092 22.2754 31.0837C22.0266 31.1644 21.7975 31.2957 21.6028 31.4693C21.4082 31.6429 21.2522 31.855 21.145 32.0918C20.8024 32.7265 20.6598 33.4486 20.7358 34.1646C20.8074 34.6723 20.9193 35.14 21.3029 35.5148C21.4735 35.6619 21.6798 35.7624 21.9015 35.8064C22.1232 35.8504 22.3526 35.8365 22.5672 35.766C22.9442 35.6053 23.2944 35.3887 23.6058 35.1236C23.9224 34.8815 24.2796 34.6967 24.6609 34.5776C25.2573 34.3866 25.795 34.6231 26.3235 34.8852C26.7133 35.0862 27.1168 35.2601 27.5309 35.4056C28.1876 35.6227 28.8863 35.685 29.5715 35.5876C30.2763 35.5133 30.9609 35.309 31.59 34.9853C31.9245 34.8227 32.2335 34.6131 32.5075 34.3629C33.041 33.7885 33.4412 33.1053 33.6801 32.3612C33.915 31.7115 34.3058 31.2238 34.9903 30.9727C35.4656 30.7907 35.972 30.8325 36.4436 30.6797C36.451 30.6788 36.4584 30.6788 36.4657 30.6797C36.8543 30.6484 37.2307 30.5302 37.5667 30.3339C37.6915 30.2684 37.8162 30.1974 37.9337 30.121C38.264 29.9008 38.5796 29.6279 38.6255 29.2239C38.7167 28.5697 38.5773 27.9044 38.231 27.3404C37.8915 26.7945 37.4456 26.4014 36.7391 26.4523C36.6143 26.4614 36.4877 26.4614 36.3629 26.4651C36.1411 26.4651 35.9255 26.538 35.75 26.6725C35.4637 26.8982 35.2582 27.1948 34.9903 27.4405C34.5637 27.8247 34.0558 28.1094 33.5039 28.2739C33.451 28.2931 33.3952 28.3036 33.3388 28.3049C32.9186 28.3176 32.4928 28.3413 32.113 28.1247ZM26.3583 31.9644C26.3669 32.2107 26.4236 32.453 26.5253 32.6778C26.7194 33.2797 27.1401 33.7842 27.6997 34.0863C28.2778 34.412 28.9017 34.392 29.5183 34.2919C29.9117 34.2563 30.29 34.1244 30.6193 33.908C30.6424 33.8906 30.6685 33.8777 30.6963 33.8698C31.0907 33.7033 31.4338 33.4365 31.6909 33.0963C31.8416 32.9006 31.976 32.6931 32.0928 32.4758C32.4277 31.9191 32.5537 31.2631 32.4488 30.6233C32.4285 30.5128 32.4003 30.404 32.3644 30.2975C32.1956 29.7643 31.957 29.2657 31.4469 28.9673C30.8507 28.6254 30.1489 28.5121 29.4742 28.6488C29.1233 28.7041 28.7754 28.777 28.4319 28.8672C28.2741 28.909 28.1108 28.8162 27.9787 28.8872C27.7523 29.0027 27.541 29.1451 27.3493 29.3112C26.7544 29.8685 26.3906 30.6257 26.329 31.4349C26.3216 31.6117 26.329 31.7888 26.351 31.9644H26.3583Z" fill="black"/>
<path d="M29.9587 1.99621C30.7661 2.06354 31.5808 1.97984 32.3791 2.17819C32.7351 2.26918 33.1021 2.30739 33.4599 2.41294C33.6788 2.47384 33.8773 2.59193 34.0345 2.75486C34.1917 2.9178 34.3019 3.1196 34.3536 3.3392C34.4847 3.78196 34.5526 4.24076 34.5554 4.70222C34.5664 5.11895 34.6123 5.53386 34.605 5.94876C34.5915 6.55766 34.5425 7.16526 34.4582 7.76854C34.3848 8.31447 34.315 8.8604 34.2343 9.40633C34.1879 9.86766 34.0995 10.3239 33.97 10.7693C33.8709 11.0569 33.8508 11.3699 33.7517 11.6574C33.5058 12.3853 33.2984 13.1132 33.0305 13.8284C32.8201 14.3292 32.6363 14.8407 32.48 15.3606C32.3497 15.8629 32.0965 16.3197 31.9111 16.8019C31.5703 17.6049 31.1863 18.3891 30.7606 19.1512C30.4407 19.7968 30.025 20.3912 29.5274 20.9146C29.2103 21.2494 28.8418 21.5326 28.4356 21.7535C27.8943 22.0338 27.3181 22.1903 26.7162 22.0447C26.2334 21.9194 25.7717 21.7251 25.3454 21.4678C24.7799 21.1128 24.2447 20.7123 23.7453 20.2704C23.1357 19.7718 22.5526 19.2421 21.9983 18.6835C21.5873 18.2614 21.1909 17.8283 20.8166 17.3733C20.3187 16.7667 19.8293 16.1528 19.3486 15.5317C19.0788 15.1805 18.8329 14.8038 18.5999 14.4398C18.2919 13.9717 18.0242 13.4786 17.7998 12.9658C17.6658 12.6346 17.4842 12.3234 17.3576 11.9904C17.1925 11.6186 17.0694 11.2299 16.9906 10.8312C16.9704 10.7057 16.9061 10.5892 16.8804 10.4673C16.7429 9.904 16.7373 9.31698 16.8639 8.75122C17.0295 8.23066 17.3399 7.76703 17.7594 7.41368C18.0727 7.10947 18.4075 6.8279 18.7614 6.57112C19.2146 6.2472 19.6623 5.91601 20.1413 5.62666C20.4532 5.43558 20.756 5.22267 21.0716 5.03706C21.574 4.72199 22.0941 4.43582 22.6296 4.17994C22.9544 4.03618 23.2773 3.88696 23.6003 3.73773C24.1398 3.48842 24.7013 3.28097 25.2518 3.07352C25.6794 2.91156 26.1143 2.76234 26.5547 2.63677C27.1327 2.47299 27.7126 2.30921 28.3035 2.19821C28.8504 2.09629 29.4032 2.02883 29.9587 1.99621ZM27.5731 21.2622C28.0044 21.2986 28.2723 21.1075 28.643 20.7999C29.1825 20.3523 29.4926 19.7317 29.8669 19.1621C30.2413 18.5926 30.4174 17.992 30.7496 17.4297C31.0287 16.9052 31.2603 16.3571 31.4414 15.7919C31.7919 14.8384 32.1185 13.8739 32.4855 12.9258C32.6176 12.5855 32.6305 12.2106 32.7699 11.8794C32.9846 11.3699 33.0232 10.8221 33.1718 10.2998C33.2395 9.98968 33.286 9.67537 33.3113 9.35902C33.4177 8.61291 33.5278 7.8668 33.5994 7.11524C33.6676 6.60466 33.6743 6.08786 33.6196 5.57571C33.6162 5.51509 33.6162 5.45434 33.6196 5.39373C33.6196 4.64034 33.5975 3.88877 33.2269 3.19726C33.1921 3.13519 33.1774 3.06406 33.1846 2.99345C33.1975 2.90246 33.1608 2.89154 33.0856 2.87516C32.6528 2.79801 32.2128 2.76871 31.7735 2.78781C31.1221 2.79691 30.4688 2.76962 29.8174 2.80783C29.2239 2.83803 28.6333 2.9104 28.0503 3.02438C27.523 3.12894 27.0017 3.26137 26.4886 3.42109C25.9785 3.58669 25.4702 3.75775 24.9674 3.94337C24.305 4.18904 23.659 4.4893 23.0131 4.77319C22.3409 5.08995 21.6867 5.4429 21.0533 5.83047C20.6493 6.07146 20.258 6.33264 19.8807 6.61298C19.3434 6.98268 18.8286 7.38373 18.3393 7.81403C18.0984 8.03469 17.9133 8.30846 17.7988 8.61321C17.6844 8.91796 17.6439 9.24514 17.6805 9.56829C17.7224 10.0859 17.8335 10.5956 18.0108 11.0842C18.221 11.7064 18.4844 12.3097 18.7981 12.8876C18.9283 13.1223 19.066 13.3552 19.1779 13.5973C19.4446 14.1106 19.7591 14.598 20.1174 15.0531C20.3688 15.4025 20.6679 15.71 20.9359 16.0522C21.5032 16.8205 22.1342 17.5406 22.8223 18.2049C23.447 18.8223 24.103 19.4078 24.7876 19.9592C25.0004 20.123 25.2225 20.2722 25.4408 20.4287C25.8776 20.7117 26.3366 20.9594 26.8134 21.1694C27.0571 21.2562 27.3173 21.2879 27.575 21.2622H27.5731Z" fill="black"/>
<path d="M19.4954 39.7694C19.6617 39.7966 19.8265 39.8325 19.989 39.8767C20.2918 39.9804 20.6184 40.0114 20.923 40.106C21.4203 40.2607 21.9415 40.288 22.4461 40.4117C22.7066 40.4514 22.9698 40.4709 23.2333 40.47C23.8903 40.5173 24.55 40.5118 25.206 40.4536C25.738 40.4107 26.2673 40.339 26.7915 40.2389C27.3677 40.1224 27.9402 40.0059 28.5109 39.8749C29.0063 39.753 29.4963 39.6183 29.9789 39.4818C30.7386 39.2707 31.4781 39.0087 32.2158 38.7339C32.6745 38.5647 33.1186 38.3699 33.5737 38.188C34.2714 37.8914 34.9531 37.5592 35.6161 37.1925C36.4164 36.784 37.1954 36.3358 37.9502 35.8496C38.6145 35.4325 39.2502 34.9723 39.8532 34.472C40.5725 33.8624 41.2772 33.2418 41.9543 32.5867C42.6314 31.9316 43.2682 31.2765 43.8847 30.5849C44.4022 30.0026 44.9637 29.4567 45.472 28.8671C45.891 28.3764 46.2667 27.851 46.5951 27.2966C46.8811 26.8079 47.2057 26.3424 47.5658 25.9045C47.5951 25.8699 47.6135 25.7989 47.6759 25.8372C47.7383 25.8754 47.6759 25.9209 47.663 25.9609C47.3507 26.6074 46.992 27.2307 46.5895 27.8262C46.1767 28.4249 45.8133 29.0563 45.3509 29.6186C44.8298 30.2519 44.3435 30.9125 43.7251 31.4603C43.5458 31.6308 43.3784 31.8132 43.2241 32.0062C42.8318 32.461 42.4165 32.8959 41.98 33.3092C41.29 33.9697 40.5688 34.5994 39.8367 35.2126C39.354 35.6166 38.8347 35.9788 38.3173 36.3391C37.8076 36.687 37.2769 37.0037 36.7281 37.2872C36.1776 37.5783 35.6583 37.9114 35.1078 38.1971C34.5787 38.4707 34.034 38.7138 33.4765 38.925C33.2324 39.016 33.003 39.1415 32.7571 39.2362C32.3901 39.3781 32.0139 39.4836 31.6561 39.631C31.3071 39.7846 30.9447 39.9064 30.5734 39.995C30.289 40.0532 30.0229 40.1642 29.7367 40.248C29.2999 40.3772 28.8559 40.4809 28.4173 40.5937C28.0356 40.692 27.6429 40.7648 27.2594 40.8521C26.8759 40.9395 26.4336 41.005 26.0226 41.0596C25.4105 41.145 24.7927 41.1834 24.1747 41.1742C23.464 41.175 22.7549 41.1079 22.0571 40.974C21.6563 40.9159 21.2597 40.832 20.8698 40.7229C20.4423 40.5682 20.0184 40.4026 19.5853 40.2461C19.5079 40.2097 19.4382 40.1591 19.3798 40.0969C19.3119 40.0423 19.1963 39.9895 19.2293 39.8913C19.2624 39.793 19.389 39.7657 19.4954 39.7694Z" fill="black"/>
<path d="M40.0917 2.31845C40.5802 2.37266 41.0533 2.52103 41.4845 2.7552C42.0326 2.98963 42.5589 3.27158 43.0571 3.59775C43.6193 4.00755 44.1404 4.47009 44.6132 4.97896C44.7857 5.16094 44.9618 5.34292 45.1398 5.5249C45.6152 6.03898 46.0589 6.58104 46.4684 7.14814C46.6821 7.44002 46.8788 7.74381 47.0574 8.05802C47.3705 8.55884 47.6483 9.08054 47.8887 9.61939C47.9841 9.84504 48.1328 10.0452 48.2392 10.2691C48.4092 10.6257 48.567 10.9897 48.7126 11.3609C48.9533 11.923 49.1592 12.4991 49.3292 13.0861C49.4393 13.5082 49.5806 13.9232 49.665 14.3508C49.7274 14.6693 49.7512 14.995 49.7916 15.3171C49.8008 15.399 49.7916 15.4991 49.7072 15.5155C49.6228 15.5318 49.5898 15.4372 49.5677 15.3681C49.3475 14.6802 49.142 13.9869 48.909 13.3026C48.7879 12.9496 48.6172 12.6147 48.4722 12.269C48.2318 11.6976 47.9951 11.1243 47.7492 10.5548C47.6406 10.3091 47.5181 10.0697 47.3822 9.83777C47.0611 9.29183 46.806 8.69312 46.4409 8.15811C46.0372 7.56668 45.661 6.95706 45.1967 6.40385C44.6075 5.66787 43.9693 4.97177 43.2865 4.32021C42.9226 4.00432 42.5396 3.71079 42.1396 3.44126C41.5432 3.01361 40.8752 2.737 40.222 2.42582C40.1706 2.3967 40.1119 2.38214 40.0917 2.31845Z" fill="black"/>
<path d="M7.30889 22.3632C7.24876 22.9374 7.22485 23.5148 7.23733 24.092C7.25622 24.9309 7.3378 25.7672 7.48138 26.5941C7.60399 27.236 7.77826 27.867 8.00253 28.4813C8.17502 28.9762 8.40807 29.4421 8.60442 29.9243C8.82532 30.4729 9.09619 31.0004 9.41367 31.5003C9.86141 32.2009 10.3037 32.9051 10.8138 33.5693C11.3682 34.3264 11.9674 35.0502 12.6084 35.7367L13.7774 36.9377C13.8075 36.9675 13.8357 36.9991 13.8618 37.0324C13.8985 37.0833 13.9645 37.1325 13.9168 37.1998C13.8957 37.2267 13.8654 37.2451 13.8316 37.2514C13.7979 37.2578 13.7629 37.2517 13.7333 37.2344C13.4071 37.0798 13.0951 36.8972 12.8011 36.6884C12.3064 36.2635 11.8547 35.7918 11.4524 35.2799C10.937 34.6796 10.4631 34.0455 10.0339 33.3819C9.83022 33.0616 9.57698 32.7705 9.38247 32.4429C9.1219 32.0043 8.85765 31.5694 8.62644 31.1163C8.39523 30.6632 8.1897 30.2064 8.0062 29.7478C7.8227 29.2892 7.66122 28.7943 7.52175 28.3066C7.37285 27.8 7.25035 27.2861 7.15475 26.767C6.99138 25.8807 6.90543 24.982 6.89785 24.081C6.88623 23.5087 6.94289 22.9369 7.06667 22.3777C7.09603 22.2649 7.08869 22.092 7.25017 22.1139C7.41165 22.1357 7.27586 22.2867 7.30889 22.3632Z" fill="black"/>
<path d="M42.1323 26.7489C42.147 27.2566 41.8258 27.5095 41.5359 27.777C41.4698 27.8407 41.3836 27.8844 41.3175 27.9463C41.1181 28.1255 40.866 28.2364 40.5982 28.2629C40.1468 28.3321 39.7522 28.0191 39.5908 27.535C39.5407 27.3874 39.5069 27.2349 39.4898 27.0801C39.4854 26.883 39.551 26.6906 39.6751 26.5366C39.7992 26.3826 39.974 26.2767 40.1688 26.2375C40.2238 26.2375 40.3009 26.2375 40.3284 26.152C40.4532 25.788 40.8019 25.788 41.0808 25.768C41.2153 25.7619 41.3496 25.7826 41.4759 25.829C41.6021 25.8753 41.7177 25.9463 41.8158 26.0378C41.9139 26.1293 41.9924 26.2394 42.0468 26.3615C42.1011 26.4836 42.1302 26.6154 42.1323 26.7489ZM40.6459 27.7206C40.9744 27.7042 41.2863 27.4549 41.301 26.929C41.301 26.747 40.9835 26.576 40.6422 26.5833C40.2183 26.5942 40.0679 26.7452 40.0789 27.1547C40.0825 27.3694 40.433 27.7188 40.6459 27.7206Z" fill="black"/>
<path d="M49.9678 17.2004C49.9678 17.2678 49.9788 17.3442 49.988 17.4225C50.0416 17.9058 50.0569 18.3926 50.0339 18.8783C50.0299 19.5773 49.9593 20.2743 49.8229 20.9601C49.6761 21.6152 49.5568 22.2758 49.4173 22.9309C49.3421 23.2767 49.2338 23.6151 49.1623 23.9591C49.1367 24.0793 49.0722 24.1879 48.9788 24.2684C48.9527 24.298 48.9177 24.3184 48.879 24.3265C48.8403 24.3347 48.8 24.3303 48.7641 24.3139C48.7269 24.2919 48.6977 24.2586 48.6809 24.219C48.6641 24.1794 48.6604 24.1356 48.6705 24.0938C48.8228 23.3313 48.9604 22.5651 49.1329 21.8081C49.3039 21.1161 49.4265 20.4132 49.4999 19.7045C49.5605 19.0075 49.6063 18.3141 49.6063 17.6154C49.6181 17.4319 49.6426 17.2495 49.6797 17.0694C49.6962 16.953 49.744 16.8456 49.8761 16.8711C50.0082 16.8965 49.9807 17.0239 49.9862 17.1222C49.9838 17.149 49.9776 17.1753 49.9678 17.2004Z" fill="black"/>
<path d="M19.2256 33.8295C19.277 34.2845 18.9981 34.5884 18.631 34.8395C18.3503 35.0306 18.0457 35.1798 17.6989 35.0834C17.1483 34.9305 16.9116 34.0734 17.2841 33.5766C17.4429 33.3536 17.653 33.1715 17.897 33.0452C18.1049 32.9511 18.3392 32.9314 18.5601 32.9895C18.7809 33.0476 18.9746 33.1798 19.1082 33.3637C19.2017 33.4911 19.2164 33.5438 19.2256 33.8295ZM18.0879 34.5283C18.3521 34.5283 18.5063 34.3463 18.5063 34.0534C18.5063 33.7604 18.3228 33.6184 18.0126 33.6221C17.8291 33.6221 17.6255 33.7895 17.6255 33.9314C17.6255 34.3081 17.7998 34.5283 18.0879 34.5283Z" fill="black"/>
<path d="M17.3576 39.0959C17.1227 39.2288 16.9208 39.1269 16.7373 39.0413C16.4955 38.9231 16.2614 38.79 16.0363 38.6428C15.9556 38.5937 15.8327 38.5172 15.8767 38.4244C15.9207 38.3316 16.0602 38.3753 16.1428 38.4117C16.574 38.5809 17.0144 38.7356 17.3576 39.0959Z" fill="black"/>
<path d="M10.0064 50.4277C10.0087 50.5239 9.9902 50.6194 9.95222 50.7079C9.91424 50.7964 9.85764 50.8758 9.78619 50.9409C9.62995 51.143 9.41756 51.2954 9.17512 51.3794C9.13535 51.3959 9.09239 51.4034 9.04934 51.4013C9.0063 51.3992 8.96427 51.3876 8.92631 51.3674C8.88834 51.3472 8.8554 51.3188 8.82988 51.2844C8.80435 51.25 8.78689 51.2103 8.77876 51.1683C8.73105 51.041 8.83381 50.8972 9.0063 50.8517C9.20815 50.7971 9.29807 50.5988 9.20815 50.3058C9.11824 50.0128 8.99162 49.698 8.86868 49.3959C8.77451 49.2222 8.7361 49.0241 8.75857 48.8281C8.79344 48.6461 8.92556 48.577 9.0742 48.526C9.22283 48.4751 9.28706 48.5934 9.32743 48.6753C9.59168 49.2212 9.9073 49.7544 10.0046 50.3695C10.0095 50.3885 10.0101 50.4084 10.0064 50.4277Z" fill="black"/>
<path d="M7.96228 49.6763C8.04485 49.6599 8.06504 49.7291 8.09256 49.7709C8.19536 49.9056 8.28217 50.0515 8.3513 50.2059C8.41932 50.3761 8.52831 50.5273 8.66876 50.6462C8.81556 50.7827 8.82107 50.8828 8.66876 51.0211C8.4192 51.2358 8.39534 51.2413 8.19166 50.9811C7.9934 50.705 7.83066 50.4054 7.70721 50.0894C7.69075 50.0457 7.68454 49.9988 7.68905 49.9523C7.69357 49.9059 7.70869 49.861 7.73327 49.8212C7.75785 49.7814 7.79124 49.7477 7.83092 49.7226C7.8706 49.6975 7.91552 49.6816 7.96228 49.6763Z" fill="black"/>
<path d="M4.0573 52.1129C3.95638 52.2494 3.95271 52.4641 3.727 52.5114C3.67924 52.5255 3.63262 52.5432 3.58754 52.5642C3.31962 52.6661 3.16181 52.597 3.06455 52.3422C3.01317 52.2075 3.15814 52.1475 3.17465 52.0328C3.19117 51.9182 3.54166 51.7399 3.66461 51.749C3.84811 51.7617 3.93068 51.9 4.03161 52.0183C4.04813 52.0365 4.04629 52.0711 4.0573 52.1129Z" fill="black"/>
<path d="M2.15625 49.6543C2.15625 49.4214 2.49022 49.1593 2.78199 49.1884C2.93797 49.2048 3.00403 49.3577 3.02605 49.4923C3.04807 49.627 2.65905 49.98 2.44802 49.9873C2.38563 49.9964 2.15625 49.7344 2.15625 49.6543Z" fill="black"/>
<path d="M2.92146 50.5844C3.10497 50.7463 3.04074 50.9174 2.93247 51.083C2.8661 51.1528 2.78378 51.2058 2.69245 51.2374C2.60111 51.2691 2.50344 51.2786 2.40766 51.265C2.34563 51.2262 2.29718 51.1694 2.26893 51.1023C2.24069 51.0352 2.23402 50.9611 2.24985 50.8901C2.28983 50.7616 2.37859 50.6535 2.49738 50.5887C2.61618 50.5238 2.75573 50.5073 2.8866 50.5425L2.92146 50.5844Z" fill="black"/>
<path d="M2.9214 50.5842L2.88654 50.546C2.82048 50.3003 3.19849 49.8581 3.43704 49.9218C3.54531 49.9509 3.59302 50.0874 3.63339 50.1766C3.64662 50.2349 3.64178 50.2958 3.61952 50.3513C3.59725 50.4068 3.5586 50.4544 3.50861 50.4877C3.43415 50.5642 3.33685 50.6149 3.23109 50.6323C3.12533 50.6496 3.01675 50.6328 2.9214 50.5842Z" fill="black"/>
<path d="M36.2766 27.7262C36.4088 27.7935 36.5647 27.6971 36.7262 27.7116C37.24 27.7608 37.8272 28.2958 37.9025 28.8035C37.9157 28.9729 37.8895 29.1431 37.8259 29.3009C37.7623 29.4586 37.6629 29.5998 37.5355 29.7134C37.3291 29.9232 37.0884 30.0967 36.8235 30.2266C36.6393 30.3346 36.4297 30.3926 36.2157 30.3945C36.0018 30.3964 35.7911 30.3422 35.605 30.2375C35.3895 30.1119 35.214 29.9288 35.0985 29.709C34.983 29.4892 34.9321 29.2417 34.9518 28.9946C34.9719 28.5251 35.1609 28.0956 35.627 27.8754C35.83 27.7792 36.0517 27.7283 36.2766 27.7262ZM35.6234 28.8872C35.6325 28.9673 35.6491 29.0692 35.6582 29.1638C35.6702 29.2832 35.7123 29.3976 35.7806 29.4967C35.8489 29.5957 35.9412 29.6761 36.049 29.7305C36.1568 29.7848 36.2767 29.8114 36.3976 29.8078C36.5185 29.8042 36.6366 29.7705 36.7409 29.7097C37.0363 29.5278 37.0896 29.2694 37.0382 28.9545C36.9941 28.687 36.7776 28.6033 36.5739 28.516C36.4306 28.4795 36.3055 28.3929 36.2216 28.2721C36.2031 28.2348 36.1747 28.2032 36.1396 28.1805C36.1045 28.1578 36.0638 28.1449 36.0219 28.1433C35.98 28.1416 35.9384 28.1512 35.9015 28.1709C35.8647 28.1907 35.8339 28.22 35.8124 28.2557C35.6763 28.4376 35.6094 28.6612 35.6234 28.8872Z" fill="black"/>
<path d="M21.2387 33.3001C21.257 32.6759 21.758 32.2865 22.2479 32.0736C22.2731 32.0606 22.3018 32.0563 22.3297 32.0612C22.3576 32.0662 22.383 32.0801 22.4021 32.1009C22.514 32.2173 22.6241 32.1882 22.7691 32.1336C23.3196 31.9134 24.072 32.3939 24.072 32.978C24.0841 33.2315 24.0255 33.4834 23.9024 33.706C23.7794 33.9285 23.5967 34.113 23.3746 34.2391C23.1271 34.3971 22.853 34.5099 22.5654 34.5721C21.8919 34.7068 21.4534 34.3374 21.2992 33.6622C21.2583 33.5459 21.2378 33.4234 21.2387 33.3001ZM22.3635 32.3902C22.1446 32.5621 21.9913 32.8028 21.9286 33.0726C21.8406 33.4912 22.0791 33.9989 22.6883 33.9079C23.0553 33.8533 23.2389 33.655 23.2077 33.2856C23.1765 32.9161 23.2077 32.8306 22.6865 32.7924C22.651 32.7892 22.616 32.7825 22.5819 32.7724C22.542 32.7617 22.5046 32.7432 22.4719 32.718C22.4393 32.6928 22.412 32.6615 22.3917 32.6257C22.3714 32.59 22.3584 32.5506 22.3536 32.5099C22.3487 32.4691 22.3521 32.4278 22.3635 32.3884V32.3902Z" fill="black"/>
<path d="M31.012 31.3401C30.9643 31.735 30.7037 32.068 30.3825 32.3701C30.322 32.4265 30.2523 32.4775 30.1862 32.5303C29.6779 32.9379 29.1237 33.2472 28.4393 33.1271C27.9126 33.0343 27.474 32.4575 27.4465 31.9224C27.4208 31.7127 27.4208 31.5007 27.4465 31.291C27.5484 30.8692 27.7877 30.4925 28.1273 30.2191C28.3251 30.0452 28.5645 29.9243 28.8228 29.8679C28.8635 29.8539 28.9072 29.8509 28.9495 29.8592C28.9917 29.8675 29.031 29.8869 29.0632 29.9152C29.1788 30.0517 29.3109 30.0299 29.4632 30.008C30.0486 29.9171 30.4871 30.1791 30.823 30.6195C30.9633 30.8329 31.0296 31.0859 31.012 31.3401ZM28.1952 31.4511C28.2741 31.7186 28.2429 32.0553 28.5622 32.2355C28.7897 32.361 29.0265 32.3101 29.2632 32.2718C29.4723 32.2145 29.6591 32.0959 29.7992 31.9316C29.9393 31.7674 30.0262 31.565 30.0486 31.351C30.0543 31.2585 30.0272 31.1668 29.9719 31.092C29.9166 31.0172 29.8366 30.964 29.7458 30.9416C29.5479 30.8914 29.3445 30.8663 29.1402 30.867C28.9365 30.8488 28.6705 31.0162 28.5273 30.7196C28.5016 30.6668 28.4466 30.6868 28.4282 30.7305C28.3144 30.9574 28.237 31.2005 28.1989 31.4511H28.1952Z" fill="black"/>
<path d="M30.445 4.54587C30.9221 4.64596 31.346 4.85342 31.5992 5.33384C31.9093 5.91981 31.9277 6.56219 31.9901 7.19729C32.0585 7.63134 32.0195 8.0754 31.8763 8.49115C31.7093 8.90242 31.346 9.15173 30.9973 9.40103C30.5514 9.72859 30.0321 9.89601 29.5183 10.078C29.0448 10.2454 28.5512 10.3328 28.0704 10.4692C27.4098 10.6512 26.7364 10.7859 26.0758 10.9697C25.5656 11.1098 25.0555 11.2627 24.5399 11.381C23.9637 11.5191 23.3992 11.7016 22.8516 11.9269C22.4846 12.0706 22.1176 12.1744 21.7635 12.3418C21.58 12.4215 21.3836 12.4677 21.1836 12.4783C21.0953 12.4864 21.0063 12.4742 20.9236 12.4426C20.8408 12.4111 20.7665 12.361 20.7065 12.2963C20.1285 11.7613 19.9358 11.0479 19.8385 10.3182C19.7743 9.8162 19.7503 9.30992 19.767 8.80415C19.7606 8.64959 19.814 8.49847 19.9164 8.38174C20.0188 8.26502 20.1622 8.19153 20.3175 8.17633C20.3432 8.17633 20.3909 8.19452 20.3872 8.15813C20.3487 7.80509 20.6771 7.79417 20.8661 7.69045C21.2717 7.47753 21.7047 7.31739 22.1323 7.14451C22.692 6.91886 23.2755 6.75144 23.8426 6.54399C24.2554 6.39295 24.672 6.25101 25.0885 6.1127C25.6537 5.93072 26.2116 5.71053 26.7933 5.56677C27.175 5.47032 27.5365 5.29744 27.9126 5.1737C28.7323 4.8772 29.581 4.66678 30.445 4.54587ZM20.4734 8.2382C20.5369 8.34467 20.5745 8.46426 20.5835 8.58759C20.5347 9.3459 20.6084 10.1071 20.8019 10.8423C20.8429 11.1106 20.9579 11.3625 21.1341 11.5702C21.179 11.6336 21.2417 11.6826 21.3145 11.7111C21.3872 11.7395 21.4667 11.7462 21.5433 11.7303C21.885 11.6328 22.2192 11.5112 22.5434 11.3664C23.0418 11.1485 23.5535 10.9619 24.0756 10.8077C24.494 10.6985 24.9032 10.5548 25.3216 10.4438C26.0281 10.2618 26.7382 10.0962 27.4447 9.92149C27.5382 9.88658 27.6338 9.85741 27.731 9.83414C28.3426 9.73026 28.9465 9.58556 29.5385 9.40103C29.9702 9.27689 30.3804 9.08853 30.7551 8.84236C30.8741 8.77596 30.9772 8.68481 31.0573 8.57519C31.1374 8.46557 31.1927 8.34006 31.2194 8.20726C31.26 7.9372 31.263 7.6629 31.2285 7.392C31.1625 6.89521 31.1937 6.38021 30.9331 5.90889C30.7643 5.59953 30.3716 5.29562 30.0303 5.33565C29.4568 5.4122 28.8905 5.5339 28.3365 5.69961C27.9163 5.81608 27.5126 5.97986 27.0887 6.08904C26.5639 6.22553 26.0446 6.38385 25.5271 6.54581C25.0096 6.70777 24.5087 6.87519 24.0077 7.06263C23.6113 7.21003 23.2021 7.31739 22.8039 7.46298C22.4057 7.60856 21.9451 7.7505 21.5194 7.89426C21.1826 8.04156 20.8323 8.15673 20.4734 8.2382Z" fill="black"/>
<path d="M32.8139 4.0363C32.9461 4.55312 32.9039 5.07357 32.9057 5.58857C32.9063 6.35141 32.8591 7.11354 32.7644 7.87057C32.6745 8.62759 32.568 9.38462 32.4212 10.1325C32.2634 10.908 32.0311 11.6666 31.7276 12.3982C31.478 13.0151 31.2395 13.6338 31.0266 14.2653C30.8761 14.7129 30.7385 15.1751 30.5734 15.6101C30.3906 16.1525 30.1711 16.682 29.9164 17.1951C29.5751 17.8229 29.1971 18.458 28.575 18.8602C28.0267 19.2228 27.3682 19.385 26.7125 19.3188C26.2912 19.306 25.8827 19.1727 25.5362 18.9348C25.3331 18.759 25.1574 18.5541 25.0151 18.327C24.9978 18.3085 24.9859 18.2857 24.9807 18.261C24.9755 18.2363 24.9773 18.2107 24.9857 18.1869C25.0206 18.1232 25.0958 18.1487 25.1399 18.1632C25.2621 18.2009 25.3802 18.2509 25.4922 18.3124C26.0881 18.6803 26.7871 18.8493 27.4869 18.7947C27.8662 18.7765 28.2272 18.6271 28.5071 18.3725C28.8749 17.9979 29.1697 17.5593 29.3769 17.0786C29.5164 16.7711 29.7054 16.4854 29.8265 16.1687C29.977 15.7666 30.1403 15.3662 30.2944 14.9659C30.4908 14.4582 30.6523 13.9395 30.8798 13.4427C31.0523 13.0642 31.1532 12.6493 31.3459 12.2835C31.6267 11.7503 31.7588 11.1698 31.968 10.6166C32.0818 10.3163 32.0707 9.97059 32.1643 9.66123C32.3038 9.20083 32.2799 8.71312 32.4249 8.25454C32.4516 8.10801 32.4651 7.95942 32.4653 7.81051C32.5154 7.34101 32.5619 6.8709 32.6047 6.40019C32.6708 5.71231 32.713 5.02444 32.7222 4.33474C32.7372 4.23119 32.7681 4.13055 32.8139 4.0363Z" fill="black"/>
<path d="M17.9833 9.61577C18.1117 9.91058 18.2861 10.1854 18.4108 10.4783C18.5356 10.7713 18.7008 11.0243 18.8476 11.2991C19.1396 11.8073 19.4638 12.2965 19.8183 12.764C20.3015 13.424 20.7982 14.073 21.3083 14.7111C21.5487 15.0059 21.8313 15.2662 22.0827 15.5537C22.5488 16.0869 23.059 16.58 23.5507 17.0914C23.6074 17.1355 23.6441 17.2001 23.6531 17.2709C23.662 17.3418 23.6424 17.4133 23.5985 17.4699C23.4884 17.6228 23.3489 17.5809 23.2204 17.5027C23.0506 17.3989 22.8988 17.2687 22.7709 17.1169C22.5562 16.8639 22.3103 16.6365 22.0846 16.389C21.6992 15.9704 21.301 15.5646 20.9468 15.1151C20.545 14.6147 20.1743 14.087 19.8055 13.561C19.3633 12.9159 18.9648 12.2423 18.6127 11.5447C18.3772 11.0975 18.1789 10.6319 18.02 10.1526C17.976 9.97662 17.9441 9.79787 17.9246 9.61759L17.9833 9.61577Z" fill="black"/>
</g>
<defs>
<clipPath id="clip0_129_182">
<rect width="54" height="62" fill="white" transform="matrix(0 -1 1 0 0 54)"/>
</clipPath>
</defs>
</svg>
