<?xml version="1.0" encoding="UTF-8"?>
<svg id="Layer_2" xmlns="http://www.w3.org/2000/svg" viewBox="0 0 164.99 207.61">
  <g id="Layer_1-2" data-name="Layer_1">
    <path d="M163.66,20.24c1.69-3.49,1.78-7.5.24-10.44-.73-1.14-8.86-5.86-10.61-6.14-2.29-.38-4.28.03-6.2.43-1.46.3-2.97.6-4.56.57-2.12-.05-4.56-.75-7.15-1.5-2.09-.6-4.25-1.23-6.1-1.42C98.48-1.54,69.28.21,34.92,3.85c-2.95.77-6.47,4.72-9.31,7.9-1.05,1.18-2.05,2.3-2.9,3.11-1.33,1.27-2.69,2.54-4.05,3.81C11.37,25.47,3.82,32.5,0,41.81v1.51c4.41,6.67,11.29,5.8,18.59,4.88,2.27-.29,4.62-.58,6.86-.62,4.92-.08,9.92-.03,14.75.02,4.86.05,9.88.1,14.79.02l1.07-.02-.06,1.07c-.11,2.05-.3,4.06-.49,6.01-.26,2.75-.54,5.59-.56,8.5-.16,19.26,1.53,39.01,3.16,58.1,1.93,22.6,3.93,45.97,2.93,68.94-.05,1.25-.61,2.24-1.05,3.03-.3.53-.58,1.04-.55,1.37.23,2.77,1.75,4.33,3.36,5.98.54.55,1.1,1.13,1.61,1.74.51.63.87,1.27,1.21,1.89.16.3.33.59.51.88.97,1.55,2.73,2.51,4.6,2.51h1.79c.81,0,1.61-.18,2.37-.54,2.38-1.13,4.86-2.2,7.25-3.23,3.65-1.57,7.42-3.19,10.91-5.08,1.55-.84,3.02-2.02,4.45-3.16,1.17-.94,2.39-1.92,3.63-2.68,1.44-.89,3.03-1.61,4.57-2.3,4.43-2,8.61-3.89,9.32-9.51-.64-10.66-.08-21.49.45-31.96.49-9.54.99-19.4.58-29.04-.12-2.72-.58-5.72-1.03-8.62-.43-2.79-.88-5.68-1.01-8.33-.49-9.52.23-19.45.92-29.05.58-8.09,1.19-16.45,1.06-24.48v-.42s.29-.3.29-.3c1.06-1.06,4.06-.8,11.19.1,3.13.4,6.69.85,7.81.63.75-.25,8.92-4.3,9.65-4.8,1.72-1.33,17.48-22.03,18.72-24.6ZM93.05,173.29c-.41,3.24-2.95,4.44-5.42,5.6-1.41.66-2.86,1.34-3.91,2.42l-1.2,1.22-.48-1.65c-1.82-6.32-1.84-12.83-1.87-19.12,0-2.51-.02-5.11-.14-7.65-.52-10.61-.31-22.23-.1-33.47.29-15.55.59-31.62-1.06-45.3-.15-1.26-.92-4.72-1.8-8.72-3.41-15.42-3.67-17.85-2.8-18.73l.29-.29h14.36s.07.92.07.92c.36,5.09.68,10.19,1,15.29.32,5.07.64,10.14,1,15.2.76,10.83.51,19.25.25,28.16-.13,4.38-.26,8.91-.29,13.97-.03,6.44.61,13.41,1.28,20.79.98,10.73,2,21.83.81,31.34ZM134.85,34.18l-.99-.82c-5.6-4.63-14.01-4.25-22.14-3.87-2.92.13-5.67.26-8.3.16-1.26-.05-2.45-.31-3.59-.56-1.14-.25-2.21-.49-3.31-.52-25.87-.7-49.23-.04-71.42,2.03l-3.41.32,15.57-12.11.27-.03c20.55-2.52,41.86-1.18,62.47.12,4.18.26,8.36.53,12.51.76.78.04,2.41.03,4.47.01,14.79-.13,22.42.34,23,3.27l.06.33-5.2,10.92Z"/>
  </g>
</svg>