<?xml version="1.0" encoding="UTF-8"?><svg id="Layer_2" xmlns="http://www.w3.org/2000/svg" viewBox="0 0 54.11 54.26"><defs><style>.cls-1{fill:#010e16;}</style></defs><g id="Layer_1-2"><path class="cls-1" d="M54.11,44.02c0,2.14-.59,3.83-1.76,5.08s-2.7,1.88-4.57,1.88c-.68,0-1.41-.08-2.19-.23-4.48-1.15-9.9-6.72-16.26-16.73-9.28,8.08-17.2,14.36-23.77,18.84-1.36.94-2.58,1.41-3.67,1.41-1.25,0-1.88-.57-1.88-1.72s.7-2.63,2.11-4.46c3.54-4.48,10.68-12.43,21.42-23.85-2.97-5.11-5.13-8.24-6.49-9.38-1.67-1.35-3.21-2.03-4.61-2.03-.52,0-1.08.13-1.68.39-.6.26-1.03.39-1.29.39-.73,0-1.04-.65-.94-1.96.16-2.24,1.21-4.48,3.17-6.72s4.03-3.36,6.22-3.36c1.56,0,3.18.7,4.85,2.11,1.04.83,2.55,2.84,4.54,6.02,1.36,2.14,2.68,4.27,3.99,6.41,3.91-4.12,5.86-7.17,5.86-9.15,0-.78-.29-1.41-.86-1.88-.05-.05-.44-.29-1.17-.7-.42-.21-.63-.44-.63-.7,0-.42.65-1.02,1.96-1.8,1.98-1.25,4.07-1.88,6.25-1.88,2.92,0,4.87,1.28,5.86,3.83.52,1.46.78,2.92.78,4.38,0,3.02-1.3,6.44-3.91,10.24-.99,1.41-3.65,4.12-7.98,8.13,1.51,2.45,2.87,4.43,4.07,5.94,3.44,4.38,5.97,6.57,7.58,6.57.47,0,1.03-.3,1.68-.9.65-.6,1.06-.9,1.21-.9.36,0,.7.44,1.02,1.33.73,1.93,1.09,3.73,1.09,5.4Z"/></g></svg>